<?xml version="1.0" encoding="utf-8" standalone="no"?>
<!DOCTYPE svg PUBLIC "-//W3C//DTD SVG 1.1//EN"
  "http://www.w3.org/Graphics/SVG/1.1/DTD/svg11.dtd">
<!-- Created with matplotlib (https://matplotlib.org/) -->
<svg height="720pt" version="1.1" viewBox="0 0 1440 720" width="1440pt" xmlns="http://www.w3.org/2000/svg" xmlns:xlink="http://www.w3.org/1999/xlink">
 <defs>
  <style type="text/css">
*{stroke-linecap:butt;stroke-linejoin:round;}
  </style>
 </defs>
 <g id="figure_1">
  <g id="patch_1">
   <path d="M 0 720 
L 1440 720 
L 1440 0 
L 0 0 
z
" style="fill:#ffffff;"/>
  </g>
  <g id="axes_1">
   <g id="patch_2">
    <path d="M 180 333.490909 
L 1296 333.490909 
L 1296 86.4 
L 180 86.4 
z
" style="fill:#ffffff;"/>
   </g>
   <g id="matplotlib.axis_1">
    <g id="xtick_1">
     <g id="line2d_1">
      <defs>
       <path d="M 0 0 
L 0 3.5 
" id="m0bc24f5d88" style="stroke:#000000;stroke-width:0.8;"/>
      </defs>
      <g>
       <use style="stroke:#000000;stroke-width:0.8;" x="230.727273" xlink:href="#m0bc24f5d88" y="333.490909"/>
      </g>
     </g>
     <g id="text_1">
      <!-- 0 -->
      <defs>
       <path d="M 31.78125 66.40625 
Q 24.171875 66.40625 20.328125 58.90625 
Q 16.5 51.421875 16.5 36.375 
Q 16.5 21.390625 20.328125 13.890625 
Q 24.171875 6.390625 31.78125 6.390625 
Q 39.453125 6.390625 43.28125 13.890625 
Q 47.125 21.390625 47.125 36.375 
Q 47.125 51.421875 43.28125 58.90625 
Q 39.453125 66.40625 31.78125 66.40625 
z
M 31.78125 74.21875 
Q 44.046875 74.21875 50.515625 64.515625 
Q 56.984375 54.828125 56.984375 36.375 
Q 56.984375 17.96875 50.515625 8.265625 
Q 44.046875 -1.421875 31.78125 -1.421875 
Q 19.53125 -1.421875 13.0625 8.265625 
Q 6.59375 17.96875 6.59375 36.375 
Q 6.59375 54.828125 13.0625 64.515625 
Q 19.53125 74.21875 31.78125 74.21875 
z
" id="DejaVuSans-48"/>
      </defs>
      <g transform="translate(227.546023 348.089347)scale(0.1 -0.1)">
       <use xlink:href="#DejaVuSans-48"/>
      </g>
     </g>
    </g>
    <g id="xtick_2">
     <g id="line2d_2">
      <g>
       <use style="stroke:#000000;stroke-width:0.8;" x="370.087912" xlink:href="#m0bc24f5d88" y="333.490909"/>
      </g>
     </g>
     <g id="text_2">
      <!-- 25 -->
      <defs>
       <path d="M 19.1875 8.296875 
L 53.609375 8.296875 
L 53.609375 0 
L 7.328125 0 
L 7.328125 8.296875 
Q 12.9375 14.109375 22.625 23.890625 
Q 32.328125 33.6875 34.8125 36.53125 
Q 39.546875 41.84375 41.421875 45.53125 
Q 43.3125 49.21875 43.3125 52.78125 
Q 43.3125 58.59375 39.234375 62.25 
Q 35.15625 65.921875 28.609375 65.921875 
Q 23.96875 65.921875 18.8125 64.3125 
Q 13.671875 62.703125 7.8125 59.421875 
L 7.8125 69.390625 
Q 13.765625 71.78125 18.9375 73 
Q 24.125 74.21875 28.421875 74.21875 
Q 39.75 74.21875 46.484375 68.546875 
Q 53.21875 62.890625 53.21875 53.421875 
Q 53.21875 48.921875 51.53125 44.890625 
Q 49.859375 40.875 45.40625 35.40625 
Q 44.1875 33.984375 37.640625 27.21875 
Q 31.109375 20.453125 19.1875 8.296875 
z
" id="DejaVuSans-50"/>
       <path d="M 10.796875 72.90625 
L 49.515625 72.90625 
L 49.515625 64.59375 
L 19.828125 64.59375 
L 19.828125 46.734375 
Q 21.96875 47.46875 24.109375 47.828125 
Q 26.265625 48.1875 28.421875 48.1875 
Q 40.625 48.1875 47.75 41.5 
Q 54.890625 34.8125 54.890625 23.390625 
Q 54.890625 11.625 47.5625 5.09375 
Q 40.234375 -1.421875 26.90625 -1.421875 
Q 22.3125 -1.421875 17.546875 -0.640625 
Q 12.796875 0.140625 7.71875 1.703125 
L 7.71875 11.625 
Q 12.109375 9.234375 16.796875 8.0625 
Q 21.484375 6.890625 26.703125 6.890625 
Q 35.15625 6.890625 40.078125 11.328125 
Q 45.015625 15.765625 45.015625 23.390625 
Q 45.015625 31 40.078125 35.4375 
Q 35.15625 39.890625 26.703125 39.890625 
Q 22.75 39.890625 18.8125 39.015625 
Q 14.890625 38.140625 10.796875 36.28125 
z
" id="DejaVuSans-53"/>
      </defs>
      <g transform="translate(363.725412 348.089347)scale(0.1 -0.1)">
       <use xlink:href="#DejaVuSans-50"/>
       <use x="63.623047" xlink:href="#DejaVuSans-53"/>
      </g>
     </g>
    </g>
    <g id="xtick_3">
     <g id="line2d_3">
      <g>
       <use style="stroke:#000000;stroke-width:0.8;" x="509.448551" xlink:href="#m0bc24f5d88" y="333.490909"/>
      </g>
     </g>
     <g id="text_3">
      <!-- 50 -->
      <g transform="translate(503.086051 348.089347)scale(0.1 -0.1)">
       <use xlink:href="#DejaVuSans-53"/>
       <use x="63.623047" xlink:href="#DejaVuSans-48"/>
      </g>
     </g>
    </g>
    <g id="xtick_4">
     <g id="line2d_4">
      <g>
       <use style="stroke:#000000;stroke-width:0.8;" x="648.809191" xlink:href="#m0bc24f5d88" y="333.490909"/>
      </g>
     </g>
     <g id="text_4">
      <!-- 75 -->
      <defs>
       <path d="M 8.203125 72.90625 
L 55.078125 72.90625 
L 55.078125 68.703125 
L 28.609375 0 
L 18.3125 0 
L 43.21875 64.59375 
L 8.203125 64.59375 
z
" id="DejaVuSans-55"/>
      </defs>
      <g transform="translate(642.446691 348.089347)scale(0.1 -0.1)">
       <use xlink:href="#DejaVuSans-55"/>
       <use x="63.623047" xlink:href="#DejaVuSans-53"/>
      </g>
     </g>
    </g>
    <g id="xtick_5">
     <g id="line2d_5">
      <g>
       <use style="stroke:#000000;stroke-width:0.8;" x="788.16983" xlink:href="#m0bc24f5d88" y="333.490909"/>
      </g>
     </g>
     <g id="text_5">
      <!-- 100 -->
      <defs>
       <path d="M 12.40625 8.296875 
L 28.515625 8.296875 
L 28.515625 63.921875 
L 10.984375 60.40625 
L 10.984375 69.390625 
L 28.421875 72.90625 
L 38.28125 72.90625 
L 38.28125 8.296875 
L 54.390625 8.296875 
L 54.390625 0 
L 12.40625 0 
z
" id="DejaVuSans-49"/>
      </defs>
      <g transform="translate(778.62608 348.089347)scale(0.1 -0.1)">
       <use xlink:href="#DejaVuSans-49"/>
       <use x="63.623047" xlink:href="#DejaVuSans-48"/>
       <use x="127.246094" xlink:href="#DejaVuSans-48"/>
      </g>
     </g>
    </g>
    <g id="xtick_6">
     <g id="line2d_6">
      <g>
       <use style="stroke:#000000;stroke-width:0.8;" x="927.53047" xlink:href="#m0bc24f5d88" y="333.490909"/>
      </g>
     </g>
     <g id="text_6">
      <!-- 125 -->
      <g transform="translate(917.98672 348.089347)scale(0.1 -0.1)">
       <use xlink:href="#DejaVuSans-49"/>
       <use x="63.623047" xlink:href="#DejaVuSans-50"/>
       <use x="127.246094" xlink:href="#DejaVuSans-53"/>
      </g>
     </g>
    </g>
    <g id="xtick_7">
     <g id="line2d_7">
      <g>
       <use style="stroke:#000000;stroke-width:0.8;" x="1066.891109" xlink:href="#m0bc24f5d88" y="333.490909"/>
      </g>
     </g>
     <g id="text_7">
      <!-- 150 -->
      <g transform="translate(1057.347359 348.089347)scale(0.1 -0.1)">
       <use xlink:href="#DejaVuSans-49"/>
       <use x="63.623047" xlink:href="#DejaVuSans-53"/>
       <use x="127.246094" xlink:href="#DejaVuSans-48"/>
      </g>
     </g>
    </g>
    <g id="xtick_8">
     <g id="line2d_8">
      <g>
       <use style="stroke:#000000;stroke-width:0.8;" x="1206.251748" xlink:href="#m0bc24f5d88" y="333.490909"/>
      </g>
     </g>
     <g id="text_8">
      <!-- 175 -->
      <g transform="translate(1196.707998 348.089347)scale(0.1 -0.1)">
       <use xlink:href="#DejaVuSans-49"/>
       <use x="63.623047" xlink:href="#DejaVuSans-55"/>
       <use x="127.246094" xlink:href="#DejaVuSans-53"/>
      </g>
     </g>
    </g>
   </g>
   <g id="matplotlib.axis_2">
    <g id="ytick_1">
     <g id="line2d_9">
      <defs>
       <path d="M 0 0 
L -3.5 0 
" id="m14a08101f4" style="stroke:#000000;stroke-width:0.8;"/>
      </defs>
      <g>
       <use style="stroke:#000000;stroke-width:0.8;" x="180" xlink:href="#m14a08101f4" y="317.730063"/>
      </g>
     </g>
     <g id="text_9">
      <!-- 0.48 -->
      <defs>
       <path d="M 10.6875 12.40625 
L 21 12.40625 
L 21 0 
L 10.6875 0 
z
" id="DejaVuSans-46"/>
       <path d="M 37.796875 64.3125 
L 12.890625 25.390625 
L 37.796875 25.390625 
z
M 35.203125 72.90625 
L 47.609375 72.90625 
L 47.609375 25.390625 
L 58.015625 25.390625 
L 58.015625 17.1875 
L 47.609375 17.1875 
L 47.609375 0 
L 37.796875 0 
L 37.796875 17.1875 
L 4.890625 17.1875 
L 4.890625 26.703125 
z
" id="DejaVuSans-52"/>
       <path d="M 31.78125 34.625 
Q 24.75 34.625 20.71875 30.859375 
Q 16.703125 27.09375 16.703125 20.515625 
Q 16.703125 13.921875 20.71875 10.15625 
Q 24.75 6.390625 31.78125 6.390625 
Q 38.8125 6.390625 42.859375 10.171875 
Q 46.921875 13.96875 46.921875 20.515625 
Q 46.921875 27.09375 42.890625 30.859375 
Q 38.875 34.625 31.78125 34.625 
z
M 21.921875 38.8125 
Q 15.578125 40.375 12.03125 44.71875 
Q 8.5 49.078125 8.5 55.328125 
Q 8.5 64.0625 14.71875 69.140625 
Q 20.953125 74.21875 31.78125 74.21875 
Q 42.671875 74.21875 48.875 69.140625 
Q 55.078125 64.0625 55.078125 55.328125 
Q 55.078125 49.078125 51.53125 44.71875 
Q 48 40.375 41.703125 38.8125 
Q 48.828125 37.15625 52.796875 32.3125 
Q 56.78125 27.484375 56.78125 20.515625 
Q 56.78125 9.90625 50.3125 4.234375 
Q 43.84375 -1.421875 31.78125 -1.421875 
Q 19.734375 -1.421875 13.25 4.234375 
Q 6.78125 9.90625 6.78125 20.515625 
Q 6.78125 27.484375 10.78125 32.3125 
Q 14.796875 37.15625 21.921875 38.8125 
z
M 18.3125 54.390625 
Q 18.3125 48.734375 21.84375 45.5625 
Q 25.390625 42.390625 31.78125 42.390625 
Q 38.140625 42.390625 41.71875 45.5625 
Q 45.3125 48.734375 45.3125 54.390625 
Q 45.3125 60.0625 41.71875 63.234375 
Q 38.140625 66.40625 31.78125 66.40625 
Q 25.390625 66.40625 21.84375 63.234375 
Q 18.3125 60.0625 18.3125 54.390625 
z
" id="DejaVuSans-56"/>
      </defs>
      <g transform="translate(150.734375 321.529282)scale(0.1 -0.1)">
       <use xlink:href="#DejaVuSans-48"/>
       <use x="63.623047" xlink:href="#DejaVuSans-46"/>
       <use x="95.410156" xlink:href="#DejaVuSans-52"/>
       <use x="159.033203" xlink:href="#DejaVuSans-56"/>
      </g>
     </g>
    </g>
    <g id="ytick_2">
     <g id="line2d_10">
      <g>
       <use style="stroke:#000000;stroke-width:0.8;" x="180" xlink:href="#m14a08101f4" y="289.740169"/>
      </g>
     </g>
     <g id="text_10">
      <!-- 0.50 -->
      <g transform="translate(150.734375 293.539388)scale(0.1 -0.1)">
       <use xlink:href="#DejaVuSans-48"/>
       <use x="63.623047" xlink:href="#DejaVuSans-46"/>
       <use x="95.410156" xlink:href="#DejaVuSans-53"/>
       <use x="159.033203" xlink:href="#DejaVuSans-48"/>
      </g>
     </g>
    </g>
    <g id="ytick_3">
     <g id="line2d_11">
      <g>
       <use style="stroke:#000000;stroke-width:0.8;" x="180" xlink:href="#m14a08101f4" y="261.750276"/>
      </g>
     </g>
     <g id="text_11">
      <!-- 0.52 -->
      <g transform="translate(150.734375 265.549495)scale(0.1 -0.1)">
       <use xlink:href="#DejaVuSans-48"/>
       <use x="63.623047" xlink:href="#DejaVuSans-46"/>
       <use x="95.410156" xlink:href="#DejaVuSans-53"/>
       <use x="159.033203" xlink:href="#DejaVuSans-50"/>
      </g>
     </g>
    </g>
    <g id="ytick_4">
     <g id="line2d_12">
      <g>
       <use style="stroke:#000000;stroke-width:0.8;" x="180" xlink:href="#m14a08101f4" y="233.760382"/>
      </g>
     </g>
     <g id="text_12">
      <!-- 0.54 -->
      <g transform="translate(150.734375 237.559601)scale(0.1 -0.1)">
       <use xlink:href="#DejaVuSans-48"/>
       <use x="63.623047" xlink:href="#DejaVuSans-46"/>
       <use x="95.410156" xlink:href="#DejaVuSans-53"/>
       <use x="159.033203" xlink:href="#DejaVuSans-52"/>
      </g>
     </g>
    </g>
    <g id="ytick_5">
     <g id="line2d_13">
      <g>
       <use style="stroke:#000000;stroke-width:0.8;" x="180" xlink:href="#m14a08101f4" y="205.770489"/>
      </g>
     </g>
     <g id="text_13">
      <!-- 0.56 -->
      <defs>
       <path d="M 33.015625 40.375 
Q 26.375 40.375 22.484375 35.828125 
Q 18.609375 31.296875 18.609375 23.390625 
Q 18.609375 15.53125 22.484375 10.953125 
Q 26.375 6.390625 33.015625 6.390625 
Q 39.65625 6.390625 43.53125 10.953125 
Q 47.40625 15.53125 47.40625 23.390625 
Q 47.40625 31.296875 43.53125 35.828125 
Q 39.65625 40.375 33.015625 40.375 
z
M 52.59375 71.296875 
L 52.59375 62.3125 
Q 48.875 64.0625 45.09375 64.984375 
Q 41.3125 65.921875 37.59375 65.921875 
Q 27.828125 65.921875 22.671875 59.328125 
Q 17.53125 52.734375 16.796875 39.40625 
Q 19.671875 43.65625 24.015625 45.921875 
Q 28.375 48.1875 33.59375 48.1875 
Q 44.578125 48.1875 50.953125 41.515625 
Q 57.328125 34.859375 57.328125 23.390625 
Q 57.328125 12.15625 50.6875 5.359375 
Q 44.046875 -1.421875 33.015625 -1.421875 
Q 20.359375 -1.421875 13.671875 8.265625 
Q 6.984375 17.96875 6.984375 36.375 
Q 6.984375 53.65625 15.1875 63.9375 
Q 23.390625 74.21875 37.203125 74.21875 
Q 40.921875 74.21875 44.703125 73.484375 
Q 48.484375 72.75 52.59375 71.296875 
z
" id="DejaVuSans-54"/>
      </defs>
      <g transform="translate(150.734375 209.569708)scale(0.1 -0.1)">
       <use xlink:href="#DejaVuSans-48"/>
       <use x="63.623047" xlink:href="#DejaVuSans-46"/>
       <use x="95.410156" xlink:href="#DejaVuSans-53"/>
       <use x="159.033203" xlink:href="#DejaVuSans-54"/>
      </g>
     </g>
    </g>
    <g id="ytick_6">
     <g id="line2d_14">
      <g>
       <use style="stroke:#000000;stroke-width:0.8;" x="180" xlink:href="#m14a08101f4" y="177.780595"/>
      </g>
     </g>
     <g id="text_14">
      <!-- 0.58 -->
      <g transform="translate(150.734375 181.579814)scale(0.1 -0.1)">
       <use xlink:href="#DejaVuSans-48"/>
       <use x="63.623047" xlink:href="#DejaVuSans-46"/>
       <use x="95.410156" xlink:href="#DejaVuSans-53"/>
       <use x="159.033203" xlink:href="#DejaVuSans-56"/>
      </g>
     </g>
    </g>
    <g id="ytick_7">
     <g id="line2d_15">
      <g>
       <use style="stroke:#000000;stroke-width:0.8;" x="180" xlink:href="#m14a08101f4" y="149.790702"/>
      </g>
     </g>
     <g id="text_15">
      <!-- 0.60 -->
      <g transform="translate(150.734375 153.58992)scale(0.1 -0.1)">
       <use xlink:href="#DejaVuSans-48"/>
       <use x="63.623047" xlink:href="#DejaVuSans-46"/>
       <use x="95.410156" xlink:href="#DejaVuSans-54"/>
       <use x="159.033203" xlink:href="#DejaVuSans-48"/>
      </g>
     </g>
    </g>
    <g id="ytick_8">
     <g id="line2d_16">
      <g>
       <use style="stroke:#000000;stroke-width:0.8;" x="180" xlink:href="#m14a08101f4" y="121.800808"/>
      </g>
     </g>
     <g id="text_16">
      <!-- 0.62 -->
      <g transform="translate(150.734375 125.600027)scale(0.1 -0.1)">
       <use xlink:href="#DejaVuSans-48"/>
       <use x="63.623047" xlink:href="#DejaVuSans-46"/>
       <use x="95.410156" xlink:href="#DejaVuSans-54"/>
       <use x="159.033203" xlink:href="#DejaVuSans-50"/>
      </g>
     </g>
    </g>
    <g id="ytick_9">
     <g id="line2d_17">
      <g>
       <use style="stroke:#000000;stroke-width:0.8;" x="180" xlink:href="#m14a08101f4" y="93.810915"/>
      </g>
     </g>
     <g id="text_17">
      <!-- 0.64 -->
      <g transform="translate(150.734375 97.610133)scale(0.1 -0.1)">
       <use xlink:href="#DejaVuSans-48"/>
       <use x="63.623047" xlink:href="#DejaVuSans-46"/>
       <use x="95.410156" xlink:href="#DejaVuSans-54"/>
       <use x="159.033203" xlink:href="#DejaVuSans-52"/>
      </g>
     </g>
    </g>
   </g>
   <g id="line2d_18">
    <path clip-path="url(#pfae9a0bb51)" d="M 230.727273 317.883833 
L 236.301698 313.999385 
L 241.876124 309.642693 
L 247.450549 308.607778 
L 253.024975 303.198086 
L 258.599401 297.456818 
L 264.173826 296.70123 
L 269.748252 295.053404 
L 275.322677 293.839639 
L 280.897103 292.507311 
L 286.471528 292.037078 
L 292.045954 291.23527 
L 297.62038 291.221203 
L 303.194805 290.873552 
L 308.769231 290.853457 
L 314.343656 290.600254 
L 331.066933 290.4415 
L 336.641359 290.254613 
L 358.939061 290.103897 
L 403.534466 289.834618 
L 459.278721 289.758255 
L 1005.572428 289.653759 
L 1039.018981 289.462852 
L 1044.593407 287.921532 
L 1050.167832 287.638186 
L 1055.742258 287.027285 
L 1061.316683 286.810254 
L 1066.891109 286.247582 
L 1072.465534 284.840901 
L 1078.03996 282.748966 
L 1083.614386 282.029549 
L 1089.188811 281.834623 
L 1100.337662 281.786394 
L 1105.912088 280.906214 
L 1111.486513 280.556553 
L 1117.060939 280.534448 
L 1128.20979 277.765297 
L 1133.784216 277.425684 
L 1139.358641 276.720334 
L 1144.933067 276.714305 
L 1156.081918 276.151633 
L 1161.656344 274.881601 
L 1167.230769 274.558064 
L 1172.805195 274.35912 
L 1178.37962 270.800217 
L 1183.954046 268.139581 
L 1195.102897 266.296829 
L 1200.677323 260.284273 
L 1206.251748 260.248102 
L 1211.826174 257.350339 
L 1217.400599 254.080811 
L 1222.975025 248.737433 
L 1228.549451 247.087598 
L 1234.123876 246.969035 
L 1239.698302 188.834936 
L 1245.272727 163.070572 
L 1245.272727 163.070572 
" style="fill:none;stroke:#1f77b4;stroke-linecap:square;stroke-width:1.5;"/>
   </g>
   <g id="line2d_19">
    <path clip-path="url(#pfae9a0bb51)" d="M 230.727273 322.259504 
L 236.301698 295.510331 
L 241.876124 287.783138 
L 247.450549 288.186456 
L 253.024975 288.08669 
L 258.599401 288.936369 
L 264.173826 289.9304 
L 269.748252 284.778897 
L 275.322677 286.130742 
L 280.897103 286.622232 
L 286.471528 288.961728 
L 292.045954 288.174944 
L 297.62038 290.136189 
L 303.194805 287.517123 
L 308.769231 283.211503 
L 314.343656 287.336777 
L 319.918082 289.237502 
L 325.492507 289.179361 
L 331.066933 268.672528 
L 336.641359 286.872064 
L 342.215784 288.436788 
L 347.79021 288.442711 
L 353.364635 289.04481 
L 358.939061 287.561751 
L 364.513487 264.195737 
L 370.087912 287.502275 
L 375.662338 289.51019 
L 381.236763 288.067004 
L 386.811189 278.691002 
L 392.385614 288.009363 
L 397.96004 267.030143 
L 403.534466 274.679425 
L 409.108891 287.729 
L 414.683317 286.425786 
L 420.257742 293.130587 
L 425.832168 288.269705 
L 431.406593 285.238688 
L 436.981019 289.148664 
L 442.555445 289.733162 
L 448.12987 291.228276 
L 453.704296 289.014864 
L 459.278721 288.901334 
L 464.853147 288.907757 
L 470.427572 287.291148 
L 476.001998 288.543144 
L 481.576424 288.305658 
L 487.150849 288.188958 
L 492.725275 288.249769 
L 498.2997 288.723824 
L 503.874126 284.71525 
L 509.448551 289.514445 
L 515.022977 288.916766 
L 520.597403 288.753854 
L 526.171828 287.590779 
L 531.746254 289.829008 
L 537.320679 288.490842 
L 542.895105 287.366806 
L 548.46953 281.32329 
L 554.043956 288.96106 
L 559.618382 289.669766 
L 565.192807 288.364883 
L 570.767233 288.561162 
L 576.341658 288.571256 
L 581.916084 288.281133 
L 587.490509 281.122256 
L 593.064935 291.912541 
L 598.639361 288.354456 
L 604.213786 286.050079 
L 609.788212 288.754855 
L 615.362637 290.297516 
L 620.937063 289.064914 
L 626.511489 288.483919 
L 632.085914 289.757603 
L 637.66034 288.091361 
L 643.234765 287.556078 
L 648.809191 291.050265 
L 654.383616 289.102785 
L 659.958042 288.898415 
L 665.532468 289.371302 
L 671.106893 288.826927 
L 676.681319 286.244272 
L 682.255744 289.004187 
L 687.83017 288.86997 
L 693.404595 281.703251 
L 698.979021 273.517101 
L 704.553447 290.793093 
L 710.127872 288.919769 
L 715.702298 286.688882 
L 721.276723 285.676373 
L 726.851149 285.22459 
L 732.425574 288.256692 
L 738 290.005183 
L 743.574426 289.878724 
L 749.148851 287.3774 
L 754.723277 287.990427 
L 760.297702 289.431445 
L 765.872128 289.095528 
L 771.446553 290.365042 
L 777.020979 289.917513 
L 782.595405 288.959976 
L 788.16983 288.371557 
L 793.744256 288.573591 
L 799.318681 289.577007 
L 804.893107 289.431445 
L 810.467532 288.815499 
L 816.041958 284.818353 
L 821.616384 288.579681 
L 827.190809 290.043972 
L 832.765235 289.326925 
L 838.33966 285.780477 
L 843.914086 289.452967 
L 849.488511 288.00319 
L 855.062937 288.355124 
L 860.637363 289.236585 
L 866.211788 287.566672 
L 871.786214 289.253935 
L 877.360639 291.397695 
L 882.935065 289.187035 
L 888.509491 287.857879 
L 894.083916 289.707804 
L 899.658342 287.669107 
L 905.232767 289.34878 
L 910.807193 289.396577 
L 916.381618 285.22459 
L 921.956044 288.705639 
L 927.53047 287.853124 
L 933.104895 282.970429 
L 938.679321 288.815999 
L 944.253746 286.602462 
L 949.828172 288.223409 
L 955.402597 289.240922 
L 960.977023 289.304235 
L 966.551449 288.121558 
L 972.125874 288.568586 
L 977.7003 284.131419 
L 983.274725 290.375594 
L 988.849151 288.356876 
L 994.423576 299.032671 
L 999.998002 289.401666 
L 1005.572428 289.306654 
L 1011.146853 290.955421 
L 1016.721279 322.070524 
L 1022.295704 291.871833 
L 1027.87013 288.92686 
L 1033.444555 288.267954 
L 1039.018981 290.114375 
L 1044.593407 286.035314 
L 1050.167832 274.320734 
L 1055.742258 287.452558 
L 1061.316683 270.22816 
L 1066.891109 288.053156 
L 1078.03996 288.265284 
L 1083.614386 286.755865 
L 1089.188811 284.417203 
L 1094.763237 285.240022 
L 1100.337662 292.271898 
L 1105.912088 289.114964 
L 1111.486513 283.444902 
L 1117.060939 288.483502 
L 1122.635365 290.084554 
L 1128.20979 279.047691 
L 1133.784216 282.389685 
L 1139.358641 291.660206 
L 1144.933067 286.510788 
L 1150.507493 286.173201 
L 1156.081918 287.994181 
L 1161.656344 285.352217 
L 1167.230769 283.881253 
L 1172.805195 284.44765 
L 1178.37962 282.953496 
L 1183.954046 288.32476 
L 1189.528472 286.442636 
L 1195.102897 285.62624 
L 1200.677323 285.068769 
L 1206.251748 239.257409 
L 1211.826174 286.498776 
L 1217.400599 315.499691 
L 1222.975025 286.216328 
L 1228.549451 284.677045 
L 1234.123876 284.256126 
L 1239.698302 97.631405 
L 1245.272727 287.403093 
L 1245.272727 287.403093 
" style="fill:none;stroke:#ff7f0e;stroke-linecap:square;stroke-width:1.5;"/>
   </g>
   <g id="patch_3">
    <path d="M 180 333.490909 
L 180 86.4 
" style="fill:none;stroke:#000000;stroke-linecap:square;stroke-linejoin:miter;stroke-width:0.8;"/>
   </g>
   <g id="patch_4">
    <path d="M 1296 333.490909 
L 1296 86.4 
" style="fill:none;stroke:#000000;stroke-linecap:square;stroke-linejoin:miter;stroke-width:0.8;"/>
   </g>
   <g id="patch_5">
    <path d="M 180 333.490909 
L 1296 333.490909 
" style="fill:none;stroke:#000000;stroke-linecap:square;stroke-linejoin:miter;stroke-width:0.8;"/>
   </g>
   <g id="patch_6">
    <path d="M 180 86.4 
L 1296 86.4 
" style="fill:none;stroke:#000000;stroke-linecap:square;stroke-linejoin:miter;stroke-width:0.8;"/>
   </g>
   <g id="text_18">
    <!-- Test set results at minute 3 sorted by actual accuracy -->
    <defs>
     <path d="M -0.296875 72.90625 
L 61.375 72.90625 
L 61.375 64.59375 
L 35.5 64.59375 
L 35.5 0 
L 25.59375 0 
L 25.59375 64.59375 
L -0.296875 64.59375 
z
" id="DejaVuSans-84"/>
     <path d="M 56.203125 29.59375 
L 56.203125 25.203125 
L 14.890625 25.203125 
Q 15.484375 15.921875 20.484375 11.0625 
Q 25.484375 6.203125 34.421875 6.203125 
Q 39.59375 6.203125 44.453125 7.46875 
Q 49.3125 8.734375 54.109375 11.28125 
L 54.109375 2.78125 
Q 49.265625 0.734375 44.1875 -0.34375 
Q 39.109375 -1.421875 33.890625 -1.421875 
Q 20.796875 -1.421875 13.15625 6.1875 
Q 5.515625 13.8125 5.515625 26.8125 
Q 5.515625 40.234375 12.765625 48.109375 
Q 20.015625 56 32.328125 56 
Q 43.359375 56 49.78125 48.890625 
Q 56.203125 41.796875 56.203125 29.59375 
z
M 47.21875 32.234375 
Q 47.125 39.59375 43.09375 43.984375 
Q 39.0625 48.390625 32.421875 48.390625 
Q 24.90625 48.390625 20.390625 44.140625 
Q 15.875 39.890625 15.1875 32.171875 
z
" id="DejaVuSans-101"/>
     <path d="M 44.28125 53.078125 
L 44.28125 44.578125 
Q 40.484375 46.53125 36.375 47.5 
Q 32.28125 48.484375 27.875 48.484375 
Q 21.1875 48.484375 17.84375 46.4375 
Q 14.5 44.390625 14.5 40.28125 
Q 14.5 37.15625 16.890625 35.375 
Q 19.28125 33.59375 26.515625 31.984375 
L 29.59375 31.296875 
Q 39.15625 29.25 43.1875 25.515625 
Q 47.21875 21.78125 47.21875 15.09375 
Q 47.21875 7.46875 41.1875 3.015625 
Q 35.15625 -1.421875 24.609375 -1.421875 
Q 20.21875 -1.421875 15.453125 -0.5625 
Q 10.6875 0.296875 5.421875 2 
L 5.421875 11.28125 
Q 10.40625 8.6875 15.234375 7.390625 
Q 20.0625 6.109375 24.8125 6.109375 
Q 31.15625 6.109375 34.5625 8.28125 
Q 37.984375 10.453125 37.984375 14.40625 
Q 37.984375 18.0625 35.515625 20.015625 
Q 33.0625 21.96875 24.703125 23.78125 
L 21.578125 24.515625 
Q 13.234375 26.265625 9.515625 29.90625 
Q 5.8125 33.546875 5.8125 39.890625 
Q 5.8125 47.609375 11.28125 51.796875 
Q 16.75 56 26.8125 56 
Q 31.78125 56 36.171875 55.265625 
Q 40.578125 54.546875 44.28125 53.078125 
z
" id="DejaVuSans-115"/>
     <path d="M 18.3125 70.21875 
L 18.3125 54.6875 
L 36.8125 54.6875 
L 36.8125 47.703125 
L 18.3125 47.703125 
L 18.3125 18.015625 
Q 18.3125 11.328125 20.140625 9.421875 
Q 21.96875 7.515625 27.59375 7.515625 
L 36.8125 7.515625 
L 36.8125 0 
L 27.59375 0 
Q 17.1875 0 13.234375 3.875 
Q 9.28125 7.765625 9.28125 18.015625 
L 9.28125 47.703125 
L 2.6875 47.703125 
L 2.6875 54.6875 
L 9.28125 54.6875 
L 9.28125 70.21875 
z
" id="DejaVuSans-116"/>
     <path id="DejaVuSans-32"/>
     <path d="M 41.109375 46.296875 
Q 39.59375 47.171875 37.8125 47.578125 
Q 36.03125 48 33.890625 48 
Q 26.265625 48 22.1875 43.046875 
Q 18.109375 38.09375 18.109375 28.8125 
L 18.109375 0 
L 9.078125 0 
L 9.078125 54.6875 
L 18.109375 54.6875 
L 18.109375 46.1875 
Q 20.953125 51.171875 25.484375 53.578125 
Q 30.03125 56 36.53125 56 
Q 37.453125 56 38.578125 55.875 
Q 39.703125 55.765625 41.0625 55.515625 
z
" id="DejaVuSans-114"/>
     <path d="M 8.5 21.578125 
L 8.5 54.6875 
L 17.484375 54.6875 
L 17.484375 21.921875 
Q 17.484375 14.15625 20.5 10.265625 
Q 23.53125 6.390625 29.59375 6.390625 
Q 36.859375 6.390625 41.078125 11.03125 
Q 45.3125 15.671875 45.3125 23.6875 
L 45.3125 54.6875 
L 54.296875 54.6875 
L 54.296875 0 
L 45.3125 0 
L 45.3125 8.40625 
Q 42.046875 3.421875 37.71875 1 
Q 33.40625 -1.421875 27.6875 -1.421875 
Q 18.265625 -1.421875 13.375 4.4375 
Q 8.5 10.296875 8.5 21.578125 
z
M 31.109375 56 
z
" id="DejaVuSans-117"/>
     <path d="M 9.421875 75.984375 
L 18.40625 75.984375 
L 18.40625 0 
L 9.421875 0 
z
" id="DejaVuSans-108"/>
     <path d="M 34.28125 27.484375 
Q 23.390625 27.484375 19.1875 25 
Q 14.984375 22.515625 14.984375 16.5 
Q 14.984375 11.71875 18.140625 8.90625 
Q 21.296875 6.109375 26.703125 6.109375 
Q 34.1875 6.109375 38.703125 11.40625 
Q 43.21875 16.703125 43.21875 25.484375 
L 43.21875 27.484375 
z
M 52.203125 31.203125 
L 52.203125 0 
L 43.21875 0 
L 43.21875 8.296875 
Q 40.140625 3.328125 35.546875 0.953125 
Q 30.953125 -1.421875 24.3125 -1.421875 
Q 15.921875 -1.421875 10.953125 3.296875 
Q 6 8.015625 6 15.921875 
Q 6 25.140625 12.171875 29.828125 
Q 18.359375 34.515625 30.609375 34.515625 
L 43.21875 34.515625 
L 43.21875 35.40625 
Q 43.21875 41.609375 39.140625 45 
Q 35.0625 48.390625 27.6875 48.390625 
Q 23 48.390625 18.546875 47.265625 
Q 14.109375 46.140625 10.015625 43.890625 
L 10.015625 52.203125 
Q 14.9375 54.109375 19.578125 55.046875 
Q 24.21875 56 28.609375 56 
Q 40.484375 56 46.34375 49.84375 
Q 52.203125 43.703125 52.203125 31.203125 
z
" id="DejaVuSans-97"/>
     <path d="M 52 44.1875 
Q 55.375 50.25 60.0625 53.125 
Q 64.75 56 71.09375 56 
Q 79.640625 56 84.28125 50.015625 
Q 88.921875 44.046875 88.921875 33.015625 
L 88.921875 0 
L 79.890625 0 
L 79.890625 32.71875 
Q 79.890625 40.578125 77.09375 44.375 
Q 74.3125 48.1875 68.609375 48.1875 
Q 61.625 48.1875 57.5625 43.546875 
Q 53.515625 38.921875 53.515625 30.90625 
L 53.515625 0 
L 44.484375 0 
L 44.484375 32.71875 
Q 44.484375 40.625 41.703125 44.40625 
Q 38.921875 48.1875 33.109375 48.1875 
Q 26.21875 48.1875 22.15625 43.53125 
Q 18.109375 38.875 18.109375 30.90625 
L 18.109375 0 
L 9.078125 0 
L 9.078125 54.6875 
L 18.109375 54.6875 
L 18.109375 46.1875 
Q 21.1875 51.21875 25.484375 53.609375 
Q 29.78125 56 35.6875 56 
Q 41.65625 56 45.828125 52.96875 
Q 50 49.953125 52 44.1875 
z
" id="DejaVuSans-109"/>
     <path d="M 9.421875 54.6875 
L 18.40625 54.6875 
L 18.40625 0 
L 9.421875 0 
z
M 9.421875 75.984375 
L 18.40625 75.984375 
L 18.40625 64.59375 
L 9.421875 64.59375 
z
" id="DejaVuSans-105"/>
     <path d="M 54.890625 33.015625 
L 54.890625 0 
L 45.90625 0 
L 45.90625 32.71875 
Q 45.90625 40.484375 42.875 44.328125 
Q 39.84375 48.1875 33.796875 48.1875 
Q 26.515625 48.1875 22.3125 43.546875 
Q 18.109375 38.921875 18.109375 30.90625 
L 18.109375 0 
L 9.078125 0 
L 9.078125 54.6875 
L 18.109375 54.6875 
L 18.109375 46.1875 
Q 21.34375 51.125 25.703125 53.5625 
Q 30.078125 56 35.796875 56 
Q 45.21875 56 50.046875 50.171875 
Q 54.890625 44.34375 54.890625 33.015625 
z
" id="DejaVuSans-110"/>
     <path d="M 40.578125 39.3125 
Q 47.65625 37.796875 51.625 33 
Q 55.609375 28.21875 55.609375 21.1875 
Q 55.609375 10.40625 48.1875 4.484375 
Q 40.765625 -1.421875 27.09375 -1.421875 
Q 22.515625 -1.421875 17.65625 -0.515625 
Q 12.796875 0.390625 7.625 2.203125 
L 7.625 11.71875 
Q 11.71875 9.328125 16.59375 8.109375 
Q 21.484375 6.890625 26.8125 6.890625 
Q 36.078125 6.890625 40.9375 10.546875 
Q 45.796875 14.203125 45.796875 21.1875 
Q 45.796875 27.640625 41.28125 31.265625 
Q 36.765625 34.90625 28.71875 34.90625 
L 20.21875 34.90625 
L 20.21875 43.015625 
L 29.109375 43.015625 
Q 36.375 43.015625 40.234375 45.921875 
Q 44.09375 48.828125 44.09375 54.296875 
Q 44.09375 59.90625 40.109375 62.90625 
Q 36.140625 65.921875 28.71875 65.921875 
Q 24.65625 65.921875 20.015625 65.03125 
Q 15.375 64.15625 9.8125 62.3125 
L 9.8125 71.09375 
Q 15.4375 72.65625 20.34375 73.4375 
Q 25.25 74.21875 29.59375 74.21875 
Q 40.828125 74.21875 47.359375 69.109375 
Q 53.90625 64.015625 53.90625 55.328125 
Q 53.90625 49.265625 50.4375 45.09375 
Q 46.96875 40.921875 40.578125 39.3125 
z
" id="DejaVuSans-51"/>
     <path d="M 30.609375 48.390625 
Q 23.390625 48.390625 19.1875 42.75 
Q 14.984375 37.109375 14.984375 27.296875 
Q 14.984375 17.484375 19.15625 11.84375 
Q 23.34375 6.203125 30.609375 6.203125 
Q 37.796875 6.203125 41.984375 11.859375 
Q 46.1875 17.53125 46.1875 27.296875 
Q 46.1875 37.015625 41.984375 42.703125 
Q 37.796875 48.390625 30.609375 48.390625 
z
M 30.609375 56 
Q 42.328125 56 49.015625 48.375 
Q 55.71875 40.765625 55.71875 27.296875 
Q 55.71875 13.875 49.015625 6.21875 
Q 42.328125 -1.421875 30.609375 -1.421875 
Q 18.84375 -1.421875 12.171875 6.21875 
Q 5.515625 13.875 5.515625 27.296875 
Q 5.515625 40.765625 12.171875 48.375 
Q 18.84375 56 30.609375 56 
z
" id="DejaVuSans-111"/>
     <path d="M 45.40625 46.390625 
L 45.40625 75.984375 
L 54.390625 75.984375 
L 54.390625 0 
L 45.40625 0 
L 45.40625 8.203125 
Q 42.578125 3.328125 38.25 0.953125 
Q 33.9375 -1.421875 27.875 -1.421875 
Q 17.96875 -1.421875 11.734375 6.484375 
Q 5.515625 14.40625 5.515625 27.296875 
Q 5.515625 40.1875 11.734375 48.09375 
Q 17.96875 56 27.875 56 
Q 33.9375 56 38.25 53.625 
Q 42.578125 51.265625 45.40625 46.390625 
z
M 14.796875 27.296875 
Q 14.796875 17.390625 18.875 11.75 
Q 22.953125 6.109375 30.078125 6.109375 
Q 37.203125 6.109375 41.296875 11.75 
Q 45.40625 17.390625 45.40625 27.296875 
Q 45.40625 37.203125 41.296875 42.84375 
Q 37.203125 48.484375 30.078125 48.484375 
Q 22.953125 48.484375 18.875 42.84375 
Q 14.796875 37.203125 14.796875 27.296875 
z
" id="DejaVuSans-100"/>
     <path d="M 48.6875 27.296875 
Q 48.6875 37.203125 44.609375 42.84375 
Q 40.53125 48.484375 33.40625 48.484375 
Q 26.265625 48.484375 22.1875 42.84375 
Q 18.109375 37.203125 18.109375 27.296875 
Q 18.109375 17.390625 22.1875 11.75 
Q 26.265625 6.109375 33.40625 6.109375 
Q 40.53125 6.109375 44.609375 11.75 
Q 48.6875 17.390625 48.6875 27.296875 
z
M 18.109375 46.390625 
Q 20.953125 51.265625 25.265625 53.625 
Q 29.59375 56 35.59375 56 
Q 45.5625 56 51.78125 48.09375 
Q 58.015625 40.1875 58.015625 27.296875 
Q 58.015625 14.40625 51.78125 6.484375 
Q 45.5625 -1.421875 35.59375 -1.421875 
Q 29.59375 -1.421875 25.265625 0.953125 
Q 20.953125 3.328125 18.109375 8.203125 
L 18.109375 0 
L 9.078125 0 
L 9.078125 75.984375 
L 18.109375 75.984375 
z
" id="DejaVuSans-98"/>
     <path d="M 32.171875 -5.078125 
Q 28.375 -14.84375 24.75 -17.8125 
Q 21.140625 -20.796875 15.09375 -20.796875 
L 7.90625 -20.796875 
L 7.90625 -13.28125 
L 13.1875 -13.28125 
Q 16.890625 -13.28125 18.9375 -11.515625 
Q 21 -9.765625 23.484375 -3.21875 
L 25.09375 0.875 
L 2.984375 54.6875 
L 12.5 54.6875 
L 29.59375 11.921875 
L 46.6875 54.6875 
L 56.203125 54.6875 
z
" id="DejaVuSans-121"/>
     <path d="M 48.78125 52.59375 
L 48.78125 44.1875 
Q 44.96875 46.296875 41.140625 47.34375 
Q 37.3125 48.390625 33.40625 48.390625 
Q 24.65625 48.390625 19.8125 42.84375 
Q 14.984375 37.3125 14.984375 27.296875 
Q 14.984375 17.28125 19.8125 11.734375 
Q 24.65625 6.203125 33.40625 6.203125 
Q 37.3125 6.203125 41.140625 7.25 
Q 44.96875 8.296875 48.78125 10.40625 
L 48.78125 2.09375 
Q 45.015625 0.34375 40.984375 -0.53125 
Q 36.96875 -1.421875 32.421875 -1.421875 
Q 20.0625 -1.421875 12.78125 6.34375 
Q 5.515625 14.109375 5.515625 27.296875 
Q 5.515625 40.671875 12.859375 48.328125 
Q 20.21875 56 33.015625 56 
Q 37.15625 56 41.109375 55.140625 
Q 45.0625 54.296875 48.78125 52.59375 
z
" id="DejaVuSans-99"/>
    </defs>
    <g transform="translate(576.728438 80.4)scale(0.12 -0.12)">
     <use xlink:href="#DejaVuSans-84"/>
     <use x="44.083984" xlink:href="#DejaVuSans-101"/>
     <use x="105.607422" xlink:href="#DejaVuSans-115"/>
     <use x="157.707031" xlink:href="#DejaVuSans-116"/>
     <use x="196.916016" xlink:href="#DejaVuSans-32"/>
     <use x="228.703125" xlink:href="#DejaVuSans-115"/>
     <use x="280.802734" xlink:href="#DejaVuSans-101"/>
     <use x="342.326172" xlink:href="#DejaVuSans-116"/>
     <use x="381.535156" xlink:href="#DejaVuSans-32"/>
     <use x="413.322266" xlink:href="#DejaVuSans-114"/>
     <use x="452.185547" xlink:href="#DejaVuSans-101"/>
     <use x="513.708984" xlink:href="#DejaVuSans-115"/>
     <use x="565.808594" xlink:href="#DejaVuSans-117"/>
     <use x="629.1875" xlink:href="#DejaVuSans-108"/>
     <use x="656.970703" xlink:href="#DejaVuSans-116"/>
     <use x="696.179688" xlink:href="#DejaVuSans-115"/>
     <use x="748.279297" xlink:href="#DejaVuSans-32"/>
     <use x="780.066406" xlink:href="#DejaVuSans-97"/>
     <use x="841.345703" xlink:href="#DejaVuSans-116"/>
     <use x="880.554688" xlink:href="#DejaVuSans-32"/>
     <use x="912.341797" xlink:href="#DejaVuSans-109"/>
     <use x="1009.753906" xlink:href="#DejaVuSans-105"/>
     <use x="1037.537109" xlink:href="#DejaVuSans-110"/>
     <use x="1100.916016" xlink:href="#DejaVuSans-117"/>
     <use x="1164.294922" xlink:href="#DejaVuSans-116"/>
     <use x="1203.503906" xlink:href="#DejaVuSans-101"/>
     <use x="1265.027344" xlink:href="#DejaVuSans-32"/>
     <use x="1296.814453" xlink:href="#DejaVuSans-51"/>
     <use x="1360.4375" xlink:href="#DejaVuSans-32"/>
     <use x="1392.224609" xlink:href="#DejaVuSans-115"/>
     <use x="1444.324219" xlink:href="#DejaVuSans-111"/>
     <use x="1505.505859" xlink:href="#DejaVuSans-114"/>
     <use x="1546.619141" xlink:href="#DejaVuSans-116"/>
     <use x="1585.828125" xlink:href="#DejaVuSans-101"/>
     <use x="1647.351562" xlink:href="#DejaVuSans-100"/>
     <use x="1710.828125" xlink:href="#DejaVuSans-32"/>
     <use x="1742.615234" xlink:href="#DejaVuSans-98"/>
     <use x="1806.091797" xlink:href="#DejaVuSans-121"/>
     <use x="1865.271484" xlink:href="#DejaVuSans-32"/>
     <use x="1897.058594" xlink:href="#DejaVuSans-97"/>
     <use x="1958.337891" xlink:href="#DejaVuSans-99"/>
     <use x="2013.318359" xlink:href="#DejaVuSans-116"/>
     <use x="2052.527344" xlink:href="#DejaVuSans-117"/>
     <use x="2115.90625" xlink:href="#DejaVuSans-97"/>
     <use x="2177.185547" xlink:href="#DejaVuSans-108"/>
     <use x="2204.96875" xlink:href="#DejaVuSans-32"/>
     <use x="2236.755859" xlink:href="#DejaVuSans-97"/>
     <use x="2298.035156" xlink:href="#DejaVuSans-99"/>
     <use x="2353.015625" xlink:href="#DejaVuSans-99"/>
     <use x="2407.996094" xlink:href="#DejaVuSans-117"/>
     <use x="2471.375" xlink:href="#DejaVuSans-114"/>
     <use x="2512.488281" xlink:href="#DejaVuSans-97"/>
     <use x="2573.767578" xlink:href="#DejaVuSans-99"/>
     <use x="2628.748047" xlink:href="#DejaVuSans-121"/>
    </g>
   </g>
   <g id="legend_1">
    <g id="patch_7">
     <path d="M 187 123.75625 
L 314.2375 123.75625 
Q 316.2375 123.75625 316.2375 121.75625 
L 316.2375 93.4 
Q 316.2375 91.4 314.2375 91.4 
L 187 91.4 
Q 185 91.4 185 93.4 
L 185 121.75625 
Q 185 123.75625 187 123.75625 
z
" style="fill:#ffffff;opacity:0.8;stroke:#cccccc;stroke-linejoin:miter;"/>
    </g>
    <g id="line2d_20">
     <path d="M 189 99.498437 
L 209 99.498437 
" style="fill:none;stroke:#1f77b4;stroke-linecap:square;stroke-width:1.5;"/>
    </g>
    <g id="line2d_21"/>
    <g id="text_19">
     <!-- Actual accuracy -->
     <defs>
      <path d="M 34.1875 63.1875 
L 20.796875 26.90625 
L 47.609375 26.90625 
z
M 28.609375 72.90625 
L 39.796875 72.90625 
L 67.578125 0 
L 57.328125 0 
L 50.6875 18.703125 
L 17.828125 18.703125 
L 11.1875 0 
L 0.78125 0 
z
" id="DejaVuSans-65"/>
     </defs>
     <g transform="translate(217 102.998437)scale(0.1 -0.1)">
      <use xlink:href="#DejaVuSans-65"/>
      <use x="66.658203" xlink:href="#DejaVuSans-99"/>
      <use x="121.638672" xlink:href="#DejaVuSans-116"/>
      <use x="160.847656" xlink:href="#DejaVuSans-117"/>
      <use x="224.226562" xlink:href="#DejaVuSans-97"/>
      <use x="285.505859" xlink:href="#DejaVuSans-108"/>
      <use x="313.289062" xlink:href="#DejaVuSans-32"/>
      <use x="345.076172" xlink:href="#DejaVuSans-97"/>
      <use x="406.355469" xlink:href="#DejaVuSans-99"/>
      <use x="461.335938" xlink:href="#DejaVuSans-99"/>
      <use x="516.316406" xlink:href="#DejaVuSans-117"/>
      <use x="579.695312" xlink:href="#DejaVuSans-114"/>
      <use x="620.808594" xlink:href="#DejaVuSans-97"/>
      <use x="682.087891" xlink:href="#DejaVuSans-99"/>
      <use x="737.068359" xlink:href="#DejaVuSans-121"/>
     </g>
    </g>
    <g id="line2d_22">
     <path d="M 189 114.176562 
L 209 114.176562 
" style="fill:none;stroke:#ff7f0e;stroke-linecap:square;stroke-width:1.5;"/>
    </g>
    <g id="line2d_23"/>
    <g id="text_20">
     <!-- Predicted accuracy -->
     <defs>
      <path d="M 19.671875 64.796875 
L 19.671875 37.40625 
L 32.078125 37.40625 
Q 38.96875 37.40625 42.71875 40.96875 
Q 46.484375 44.53125 46.484375 51.125 
Q 46.484375 57.671875 42.71875 61.234375 
Q 38.96875 64.796875 32.078125 64.796875 
z
M 9.8125 72.90625 
L 32.078125 72.90625 
Q 44.34375 72.90625 50.609375 67.359375 
Q 56.890625 61.8125 56.890625 51.125 
Q 56.890625 40.328125 50.609375 34.8125 
Q 44.34375 29.296875 32.078125 29.296875 
L 19.671875 29.296875 
L 19.671875 0 
L 9.8125 0 
z
" id="DejaVuSans-80"/>
     </defs>
     <g transform="translate(217 117.676562)scale(0.1 -0.1)">
      <use xlink:href="#DejaVuSans-80"/>
      <use x="58.552734" xlink:href="#DejaVuSans-114"/>
      <use x="97.416016" xlink:href="#DejaVuSans-101"/>
      <use x="158.939453" xlink:href="#DejaVuSans-100"/>
      <use x="222.416016" xlink:href="#DejaVuSans-105"/>
      <use x="250.199219" xlink:href="#DejaVuSans-99"/>
      <use x="305.179688" xlink:href="#DejaVuSans-116"/>
      <use x="344.388672" xlink:href="#DejaVuSans-101"/>
      <use x="405.912109" xlink:href="#DejaVuSans-100"/>
      <use x="469.388672" xlink:href="#DejaVuSans-32"/>
      <use x="501.175781" xlink:href="#DejaVuSans-97"/>
      <use x="562.455078" xlink:href="#DejaVuSans-99"/>
      <use x="617.435547" xlink:href="#DejaVuSans-99"/>
      <use x="672.416016" xlink:href="#DejaVuSans-117"/>
      <use x="735.794922" xlink:href="#DejaVuSans-114"/>
      <use x="776.908203" xlink:href="#DejaVuSans-97"/>
      <use x="838.1875" xlink:href="#DejaVuSans-99"/>
      <use x="893.167969" xlink:href="#DejaVuSans-121"/>
     </g>
    </g>
   </g>
  </g>
  <g id="axes_2">
   <g id="patch_8">
    <path d="M 180 630 
L 1296 630 
L 1296 382.909091 
L 180 382.909091 
z
" style="fill:#ffffff;"/>
   </g>
   <g id="matplotlib.axis_3">
    <g id="xtick_9">
     <g id="line2d_24">
      <g>
       <use style="stroke:#000000;stroke-width:0.8;" x="230.727273" xlink:href="#m0bc24f5d88" y="630"/>
      </g>
     </g>
     <g id="text_21">
      <!-- 0 -->
      <g transform="translate(227.546023 644.598437)scale(0.1 -0.1)">
       <use xlink:href="#DejaVuSans-48"/>
      </g>
     </g>
    </g>
    <g id="xtick_10">
     <g id="line2d_25">
      <g>
       <use style="stroke:#000000;stroke-width:0.8;" x="370.087912" xlink:href="#m0bc24f5d88" y="630"/>
      </g>
     </g>
     <g id="text_22">
      <!-- 25 -->
      <g transform="translate(363.725412 644.598437)scale(0.1 -0.1)">
       <use xlink:href="#DejaVuSans-50"/>
       <use x="63.623047" xlink:href="#DejaVuSans-53"/>
      </g>
     </g>
    </g>
    <g id="xtick_11">
     <g id="line2d_26">
      <g>
       <use style="stroke:#000000;stroke-width:0.8;" x="509.448551" xlink:href="#m0bc24f5d88" y="630"/>
      </g>
     </g>
     <g id="text_23">
      <!-- 50 -->
      <g transform="translate(503.086051 644.598437)scale(0.1 -0.1)">
       <use xlink:href="#DejaVuSans-53"/>
       <use x="63.623047" xlink:href="#DejaVuSans-48"/>
      </g>
     </g>
    </g>
    <g id="xtick_12">
     <g id="line2d_27">
      <g>
       <use style="stroke:#000000;stroke-width:0.8;" x="648.809191" xlink:href="#m0bc24f5d88" y="630"/>
      </g>
     </g>
     <g id="text_24">
      <!-- 75 -->
      <g transform="translate(642.446691 644.598437)scale(0.1 -0.1)">
       <use xlink:href="#DejaVuSans-55"/>
       <use x="63.623047" xlink:href="#DejaVuSans-53"/>
      </g>
     </g>
    </g>
    <g id="xtick_13">
     <g id="line2d_28">
      <g>
       <use style="stroke:#000000;stroke-width:0.8;" x="788.16983" xlink:href="#m0bc24f5d88" y="630"/>
      </g>
     </g>
     <g id="text_25">
      <!-- 100 -->
      <g transform="translate(778.62608 644.598437)scale(0.1 -0.1)">
       <use xlink:href="#DejaVuSans-49"/>
       <use x="63.623047" xlink:href="#DejaVuSans-48"/>
       <use x="127.246094" xlink:href="#DejaVuSans-48"/>
      </g>
     </g>
    </g>
    <g id="xtick_14">
     <g id="line2d_29">
      <g>
       <use style="stroke:#000000;stroke-width:0.8;" x="927.53047" xlink:href="#m0bc24f5d88" y="630"/>
      </g>
     </g>
     <g id="text_26">
      <!-- 125 -->
      <g transform="translate(917.98672 644.598437)scale(0.1 -0.1)">
       <use xlink:href="#DejaVuSans-49"/>
       <use x="63.623047" xlink:href="#DejaVuSans-50"/>
       <use x="127.246094" xlink:href="#DejaVuSans-53"/>
      </g>
     </g>
    </g>
    <g id="xtick_15">
     <g id="line2d_30">
      <g>
       <use style="stroke:#000000;stroke-width:0.8;" x="1066.891109" xlink:href="#m0bc24f5d88" y="630"/>
      </g>
     </g>
     <g id="text_27">
      <!-- 150 -->
      <g transform="translate(1057.347359 644.598437)scale(0.1 -0.1)">
       <use xlink:href="#DejaVuSans-49"/>
       <use x="63.623047" xlink:href="#DejaVuSans-53"/>
       <use x="127.246094" xlink:href="#DejaVuSans-48"/>
      </g>
     </g>
    </g>
    <g id="xtick_16">
     <g id="line2d_31">
      <g>
       <use style="stroke:#000000;stroke-width:0.8;" x="1206.251748" xlink:href="#m0bc24f5d88" y="630"/>
      </g>
     </g>
     <g id="text_28">
      <!-- 175 -->
      <g transform="translate(1196.707998 644.598437)scale(0.1 -0.1)">
       <use xlink:href="#DejaVuSans-49"/>
       <use x="63.623047" xlink:href="#DejaVuSans-55"/>
       <use x="127.246094" xlink:href="#DejaVuSans-53"/>
      </g>
     </g>
    </g>
   </g>
   <g id="matplotlib.axis_4">
    <g id="ytick_10">
     <g id="line2d_32">
      <g>
       <use style="stroke:#000000;stroke-width:0.8;" x="180" xlink:href="#m14a08101f4" y="614.239154"/>
      </g>
     </g>
     <g id="text_29">
      <!-- 0.48 -->
      <g transform="translate(150.734375 618.038373)scale(0.1 -0.1)">
       <use xlink:href="#DejaVuSans-48"/>
       <use x="63.623047" xlink:href="#DejaVuSans-46"/>
       <use x="95.410156" xlink:href="#DejaVuSans-52"/>
       <use x="159.033203" xlink:href="#DejaVuSans-56"/>
      </g>
     </g>
    </g>
    <g id="ytick_11">
     <g id="line2d_33">
      <g>
       <use style="stroke:#000000;stroke-width:0.8;" x="180" xlink:href="#m14a08101f4" y="586.24926"/>
      </g>
     </g>
     <g id="text_30">
      <!-- 0.50 -->
      <g transform="translate(150.734375 590.048479)scale(0.1 -0.1)">
       <use xlink:href="#DejaVuSans-48"/>
       <use x="63.623047" xlink:href="#DejaVuSans-46"/>
       <use x="95.410156" xlink:href="#DejaVuSans-53"/>
       <use x="159.033203" xlink:href="#DejaVuSans-48"/>
      </g>
     </g>
    </g>
    <g id="ytick_12">
     <g id="line2d_34">
      <g>
       <use style="stroke:#000000;stroke-width:0.8;" x="180" xlink:href="#m14a08101f4" y="558.259367"/>
      </g>
     </g>
     <g id="text_31">
      <!-- 0.52 -->
      <g transform="translate(150.734375 562.058586)scale(0.1 -0.1)">
       <use xlink:href="#DejaVuSans-48"/>
       <use x="63.623047" xlink:href="#DejaVuSans-46"/>
       <use x="95.410156" xlink:href="#DejaVuSans-53"/>
       <use x="159.033203" xlink:href="#DejaVuSans-50"/>
      </g>
     </g>
    </g>
    <g id="ytick_13">
     <g id="line2d_35">
      <g>
       <use style="stroke:#000000;stroke-width:0.8;" x="180" xlink:href="#m14a08101f4" y="530.269473"/>
      </g>
     </g>
     <g id="text_32">
      <!-- 0.54 -->
      <g transform="translate(150.734375 534.068692)scale(0.1 -0.1)">
       <use xlink:href="#DejaVuSans-48"/>
       <use x="63.623047" xlink:href="#DejaVuSans-46"/>
       <use x="95.410156" xlink:href="#DejaVuSans-53"/>
       <use x="159.033203" xlink:href="#DejaVuSans-52"/>
      </g>
     </g>
    </g>
    <g id="ytick_14">
     <g id="line2d_36">
      <g>
       <use style="stroke:#000000;stroke-width:0.8;" x="180" xlink:href="#m14a08101f4" y="502.27958"/>
      </g>
     </g>
     <g id="text_33">
      <!-- 0.56 -->
      <g transform="translate(150.734375 506.078798)scale(0.1 -0.1)">
       <use xlink:href="#DejaVuSans-48"/>
       <use x="63.623047" xlink:href="#DejaVuSans-46"/>
       <use x="95.410156" xlink:href="#DejaVuSans-53"/>
       <use x="159.033203" xlink:href="#DejaVuSans-54"/>
      </g>
     </g>
    </g>
    <g id="ytick_15">
     <g id="line2d_37">
      <g>
       <use style="stroke:#000000;stroke-width:0.8;" x="180" xlink:href="#m14a08101f4" y="474.289686"/>
      </g>
     </g>
     <g id="text_34">
      <!-- 0.58 -->
      <g transform="translate(150.734375 478.088905)scale(0.1 -0.1)">
       <use xlink:href="#DejaVuSans-48"/>
       <use x="63.623047" xlink:href="#DejaVuSans-46"/>
       <use x="95.410156" xlink:href="#DejaVuSans-53"/>
       <use x="159.033203" xlink:href="#DejaVuSans-56"/>
      </g>
     </g>
    </g>
    <g id="ytick_16">
     <g id="line2d_38">
      <g>
       <use style="stroke:#000000;stroke-width:0.8;" x="180" xlink:href="#m14a08101f4" y="446.299793"/>
      </g>
     </g>
     <g id="text_35">
      <!-- 0.60 -->
      <g transform="translate(150.734375 450.099011)scale(0.1 -0.1)">
       <use xlink:href="#DejaVuSans-48"/>
       <use x="63.623047" xlink:href="#DejaVuSans-46"/>
       <use x="95.410156" xlink:href="#DejaVuSans-54"/>
       <use x="159.033203" xlink:href="#DejaVuSans-48"/>
      </g>
     </g>
    </g>
    <g id="ytick_17">
     <g id="line2d_39">
      <g>
       <use style="stroke:#000000;stroke-width:0.8;" x="180" xlink:href="#m14a08101f4" y="418.309899"/>
      </g>
     </g>
     <g id="text_36">
      <!-- 0.62 -->
      <g transform="translate(150.734375 422.109118)scale(0.1 -0.1)">
       <use xlink:href="#DejaVuSans-48"/>
       <use x="63.623047" xlink:href="#DejaVuSans-46"/>
       <use x="95.410156" xlink:href="#DejaVuSans-54"/>
       <use x="159.033203" xlink:href="#DejaVuSans-50"/>
      </g>
     </g>
    </g>
    <g id="ytick_18">
     <g id="line2d_40">
      <g>
       <use style="stroke:#000000;stroke-width:0.8;" x="180" xlink:href="#m14a08101f4" y="390.320006"/>
      </g>
     </g>
     <g id="text_37">
      <!-- 0.64 -->
      <g transform="translate(150.734375 394.119224)scale(0.1 -0.1)">
       <use xlink:href="#DejaVuSans-48"/>
       <use x="63.623047" xlink:href="#DejaVuSans-46"/>
       <use x="95.410156" xlink:href="#DejaVuSans-54"/>
       <use x="159.033203" xlink:href="#DejaVuSans-52"/>
      </g>
     </g>
    </g>
   </g>
   <g id="line2d_41">
    <path clip-path="url(#p5594e0f72d)" d="M 230.727273 614.392924 
L 236.301698 586.122659 
L 241.876124 550.589902 
L 247.450549 586.235193 
L 253.024975 610.508476 
L 258.599401 586.289451 
L 264.173826 578.295485 
L 269.748252 586.24926 
L 275.322677 586.104573 
L 280.897103 573.229425 
L 286.471528 586.24926 
L 297.62038 586.24926 
L 303.194805 586.146774 
L 314.343656 586.247251 
L 325.492507 586.24926 
L 331.066933 587.730294 
L 336.641359 585.971943 
L 342.215784 575.652935 
L 347.79021 586.24926 
L 353.364635 586.24926 
L 358.939061 593.210321 
L 364.513487 586.24926 
L 409.108891 586.24926 
L 414.683317 586.486386 
L 420.257742 586.24926 
L 481.576424 586.24926 
L 487.150849 587.075183 
L 492.725275 586.24926 
L 498.2997 586.24926 
L 503.874126 587.034992 
L 509.448551 586.279403 
L 515.022977 577.415305 
L 520.597403 586.24926 
L 531.746254 586.24926 
L 537.320679 586.641121 
L 542.895105 586.271365 
L 548.46953 586.24926 
L 554.043956 588.546169 
L 559.618382 586.24926 
L 565.192807 586.24926 
L 570.767233 593.965909 
L 576.341658 586.104573 
L 581.916084 586.24926 
L 693.404595 586.24926 
L 698.979021 577.043539 
L 704.553447 586.68935 
L 710.127872 586.699398 
L 715.702298 586.24926 
L 738 586.24926 
L 743.574426 564.648672 
L 749.148851 586.259308 
L 760.297702 586.283423 
L 765.872128 586.050315 
L 771.446553 579.258057 
L 777.020979 586.24926 
L 793.744256 586.255289 
L 799.318681 605.116869 
L 804.893107 581.349992 
L 810.467532 587.744361 
L 816.041958 586.24926 
L 821.616384 586.24926 
L 827.190809 599.707177 
L 832.765235 586.414043 
L 838.33966 582.756673 
L 843.914086 586.3839 
L 849.488511 586.24926 
L 855.062937 572.660724 
L 860.637363 586.24926 
L 871.786214 586.24926 
L 877.360639 606.151784 
L 882.935065 586.325623 
L 894.083916 586.24926 
L 899.658342 586.24926 
L 905.232767 586.612988 
L 910.807193 586.24926 
L 916.381618 587.382643 
L 921.956044 586.498444 
L 927.53047 583.536376 
L 933.104895 459.579663 
L 938.679321 586.24926 
L 944.253746 586.24926 
L 949.828172 587.109345 
L 955.402597 586.261318 
L 960.977023 586.763704 
L 966.551449 578.53864 
L 972.125874 586.24926 
L 977.7003 589.016402 
L 983.274725 586.24926 
L 988.849151 573.223396 
L 994.423576 553.85943 
L 999.998002 563.768491 
L 1005.572428 586.297489 
L 1011.146853 586.24926 
L 1016.721279 545.246524 
L 1022.295704 572.927993 
L 1027.87013 590.34873 
L 1033.444555 586.24926 
L 1039.018981 584.430623 
L 1044.593407 586.24926 
L 1050.167832 586.24926 
L 1055.742258 562.80592 
L 1061.316683 571.390692 
L 1066.891109 578.343714 
L 1072.465534 586.281413 
L 1083.614386 586.24926 
L 1089.188811 556.793364 
L 1094.763237 586.24926 
L 1100.337662 591.562495 
L 1105.912088 586.24926 
L 1111.486513 543.596689 
L 1117.060939 570.86821 
L 1122.635365 578.343714 
L 1128.20979 543.478126 
L 1133.784216 586.247251 
L 1139.358641 571.067155 
L 1144.933067 577.065644 
L 1150.507493 587.362548 
L 1156.081918 586.24926 
L 1161.656344 567.309308 
L 1167.230769 573.934775 
L 1172.805195 586.24926 
L 1183.954046 586.24926 
L 1189.528472 574.274388 
L 1195.102897 586.395957 
L 1200.677323 586.343709 
L 1206.251748 584.147277 
L 1211.826174 586.24926 
L 1217.400599 583.319345 
L 1222.975025 586.950591 
L 1228.549451 586.343709 
L 1234.123876 586.566768 
L 1239.698302 556.757192 
L 1245.272727 485.344027 
L 1245.272727 485.344027 
" style="fill:none;stroke:#1f77b4;stroke-linecap:square;stroke-width:1.5;"/>
   </g>
   <g id="line2d_42">
    <path clip-path="url(#p5594e0f72d)" d="M 230.727273 618.768595 
L 236.301698 618.579615 
L 241.876124 612.008782 
L 247.450549 595.541762 
L 253.024975 592.019422 
L 258.599401 589.639677 
L 264.173826 588.780989 
L 269.748252 588.421631 
L 275.322677 588.380924 
L 297.62038 587.559356 
L 308.769231 587.302184 
L 314.343656 586.884685 
L 325.492507 586.806607 
L 331.066933 586.64528 
L 370.087912 586.387815 
L 431.406593 585.940536 
L 487.150849 585.746593 
L 509.448551 585.657755 
L 554.043956 585.470819 
L 609.788212 585.379061 
L 637.66034 585.262945 
L 726.851149 584.865966 
L 782.595405 584.75886 
L 888.509491 584.178198 
L 899.658342 584.075763 
L 927.53047 583.961649 
L 955.402597 583.800239 
L 960.977023 583.381155 
L 977.7003 583.131323 
L 1005.572428 582.934877 
L 1011.146853 582.753363 
L 1039.018981 582.544405 
L 1044.593407 582.289568 
L 1055.742258 582.135331 
L 1061.316683 581.861308 
L 1072.465534 581.747779 
L 1083.614386 581.733681 
L 1100.337662 581.287987 
L 1111.486513 581.186136 
L 1117.060939 580.956741 
L 1122.635365 580.926294 
L 1139.358641 580.390344 
L 1144.933067 579.953993 
L 1156.081918 579.47952 
L 1161.656344 579.462587 
L 1167.230769 578.898775 
L 1172.805195 578.212342 
L 1178.37962 577.83238 
L 1183.954046 577.631347 
L 1189.528472 575.556781 
L 1195.102897 575.200093 
L 1200.677323 571.188516 
L 1206.251748 570.829825 
L 1211.826174 570.026192 
L 1217.400599 566.737251 
L 1228.549451 563.539233 
L 1234.123876 560.704828 
L 1239.698302 535.766499 
L 1245.272727 394.140496 
L 1245.272727 394.140496 
" style="fill:none;stroke:#ff7f0e;stroke-linecap:square;stroke-width:1.5;"/>
   </g>
   <g id="patch_9">
    <path d="M 180 630 
L 180 382.909091 
" style="fill:none;stroke:#000000;stroke-linecap:square;stroke-linejoin:miter;stroke-width:0.8;"/>
   </g>
   <g id="patch_10">
    <path d="M 1296 630 
L 1296 382.909091 
" style="fill:none;stroke:#000000;stroke-linecap:square;stroke-linejoin:miter;stroke-width:0.8;"/>
   </g>
   <g id="patch_11">
    <path d="M 180 630 
L 1296 630 
" style="fill:none;stroke:#000000;stroke-linecap:square;stroke-linejoin:miter;stroke-width:0.8;"/>
   </g>
   <g id="patch_12">
    <path d="M 180 382.909091 
L 1296 382.909091 
" style="fill:none;stroke:#000000;stroke-linecap:square;stroke-linejoin:miter;stroke-width:0.8;"/>
   </g>
   <g id="text_38">
    <!-- Test set results at minute 3 sorted by predicted accuracy -->
    <defs>
     <path d="M 18.109375 8.203125 
L 18.109375 -20.796875 
L 9.078125 -20.796875 
L 9.078125 54.6875 
L 18.109375 54.6875 
L 18.109375 46.390625 
Q 20.953125 51.265625 25.265625 53.625 
Q 29.59375 56 35.59375 56 
Q 45.5625 56 51.78125 48.09375 
Q 58.015625 40.1875 58.015625 27.296875 
Q 58.015625 14.40625 51.78125 6.484375 
Q 45.5625 -1.421875 35.59375 -1.421875 
Q 29.59375 -1.421875 25.265625 0.953125 
Q 20.953125 3.328125 18.109375 8.203125 
z
M 48.6875 27.296875 
Q 48.6875 37.203125 44.609375 42.84375 
Q 40.53125 48.484375 33.40625 48.484375 
Q 26.265625 48.484375 22.1875 42.84375 
Q 18.109375 37.203125 18.109375 27.296875 
Q 18.109375 17.390625 22.1875 11.75 
Q 26.265625 6.109375 33.40625 6.109375 
Q 40.53125 6.109375 44.609375 11.75 
Q 48.6875 17.390625 48.6875 27.296875 
z
" id="DejaVuSans-112"/>
    </defs>
    <g transform="translate(566.742188 376.909091)scale(0.12 -0.12)">
     <use xlink:href="#DejaVuSans-84"/>
     <use x="44.083984" xlink:href="#DejaVuSans-101"/>
     <use x="105.607422" xlink:href="#DejaVuSans-115"/>
     <use x="157.707031" xlink:href="#DejaVuSans-116"/>
     <use x="196.916016" xlink:href="#DejaVuSans-32"/>
     <use x="228.703125" xlink:href="#DejaVuSans-115"/>
     <use x="280.802734" xlink:href="#DejaVuSans-101"/>
     <use x="342.326172" xlink:href="#DejaVuSans-116"/>
     <use x="381.535156" xlink:href="#DejaVuSans-32"/>
     <use x="413.322266" xlink:href="#DejaVuSans-114"/>
     <use x="452.185547" xlink:href="#DejaVuSans-101"/>
     <use x="513.708984" xlink:href="#DejaVuSans-115"/>
     <use x="565.808594" xlink:href="#DejaVuSans-117"/>
     <use x="629.1875" xlink:href="#DejaVuSans-108"/>
     <use x="656.970703" xlink:href="#DejaVuSans-116"/>
     <use x="696.179688" xlink:href="#DejaVuSans-115"/>
     <use x="748.279297" xlink:href="#DejaVuSans-32"/>
     <use x="780.066406" xlink:href="#DejaVuSans-97"/>
     <use x="841.345703" xlink:href="#DejaVuSans-116"/>
     <use x="880.554688" xlink:href="#DejaVuSans-32"/>
     <use x="912.341797" xlink:href="#DejaVuSans-109"/>
     <use x="1009.753906" xlink:href="#DejaVuSans-105"/>
     <use x="1037.537109" xlink:href="#DejaVuSans-110"/>
     <use x="1100.916016" xlink:href="#DejaVuSans-117"/>
     <use x="1164.294922" xlink:href="#DejaVuSans-116"/>
     <use x="1203.503906" xlink:href="#DejaVuSans-101"/>
     <use x="1265.027344" xlink:href="#DejaVuSans-32"/>
     <use x="1296.814453" xlink:href="#DejaVuSans-51"/>
     <use x="1360.4375" xlink:href="#DejaVuSans-32"/>
     <use x="1392.224609" xlink:href="#DejaVuSans-115"/>
     <use x="1444.324219" xlink:href="#DejaVuSans-111"/>
     <use x="1505.505859" xlink:href="#DejaVuSans-114"/>
     <use x="1546.619141" xlink:href="#DejaVuSans-116"/>
     <use x="1585.828125" xlink:href="#DejaVuSans-101"/>
     <use x="1647.351562" xlink:href="#DejaVuSans-100"/>
     <use x="1710.828125" xlink:href="#DejaVuSans-32"/>
     <use x="1742.615234" xlink:href="#DejaVuSans-98"/>
     <use x="1806.091797" xlink:href="#DejaVuSans-121"/>
     <use x="1865.271484" xlink:href="#DejaVuSans-32"/>
     <use x="1897.058594" xlink:href="#DejaVuSans-112"/>
     <use x="1960.535156" xlink:href="#DejaVuSans-114"/>
     <use x="1999.398438" xlink:href="#DejaVuSans-101"/>
     <use x="2060.921875" xlink:href="#DejaVuSans-100"/>
     <use x="2124.398438" xlink:href="#DejaVuSans-105"/>
     <use x="2152.181641" xlink:href="#DejaVuSans-99"/>
     <use x="2207.162109" xlink:href="#DejaVuSans-116"/>
     <use x="2246.371094" xlink:href="#DejaVuSans-101"/>
     <use x="2307.894531" xlink:href="#DejaVuSans-100"/>
     <use x="2371.371094" xlink:href="#DejaVuSans-32"/>
     <use x="2403.158203" xlink:href="#DejaVuSans-97"/>
     <use x="2464.4375" xlink:href="#DejaVuSans-99"/>
     <use x="2519.417969" xlink:href="#DejaVuSans-99"/>
     <use x="2574.398438" xlink:href="#DejaVuSans-117"/>
     <use x="2637.777344" xlink:href="#DejaVuSans-114"/>
     <use x="2678.890625" xlink:href="#DejaVuSans-97"/>
     <use x="2740.169922" xlink:href="#DejaVuSans-99"/>
     <use x="2795.150391" xlink:href="#DejaVuSans-121"/>
    </g>
   </g>
   <g id="legend_2">
    <g id="patch_13">
     <path d="M 187 420.265341 
L 314.2375 420.265341 
Q 316.2375 420.265341 316.2375 418.265341 
L 316.2375 389.909091 
Q 316.2375 387.909091 314.2375 387.909091 
L 187 387.909091 
Q 185 387.909091 185 389.909091 
L 185 418.265341 
Q 185 420.265341 187 420.265341 
z
" style="fill:#ffffff;opacity:0.8;stroke:#cccccc;stroke-linejoin:miter;"/>
    </g>
    <g id="line2d_43">
     <path d="M 189 396.007528 
L 209 396.007528 
" style="fill:none;stroke:#1f77b4;stroke-linecap:square;stroke-width:1.5;"/>
    </g>
    <g id="line2d_44"/>
    <g id="text_39">
     <!-- Actual accuracy -->
     <g transform="translate(217 399.507528)scale(0.1 -0.1)">
      <use xlink:href="#DejaVuSans-65"/>
      <use x="66.658203" xlink:href="#DejaVuSans-99"/>
      <use x="121.638672" xlink:href="#DejaVuSans-116"/>
      <use x="160.847656" xlink:href="#DejaVuSans-117"/>
      <use x="224.226562" xlink:href="#DejaVuSans-97"/>
      <use x="285.505859" xlink:href="#DejaVuSans-108"/>
      <use x="313.289062" xlink:href="#DejaVuSans-32"/>
      <use x="345.076172" xlink:href="#DejaVuSans-97"/>
      <use x="406.355469" xlink:href="#DejaVuSans-99"/>
      <use x="461.335938" xlink:href="#DejaVuSans-99"/>
      <use x="516.316406" xlink:href="#DejaVuSans-117"/>
      <use x="579.695312" xlink:href="#DejaVuSans-114"/>
      <use x="620.808594" xlink:href="#DejaVuSans-97"/>
      <use x="682.087891" xlink:href="#DejaVuSans-99"/>
      <use x="737.068359" xlink:href="#DejaVuSans-121"/>
     </g>
    </g>
    <g id="line2d_45">
     <path d="M 189 410.685653 
L 209 410.685653 
" style="fill:none;stroke:#ff7f0e;stroke-linecap:square;stroke-width:1.5;"/>
    </g>
    <g id="line2d_46"/>
    <g id="text_40">
     <!-- Predicted accuracy -->
     <g transform="translate(217 414.185653)scale(0.1 -0.1)">
      <use xlink:href="#DejaVuSans-80"/>
      <use x="58.552734" xlink:href="#DejaVuSans-114"/>
      <use x="97.416016" xlink:href="#DejaVuSans-101"/>
      <use x="158.939453" xlink:href="#DejaVuSans-100"/>
      <use x="222.416016" xlink:href="#DejaVuSans-105"/>
      <use x="250.199219" xlink:href="#DejaVuSans-99"/>
      <use x="305.179688" xlink:href="#DejaVuSans-116"/>
      <use x="344.388672" xlink:href="#DejaVuSans-101"/>
      <use x="405.912109" xlink:href="#DejaVuSans-100"/>
      <use x="469.388672" xlink:href="#DejaVuSans-32"/>
      <use x="501.175781" xlink:href="#DejaVuSans-97"/>
      <use x="562.455078" xlink:href="#DejaVuSans-99"/>
      <use x="617.435547" xlink:href="#DejaVuSans-99"/>
      <use x="672.416016" xlink:href="#DejaVuSans-117"/>
      <use x="735.794922" xlink:href="#DejaVuSans-114"/>
      <use x="776.908203" xlink:href="#DejaVuSans-97"/>
      <use x="838.1875" xlink:href="#DejaVuSans-99"/>
      <use x="893.167969" xlink:href="#DejaVuSans-121"/>
     </g>
    </g>
   </g>
  </g>
 </g>
 <defs>
  <clipPath id="pfae9a0bb51">
   <rect height="247.090909" width="1116" x="180" y="86.4"/>
  </clipPath>
  <clipPath id="p5594e0f72d">
   <rect height="247.090909" width="1116" x="180" y="382.909091"/>
  </clipPath>
 </defs>
</svg>
