<?xml version="1.0" encoding="utf-8" standalone="no"?>
<!DOCTYPE svg PUBLIC "-//W3C//DTD SVG 1.1//EN"
  "http://www.w3.org/Graphics/SVG/1.1/DTD/svg11.dtd">
<!-- Created with matplotlib (https://matplotlib.org/) -->
<svg height="720pt" version="1.1" viewBox="0 0 1440 720" width="1440pt" xmlns="http://www.w3.org/2000/svg" xmlns:xlink="http://www.w3.org/1999/xlink">
 <defs>
  <style type="text/css">
*{stroke-linecap:butt;stroke-linejoin:round;}
  </style>
 </defs>
 <g id="figure_1">
  <g id="patch_1">
   <path d="M 0 720 
L 1440 720 
L 1440 0 
L 0 0 
z
" style="fill:#ffffff;"/>
  </g>
  <g id="axes_1">
   <g id="patch_2">
    <path d="M 180 333.490909 
L 1296 333.490909 
L 1296 86.4 
L 180 86.4 
z
" style="fill:#ffffff;"/>
   </g>
   <g id="matplotlib.axis_1">
    <g id="xtick_1">
     <g id="line2d_1">
      <defs>
       <path d="M 0 0 
L 0 3.5 
" id="mbf911417fb" style="stroke:#000000;stroke-width:0.8;"/>
      </defs>
      <g>
       <use style="stroke:#000000;stroke-width:0.8;" x="230.727273" xlink:href="#mbf911417fb" y="333.490909"/>
      </g>
     </g>
     <g id="text_1">
      <!-- 0 -->
      <defs>
       <path d="M 31.78125 66.40625 
Q 24.171875 66.40625 20.328125 58.90625 
Q 16.5 51.421875 16.5 36.375 
Q 16.5 21.390625 20.328125 13.890625 
Q 24.171875 6.390625 31.78125 6.390625 
Q 39.453125 6.390625 43.28125 13.890625 
Q 47.125 21.390625 47.125 36.375 
Q 47.125 51.421875 43.28125 58.90625 
Q 39.453125 66.40625 31.78125 66.40625 
z
M 31.78125 74.21875 
Q 44.046875 74.21875 50.515625 64.515625 
Q 56.984375 54.828125 56.984375 36.375 
Q 56.984375 17.96875 50.515625 8.265625 
Q 44.046875 -1.421875 31.78125 -1.421875 
Q 19.53125 -1.421875 13.0625 8.265625 
Q 6.59375 17.96875 6.59375 36.375 
Q 6.59375 54.828125 13.0625 64.515625 
Q 19.53125 74.21875 31.78125 74.21875 
z
" id="DejaVuSans-48"/>
      </defs>
      <g transform="translate(227.546023 348.089347)scale(0.1 -0.1)">
       <use xlink:href="#DejaVuSans-48"/>
      </g>
     </g>
    </g>
    <g id="xtick_2">
     <g id="line2d_2">
      <g>
       <use style="stroke:#000000;stroke-width:0.8;" x="370.087912" xlink:href="#mbf911417fb" y="333.490909"/>
      </g>
     </g>
     <g id="text_2">
      <!-- 25 -->
      <defs>
       <path d="M 19.1875 8.296875 
L 53.609375 8.296875 
L 53.609375 0 
L 7.328125 0 
L 7.328125 8.296875 
Q 12.9375 14.109375 22.625 23.890625 
Q 32.328125 33.6875 34.8125 36.53125 
Q 39.546875 41.84375 41.421875 45.53125 
Q 43.3125 49.21875 43.3125 52.78125 
Q 43.3125 58.59375 39.234375 62.25 
Q 35.15625 65.921875 28.609375 65.921875 
Q 23.96875 65.921875 18.8125 64.3125 
Q 13.671875 62.703125 7.8125 59.421875 
L 7.8125 69.390625 
Q 13.765625 71.78125 18.9375 73 
Q 24.125 74.21875 28.421875 74.21875 
Q 39.75 74.21875 46.484375 68.546875 
Q 53.21875 62.890625 53.21875 53.421875 
Q 53.21875 48.921875 51.53125 44.890625 
Q 49.859375 40.875 45.40625 35.40625 
Q 44.1875 33.984375 37.640625 27.21875 
Q 31.109375 20.453125 19.1875 8.296875 
z
" id="DejaVuSans-50"/>
       <path d="M 10.796875 72.90625 
L 49.515625 72.90625 
L 49.515625 64.59375 
L 19.828125 64.59375 
L 19.828125 46.734375 
Q 21.96875 47.46875 24.109375 47.828125 
Q 26.265625 48.1875 28.421875 48.1875 
Q 40.625 48.1875 47.75 41.5 
Q 54.890625 34.8125 54.890625 23.390625 
Q 54.890625 11.625 47.5625 5.09375 
Q 40.234375 -1.421875 26.90625 -1.421875 
Q 22.3125 -1.421875 17.546875 -0.640625 
Q 12.796875 0.140625 7.71875 1.703125 
L 7.71875 11.625 
Q 12.109375 9.234375 16.796875 8.0625 
Q 21.484375 6.890625 26.703125 6.890625 
Q 35.15625 6.890625 40.078125 11.328125 
Q 45.015625 15.765625 45.015625 23.390625 
Q 45.015625 31 40.078125 35.4375 
Q 35.15625 39.890625 26.703125 39.890625 
Q 22.75 39.890625 18.8125 39.015625 
Q 14.890625 38.140625 10.796875 36.28125 
z
" id="DejaVuSans-53"/>
      </defs>
      <g transform="translate(363.725412 348.089347)scale(0.1 -0.1)">
       <use xlink:href="#DejaVuSans-50"/>
       <use x="63.623047" xlink:href="#DejaVuSans-53"/>
      </g>
     </g>
    </g>
    <g id="xtick_3">
     <g id="line2d_3">
      <g>
       <use style="stroke:#000000;stroke-width:0.8;" x="509.448551" xlink:href="#mbf911417fb" y="333.490909"/>
      </g>
     </g>
     <g id="text_3">
      <!-- 50 -->
      <g transform="translate(503.086051 348.089347)scale(0.1 -0.1)">
       <use xlink:href="#DejaVuSans-53"/>
       <use x="63.623047" xlink:href="#DejaVuSans-48"/>
      </g>
     </g>
    </g>
    <g id="xtick_4">
     <g id="line2d_4">
      <g>
       <use style="stroke:#000000;stroke-width:0.8;" x="648.809191" xlink:href="#mbf911417fb" y="333.490909"/>
      </g>
     </g>
     <g id="text_4">
      <!-- 75 -->
      <defs>
       <path d="M 8.203125 72.90625 
L 55.078125 72.90625 
L 55.078125 68.703125 
L 28.609375 0 
L 18.3125 0 
L 43.21875 64.59375 
L 8.203125 64.59375 
z
" id="DejaVuSans-55"/>
      </defs>
      <g transform="translate(642.446691 348.089347)scale(0.1 -0.1)">
       <use xlink:href="#DejaVuSans-55"/>
       <use x="63.623047" xlink:href="#DejaVuSans-53"/>
      </g>
     </g>
    </g>
    <g id="xtick_5">
     <g id="line2d_5">
      <g>
       <use style="stroke:#000000;stroke-width:0.8;" x="788.16983" xlink:href="#mbf911417fb" y="333.490909"/>
      </g>
     </g>
     <g id="text_5">
      <!-- 100 -->
      <defs>
       <path d="M 12.40625 8.296875 
L 28.515625 8.296875 
L 28.515625 63.921875 
L 10.984375 60.40625 
L 10.984375 69.390625 
L 28.421875 72.90625 
L 38.28125 72.90625 
L 38.28125 8.296875 
L 54.390625 8.296875 
L 54.390625 0 
L 12.40625 0 
z
" id="DejaVuSans-49"/>
      </defs>
      <g transform="translate(778.62608 348.089347)scale(0.1 -0.1)">
       <use xlink:href="#DejaVuSans-49"/>
       <use x="63.623047" xlink:href="#DejaVuSans-48"/>
       <use x="127.246094" xlink:href="#DejaVuSans-48"/>
      </g>
     </g>
    </g>
    <g id="xtick_6">
     <g id="line2d_6">
      <g>
       <use style="stroke:#000000;stroke-width:0.8;" x="927.53047" xlink:href="#mbf911417fb" y="333.490909"/>
      </g>
     </g>
     <g id="text_6">
      <!-- 125 -->
      <g transform="translate(917.98672 348.089347)scale(0.1 -0.1)">
       <use xlink:href="#DejaVuSans-49"/>
       <use x="63.623047" xlink:href="#DejaVuSans-50"/>
       <use x="127.246094" xlink:href="#DejaVuSans-53"/>
      </g>
     </g>
    </g>
    <g id="xtick_7">
     <g id="line2d_7">
      <g>
       <use style="stroke:#000000;stroke-width:0.8;" x="1066.891109" xlink:href="#mbf911417fb" y="333.490909"/>
      </g>
     </g>
     <g id="text_7">
      <!-- 150 -->
      <g transform="translate(1057.347359 348.089347)scale(0.1 -0.1)">
       <use xlink:href="#DejaVuSans-49"/>
       <use x="63.623047" xlink:href="#DejaVuSans-53"/>
       <use x="127.246094" xlink:href="#DejaVuSans-48"/>
      </g>
     </g>
    </g>
    <g id="xtick_8">
     <g id="line2d_8">
      <g>
       <use style="stroke:#000000;stroke-width:0.8;" x="1206.251748" xlink:href="#mbf911417fb" y="333.490909"/>
      </g>
     </g>
     <g id="text_8">
      <!-- 175 -->
      <g transform="translate(1196.707998 348.089347)scale(0.1 -0.1)">
       <use xlink:href="#DejaVuSans-49"/>
       <use x="63.623047" xlink:href="#DejaVuSans-55"/>
       <use x="127.246094" xlink:href="#DejaVuSans-53"/>
      </g>
     </g>
    </g>
   </g>
   <g id="matplotlib.axis_2">
    <g id="ytick_1">
     <g id="line2d_9">
      <defs>
       <path d="M 0 0 
L -3.5 0 
" id="mde31e57bfe" style="stroke:#000000;stroke-width:0.8;"/>
      </defs>
      <g>
       <use style="stroke:#000000;stroke-width:0.8;" x="180" xlink:href="#mde31e57bfe" y="315.096902"/>
      </g>
     </g>
     <g id="text_9">
      <!-- 0.475 -->
      <defs>
       <path d="M 10.6875 12.40625 
L 21 12.40625 
L 21 0 
L 10.6875 0 
z
" id="DejaVuSans-46"/>
       <path d="M 37.796875 64.3125 
L 12.890625 25.390625 
L 37.796875 25.390625 
z
M 35.203125 72.90625 
L 47.609375 72.90625 
L 47.609375 25.390625 
L 58.015625 25.390625 
L 58.015625 17.1875 
L 47.609375 17.1875 
L 47.609375 0 
L 37.796875 0 
L 37.796875 17.1875 
L 4.890625 17.1875 
L 4.890625 26.703125 
z
" id="DejaVuSans-52"/>
      </defs>
      <g transform="translate(144.371875 318.896121)scale(0.1 -0.1)">
       <use xlink:href="#DejaVuSans-48"/>
       <use x="63.623047" xlink:href="#DejaVuSans-46"/>
       <use x="95.410156" xlink:href="#DejaVuSans-52"/>
       <use x="159.033203" xlink:href="#DejaVuSans-55"/>
       <use x="222.65625" xlink:href="#DejaVuSans-53"/>
      </g>
     </g>
    </g>
    <g id="ytick_2">
     <g id="line2d_10">
      <g>
       <use style="stroke:#000000;stroke-width:0.8;" x="180" xlink:href="#mde31e57bfe" y="280.90674"/>
      </g>
     </g>
     <g id="text_10">
      <!-- 0.500 -->
      <g transform="translate(144.371875 284.705958)scale(0.1 -0.1)">
       <use xlink:href="#DejaVuSans-48"/>
       <use x="63.623047" xlink:href="#DejaVuSans-46"/>
       <use x="95.410156" xlink:href="#DejaVuSans-53"/>
       <use x="159.033203" xlink:href="#DejaVuSans-48"/>
       <use x="222.65625" xlink:href="#DejaVuSans-48"/>
      </g>
     </g>
    </g>
    <g id="ytick_3">
     <g id="line2d_11">
      <g>
       <use style="stroke:#000000;stroke-width:0.8;" x="180" xlink:href="#mde31e57bfe" y="246.716577"/>
      </g>
     </g>
     <g id="text_11">
      <!-- 0.525 -->
      <g transform="translate(144.371875 250.515796)scale(0.1 -0.1)">
       <use xlink:href="#DejaVuSans-48"/>
       <use x="63.623047" xlink:href="#DejaVuSans-46"/>
       <use x="95.410156" xlink:href="#DejaVuSans-53"/>
       <use x="159.033203" xlink:href="#DejaVuSans-50"/>
       <use x="222.65625" xlink:href="#DejaVuSans-53"/>
      </g>
     </g>
    </g>
    <g id="ytick_4">
     <g id="line2d_12">
      <g>
       <use style="stroke:#000000;stroke-width:0.8;" x="180" xlink:href="#mde31e57bfe" y="212.526414"/>
      </g>
     </g>
     <g id="text_12">
      <!-- 0.550 -->
      <g transform="translate(144.371875 216.325633)scale(0.1 -0.1)">
       <use xlink:href="#DejaVuSans-48"/>
       <use x="63.623047" xlink:href="#DejaVuSans-46"/>
       <use x="95.410156" xlink:href="#DejaVuSans-53"/>
       <use x="159.033203" xlink:href="#DejaVuSans-53"/>
       <use x="222.65625" xlink:href="#DejaVuSans-48"/>
      </g>
     </g>
    </g>
    <g id="ytick_5">
     <g id="line2d_13">
      <g>
       <use style="stroke:#000000;stroke-width:0.8;" x="180" xlink:href="#mde31e57bfe" y="178.336252"/>
      </g>
     </g>
     <g id="text_13">
      <!-- 0.575 -->
      <g transform="translate(144.371875 182.135471)scale(0.1 -0.1)">
       <use xlink:href="#DejaVuSans-48"/>
       <use x="63.623047" xlink:href="#DejaVuSans-46"/>
       <use x="95.410156" xlink:href="#DejaVuSans-53"/>
       <use x="159.033203" xlink:href="#DejaVuSans-55"/>
       <use x="222.65625" xlink:href="#DejaVuSans-53"/>
      </g>
     </g>
    </g>
    <g id="ytick_6">
     <g id="line2d_14">
      <g>
       <use style="stroke:#000000;stroke-width:0.8;" x="180" xlink:href="#mde31e57bfe" y="144.146089"/>
      </g>
     </g>
     <g id="text_14">
      <!-- 0.600 -->
      <defs>
       <path d="M 33.015625 40.375 
Q 26.375 40.375 22.484375 35.828125 
Q 18.609375 31.296875 18.609375 23.390625 
Q 18.609375 15.53125 22.484375 10.953125 
Q 26.375 6.390625 33.015625 6.390625 
Q 39.65625 6.390625 43.53125 10.953125 
Q 47.40625 15.53125 47.40625 23.390625 
Q 47.40625 31.296875 43.53125 35.828125 
Q 39.65625 40.375 33.015625 40.375 
z
M 52.59375 71.296875 
L 52.59375 62.3125 
Q 48.875 64.0625 45.09375 64.984375 
Q 41.3125 65.921875 37.59375 65.921875 
Q 27.828125 65.921875 22.671875 59.328125 
Q 17.53125 52.734375 16.796875 39.40625 
Q 19.671875 43.65625 24.015625 45.921875 
Q 28.375 48.1875 33.59375 48.1875 
Q 44.578125 48.1875 50.953125 41.515625 
Q 57.328125 34.859375 57.328125 23.390625 
Q 57.328125 12.15625 50.6875 5.359375 
Q 44.046875 -1.421875 33.015625 -1.421875 
Q 20.359375 -1.421875 13.671875 8.265625 
Q 6.984375 17.96875 6.984375 36.375 
Q 6.984375 53.65625 15.1875 63.9375 
Q 23.390625 74.21875 37.203125 74.21875 
Q 40.921875 74.21875 44.703125 73.484375 
Q 48.484375 72.75 52.59375 71.296875 
z
" id="DejaVuSans-54"/>
      </defs>
      <g transform="translate(144.371875 147.945308)scale(0.1 -0.1)">
       <use xlink:href="#DejaVuSans-48"/>
       <use x="63.623047" xlink:href="#DejaVuSans-46"/>
       <use x="95.410156" xlink:href="#DejaVuSans-54"/>
       <use x="159.033203" xlink:href="#DejaVuSans-48"/>
       <use x="222.65625" xlink:href="#DejaVuSans-48"/>
      </g>
     </g>
    </g>
    <g id="ytick_7">
     <g id="line2d_15">
      <g>
       <use style="stroke:#000000;stroke-width:0.8;" x="180" xlink:href="#mde31e57bfe" y="109.955927"/>
      </g>
     </g>
     <g id="text_15">
      <!-- 0.625 -->
      <g transform="translate(144.371875 113.755145)scale(0.1 -0.1)">
       <use xlink:href="#DejaVuSans-48"/>
       <use x="63.623047" xlink:href="#DejaVuSans-46"/>
       <use x="95.410156" xlink:href="#DejaVuSans-54"/>
       <use x="159.033203" xlink:href="#DejaVuSans-50"/>
       <use x="222.65625" xlink:href="#DejaVuSans-53"/>
      </g>
     </g>
    </g>
   </g>
   <g id="line2d_16">
    <path clip-path="url(#pbe763dc323)" d="M 230.727273 322.259504 
L 236.301698 319.582905 
L 241.876124 314.655843 
L 247.450549 313.640581 
L 253.024975 305.46743 
L 258.599401 301.412275 
L 264.173826 295.744877 
L 269.748252 290.943494 
L 275.322677 290.727481 
L 280.897103 288.962065 
L 286.471528 288.192273 
L 292.045954 288.141215 
L 297.62038 286.837281 
L 303.194805 285.784708 
L 308.769231 284.887272 
L 314.343656 284.355094 
L 325.492507 284.264762 
L 331.066933 283.62065 
L 336.641359 283.26521 
L 342.215784 283.163095 
L 347.79021 282.141942 
L 364.513487 281.929856 
L 370.087912 281.519431 
L 414.683317 281.248433 
L 420.257742 281.038311 
L 453.704296 280.955833 
L 604.213786 280.90674 
L 944.253746 280.824262 
L 983.274725 280.462931 
L 988.849151 279.920934 
L 994.423576 279.854167 
L 999.998002 279.40643 
L 1005.572428 279.404467 
L 1011.146853 279.021534 
L 1016.721279 278.216394 
L 1022.295704 277.805969 
L 1033.444555 276.560948 
L 1039.018981 276.370464 
L 1044.593407 275.736171 
L 1055.742258 275.675295 
L 1066.891109 275.319855 
L 1072.465534 274.410636 
L 1078.03996 274.406709 
L 1083.614386 274.13571 
L 1094.763237 273.933444 
L 1100.337662 273.293259 
L 1117.060939 273.153833 
L 1122.635365 272.382077 
L 1128.20979 270.304423 
L 1133.784216 269.713333 
L 1139.358641 269.31469 
L 1144.933067 269.067257 
L 1150.507493 267.930243 
L 1156.081918 267.627824 
L 1161.656344 265.558026 
L 1167.230769 265.49715 
L 1172.805195 264.839292 
L 1178.37962 263.181882 
L 1183.954046 262.361032 
L 1189.528472 261.153322 
L 1195.102897 247.043739 
L 1200.677323 245.317597 
L 1206.251748 244.76971 
L 1211.826174 243.497196 
L 1217.400599 239.394911 
L 1222.975025 227.70271 
L 1228.549451 218.052815 
L 1234.123876 206.949741 
L 1239.698302 173.811366 
L 1245.272727 148.465173 
L 1245.272727 148.465173 
" style="fill:none;stroke:#1f77b4;stroke-linecap:square;stroke-width:1.5;"/>
   </g>
   <g id="line2d_17">
    <path clip-path="url(#pbe763dc323)" d="M 230.727273 315.341539 
L 236.301698 280.466881 
L 241.876124 288.596727 
L 247.450549 274.03301 
L 253.024975 274.635085 
L 258.599401 270.874684 
L 264.173826 279.35142 
L 269.748252 277.697792 
L 275.322677 278.929658 
L 280.897103 277.637552 
L 286.471528 281.156137 
L 292.045954 272.142579 
L 297.62038 259.489223 
L 303.194805 279.651968 
L 308.769231 278.955498 
L 314.343656 293.830605 
L 319.918082 279.072799 
L 325.492507 281.556012 
L 331.066933 281.457093 
L 336.641359 277.83857 
L 342.215784 277.528973 
L 347.79021 276.814651 
L 353.364635 278.155911 
L 358.939061 250.784651 
L 364.513487 280.386588 
L 370.087912 261.866547 
L 375.662338 280.125412 
L 381.236763 273.90128 
L 386.811189 277.88748 
L 392.385614 280.188423 
L 397.96004 278.258539 
L 403.534466 278.431597 
L 409.108891 298.266038 
L 414.683317 281.154221 
L 420.257742 279.21537 
L 425.832168 280.887991 
L 431.406593 264.819779 
L 436.981019 278.500559 
L 442.555445 280.290073 
L 448.12987 273.993393 
L 453.704296 276.07563 
L 459.278721 278.940255 
L 464.853147 279.779377 
L 470.427572 276.982248 
L 476.001998 279.478747 
L 481.576424 281.04389 
L 487.150849 280.434111 
L 492.725275 280.747295 
L 498.2997 280.154757 
L 503.874126 280.136579 
L 509.448551 279.17934 
L 515.022977 279.83652 
L 520.597403 279.845894 
L 526.171828 276.40691 
L 531.746254 280.085958 
L 537.320679 279.068234 
L 542.895105 279.717181 
L 548.46953 279.800571 
L 554.043956 279.38207 
L 559.618382 279.630774 
L 565.192807 277.198264 
L 570.767233 273.052946 
L 576.341658 280.198368 
L 581.916084 280.066068 
L 587.490509 280.127205 
L 593.064935 278.301253 
L 598.639361 279.828939 
L 604.213786 281.027138 
L 609.788212 278.747063 
L 615.362637 279.213169 
L 620.937063 278.640114 
L 626.511489 280.025392 
L 632.085914 279.800571 
L 637.66034 281.226485 
L 643.234765 279.492279 
L 648.809191 276.923149 
L 654.383616 280.827669 
L 659.958042 258.568014 
L 665.532468 281.254934 
L 671.106893 279.973629 
L 676.681319 277.197612 
L 682.255744 279.782312 
L 687.83017 278.696278 
L 693.404595 258.413542 
L 698.979021 280.438676 
L 704.553447 278.811705 
L 710.127872 280.07316 
L 715.702298 280.8831 
L 721.276723 279.692237 
L 726.851149 279.790219 
L 732.425574 280.062644 
L 738 281.923648 
L 743.574426 278.550121 
L 749.148851 282.526497 
L 754.723277 279.221321 
L 760.297702 276.081255 
L 765.872128 278.828334 
L 771.446553 279.754597 
L 777.020979 279.541596 
L 782.595405 280.555407 
L 788.16983 279.18203 
L 793.744256 275.18181 
L 799.318681 280.904539 
L 804.893107 267.185446 
L 810.467532 280.190787 
L 816.041958 280.255103 
L 821.616384 279.755819 
L 827.190809 279.824863 
L 832.765235 280.099897 
L 838.33966 281.302702 
L 843.914086 279.740739 
L 849.488511 279.484943 
L 855.062937 278.782766 
L 860.637363 279.813206 
L 866.211788 279.914041 
L 871.786214 279.383537 
L 877.360639 279.98765 
L 882.935065 279.580968 
L 888.509491 281.360374 
L 894.083916 289.987507 
L 899.658342 276.241515 
L 905.232767 279.325009 
L 910.807193 279.937518 
L 916.381618 280.692109 
L 921.956044 279.58374 
L 927.53047 279.886978 
L 933.104895 281.757437 
L 938.679321 286.580355 
L 944.253746 277.753386 
L 949.828172 279.87793 
L 955.402597 279.748727 
L 960.977023 278.832573 
L 966.551449 278.809422 
L 972.125874 279.170048 
L 977.7003 273.896634 
L 983.274725 279.936377 
L 988.849151 279.00506 
L 994.423576 280.676947 
L 999.998002 285.366097 
L 1005.572428 278.931125 
L 1011.146853 274.95862 
L 1016.721279 275.386578 
L 1022.295704 277.998096 
L 1027.87013 274.876616 
L 1033.444555 283.218484 
L 1039.018981 272.142579 
L 1044.593407 292.228822 
L 1050.167832 278.020106 
L 1055.742258 276.999447 
L 1061.316683 279.808152 
L 1066.891109 279.774813 
L 1072.465534 248.068058 
L 1078.03996 290.86376 
L 1083.614386 280.177908 
L 1089.188811 278.824013 
L 1094.763237 277.947638 
L 1100.337662 279.576729 
L 1105.912088 277.387136 
L 1111.486513 277.684016 
L 1117.060939 280.072019 
L 1122.635365 278.058173 
L 1128.20979 278.229112 
L 1133.784216 279.69452 
L 1139.358641 277.221822 
L 1144.933067 279.996454 
L 1150.507493 277.621738 
L 1156.081918 279.19866 
L 1161.656344 271.637834 
L 1167.230769 279.636154 
L 1172.805195 275.165589 
L 1178.37962 277.610897 
L 1183.954046 274.399015 
L 1189.528472 273.512695 
L 1195.102897 292.39597 
L 1200.677323 242.608055 
L 1206.251748 248.284319 
L 1211.826174 269.821827 
L 1217.400599 274.621227 
L 1222.975025 278.169442 
L 1228.549451 253.336337 
L 1234.123876 253.723618 
L 1239.698302 234.401788 
L 1245.272727 97.631405 
L 1245.272727 97.631405 
" style="fill:none;stroke:#ff7f0e;stroke-linecap:square;stroke-width:1.5;"/>
   </g>
   <g id="patch_3">
    <path d="M 180 333.490909 
L 180 86.4 
" style="fill:none;stroke:#000000;stroke-linecap:square;stroke-linejoin:miter;stroke-width:0.8;"/>
   </g>
   <g id="patch_4">
    <path d="M 1296 333.490909 
L 1296 86.4 
" style="fill:none;stroke:#000000;stroke-linecap:square;stroke-linejoin:miter;stroke-width:0.8;"/>
   </g>
   <g id="patch_5">
    <path d="M 180 333.490909 
L 1296 333.490909 
" style="fill:none;stroke:#000000;stroke-linecap:square;stroke-linejoin:miter;stroke-width:0.8;"/>
   </g>
   <g id="patch_6">
    <path d="M 180 86.4 
L 1296 86.4 
" style="fill:none;stroke:#000000;stroke-linecap:square;stroke-linejoin:miter;stroke-width:0.8;"/>
   </g>
   <g id="text_16">
    <!-- Test set results at minute 5 sorted by actual accuracy -->
    <defs>
     <path d="M -0.296875 72.90625 
L 61.375 72.90625 
L 61.375 64.59375 
L 35.5 64.59375 
L 35.5 0 
L 25.59375 0 
L 25.59375 64.59375 
L -0.296875 64.59375 
z
" id="DejaVuSans-84"/>
     <path d="M 56.203125 29.59375 
L 56.203125 25.203125 
L 14.890625 25.203125 
Q 15.484375 15.921875 20.484375 11.0625 
Q 25.484375 6.203125 34.421875 6.203125 
Q 39.59375 6.203125 44.453125 7.46875 
Q 49.3125 8.734375 54.109375 11.28125 
L 54.109375 2.78125 
Q 49.265625 0.734375 44.1875 -0.34375 
Q 39.109375 -1.421875 33.890625 -1.421875 
Q 20.796875 -1.421875 13.15625 6.1875 
Q 5.515625 13.8125 5.515625 26.8125 
Q 5.515625 40.234375 12.765625 48.109375 
Q 20.015625 56 32.328125 56 
Q 43.359375 56 49.78125 48.890625 
Q 56.203125 41.796875 56.203125 29.59375 
z
M 47.21875 32.234375 
Q 47.125 39.59375 43.09375 43.984375 
Q 39.0625 48.390625 32.421875 48.390625 
Q 24.90625 48.390625 20.390625 44.140625 
Q 15.875 39.890625 15.1875 32.171875 
z
" id="DejaVuSans-101"/>
     <path d="M 44.28125 53.078125 
L 44.28125 44.578125 
Q 40.484375 46.53125 36.375 47.5 
Q 32.28125 48.484375 27.875 48.484375 
Q 21.1875 48.484375 17.84375 46.4375 
Q 14.5 44.390625 14.5 40.28125 
Q 14.5 37.15625 16.890625 35.375 
Q 19.28125 33.59375 26.515625 31.984375 
L 29.59375 31.296875 
Q 39.15625 29.25 43.1875 25.515625 
Q 47.21875 21.78125 47.21875 15.09375 
Q 47.21875 7.46875 41.1875 3.015625 
Q 35.15625 -1.421875 24.609375 -1.421875 
Q 20.21875 -1.421875 15.453125 -0.5625 
Q 10.6875 0.296875 5.421875 2 
L 5.421875 11.28125 
Q 10.40625 8.6875 15.234375 7.390625 
Q 20.0625 6.109375 24.8125 6.109375 
Q 31.15625 6.109375 34.5625 8.28125 
Q 37.984375 10.453125 37.984375 14.40625 
Q 37.984375 18.0625 35.515625 20.015625 
Q 33.0625 21.96875 24.703125 23.78125 
L 21.578125 24.515625 
Q 13.234375 26.265625 9.515625 29.90625 
Q 5.8125 33.546875 5.8125 39.890625 
Q 5.8125 47.609375 11.28125 51.796875 
Q 16.75 56 26.8125 56 
Q 31.78125 56 36.171875 55.265625 
Q 40.578125 54.546875 44.28125 53.078125 
z
" id="DejaVuSans-115"/>
     <path d="M 18.3125 70.21875 
L 18.3125 54.6875 
L 36.8125 54.6875 
L 36.8125 47.703125 
L 18.3125 47.703125 
L 18.3125 18.015625 
Q 18.3125 11.328125 20.140625 9.421875 
Q 21.96875 7.515625 27.59375 7.515625 
L 36.8125 7.515625 
L 36.8125 0 
L 27.59375 0 
Q 17.1875 0 13.234375 3.875 
Q 9.28125 7.765625 9.28125 18.015625 
L 9.28125 47.703125 
L 2.6875 47.703125 
L 2.6875 54.6875 
L 9.28125 54.6875 
L 9.28125 70.21875 
z
" id="DejaVuSans-116"/>
     <path id="DejaVuSans-32"/>
     <path d="M 41.109375 46.296875 
Q 39.59375 47.171875 37.8125 47.578125 
Q 36.03125 48 33.890625 48 
Q 26.265625 48 22.1875 43.046875 
Q 18.109375 38.09375 18.109375 28.8125 
L 18.109375 0 
L 9.078125 0 
L 9.078125 54.6875 
L 18.109375 54.6875 
L 18.109375 46.1875 
Q 20.953125 51.171875 25.484375 53.578125 
Q 30.03125 56 36.53125 56 
Q 37.453125 56 38.578125 55.875 
Q 39.703125 55.765625 41.0625 55.515625 
z
" id="DejaVuSans-114"/>
     <path d="M 8.5 21.578125 
L 8.5 54.6875 
L 17.484375 54.6875 
L 17.484375 21.921875 
Q 17.484375 14.15625 20.5 10.265625 
Q 23.53125 6.390625 29.59375 6.390625 
Q 36.859375 6.390625 41.078125 11.03125 
Q 45.3125 15.671875 45.3125 23.6875 
L 45.3125 54.6875 
L 54.296875 54.6875 
L 54.296875 0 
L 45.3125 0 
L 45.3125 8.40625 
Q 42.046875 3.421875 37.71875 1 
Q 33.40625 -1.421875 27.6875 -1.421875 
Q 18.265625 -1.421875 13.375 4.4375 
Q 8.5 10.296875 8.5 21.578125 
z
M 31.109375 56 
z
" id="DejaVuSans-117"/>
     <path d="M 9.421875 75.984375 
L 18.40625 75.984375 
L 18.40625 0 
L 9.421875 0 
z
" id="DejaVuSans-108"/>
     <path d="M 34.28125 27.484375 
Q 23.390625 27.484375 19.1875 25 
Q 14.984375 22.515625 14.984375 16.5 
Q 14.984375 11.71875 18.140625 8.90625 
Q 21.296875 6.109375 26.703125 6.109375 
Q 34.1875 6.109375 38.703125 11.40625 
Q 43.21875 16.703125 43.21875 25.484375 
L 43.21875 27.484375 
z
M 52.203125 31.203125 
L 52.203125 0 
L 43.21875 0 
L 43.21875 8.296875 
Q 40.140625 3.328125 35.546875 0.953125 
Q 30.953125 -1.421875 24.3125 -1.421875 
Q 15.921875 -1.421875 10.953125 3.296875 
Q 6 8.015625 6 15.921875 
Q 6 25.140625 12.171875 29.828125 
Q 18.359375 34.515625 30.609375 34.515625 
L 43.21875 34.515625 
L 43.21875 35.40625 
Q 43.21875 41.609375 39.140625 45 
Q 35.0625 48.390625 27.6875 48.390625 
Q 23 48.390625 18.546875 47.265625 
Q 14.109375 46.140625 10.015625 43.890625 
L 10.015625 52.203125 
Q 14.9375 54.109375 19.578125 55.046875 
Q 24.21875 56 28.609375 56 
Q 40.484375 56 46.34375 49.84375 
Q 52.203125 43.703125 52.203125 31.203125 
z
" id="DejaVuSans-97"/>
     <path d="M 52 44.1875 
Q 55.375 50.25 60.0625 53.125 
Q 64.75 56 71.09375 56 
Q 79.640625 56 84.28125 50.015625 
Q 88.921875 44.046875 88.921875 33.015625 
L 88.921875 0 
L 79.890625 0 
L 79.890625 32.71875 
Q 79.890625 40.578125 77.09375 44.375 
Q 74.3125 48.1875 68.609375 48.1875 
Q 61.625 48.1875 57.5625 43.546875 
Q 53.515625 38.921875 53.515625 30.90625 
L 53.515625 0 
L 44.484375 0 
L 44.484375 32.71875 
Q 44.484375 40.625 41.703125 44.40625 
Q 38.921875 48.1875 33.109375 48.1875 
Q 26.21875 48.1875 22.15625 43.53125 
Q 18.109375 38.875 18.109375 30.90625 
L 18.109375 0 
L 9.078125 0 
L 9.078125 54.6875 
L 18.109375 54.6875 
L 18.109375 46.1875 
Q 21.1875 51.21875 25.484375 53.609375 
Q 29.78125 56 35.6875 56 
Q 41.65625 56 45.828125 52.96875 
Q 50 49.953125 52 44.1875 
z
" id="DejaVuSans-109"/>
     <path d="M 9.421875 54.6875 
L 18.40625 54.6875 
L 18.40625 0 
L 9.421875 0 
z
M 9.421875 75.984375 
L 18.40625 75.984375 
L 18.40625 64.59375 
L 9.421875 64.59375 
z
" id="DejaVuSans-105"/>
     <path d="M 54.890625 33.015625 
L 54.890625 0 
L 45.90625 0 
L 45.90625 32.71875 
Q 45.90625 40.484375 42.875 44.328125 
Q 39.84375 48.1875 33.796875 48.1875 
Q 26.515625 48.1875 22.3125 43.546875 
Q 18.109375 38.921875 18.109375 30.90625 
L 18.109375 0 
L 9.078125 0 
L 9.078125 54.6875 
L 18.109375 54.6875 
L 18.109375 46.1875 
Q 21.34375 51.125 25.703125 53.5625 
Q 30.078125 56 35.796875 56 
Q 45.21875 56 50.046875 50.171875 
Q 54.890625 44.34375 54.890625 33.015625 
z
" id="DejaVuSans-110"/>
     <path d="M 30.609375 48.390625 
Q 23.390625 48.390625 19.1875 42.75 
Q 14.984375 37.109375 14.984375 27.296875 
Q 14.984375 17.484375 19.15625 11.84375 
Q 23.34375 6.203125 30.609375 6.203125 
Q 37.796875 6.203125 41.984375 11.859375 
Q 46.1875 17.53125 46.1875 27.296875 
Q 46.1875 37.015625 41.984375 42.703125 
Q 37.796875 48.390625 30.609375 48.390625 
z
M 30.609375 56 
Q 42.328125 56 49.015625 48.375 
Q 55.71875 40.765625 55.71875 27.296875 
Q 55.71875 13.875 49.015625 6.21875 
Q 42.328125 -1.421875 30.609375 -1.421875 
Q 18.84375 -1.421875 12.171875 6.21875 
Q 5.515625 13.875 5.515625 27.296875 
Q 5.515625 40.765625 12.171875 48.375 
Q 18.84375 56 30.609375 56 
z
" id="DejaVuSans-111"/>
     <path d="M 45.40625 46.390625 
L 45.40625 75.984375 
L 54.390625 75.984375 
L 54.390625 0 
L 45.40625 0 
L 45.40625 8.203125 
Q 42.578125 3.328125 38.25 0.953125 
Q 33.9375 -1.421875 27.875 -1.421875 
Q 17.96875 -1.421875 11.734375 6.484375 
Q 5.515625 14.40625 5.515625 27.296875 
Q 5.515625 40.1875 11.734375 48.09375 
Q 17.96875 56 27.875 56 
Q 33.9375 56 38.25 53.625 
Q 42.578125 51.265625 45.40625 46.390625 
z
M 14.796875 27.296875 
Q 14.796875 17.390625 18.875 11.75 
Q 22.953125 6.109375 30.078125 6.109375 
Q 37.203125 6.109375 41.296875 11.75 
Q 45.40625 17.390625 45.40625 27.296875 
Q 45.40625 37.203125 41.296875 42.84375 
Q 37.203125 48.484375 30.078125 48.484375 
Q 22.953125 48.484375 18.875 42.84375 
Q 14.796875 37.203125 14.796875 27.296875 
z
" id="DejaVuSans-100"/>
     <path d="M 48.6875 27.296875 
Q 48.6875 37.203125 44.609375 42.84375 
Q 40.53125 48.484375 33.40625 48.484375 
Q 26.265625 48.484375 22.1875 42.84375 
Q 18.109375 37.203125 18.109375 27.296875 
Q 18.109375 17.390625 22.1875 11.75 
Q 26.265625 6.109375 33.40625 6.109375 
Q 40.53125 6.109375 44.609375 11.75 
Q 48.6875 17.390625 48.6875 27.296875 
z
M 18.109375 46.390625 
Q 20.953125 51.265625 25.265625 53.625 
Q 29.59375 56 35.59375 56 
Q 45.5625 56 51.78125 48.09375 
Q 58.015625 40.1875 58.015625 27.296875 
Q 58.015625 14.40625 51.78125 6.484375 
Q 45.5625 -1.421875 35.59375 -1.421875 
Q 29.59375 -1.421875 25.265625 0.953125 
Q 20.953125 3.328125 18.109375 8.203125 
L 18.109375 0 
L 9.078125 0 
L 9.078125 75.984375 
L 18.109375 75.984375 
z
" id="DejaVuSans-98"/>
     <path d="M 32.171875 -5.078125 
Q 28.375 -14.84375 24.75 -17.8125 
Q 21.140625 -20.796875 15.09375 -20.796875 
L 7.90625 -20.796875 
L 7.90625 -13.28125 
L 13.1875 -13.28125 
Q 16.890625 -13.28125 18.9375 -11.515625 
Q 21 -9.765625 23.484375 -3.21875 
L 25.09375 0.875 
L 2.984375 54.6875 
L 12.5 54.6875 
L 29.59375 11.921875 
L 46.6875 54.6875 
L 56.203125 54.6875 
z
" id="DejaVuSans-121"/>
     <path d="M 48.78125 52.59375 
L 48.78125 44.1875 
Q 44.96875 46.296875 41.140625 47.34375 
Q 37.3125 48.390625 33.40625 48.390625 
Q 24.65625 48.390625 19.8125 42.84375 
Q 14.984375 37.3125 14.984375 27.296875 
Q 14.984375 17.28125 19.8125 11.734375 
Q 24.65625 6.203125 33.40625 6.203125 
Q 37.3125 6.203125 41.140625 7.25 
Q 44.96875 8.296875 48.78125 10.40625 
L 48.78125 2.09375 
Q 45.015625 0.34375 40.984375 -0.53125 
Q 36.96875 -1.421875 32.421875 -1.421875 
Q 20.0625 -1.421875 12.78125 6.34375 
Q 5.515625 14.109375 5.515625 27.296875 
Q 5.515625 40.671875 12.859375 48.328125 
Q 20.21875 56 33.015625 56 
Q 37.15625 56 41.109375 55.140625 
Q 45.0625 54.296875 48.78125 52.59375 
z
" id="DejaVuSans-99"/>
    </defs>
    <g transform="translate(576.728438 80.4)scale(0.12 -0.12)">
     <use xlink:href="#DejaVuSans-84"/>
     <use x="44.083984" xlink:href="#DejaVuSans-101"/>
     <use x="105.607422" xlink:href="#DejaVuSans-115"/>
     <use x="157.707031" xlink:href="#DejaVuSans-116"/>
     <use x="196.916016" xlink:href="#DejaVuSans-32"/>
     <use x="228.703125" xlink:href="#DejaVuSans-115"/>
     <use x="280.802734" xlink:href="#DejaVuSans-101"/>
     <use x="342.326172" xlink:href="#DejaVuSans-116"/>
     <use x="381.535156" xlink:href="#DejaVuSans-32"/>
     <use x="413.322266" xlink:href="#DejaVuSans-114"/>
     <use x="452.185547" xlink:href="#DejaVuSans-101"/>
     <use x="513.708984" xlink:href="#DejaVuSans-115"/>
     <use x="565.808594" xlink:href="#DejaVuSans-117"/>
     <use x="629.1875" xlink:href="#DejaVuSans-108"/>
     <use x="656.970703" xlink:href="#DejaVuSans-116"/>
     <use x="696.179688" xlink:href="#DejaVuSans-115"/>
     <use x="748.279297" xlink:href="#DejaVuSans-32"/>
     <use x="780.066406" xlink:href="#DejaVuSans-97"/>
     <use x="841.345703" xlink:href="#DejaVuSans-116"/>
     <use x="880.554688" xlink:href="#DejaVuSans-32"/>
     <use x="912.341797" xlink:href="#DejaVuSans-109"/>
     <use x="1009.753906" xlink:href="#DejaVuSans-105"/>
     <use x="1037.537109" xlink:href="#DejaVuSans-110"/>
     <use x="1100.916016" xlink:href="#DejaVuSans-117"/>
     <use x="1164.294922" xlink:href="#DejaVuSans-116"/>
     <use x="1203.503906" xlink:href="#DejaVuSans-101"/>
     <use x="1265.027344" xlink:href="#DejaVuSans-32"/>
     <use x="1296.814453" xlink:href="#DejaVuSans-53"/>
     <use x="1360.4375" xlink:href="#DejaVuSans-32"/>
     <use x="1392.224609" xlink:href="#DejaVuSans-115"/>
     <use x="1444.324219" xlink:href="#DejaVuSans-111"/>
     <use x="1505.505859" xlink:href="#DejaVuSans-114"/>
     <use x="1546.619141" xlink:href="#DejaVuSans-116"/>
     <use x="1585.828125" xlink:href="#DejaVuSans-101"/>
     <use x="1647.351562" xlink:href="#DejaVuSans-100"/>
     <use x="1710.828125" xlink:href="#DejaVuSans-32"/>
     <use x="1742.615234" xlink:href="#DejaVuSans-98"/>
     <use x="1806.091797" xlink:href="#DejaVuSans-121"/>
     <use x="1865.271484" xlink:href="#DejaVuSans-32"/>
     <use x="1897.058594" xlink:href="#DejaVuSans-97"/>
     <use x="1958.337891" xlink:href="#DejaVuSans-99"/>
     <use x="2013.318359" xlink:href="#DejaVuSans-116"/>
     <use x="2052.527344" xlink:href="#DejaVuSans-117"/>
     <use x="2115.90625" xlink:href="#DejaVuSans-97"/>
     <use x="2177.185547" xlink:href="#DejaVuSans-108"/>
     <use x="2204.96875" xlink:href="#DejaVuSans-32"/>
     <use x="2236.755859" xlink:href="#DejaVuSans-97"/>
     <use x="2298.035156" xlink:href="#DejaVuSans-99"/>
     <use x="2353.015625" xlink:href="#DejaVuSans-99"/>
     <use x="2407.996094" xlink:href="#DejaVuSans-117"/>
     <use x="2471.375" xlink:href="#DejaVuSans-114"/>
     <use x="2512.488281" xlink:href="#DejaVuSans-97"/>
     <use x="2573.767578" xlink:href="#DejaVuSans-99"/>
     <use x="2628.748047" xlink:href="#DejaVuSans-121"/>
    </g>
   </g>
   <g id="legend_1">
    <g id="patch_7">
     <path d="M 187 123.75625 
L 314.2375 123.75625 
Q 316.2375 123.75625 316.2375 121.75625 
L 316.2375 93.4 
Q 316.2375 91.4 314.2375 91.4 
L 187 91.4 
Q 185 91.4 185 93.4 
L 185 121.75625 
Q 185 123.75625 187 123.75625 
z
" style="fill:#ffffff;opacity:0.8;stroke:#cccccc;stroke-linejoin:miter;"/>
    </g>
    <g id="line2d_18">
     <path d="M 189 99.498437 
L 209 99.498437 
" style="fill:none;stroke:#1f77b4;stroke-linecap:square;stroke-width:1.5;"/>
    </g>
    <g id="line2d_19"/>
    <g id="text_17">
     <!-- Actual accuracy -->
     <defs>
      <path d="M 34.1875 63.1875 
L 20.796875 26.90625 
L 47.609375 26.90625 
z
M 28.609375 72.90625 
L 39.796875 72.90625 
L 67.578125 0 
L 57.328125 0 
L 50.6875 18.703125 
L 17.828125 18.703125 
L 11.1875 0 
L 0.78125 0 
z
" id="DejaVuSans-65"/>
     </defs>
     <g transform="translate(217 102.998437)scale(0.1 -0.1)">
      <use xlink:href="#DejaVuSans-65"/>
      <use x="66.658203" xlink:href="#DejaVuSans-99"/>
      <use x="121.638672" xlink:href="#DejaVuSans-116"/>
      <use x="160.847656" xlink:href="#DejaVuSans-117"/>
      <use x="224.226562" xlink:href="#DejaVuSans-97"/>
      <use x="285.505859" xlink:href="#DejaVuSans-108"/>
      <use x="313.289062" xlink:href="#DejaVuSans-32"/>
      <use x="345.076172" xlink:href="#DejaVuSans-97"/>
      <use x="406.355469" xlink:href="#DejaVuSans-99"/>
      <use x="461.335938" xlink:href="#DejaVuSans-99"/>
      <use x="516.316406" xlink:href="#DejaVuSans-117"/>
      <use x="579.695312" xlink:href="#DejaVuSans-114"/>
      <use x="620.808594" xlink:href="#DejaVuSans-97"/>
      <use x="682.087891" xlink:href="#DejaVuSans-99"/>
      <use x="737.068359" xlink:href="#DejaVuSans-121"/>
     </g>
    </g>
    <g id="line2d_20">
     <path d="M 189 114.176562 
L 209 114.176562 
" style="fill:none;stroke:#ff7f0e;stroke-linecap:square;stroke-width:1.5;"/>
    </g>
    <g id="line2d_21"/>
    <g id="text_18">
     <!-- Predicted accuracy -->
     <defs>
      <path d="M 19.671875 64.796875 
L 19.671875 37.40625 
L 32.078125 37.40625 
Q 38.96875 37.40625 42.71875 40.96875 
Q 46.484375 44.53125 46.484375 51.125 
Q 46.484375 57.671875 42.71875 61.234375 
Q 38.96875 64.796875 32.078125 64.796875 
z
M 9.8125 72.90625 
L 32.078125 72.90625 
Q 44.34375 72.90625 50.609375 67.359375 
Q 56.890625 61.8125 56.890625 51.125 
Q 56.890625 40.328125 50.609375 34.8125 
Q 44.34375 29.296875 32.078125 29.296875 
L 19.671875 29.296875 
L 19.671875 0 
L 9.8125 0 
z
" id="DejaVuSans-80"/>
     </defs>
     <g transform="translate(217 117.676562)scale(0.1 -0.1)">
      <use xlink:href="#DejaVuSans-80"/>
      <use x="58.552734" xlink:href="#DejaVuSans-114"/>
      <use x="97.416016" xlink:href="#DejaVuSans-101"/>
      <use x="158.939453" xlink:href="#DejaVuSans-100"/>
      <use x="222.416016" xlink:href="#DejaVuSans-105"/>
      <use x="250.199219" xlink:href="#DejaVuSans-99"/>
      <use x="305.179688" xlink:href="#DejaVuSans-116"/>
      <use x="344.388672" xlink:href="#DejaVuSans-101"/>
      <use x="405.912109" xlink:href="#DejaVuSans-100"/>
      <use x="469.388672" xlink:href="#DejaVuSans-32"/>
      <use x="501.175781" xlink:href="#DejaVuSans-97"/>
      <use x="562.455078" xlink:href="#DejaVuSans-99"/>
      <use x="617.435547" xlink:href="#DejaVuSans-99"/>
      <use x="672.416016" xlink:href="#DejaVuSans-117"/>
      <use x="735.794922" xlink:href="#DejaVuSans-114"/>
      <use x="776.908203" xlink:href="#DejaVuSans-97"/>
      <use x="838.1875" xlink:href="#DejaVuSans-99"/>
      <use x="893.167969" xlink:href="#DejaVuSans-121"/>
     </g>
    </g>
   </g>
  </g>
  <g id="axes_2">
   <g id="patch_8">
    <path d="M 180 630 
L 1296 630 
L 1296 382.909091 
L 180 382.909091 
z
" style="fill:#ffffff;"/>
   </g>
   <g id="matplotlib.axis_3">
    <g id="xtick_9">
     <g id="line2d_22">
      <g>
       <use style="stroke:#000000;stroke-width:0.8;" x="230.727273" xlink:href="#mbf911417fb" y="630"/>
      </g>
     </g>
     <g id="text_19">
      <!-- 0 -->
      <g transform="translate(227.546023 644.598437)scale(0.1 -0.1)">
       <use xlink:href="#DejaVuSans-48"/>
      </g>
     </g>
    </g>
    <g id="xtick_10">
     <g id="line2d_23">
      <g>
       <use style="stroke:#000000;stroke-width:0.8;" x="370.087912" xlink:href="#mbf911417fb" y="630"/>
      </g>
     </g>
     <g id="text_20">
      <!-- 25 -->
      <g transform="translate(363.725412 644.598437)scale(0.1 -0.1)">
       <use xlink:href="#DejaVuSans-50"/>
       <use x="63.623047" xlink:href="#DejaVuSans-53"/>
      </g>
     </g>
    </g>
    <g id="xtick_11">
     <g id="line2d_24">
      <g>
       <use style="stroke:#000000;stroke-width:0.8;" x="509.448551" xlink:href="#mbf911417fb" y="630"/>
      </g>
     </g>
     <g id="text_21">
      <!-- 50 -->
      <g transform="translate(503.086051 644.598437)scale(0.1 -0.1)">
       <use xlink:href="#DejaVuSans-53"/>
       <use x="63.623047" xlink:href="#DejaVuSans-48"/>
      </g>
     </g>
    </g>
    <g id="xtick_12">
     <g id="line2d_25">
      <g>
       <use style="stroke:#000000;stroke-width:0.8;" x="648.809191" xlink:href="#mbf911417fb" y="630"/>
      </g>
     </g>
     <g id="text_22">
      <!-- 75 -->
      <g transform="translate(642.446691 644.598437)scale(0.1 -0.1)">
       <use xlink:href="#DejaVuSans-55"/>
       <use x="63.623047" xlink:href="#DejaVuSans-53"/>
      </g>
     </g>
    </g>
    <g id="xtick_13">
     <g id="line2d_26">
      <g>
       <use style="stroke:#000000;stroke-width:0.8;" x="788.16983" xlink:href="#mbf911417fb" y="630"/>
      </g>
     </g>
     <g id="text_23">
      <!-- 100 -->
      <g transform="translate(778.62608 644.598437)scale(0.1 -0.1)">
       <use xlink:href="#DejaVuSans-49"/>
       <use x="63.623047" xlink:href="#DejaVuSans-48"/>
       <use x="127.246094" xlink:href="#DejaVuSans-48"/>
      </g>
     </g>
    </g>
    <g id="xtick_14">
     <g id="line2d_27">
      <g>
       <use style="stroke:#000000;stroke-width:0.8;" x="927.53047" xlink:href="#mbf911417fb" y="630"/>
      </g>
     </g>
     <g id="text_24">
      <!-- 125 -->
      <g transform="translate(917.98672 644.598437)scale(0.1 -0.1)">
       <use xlink:href="#DejaVuSans-49"/>
       <use x="63.623047" xlink:href="#DejaVuSans-50"/>
       <use x="127.246094" xlink:href="#DejaVuSans-53"/>
      </g>
     </g>
    </g>
    <g id="xtick_15">
     <g id="line2d_28">
      <g>
       <use style="stroke:#000000;stroke-width:0.8;" x="1066.891109" xlink:href="#mbf911417fb" y="630"/>
      </g>
     </g>
     <g id="text_25">
      <!-- 150 -->
      <g transform="translate(1057.347359 644.598437)scale(0.1 -0.1)">
       <use xlink:href="#DejaVuSans-49"/>
       <use x="63.623047" xlink:href="#DejaVuSans-53"/>
       <use x="127.246094" xlink:href="#DejaVuSans-48"/>
      </g>
     </g>
    </g>
    <g id="xtick_16">
     <g id="line2d_29">
      <g>
       <use style="stroke:#000000;stroke-width:0.8;" x="1206.251748" xlink:href="#mbf911417fb" y="630"/>
      </g>
     </g>
     <g id="text_26">
      <!-- 175 -->
      <g transform="translate(1196.707998 644.598437)scale(0.1 -0.1)">
       <use xlink:href="#DejaVuSans-49"/>
       <use x="63.623047" xlink:href="#DejaVuSans-55"/>
       <use x="127.246094" xlink:href="#DejaVuSans-53"/>
      </g>
     </g>
    </g>
   </g>
   <g id="matplotlib.axis_4">
    <g id="ytick_8">
     <g id="line2d_30">
      <g>
       <use style="stroke:#000000;stroke-width:0.8;" x="180" xlink:href="#mde31e57bfe" y="611.605993"/>
      </g>
     </g>
     <g id="text_27">
      <!-- 0.475 -->
      <g transform="translate(144.371875 615.405212)scale(0.1 -0.1)">
       <use xlink:href="#DejaVuSans-48"/>
       <use x="63.623047" xlink:href="#DejaVuSans-46"/>
       <use x="95.410156" xlink:href="#DejaVuSans-52"/>
       <use x="159.033203" xlink:href="#DejaVuSans-55"/>
       <use x="222.65625" xlink:href="#DejaVuSans-53"/>
      </g>
     </g>
    </g>
    <g id="ytick_9">
     <g id="line2d_31">
      <g>
       <use style="stroke:#000000;stroke-width:0.8;" x="180" xlink:href="#mde31e57bfe" y="577.41583"/>
      </g>
     </g>
     <g id="text_28">
      <!-- 0.500 -->
      <g transform="translate(144.371875 581.215049)scale(0.1 -0.1)">
       <use xlink:href="#DejaVuSans-48"/>
       <use x="63.623047" xlink:href="#DejaVuSans-46"/>
       <use x="95.410156" xlink:href="#DejaVuSans-53"/>
       <use x="159.033203" xlink:href="#DejaVuSans-48"/>
       <use x="222.65625" xlink:href="#DejaVuSans-48"/>
      </g>
     </g>
    </g>
    <g id="ytick_10">
     <g id="line2d_32">
      <g>
       <use style="stroke:#000000;stroke-width:0.8;" x="180" xlink:href="#mde31e57bfe" y="543.225668"/>
      </g>
     </g>
     <g id="text_29">
      <!-- 0.525 -->
      <g transform="translate(144.371875 547.024887)scale(0.1 -0.1)">
       <use xlink:href="#DejaVuSans-48"/>
       <use x="63.623047" xlink:href="#DejaVuSans-46"/>
       <use x="95.410156" xlink:href="#DejaVuSans-53"/>
       <use x="159.033203" xlink:href="#DejaVuSans-50"/>
       <use x="222.65625" xlink:href="#DejaVuSans-53"/>
      </g>
     </g>
    </g>
    <g id="ytick_11">
     <g id="line2d_33">
      <g>
       <use style="stroke:#000000;stroke-width:0.8;" x="180" xlink:href="#mde31e57bfe" y="509.035505"/>
      </g>
     </g>
     <g id="text_30">
      <!-- 0.550 -->
      <g transform="translate(144.371875 512.834724)scale(0.1 -0.1)">
       <use xlink:href="#DejaVuSans-48"/>
       <use x="63.623047" xlink:href="#DejaVuSans-46"/>
       <use x="95.410156" xlink:href="#DejaVuSans-53"/>
       <use x="159.033203" xlink:href="#DejaVuSans-53"/>
       <use x="222.65625" xlink:href="#DejaVuSans-48"/>
      </g>
     </g>
    </g>
    <g id="ytick_12">
     <g id="line2d_34">
      <g>
       <use style="stroke:#000000;stroke-width:0.8;" x="180" xlink:href="#mde31e57bfe" y="474.845343"/>
      </g>
     </g>
     <g id="text_31">
      <!-- 0.575 -->
      <g transform="translate(144.371875 478.644561)scale(0.1 -0.1)">
       <use xlink:href="#DejaVuSans-48"/>
       <use x="63.623047" xlink:href="#DejaVuSans-46"/>
       <use x="95.410156" xlink:href="#DejaVuSans-53"/>
       <use x="159.033203" xlink:href="#DejaVuSans-55"/>
       <use x="222.65625" xlink:href="#DejaVuSans-53"/>
      </g>
     </g>
    </g>
    <g id="ytick_13">
     <g id="line2d_35">
      <g>
       <use style="stroke:#000000;stroke-width:0.8;" x="180" xlink:href="#mde31e57bfe" y="440.65518"/>
      </g>
     </g>
     <g id="text_32">
      <!-- 0.600 -->
      <g transform="translate(144.371875 444.454399)scale(0.1 -0.1)">
       <use xlink:href="#DejaVuSans-48"/>
       <use x="63.623047" xlink:href="#DejaVuSans-46"/>
       <use x="95.410156" xlink:href="#DejaVuSans-54"/>
       <use x="159.033203" xlink:href="#DejaVuSans-48"/>
       <use x="222.65625" xlink:href="#DejaVuSans-48"/>
      </g>
     </g>
    </g>
    <g id="ytick_14">
     <g id="line2d_36">
      <g>
       <use style="stroke:#000000;stroke-width:0.8;" x="180" xlink:href="#mde31e57bfe" y="406.465018"/>
      </g>
     </g>
     <g id="text_33">
      <!-- 0.625 -->
      <g transform="translate(144.371875 410.264236)scale(0.1 -0.1)">
       <use xlink:href="#DejaVuSans-48"/>
       <use x="63.623047" xlink:href="#DejaVuSans-46"/>
       <use x="95.410156" xlink:href="#DejaVuSans-54"/>
       <use x="159.033203" xlink:href="#DejaVuSans-50"/>
       <use x="222.65625" xlink:href="#DejaVuSans-53"/>
      </g>
     </g>
    </g>
   </g>
   <g id="line2d_37">
    <path clip-path="url(#pbd83fbd2a5)" d="M 230.727273 618.768595 
L 236.301698 577.767343 
L 241.876124 580.864185 
L 247.450549 543.55283 
L 253.024975 572.245262 
L 258.599401 570.9158 
L 264.173826 577.402084 
L 269.748252 611.164934 
L 275.322677 577.339244 
L 280.897103 575.915521 
L 286.471528 573.070039 
L 292.045954 577.41583 
L 303.194805 577.358882 
L 308.769231 580.773852 
L 314.343656 580.129741 
L 319.918082 577.407975 
L 336.641359 577.41583 
L 342.215784 584.701364 
L 347.79021 577.757524 
L 353.364635 577.447251 
L 364.513487 577.41583 
L 370.087912 577.515982 
L 381.236763 577.41583 
L 392.385614 577.370664 
L 397.96004 576.363257 
L 403.534466 577.41583 
L 409.108891 616.091996 
L 414.683317 577.41583 
L 420.257742 577.419758 
L 425.832168 578.438947 
L 431.406593 577.492417 
L 442.555445 577.41583 
L 448.12987 577.41583 
L 453.704296 577.928371 
L 459.278721 570.644801 
L 464.853147 577.41583 
L 476.001998 577.41583 
L 481.576424 577.997102 
L 487.150849 577.41583 
L 498.2997 577.41583 
L 503.874126 569.662923 
L 509.448551 577.41583 
L 520.597403 577.41583 
L 526.171828 565.576348 
L 531.746254 577.41583 
L 542.895105 577.382447 
L 548.46953 576.972022 
L 554.043956 577.41583 
L 565.192807 577.284259 
L 570.767233 577.41583 
L 593.064935 577.41583 
L 598.639361 571.984083 
L 604.213786 577.41583 
L 626.511489 577.457069 
L 632.085914 571.828946 
L 637.66034 577.41583 
L 643.234765 577.41583 
L 648.809191 577.276404 
L 654.383616 577.41583 
L 659.958042 577.41583 
L 665.532468 566.222424 
L 671.106893 577.41583 
L 676.681319 582.293799 
L 682.255744 562.006241 
L 687.83017 577.41583 
L 698.979021 577.413867 
L 704.553447 569.80235 
L 710.127872 577.41583 
L 738 577.41583 
L 743.574426 592.253967 
L 749.148851 577.394229 
L 765.872128 577.41583 
L 771.446553 564.136915 
L 777.020979 577.41583 
L 782.595405 577.41583 
L 788.16983 577.032898 
L 793.744256 580.799381 
L 799.318681 577.41583 
L 804.893107 576.430025 
L 810.467532 581.396363 
L 816.041958 577.459033 
L 821.616384 575.913557 
L 827.190809 587.236572 
L 832.765235 577.268549 
L 838.33966 577.41583 
L 843.914086 570.489665 
L 849.488511 577.41583 
L 855.062937 577.144832 
L 860.637363 577.41583 
L 888.509491 577.504199 
L 894.083916 577.861603 
L 899.658342 577.41583 
L 905.232767 577.871422 
L 910.807193 566.813514 
L 916.381618 524.211801 
L 921.956044 578.568555 
L 927.53047 568.891168 
L 933.104895 572.198132 
L 938.679321 574.31506 
L 944.253746 570.442534 
L 949.828172 577.928371 
L 955.402597 579.774301 
L 960.977023 577.333353 
L 966.551449 587.452585 
L 972.125874 569.690416 
L 977.7003 585.471156 
L 983.274725 564.439334 
L 988.849151 559.690973 
L 994.423576 579.672186 
L 999.998002 569.733619 
L 1005.572428 565.823781 
L 1011.146853 577.41583 
L 1016.721279 577.41583 
L 1022.295704 572.184386 
L 1027.87013 577.455106 
L 1033.444555 577.41583 
L 1039.018981 578.651033 
L 1044.593407 577.41583 
L 1061.316683 577.464924 
L 1066.891109 574.725485 
L 1072.465534 577.41583 
L 1078.03996 561.348382 
L 1083.614386 575.530625 
L 1089.188811 573.684695 
L 1094.763237 601.976521 
L 1100.337662 535.904002 
L 1105.912088 558.870123 
L 1111.486513 610.149672 
L 1117.060939 577.472779 
L 1122.635365 577.930334 
L 1128.20979 576.999514 
L 1133.784216 557.662413 
L 1139.358641 577.41583 
L 1144.933067 572.879555 
L 1150.507493 584.650306 
L 1156.081918 562.067117 
L 1161.656344 597.921366 
L 1167.230769 540.006287 
L 1172.805195 577.41583 
L 1178.37962 577.508127 
L 1183.954046 578.028522 
L 1189.528472 583.346372 
L 1195.102897 577.41583 
L 1200.677323 577.41583 
L 1206.251748 503.458832 
L 1211.826174 514.561906 
L 1217.400599 578.462512 
L 1222.975025 541.278801 
L 1228.549451 570.919727 
L 1234.123876 541.826688 
L 1239.698302 470.320457 
L 1245.272727 444.974264 
L 1245.272727 444.974264 
" style="fill:none;stroke:#1f77b4;stroke-linecap:square;stroke-width:1.5;"/>
   </g>
   <g id="line2d_38">
    <path clip-path="url(#pbd83fbd2a5)" d="M 230.727273 611.85063 
L 236.301698 594.775129 
L 241.876124 590.339696 
L 247.450549 588.905061 
L 253.024975 588.737913 
L 258.599401 587.372851 
L 264.173826 586.496598 
L 269.748252 585.105818 
L 275.322677 583.089445 
L 280.897103 581.875188 
L 286.471528 579.727575 
L 297.62038 578.432739 
L 319.918082 577.869465 
L 392.385614 577.2012 
L 403.534466 577.064498 
L 414.683317 576.947767 
L 425.832168 576.895679 
L 442.555445 576.707459 
L 537.320679 576.48272 
L 570.767233 576.354985 
L 726.851149 575.987838 
L 738 575.891161 
L 894.083916 574.940688 
L 905.232767 574.76763 
L 944.253746 574.456729 
L 983.274725 574.130829 
L 994.423576 574.038064 
L 1011.146853 573.707355 
L 1016.721279 573.706703 
L 1022.295704 573.508538 
L 1033.444555 573.43224 
L 1039.018981 573.323742 
L 1044.593407 572.916001 
L 1055.742258 572.590346 
L 1061.316683 572.584721 
L 1066.891109 571.895669 
L 1072.465534 571.690901 
L 1078.03996 571.67468 
L 1083.614386 571.467711 
L 1089.188811 571.385707 
L 1094.763237 571.144176 
L 1100.337662 571.130318 
L 1105.912088 570.908106 
L 1111.486513 570.542101 
L 1128.20979 570.405725 
L 1139.358641 569.562037 
L 1144.933067 568.65167 
L 1150.507493 568.65167 
L 1156.081918 568.146925 
L 1161.656344 567.383775 
L 1167.230769 566.330918 
L 1172.805195 563.694537 
L 1178.37962 561.32887 
L 1183.954046 558.375638 
L 1189.528472 555.998314 
L 1195.102897 555.077105 
L 1200.677323 554.922633 
L 1206.251748 550.232709 
L 1211.826174 549.845427 
L 1222.975025 544.79341 
L 1228.549451 544.577149 
L 1234.123876 539.117146 
L 1239.698302 530.910879 
L 1245.272727 394.140496 
L 1245.272727 394.140496 
" style="fill:none;stroke:#ff7f0e;stroke-linecap:square;stroke-width:1.5;"/>
   </g>
   <g id="patch_9">
    <path d="M 180 630 
L 180 382.909091 
" style="fill:none;stroke:#000000;stroke-linecap:square;stroke-linejoin:miter;stroke-width:0.8;"/>
   </g>
   <g id="patch_10">
    <path d="M 1296 630 
L 1296 382.909091 
" style="fill:none;stroke:#000000;stroke-linecap:square;stroke-linejoin:miter;stroke-width:0.8;"/>
   </g>
   <g id="patch_11">
    <path d="M 180 630 
L 1296 630 
" style="fill:none;stroke:#000000;stroke-linecap:square;stroke-linejoin:miter;stroke-width:0.8;"/>
   </g>
   <g id="patch_12">
    <path d="M 180 382.909091 
L 1296 382.909091 
" style="fill:none;stroke:#000000;stroke-linecap:square;stroke-linejoin:miter;stroke-width:0.8;"/>
   </g>
   <g id="text_34">
    <!-- Test set results at minute 5 sorted by predicted accuracy -->
    <defs>
     <path d="M 18.109375 8.203125 
L 18.109375 -20.796875 
L 9.078125 -20.796875 
L 9.078125 54.6875 
L 18.109375 54.6875 
L 18.109375 46.390625 
Q 20.953125 51.265625 25.265625 53.625 
Q 29.59375 56 35.59375 56 
Q 45.5625 56 51.78125 48.09375 
Q 58.015625 40.1875 58.015625 27.296875 
Q 58.015625 14.40625 51.78125 6.484375 
Q 45.5625 -1.421875 35.59375 -1.421875 
Q 29.59375 -1.421875 25.265625 0.953125 
Q 20.953125 3.328125 18.109375 8.203125 
z
M 48.6875 27.296875 
Q 48.6875 37.203125 44.609375 42.84375 
Q 40.53125 48.484375 33.40625 48.484375 
Q 26.265625 48.484375 22.1875 42.84375 
Q 18.109375 37.203125 18.109375 27.296875 
Q 18.109375 17.390625 22.1875 11.75 
Q 26.265625 6.109375 33.40625 6.109375 
Q 40.53125 6.109375 44.609375 11.75 
Q 48.6875 17.390625 48.6875 27.296875 
z
" id="DejaVuSans-112"/>
    </defs>
    <g transform="translate(566.742188 376.909091)scale(0.12 -0.12)">
     <use xlink:href="#DejaVuSans-84"/>
     <use x="44.083984" xlink:href="#DejaVuSans-101"/>
     <use x="105.607422" xlink:href="#DejaVuSans-115"/>
     <use x="157.707031" xlink:href="#DejaVuSans-116"/>
     <use x="196.916016" xlink:href="#DejaVuSans-32"/>
     <use x="228.703125" xlink:href="#DejaVuSans-115"/>
     <use x="280.802734" xlink:href="#DejaVuSans-101"/>
     <use x="342.326172" xlink:href="#DejaVuSans-116"/>
     <use x="381.535156" xlink:href="#DejaVuSans-32"/>
     <use x="413.322266" xlink:href="#DejaVuSans-114"/>
     <use x="452.185547" xlink:href="#DejaVuSans-101"/>
     <use x="513.708984" xlink:href="#DejaVuSans-115"/>
     <use x="565.808594" xlink:href="#DejaVuSans-117"/>
     <use x="629.1875" xlink:href="#DejaVuSans-108"/>
     <use x="656.970703" xlink:href="#DejaVuSans-116"/>
     <use x="696.179688" xlink:href="#DejaVuSans-115"/>
     <use x="748.279297" xlink:href="#DejaVuSans-32"/>
     <use x="780.066406" xlink:href="#DejaVuSans-97"/>
     <use x="841.345703" xlink:href="#DejaVuSans-116"/>
     <use x="880.554688" xlink:href="#DejaVuSans-32"/>
     <use x="912.341797" xlink:href="#DejaVuSans-109"/>
     <use x="1009.753906" xlink:href="#DejaVuSans-105"/>
     <use x="1037.537109" xlink:href="#DejaVuSans-110"/>
     <use x="1100.916016" xlink:href="#DejaVuSans-117"/>
     <use x="1164.294922" xlink:href="#DejaVuSans-116"/>
     <use x="1203.503906" xlink:href="#DejaVuSans-101"/>
     <use x="1265.027344" xlink:href="#DejaVuSans-32"/>
     <use x="1296.814453" xlink:href="#DejaVuSans-53"/>
     <use x="1360.4375" xlink:href="#DejaVuSans-32"/>
     <use x="1392.224609" xlink:href="#DejaVuSans-115"/>
     <use x="1444.324219" xlink:href="#DejaVuSans-111"/>
     <use x="1505.505859" xlink:href="#DejaVuSans-114"/>
     <use x="1546.619141" xlink:href="#DejaVuSans-116"/>
     <use x="1585.828125" xlink:href="#DejaVuSans-101"/>
     <use x="1647.351562" xlink:href="#DejaVuSans-100"/>
     <use x="1710.828125" xlink:href="#DejaVuSans-32"/>
     <use x="1742.615234" xlink:href="#DejaVuSans-98"/>
     <use x="1806.091797" xlink:href="#DejaVuSans-121"/>
     <use x="1865.271484" xlink:href="#DejaVuSans-32"/>
     <use x="1897.058594" xlink:href="#DejaVuSans-112"/>
     <use x="1960.535156" xlink:href="#DejaVuSans-114"/>
     <use x="1999.398438" xlink:href="#DejaVuSans-101"/>
     <use x="2060.921875" xlink:href="#DejaVuSans-100"/>
     <use x="2124.398438" xlink:href="#DejaVuSans-105"/>
     <use x="2152.181641" xlink:href="#DejaVuSans-99"/>
     <use x="2207.162109" xlink:href="#DejaVuSans-116"/>
     <use x="2246.371094" xlink:href="#DejaVuSans-101"/>
     <use x="2307.894531" xlink:href="#DejaVuSans-100"/>
     <use x="2371.371094" xlink:href="#DejaVuSans-32"/>
     <use x="2403.158203" xlink:href="#DejaVuSans-97"/>
     <use x="2464.4375" xlink:href="#DejaVuSans-99"/>
     <use x="2519.417969" xlink:href="#DejaVuSans-99"/>
     <use x="2574.398438" xlink:href="#DejaVuSans-117"/>
     <use x="2637.777344" xlink:href="#DejaVuSans-114"/>
     <use x="2678.890625" xlink:href="#DejaVuSans-97"/>
     <use x="2740.169922" xlink:href="#DejaVuSans-99"/>
     <use x="2795.150391" xlink:href="#DejaVuSans-121"/>
    </g>
   </g>
   <g id="legend_2">
    <g id="patch_13">
     <path d="M 187 420.265341 
L 314.2375 420.265341 
Q 316.2375 420.265341 316.2375 418.265341 
L 316.2375 389.909091 
Q 316.2375 387.909091 314.2375 387.909091 
L 187 387.909091 
Q 185 387.909091 185 389.909091 
L 185 418.265341 
Q 185 420.265341 187 420.265341 
z
" style="fill:#ffffff;opacity:0.8;stroke:#cccccc;stroke-linejoin:miter;"/>
    </g>
    <g id="line2d_39">
     <path d="M 189 396.007528 
L 209 396.007528 
" style="fill:none;stroke:#1f77b4;stroke-linecap:square;stroke-width:1.5;"/>
    </g>
    <g id="line2d_40"/>
    <g id="text_35">
     <!-- Actual accuracy -->
     <g transform="translate(217 399.507528)scale(0.1 -0.1)">
      <use xlink:href="#DejaVuSans-65"/>
      <use x="66.658203" xlink:href="#DejaVuSans-99"/>
      <use x="121.638672" xlink:href="#DejaVuSans-116"/>
      <use x="160.847656" xlink:href="#DejaVuSans-117"/>
      <use x="224.226562" xlink:href="#DejaVuSans-97"/>
      <use x="285.505859" xlink:href="#DejaVuSans-108"/>
      <use x="313.289062" xlink:href="#DejaVuSans-32"/>
      <use x="345.076172" xlink:href="#DejaVuSans-97"/>
      <use x="406.355469" xlink:href="#DejaVuSans-99"/>
      <use x="461.335938" xlink:href="#DejaVuSans-99"/>
      <use x="516.316406" xlink:href="#DejaVuSans-117"/>
      <use x="579.695312" xlink:href="#DejaVuSans-114"/>
      <use x="620.808594" xlink:href="#DejaVuSans-97"/>
      <use x="682.087891" xlink:href="#DejaVuSans-99"/>
      <use x="737.068359" xlink:href="#DejaVuSans-121"/>
     </g>
    </g>
    <g id="line2d_41">
     <path d="M 189 410.685653 
L 209 410.685653 
" style="fill:none;stroke:#ff7f0e;stroke-linecap:square;stroke-width:1.5;"/>
    </g>
    <g id="line2d_42"/>
    <g id="text_36">
     <!-- Predicted accuracy -->
     <g transform="translate(217 414.185653)scale(0.1 -0.1)">
      <use xlink:href="#DejaVuSans-80"/>
      <use x="58.552734" xlink:href="#DejaVuSans-114"/>
      <use x="97.416016" xlink:href="#DejaVuSans-101"/>
      <use x="158.939453" xlink:href="#DejaVuSans-100"/>
      <use x="222.416016" xlink:href="#DejaVuSans-105"/>
      <use x="250.199219" xlink:href="#DejaVuSans-99"/>
      <use x="305.179688" xlink:href="#DejaVuSans-116"/>
      <use x="344.388672" xlink:href="#DejaVuSans-101"/>
      <use x="405.912109" xlink:href="#DejaVuSans-100"/>
      <use x="469.388672" xlink:href="#DejaVuSans-32"/>
      <use x="501.175781" xlink:href="#DejaVuSans-97"/>
      <use x="562.455078" xlink:href="#DejaVuSans-99"/>
      <use x="617.435547" xlink:href="#DejaVuSans-99"/>
      <use x="672.416016" xlink:href="#DejaVuSans-117"/>
      <use x="735.794922" xlink:href="#DejaVuSans-114"/>
      <use x="776.908203" xlink:href="#DejaVuSans-97"/>
      <use x="838.1875" xlink:href="#DejaVuSans-99"/>
      <use x="893.167969" xlink:href="#DejaVuSans-121"/>
     </g>
    </g>
   </g>
  </g>
 </g>
 <defs>
  <clipPath id="pbe763dc323">
   <rect height="247.090909" width="1116" x="180" y="86.4"/>
  </clipPath>
  <clipPath id="pbd83fbd2a5">
   <rect height="247.090909" width="1116" x="180" y="382.909091"/>
  </clipPath>
 </defs>
</svg>
