<?xml version="1.0" encoding="utf-8" standalone="no"?>
<!DOCTYPE svg PUBLIC "-//W3C//DTD SVG 1.1//EN"
  "http://www.w3.org/Graphics/SVG/1.1/DTD/svg11.dtd">
<!-- Created with matplotlib (https://matplotlib.org/) -->
<svg height="720pt" version="1.1" viewBox="0 0 1440 720" width="1440pt" xmlns="http://www.w3.org/2000/svg" xmlns:xlink="http://www.w3.org/1999/xlink">
 <defs>
  <style type="text/css">
*{stroke-linecap:butt;stroke-linejoin:round;}
  </style>
 </defs>
 <g id="figure_1">
  <g id="patch_1">
   <path d="M 0 720 
L 1440 720 
L 1440 0 
L 0 0 
z
" style="fill:#ffffff;"/>
  </g>
  <g id="axes_1">
   <g id="patch_2">
    <path d="M 180 333.490909 
L 1296 333.490909 
L 1296 86.4 
L 180 86.4 
z
" style="fill:#ffffff;"/>
   </g>
   <g id="matplotlib.axis_1">
    <g id="xtick_1">
     <g id="line2d_1">
      <defs>
       <path d="M 0 0 
L 0 3.5 
" id="m96a956e8c4" style="stroke:#000000;stroke-width:0.8;"/>
      </defs>
      <g>
       <use style="stroke:#000000;stroke-width:0.8;" x="230.727273" xlink:href="#m96a956e8c4" y="333.490909"/>
      </g>
     </g>
     <g id="text_1">
      <!-- 0 -->
      <defs>
       <path d="M 31.78125 66.40625 
Q 24.171875 66.40625 20.328125 58.90625 
Q 16.5 51.421875 16.5 36.375 
Q 16.5 21.390625 20.328125 13.890625 
Q 24.171875 6.390625 31.78125 6.390625 
Q 39.453125 6.390625 43.28125 13.890625 
Q 47.125 21.390625 47.125 36.375 
Q 47.125 51.421875 43.28125 58.90625 
Q 39.453125 66.40625 31.78125 66.40625 
z
M 31.78125 74.21875 
Q 44.046875 74.21875 50.515625 64.515625 
Q 56.984375 54.828125 56.984375 36.375 
Q 56.984375 17.96875 50.515625 8.265625 
Q 44.046875 -1.421875 31.78125 -1.421875 
Q 19.53125 -1.421875 13.0625 8.265625 
Q 6.59375 17.96875 6.59375 36.375 
Q 6.59375 54.828125 13.0625 64.515625 
Q 19.53125 74.21875 31.78125 74.21875 
z
" id="DejaVuSans-48"/>
      </defs>
      <g transform="translate(227.546023 348.089347)scale(0.1 -0.1)">
       <use xlink:href="#DejaVuSans-48"/>
      </g>
     </g>
    </g>
    <g id="xtick_2">
     <g id="line2d_2">
      <g>
       <use style="stroke:#000000;stroke-width:0.8;" x="370.087912" xlink:href="#m96a956e8c4" y="333.490909"/>
      </g>
     </g>
     <g id="text_2">
      <!-- 25 -->
      <defs>
       <path d="M 19.1875 8.296875 
L 53.609375 8.296875 
L 53.609375 0 
L 7.328125 0 
L 7.328125 8.296875 
Q 12.9375 14.109375 22.625 23.890625 
Q 32.328125 33.6875 34.8125 36.53125 
Q 39.546875 41.84375 41.421875 45.53125 
Q 43.3125 49.21875 43.3125 52.78125 
Q 43.3125 58.59375 39.234375 62.25 
Q 35.15625 65.921875 28.609375 65.921875 
Q 23.96875 65.921875 18.8125 64.3125 
Q 13.671875 62.703125 7.8125 59.421875 
L 7.8125 69.390625 
Q 13.765625 71.78125 18.9375 73 
Q 24.125 74.21875 28.421875 74.21875 
Q 39.75 74.21875 46.484375 68.546875 
Q 53.21875 62.890625 53.21875 53.421875 
Q 53.21875 48.921875 51.53125 44.890625 
Q 49.859375 40.875 45.40625 35.40625 
Q 44.1875 33.984375 37.640625 27.21875 
Q 31.109375 20.453125 19.1875 8.296875 
z
" id="DejaVuSans-50"/>
       <path d="M 10.796875 72.90625 
L 49.515625 72.90625 
L 49.515625 64.59375 
L 19.828125 64.59375 
L 19.828125 46.734375 
Q 21.96875 47.46875 24.109375 47.828125 
Q 26.265625 48.1875 28.421875 48.1875 
Q 40.625 48.1875 47.75 41.5 
Q 54.890625 34.8125 54.890625 23.390625 
Q 54.890625 11.625 47.5625 5.09375 
Q 40.234375 -1.421875 26.90625 -1.421875 
Q 22.3125 -1.421875 17.546875 -0.640625 
Q 12.796875 0.140625 7.71875 1.703125 
L 7.71875 11.625 
Q 12.109375 9.234375 16.796875 8.0625 
Q 21.484375 6.890625 26.703125 6.890625 
Q 35.15625 6.890625 40.078125 11.328125 
Q 45.015625 15.765625 45.015625 23.390625 
Q 45.015625 31 40.078125 35.4375 
Q 35.15625 39.890625 26.703125 39.890625 
Q 22.75 39.890625 18.8125 39.015625 
Q 14.890625 38.140625 10.796875 36.28125 
z
" id="DejaVuSans-53"/>
      </defs>
      <g transform="translate(363.725412 348.089347)scale(0.1 -0.1)">
       <use xlink:href="#DejaVuSans-50"/>
       <use x="63.623047" xlink:href="#DejaVuSans-53"/>
      </g>
     </g>
    </g>
    <g id="xtick_3">
     <g id="line2d_3">
      <g>
       <use style="stroke:#000000;stroke-width:0.8;" x="509.448551" xlink:href="#m96a956e8c4" y="333.490909"/>
      </g>
     </g>
     <g id="text_3">
      <!-- 50 -->
      <g transform="translate(503.086051 348.089347)scale(0.1 -0.1)">
       <use xlink:href="#DejaVuSans-53"/>
       <use x="63.623047" xlink:href="#DejaVuSans-48"/>
      </g>
     </g>
    </g>
    <g id="xtick_4">
     <g id="line2d_4">
      <g>
       <use style="stroke:#000000;stroke-width:0.8;" x="648.809191" xlink:href="#m96a956e8c4" y="333.490909"/>
      </g>
     </g>
     <g id="text_4">
      <!-- 75 -->
      <defs>
       <path d="M 8.203125 72.90625 
L 55.078125 72.90625 
L 55.078125 68.703125 
L 28.609375 0 
L 18.3125 0 
L 43.21875 64.59375 
L 8.203125 64.59375 
z
" id="DejaVuSans-55"/>
      </defs>
      <g transform="translate(642.446691 348.089347)scale(0.1 -0.1)">
       <use xlink:href="#DejaVuSans-55"/>
       <use x="63.623047" xlink:href="#DejaVuSans-53"/>
      </g>
     </g>
    </g>
    <g id="xtick_5">
     <g id="line2d_5">
      <g>
       <use style="stroke:#000000;stroke-width:0.8;" x="788.16983" xlink:href="#m96a956e8c4" y="333.490909"/>
      </g>
     </g>
     <g id="text_5">
      <!-- 100 -->
      <defs>
       <path d="M 12.40625 8.296875 
L 28.515625 8.296875 
L 28.515625 63.921875 
L 10.984375 60.40625 
L 10.984375 69.390625 
L 28.421875 72.90625 
L 38.28125 72.90625 
L 38.28125 8.296875 
L 54.390625 8.296875 
L 54.390625 0 
L 12.40625 0 
z
" id="DejaVuSans-49"/>
      </defs>
      <g transform="translate(778.62608 348.089347)scale(0.1 -0.1)">
       <use xlink:href="#DejaVuSans-49"/>
       <use x="63.623047" xlink:href="#DejaVuSans-48"/>
       <use x="127.246094" xlink:href="#DejaVuSans-48"/>
      </g>
     </g>
    </g>
    <g id="xtick_6">
     <g id="line2d_6">
      <g>
       <use style="stroke:#000000;stroke-width:0.8;" x="927.53047" xlink:href="#m96a956e8c4" y="333.490909"/>
      </g>
     </g>
     <g id="text_6">
      <!-- 125 -->
      <g transform="translate(917.98672 348.089347)scale(0.1 -0.1)">
       <use xlink:href="#DejaVuSans-49"/>
       <use x="63.623047" xlink:href="#DejaVuSans-50"/>
       <use x="127.246094" xlink:href="#DejaVuSans-53"/>
      </g>
     </g>
    </g>
    <g id="xtick_7">
     <g id="line2d_7">
      <g>
       <use style="stroke:#000000;stroke-width:0.8;" x="1066.891109" xlink:href="#m96a956e8c4" y="333.490909"/>
      </g>
     </g>
     <g id="text_7">
      <!-- 150 -->
      <g transform="translate(1057.347359 348.089347)scale(0.1 -0.1)">
       <use xlink:href="#DejaVuSans-49"/>
       <use x="63.623047" xlink:href="#DejaVuSans-53"/>
       <use x="127.246094" xlink:href="#DejaVuSans-48"/>
      </g>
     </g>
    </g>
    <g id="xtick_8">
     <g id="line2d_8">
      <g>
       <use style="stroke:#000000;stroke-width:0.8;" x="1206.251748" xlink:href="#m96a956e8c4" y="333.490909"/>
      </g>
     </g>
     <g id="text_8">
      <!-- 175 -->
      <g transform="translate(1196.707998 348.089347)scale(0.1 -0.1)">
       <use xlink:href="#DejaVuSans-49"/>
       <use x="63.623047" xlink:href="#DejaVuSans-55"/>
       <use x="127.246094" xlink:href="#DejaVuSans-53"/>
      </g>
     </g>
    </g>
   </g>
   <g id="matplotlib.axis_2">
    <g id="ytick_1">
     <g id="line2d_9">
      <defs>
       <path d="M 0 0 
L -3.5 0 
" id="m46fe07b0a5" style="stroke:#000000;stroke-width:0.8;"/>
      </defs>
      <g>
       <use style="stroke:#000000;stroke-width:0.8;" x="180" xlink:href="#m46fe07b0a5" y="309.72714"/>
      </g>
     </g>
     <g id="text_9">
      <!-- 0.475 -->
      <defs>
       <path d="M 10.6875 12.40625 
L 21 12.40625 
L 21 0 
L 10.6875 0 
z
" id="DejaVuSans-46"/>
       <path d="M 37.796875 64.3125 
L 12.890625 25.390625 
L 37.796875 25.390625 
z
M 35.203125 72.90625 
L 47.609375 72.90625 
L 47.609375 25.390625 
L 58.015625 25.390625 
L 58.015625 17.1875 
L 47.609375 17.1875 
L 47.609375 0 
L 37.796875 0 
L 37.796875 17.1875 
L 4.890625 17.1875 
L 4.890625 26.703125 
z
" id="DejaVuSans-52"/>
      </defs>
      <g transform="translate(144.371875 313.526359)scale(0.1 -0.1)">
       <use xlink:href="#DejaVuSans-48"/>
       <use x="63.623047" xlink:href="#DejaVuSans-46"/>
       <use x="95.410156" xlink:href="#DejaVuSans-52"/>
       <use x="159.033203" xlink:href="#DejaVuSans-55"/>
       <use x="222.65625" xlink:href="#DejaVuSans-53"/>
      </g>
     </g>
    </g>
    <g id="ytick_2">
     <g id="line2d_10">
      <g>
       <use style="stroke:#000000;stroke-width:0.8;" x="180" xlink:href="#m46fe07b0a5" y="275.491727"/>
      </g>
     </g>
     <g id="text_10">
      <!-- 0.500 -->
      <g transform="translate(144.371875 279.290946)scale(0.1 -0.1)">
       <use xlink:href="#DejaVuSans-48"/>
       <use x="63.623047" xlink:href="#DejaVuSans-46"/>
       <use x="95.410156" xlink:href="#DejaVuSans-53"/>
       <use x="159.033203" xlink:href="#DejaVuSans-48"/>
       <use x="222.65625" xlink:href="#DejaVuSans-48"/>
      </g>
     </g>
    </g>
    <g id="ytick_3">
     <g id="line2d_11">
      <g>
       <use style="stroke:#000000;stroke-width:0.8;" x="180" xlink:href="#m46fe07b0a5" y="241.256314"/>
      </g>
     </g>
     <g id="text_11">
      <!-- 0.525 -->
      <g transform="translate(144.371875 245.055533)scale(0.1 -0.1)">
       <use xlink:href="#DejaVuSans-48"/>
       <use x="63.623047" xlink:href="#DejaVuSans-46"/>
       <use x="95.410156" xlink:href="#DejaVuSans-53"/>
       <use x="159.033203" xlink:href="#DejaVuSans-50"/>
       <use x="222.65625" xlink:href="#DejaVuSans-53"/>
      </g>
     </g>
    </g>
    <g id="ytick_4">
     <g id="line2d_12">
      <g>
       <use style="stroke:#000000;stroke-width:0.8;" x="180" xlink:href="#m46fe07b0a5" y="207.020901"/>
      </g>
     </g>
     <g id="text_12">
      <!-- 0.550 -->
      <g transform="translate(144.371875 210.82012)scale(0.1 -0.1)">
       <use xlink:href="#DejaVuSans-48"/>
       <use x="63.623047" xlink:href="#DejaVuSans-46"/>
       <use x="95.410156" xlink:href="#DejaVuSans-53"/>
       <use x="159.033203" xlink:href="#DejaVuSans-53"/>
       <use x="222.65625" xlink:href="#DejaVuSans-48"/>
      </g>
     </g>
    </g>
    <g id="ytick_5">
     <g id="line2d_13">
      <g>
       <use style="stroke:#000000;stroke-width:0.8;" x="180" xlink:href="#m46fe07b0a5" y="172.785488"/>
      </g>
     </g>
     <g id="text_13">
      <!-- 0.575 -->
      <g transform="translate(144.371875 176.584707)scale(0.1 -0.1)">
       <use xlink:href="#DejaVuSans-48"/>
       <use x="63.623047" xlink:href="#DejaVuSans-46"/>
       <use x="95.410156" xlink:href="#DejaVuSans-53"/>
       <use x="159.033203" xlink:href="#DejaVuSans-55"/>
       <use x="222.65625" xlink:href="#DejaVuSans-53"/>
      </g>
     </g>
    </g>
    <g id="ytick_6">
     <g id="line2d_14">
      <g>
       <use style="stroke:#000000;stroke-width:0.8;" x="180" xlink:href="#m46fe07b0a5" y="138.550075"/>
      </g>
     </g>
     <g id="text_14">
      <!-- 0.600 -->
      <defs>
       <path d="M 33.015625 40.375 
Q 26.375 40.375 22.484375 35.828125 
Q 18.609375 31.296875 18.609375 23.390625 
Q 18.609375 15.53125 22.484375 10.953125 
Q 26.375 6.390625 33.015625 6.390625 
Q 39.65625 6.390625 43.53125 10.953125 
Q 47.40625 15.53125 47.40625 23.390625 
Q 47.40625 31.296875 43.53125 35.828125 
Q 39.65625 40.375 33.015625 40.375 
z
M 52.59375 71.296875 
L 52.59375 62.3125 
Q 48.875 64.0625 45.09375 64.984375 
Q 41.3125 65.921875 37.59375 65.921875 
Q 27.828125 65.921875 22.671875 59.328125 
Q 17.53125 52.734375 16.796875 39.40625 
Q 19.671875 43.65625 24.015625 45.921875 
Q 28.375 48.1875 33.59375 48.1875 
Q 44.578125 48.1875 50.953125 41.515625 
Q 57.328125 34.859375 57.328125 23.390625 
Q 57.328125 12.15625 50.6875 5.359375 
Q 44.046875 -1.421875 33.015625 -1.421875 
Q 20.359375 -1.421875 13.671875 8.265625 
Q 6.984375 17.96875 6.984375 36.375 
Q 6.984375 53.65625 15.1875 63.9375 
Q 23.390625 74.21875 37.203125 74.21875 
Q 40.921875 74.21875 44.703125 73.484375 
Q 48.484375 72.75 52.59375 71.296875 
z
" id="DejaVuSans-54"/>
      </defs>
      <g transform="translate(144.371875 142.349294)scale(0.1 -0.1)">
       <use xlink:href="#DejaVuSans-48"/>
       <use x="63.623047" xlink:href="#DejaVuSans-46"/>
       <use x="95.410156" xlink:href="#DejaVuSans-54"/>
       <use x="159.033203" xlink:href="#DejaVuSans-48"/>
       <use x="222.65625" xlink:href="#DejaVuSans-48"/>
      </g>
     </g>
    </g>
    <g id="ytick_7">
     <g id="line2d_15">
      <g>
       <use style="stroke:#000000;stroke-width:0.8;" x="180" xlink:href="#m46fe07b0a5" y="104.314662"/>
      </g>
     </g>
     <g id="text_15">
      <!-- 0.625 -->
      <g transform="translate(144.371875 108.113881)scale(0.1 -0.1)">
       <use xlink:href="#DejaVuSans-48"/>
       <use x="63.623047" xlink:href="#DejaVuSans-46"/>
       <use x="95.410156" xlink:href="#DejaVuSans-54"/>
       <use x="159.033203" xlink:href="#DejaVuSans-50"/>
       <use x="222.65625" xlink:href="#DejaVuSans-53"/>
      </g>
     </g>
    </g>
   </g>
   <g id="line2d_16">
    <path clip-path="url(#p2e19c30108)" d="M 230.727273 322.259504 
L 236.301698 317.675932 
L 241.876124 308.082088 
L 247.450549 301.636377 
L 253.024975 300.792811 
L 258.599401 295.233927 
L 264.173826 293.513367 
L 269.748252 290.262983 
L 275.322677 289.063506 
L 280.897103 288.127521 
L 286.471528 287.769645 
L 292.045954 284.066999 
L 297.62038 284.029639 
L 303.194805 283.880196 
L 308.769231 283.009101 
L 314.343656 281.414387 
L 319.918082 278.873857 
L 325.492507 278.126642 
L 342.215784 277.603592 
L 347.79021 277.389259 
L 353.364635 277.351898 
L 358.939061 276.748228 
L 370.087912 276.549626 
L 375.662338 276.41788 
L 386.811189 276.404116 
L 397.96004 276.14259 
L 403.534466 276.14259 
L 414.683317 275.725723 
L 436.981019 275.580213 
L 448.12987 275.509424 
L 565.192807 275.491727 
L 938.679321 275.417006 
L 955.402597 275.283293 
L 960.977023 275.037499 
L 983.274725 274.504617 
L 999.998002 274.050389 
L 1005.572428 273.393627 
L 1016.721279 273.010188 
L 1022.295704 272.414382 
L 1033.444555 272.139092 
L 1050.167832 271.283728 
L 1061.316683 271.006472 
L 1072.465534 270.884558 
L 1078.03996 269.893516 
L 1083.614386 269.836491 
L 1089.188811 269.244619 
L 1100.337662 268.711736 
L 1111.486513 268.703871 
L 1117.060939 268.501336 
L 1122.635365 267.756088 
L 1128.20979 266.216432 
L 1133.784216 265.911648 
L 1139.358641 264.647282 
L 1144.933067 264.432949 
L 1150.507493 263.829278 
L 1156.081918 263.58545 
L 1161.656344 262.169675 
L 1167.230769 261.634826 
L 1172.805195 258.008869 
L 1178.37962 256.923441 
L 1183.954046 253.761543 
L 1189.528472 253.69272 
L 1195.102897 253.026126 
L 1200.677323 252.823591 
L 1206.251748 249.85243 
L 1211.826174 240.992036 
L 1217.400599 239.898743 
L 1222.975025 237.94222 
L 1228.549451 232.188667 
L 1234.123876 176.755165 
L 1239.698302 168.254614 
L 1245.272727 103.203672 
L 1245.272727 103.203672 
" style="fill:none;stroke:#1f77b4;stroke-linecap:square;stroke-width:1.5;"/>
   </g>
   <g id="line2d_17">
    <path clip-path="url(#p2e19c30108)" d="M 230.727273 289.428873 
L 236.301698 276.548467 
L 241.876124 275.999548 
L 247.450549 274.28378 
L 253.024975 288.757723 
L 258.599401 271.477561 
L 264.173826 271.971792 
L 269.748252 274.238315 
L 275.322677 269.241483 
L 280.897103 269.827377 
L 286.471528 275.645955 
L 292.045954 275.357946 
L 297.62038 274.25064 
L 303.194805 276.320819 
L 308.769231 272.316488 
L 314.343656 272.259025 
L 319.918082 272.719953 
L 325.492507 273.424691 
L 331.066933 276.759831 
L 336.641359 273.127418 
L 342.215784 266.837015 
L 347.79021 274.96852 
L 353.364635 273.792977 
L 358.939061 275.442671 
L 364.513487 262.557817 
L 370.087912 274.644882 
L 375.662338 264.093973 
L 381.236763 274.980355 
L 392.385614 270.611453 
L 397.96004 274.116696 
L 403.534466 259.504524 
L 409.108891 274.533956 
L 414.683317 282.8112 
L 420.257742 274.770583 
L 425.832168 275.449772 
L 431.406593 261.153483 
L 436.981019 273.680826 
L 442.555445 266.946636 
L 448.12987 274.420254 
L 453.704296 272.83292 
L 459.278721 276.334205 
L 464.853147 275.484054 
L 470.427572 274.307614 
L 476.001998 275.585104 
L 481.576424 274.854328 
L 487.150849 275.061979 
L 492.725275 274.084863 
L 498.2997 274.258313 
L 509.448551 274.040133 
L 515.022977 274.671573 
L 520.597403 274.071232 
L 526.171828 274.170404 
L 531.746254 274.578849 
L 537.320679 274.798661 
L 542.895105 276.038809 
L 548.46953 274.426621 
L 554.043956 272.628617 
L 559.618382 274.839473 
L 565.192807 275.697051 
L 570.767233 275.750841 
L 576.341658 274.042827 
L 581.916084 276.849862 
L 593.064935 272.878793 
L 598.639361 273.222102 
L 604.213786 274.572482 
L 609.788212 275.297381 
L 615.362637 273.945776 
L 620.937063 275.526213 
L 626.511489 275.822996 
L 632.085914 273.109053 
L 637.66034 270.049964 
L 643.234765 274.699652 
L 648.809191 273.551616 
L 654.383616 275.92372 
L 659.958042 273.877131 
L 665.532468 273.650789 
L 671.106893 274.785112 
L 676.681319 275.596491 
L 682.255744 268.950086 
L 687.83017 273.999893 
L 693.404595 274.780541 
L 698.979021 273.388532 
L 704.553447 266.071957 
L 710.127872 274.925178 
L 715.702298 274.081598 
L 721.276723 270.689975 
L 726.851149 275.065978 
L 732.425574 273.664746 
L 738 274.932034 
L 743.574426 274.538037 
L 749.148851 273.999893 
L 754.723277 274.157671 
L 760.297702 288.799881 
L 765.872128 273.748655 
L 771.446553 275.620937 
L 777.020979 274.62464 
L 782.595405 264.172168 
L 788.16983 275.468056 
L 793.744256 270.857874 
L 799.318681 275.918904 
L 804.893107 274.711814 
L 810.467532 276.015179 
L 816.041958 275.146867 
L 821.616384 275.862176 
L 827.190809 271.624483 
L 832.765235 274.302716 
L 838.33966 272.882792 
L 843.914086 278.473763 
L 849.488511 273.418733 
L 855.062937 275.587961 
L 860.637363 273.113705 
L 866.211788 274.926076 
L 871.786214 274.567585 
L 877.360639 270.728175 
L 882.935065 276.026198 
L 888.509491 268.693625 
L 894.083916 273.901455 
L 899.658342 267.717244 
L 905.232767 275.001659 
L 910.807193 274.786662 
L 916.381618 272.982618 
L 921.956044 274.479513 
L 927.53047 275.410022 
L 933.104895 273.430976 
L 938.679321 272.658572 
L 944.253746 272.333139 
L 949.828172 274.013279 
L 955.402597 273.962101 
L 960.977023 273.032653 
L 966.551449 275.652485 
L 972.125874 275.522662 
L 977.7003 274.10682 
L 983.274725 273.60108 
L 988.849151 275.855319 
L 994.423576 266.715967 
L 999.998002 274.255946 
L 1005.572428 285.416135 
L 1011.146853 274.526773 
L 1016.721279 277.653283 
L 1022.295704 273.30144 
L 1027.87013 274.465637 
L 1033.444555 278.289539 
L 1039.018981 272.64641 
L 1044.593407 274.104861 
L 1050.167832 274.10282 
L 1055.742258 268.883073 
L 1061.316683 273.962836 
L 1066.891109 269.289804 
L 1072.465534 274.55379 
L 1078.03996 275.770676 
L 1083.614386 277.136197 
L 1089.188811 272.22809 
L 1094.763237 271.739572 
L 1100.337662 274.38638 
L 1105.912088 273.785794 
L 1111.486513 273.520762 
L 1117.060939 269.762323 
L 1122.635365 272.264739 
L 1128.20979 269.541041 
L 1133.784216 273.282258 
L 1139.358641 268.331951 
L 1144.933067 272.619883 
L 1150.507493 273.385267 
L 1161.656344 276.345755 
L 1167.230769 273.723515 
L 1172.805195 270.952639 
L 1178.37962 270.911501 
L 1183.954046 276.734977 
L 1189.528472 272.4639 
L 1195.102897 268.023659 
L 1200.677323 266.766492 
L 1206.251748 269.640704 
L 1211.826174 274.804456 
L 1217.400599 261.569192 
L 1222.975025 262.084645 
L 1228.549451 275.570412 
L 1234.123876 97.631405 
L 1239.698302 230.422856 
L 1245.272727 180.888768 
L 1245.272727 180.888768 
" style="fill:none;stroke:#ff7f0e;stroke-linecap:square;stroke-width:1.5;"/>
   </g>
   <g id="patch_3">
    <path d="M 180 333.490909 
L 180 86.4 
" style="fill:none;stroke:#000000;stroke-linecap:square;stroke-linejoin:miter;stroke-width:0.8;"/>
   </g>
   <g id="patch_4">
    <path d="M 1296 333.490909 
L 1296 86.4 
" style="fill:none;stroke:#000000;stroke-linecap:square;stroke-linejoin:miter;stroke-width:0.8;"/>
   </g>
   <g id="patch_5">
    <path d="M 180 333.490909 
L 1296 333.490909 
" style="fill:none;stroke:#000000;stroke-linecap:square;stroke-linejoin:miter;stroke-width:0.8;"/>
   </g>
   <g id="patch_6">
    <path d="M 180 86.4 
L 1296 86.4 
" style="fill:none;stroke:#000000;stroke-linecap:square;stroke-linejoin:miter;stroke-width:0.8;"/>
   </g>
   <g id="text_16">
    <!-- Test set results at minute 2 sorted by actual accuracy -->
    <defs>
     <path d="M -0.296875 72.90625 
L 61.375 72.90625 
L 61.375 64.59375 
L 35.5 64.59375 
L 35.5 0 
L 25.59375 0 
L 25.59375 64.59375 
L -0.296875 64.59375 
z
" id="DejaVuSans-84"/>
     <path d="M 56.203125 29.59375 
L 56.203125 25.203125 
L 14.890625 25.203125 
Q 15.484375 15.921875 20.484375 11.0625 
Q 25.484375 6.203125 34.421875 6.203125 
Q 39.59375 6.203125 44.453125 7.46875 
Q 49.3125 8.734375 54.109375 11.28125 
L 54.109375 2.78125 
Q 49.265625 0.734375 44.1875 -0.34375 
Q 39.109375 -1.421875 33.890625 -1.421875 
Q 20.796875 -1.421875 13.15625 6.1875 
Q 5.515625 13.8125 5.515625 26.8125 
Q 5.515625 40.234375 12.765625 48.109375 
Q 20.015625 56 32.328125 56 
Q 43.359375 56 49.78125 48.890625 
Q 56.203125 41.796875 56.203125 29.59375 
z
M 47.21875 32.234375 
Q 47.125 39.59375 43.09375 43.984375 
Q 39.0625 48.390625 32.421875 48.390625 
Q 24.90625 48.390625 20.390625 44.140625 
Q 15.875 39.890625 15.1875 32.171875 
z
" id="DejaVuSans-101"/>
     <path d="M 44.28125 53.078125 
L 44.28125 44.578125 
Q 40.484375 46.53125 36.375 47.5 
Q 32.28125 48.484375 27.875 48.484375 
Q 21.1875 48.484375 17.84375 46.4375 
Q 14.5 44.390625 14.5 40.28125 
Q 14.5 37.15625 16.890625 35.375 
Q 19.28125 33.59375 26.515625 31.984375 
L 29.59375 31.296875 
Q 39.15625 29.25 43.1875 25.515625 
Q 47.21875 21.78125 47.21875 15.09375 
Q 47.21875 7.46875 41.1875 3.015625 
Q 35.15625 -1.421875 24.609375 -1.421875 
Q 20.21875 -1.421875 15.453125 -0.5625 
Q 10.6875 0.296875 5.421875 2 
L 5.421875 11.28125 
Q 10.40625 8.6875 15.234375 7.390625 
Q 20.0625 6.109375 24.8125 6.109375 
Q 31.15625 6.109375 34.5625 8.28125 
Q 37.984375 10.453125 37.984375 14.40625 
Q 37.984375 18.0625 35.515625 20.015625 
Q 33.0625 21.96875 24.703125 23.78125 
L 21.578125 24.515625 
Q 13.234375 26.265625 9.515625 29.90625 
Q 5.8125 33.546875 5.8125 39.890625 
Q 5.8125 47.609375 11.28125 51.796875 
Q 16.75 56 26.8125 56 
Q 31.78125 56 36.171875 55.265625 
Q 40.578125 54.546875 44.28125 53.078125 
z
" id="DejaVuSans-115"/>
     <path d="M 18.3125 70.21875 
L 18.3125 54.6875 
L 36.8125 54.6875 
L 36.8125 47.703125 
L 18.3125 47.703125 
L 18.3125 18.015625 
Q 18.3125 11.328125 20.140625 9.421875 
Q 21.96875 7.515625 27.59375 7.515625 
L 36.8125 7.515625 
L 36.8125 0 
L 27.59375 0 
Q 17.1875 0 13.234375 3.875 
Q 9.28125 7.765625 9.28125 18.015625 
L 9.28125 47.703125 
L 2.6875 47.703125 
L 2.6875 54.6875 
L 9.28125 54.6875 
L 9.28125 70.21875 
z
" id="DejaVuSans-116"/>
     <path id="DejaVuSans-32"/>
     <path d="M 41.109375 46.296875 
Q 39.59375 47.171875 37.8125 47.578125 
Q 36.03125 48 33.890625 48 
Q 26.265625 48 22.1875 43.046875 
Q 18.109375 38.09375 18.109375 28.8125 
L 18.109375 0 
L 9.078125 0 
L 9.078125 54.6875 
L 18.109375 54.6875 
L 18.109375 46.1875 
Q 20.953125 51.171875 25.484375 53.578125 
Q 30.03125 56 36.53125 56 
Q 37.453125 56 38.578125 55.875 
Q 39.703125 55.765625 41.0625 55.515625 
z
" id="DejaVuSans-114"/>
     <path d="M 8.5 21.578125 
L 8.5 54.6875 
L 17.484375 54.6875 
L 17.484375 21.921875 
Q 17.484375 14.15625 20.5 10.265625 
Q 23.53125 6.390625 29.59375 6.390625 
Q 36.859375 6.390625 41.078125 11.03125 
Q 45.3125 15.671875 45.3125 23.6875 
L 45.3125 54.6875 
L 54.296875 54.6875 
L 54.296875 0 
L 45.3125 0 
L 45.3125 8.40625 
Q 42.046875 3.421875 37.71875 1 
Q 33.40625 -1.421875 27.6875 -1.421875 
Q 18.265625 -1.421875 13.375 4.4375 
Q 8.5 10.296875 8.5 21.578125 
z
M 31.109375 56 
z
" id="DejaVuSans-117"/>
     <path d="M 9.421875 75.984375 
L 18.40625 75.984375 
L 18.40625 0 
L 9.421875 0 
z
" id="DejaVuSans-108"/>
     <path d="M 34.28125 27.484375 
Q 23.390625 27.484375 19.1875 25 
Q 14.984375 22.515625 14.984375 16.5 
Q 14.984375 11.71875 18.140625 8.90625 
Q 21.296875 6.109375 26.703125 6.109375 
Q 34.1875 6.109375 38.703125 11.40625 
Q 43.21875 16.703125 43.21875 25.484375 
L 43.21875 27.484375 
z
M 52.203125 31.203125 
L 52.203125 0 
L 43.21875 0 
L 43.21875 8.296875 
Q 40.140625 3.328125 35.546875 0.953125 
Q 30.953125 -1.421875 24.3125 -1.421875 
Q 15.921875 -1.421875 10.953125 3.296875 
Q 6 8.015625 6 15.921875 
Q 6 25.140625 12.171875 29.828125 
Q 18.359375 34.515625 30.609375 34.515625 
L 43.21875 34.515625 
L 43.21875 35.40625 
Q 43.21875 41.609375 39.140625 45 
Q 35.0625 48.390625 27.6875 48.390625 
Q 23 48.390625 18.546875 47.265625 
Q 14.109375 46.140625 10.015625 43.890625 
L 10.015625 52.203125 
Q 14.9375 54.109375 19.578125 55.046875 
Q 24.21875 56 28.609375 56 
Q 40.484375 56 46.34375 49.84375 
Q 52.203125 43.703125 52.203125 31.203125 
z
" id="DejaVuSans-97"/>
     <path d="M 52 44.1875 
Q 55.375 50.25 60.0625 53.125 
Q 64.75 56 71.09375 56 
Q 79.640625 56 84.28125 50.015625 
Q 88.921875 44.046875 88.921875 33.015625 
L 88.921875 0 
L 79.890625 0 
L 79.890625 32.71875 
Q 79.890625 40.578125 77.09375 44.375 
Q 74.3125 48.1875 68.609375 48.1875 
Q 61.625 48.1875 57.5625 43.546875 
Q 53.515625 38.921875 53.515625 30.90625 
L 53.515625 0 
L 44.484375 0 
L 44.484375 32.71875 
Q 44.484375 40.625 41.703125 44.40625 
Q 38.921875 48.1875 33.109375 48.1875 
Q 26.21875 48.1875 22.15625 43.53125 
Q 18.109375 38.875 18.109375 30.90625 
L 18.109375 0 
L 9.078125 0 
L 9.078125 54.6875 
L 18.109375 54.6875 
L 18.109375 46.1875 
Q 21.1875 51.21875 25.484375 53.609375 
Q 29.78125 56 35.6875 56 
Q 41.65625 56 45.828125 52.96875 
Q 50 49.953125 52 44.1875 
z
" id="DejaVuSans-109"/>
     <path d="M 9.421875 54.6875 
L 18.40625 54.6875 
L 18.40625 0 
L 9.421875 0 
z
M 9.421875 75.984375 
L 18.40625 75.984375 
L 18.40625 64.59375 
L 9.421875 64.59375 
z
" id="DejaVuSans-105"/>
     <path d="M 54.890625 33.015625 
L 54.890625 0 
L 45.90625 0 
L 45.90625 32.71875 
Q 45.90625 40.484375 42.875 44.328125 
Q 39.84375 48.1875 33.796875 48.1875 
Q 26.515625 48.1875 22.3125 43.546875 
Q 18.109375 38.921875 18.109375 30.90625 
L 18.109375 0 
L 9.078125 0 
L 9.078125 54.6875 
L 18.109375 54.6875 
L 18.109375 46.1875 
Q 21.34375 51.125 25.703125 53.5625 
Q 30.078125 56 35.796875 56 
Q 45.21875 56 50.046875 50.171875 
Q 54.890625 44.34375 54.890625 33.015625 
z
" id="DejaVuSans-110"/>
     <path d="M 30.609375 48.390625 
Q 23.390625 48.390625 19.1875 42.75 
Q 14.984375 37.109375 14.984375 27.296875 
Q 14.984375 17.484375 19.15625 11.84375 
Q 23.34375 6.203125 30.609375 6.203125 
Q 37.796875 6.203125 41.984375 11.859375 
Q 46.1875 17.53125 46.1875 27.296875 
Q 46.1875 37.015625 41.984375 42.703125 
Q 37.796875 48.390625 30.609375 48.390625 
z
M 30.609375 56 
Q 42.328125 56 49.015625 48.375 
Q 55.71875 40.765625 55.71875 27.296875 
Q 55.71875 13.875 49.015625 6.21875 
Q 42.328125 -1.421875 30.609375 -1.421875 
Q 18.84375 -1.421875 12.171875 6.21875 
Q 5.515625 13.875 5.515625 27.296875 
Q 5.515625 40.765625 12.171875 48.375 
Q 18.84375 56 30.609375 56 
z
" id="DejaVuSans-111"/>
     <path d="M 45.40625 46.390625 
L 45.40625 75.984375 
L 54.390625 75.984375 
L 54.390625 0 
L 45.40625 0 
L 45.40625 8.203125 
Q 42.578125 3.328125 38.25 0.953125 
Q 33.9375 -1.421875 27.875 -1.421875 
Q 17.96875 -1.421875 11.734375 6.484375 
Q 5.515625 14.40625 5.515625 27.296875 
Q 5.515625 40.1875 11.734375 48.09375 
Q 17.96875 56 27.875 56 
Q 33.9375 56 38.25 53.625 
Q 42.578125 51.265625 45.40625 46.390625 
z
M 14.796875 27.296875 
Q 14.796875 17.390625 18.875 11.75 
Q 22.953125 6.109375 30.078125 6.109375 
Q 37.203125 6.109375 41.296875 11.75 
Q 45.40625 17.390625 45.40625 27.296875 
Q 45.40625 37.203125 41.296875 42.84375 
Q 37.203125 48.484375 30.078125 48.484375 
Q 22.953125 48.484375 18.875 42.84375 
Q 14.796875 37.203125 14.796875 27.296875 
z
" id="DejaVuSans-100"/>
     <path d="M 48.6875 27.296875 
Q 48.6875 37.203125 44.609375 42.84375 
Q 40.53125 48.484375 33.40625 48.484375 
Q 26.265625 48.484375 22.1875 42.84375 
Q 18.109375 37.203125 18.109375 27.296875 
Q 18.109375 17.390625 22.1875 11.75 
Q 26.265625 6.109375 33.40625 6.109375 
Q 40.53125 6.109375 44.609375 11.75 
Q 48.6875 17.390625 48.6875 27.296875 
z
M 18.109375 46.390625 
Q 20.953125 51.265625 25.265625 53.625 
Q 29.59375 56 35.59375 56 
Q 45.5625 56 51.78125 48.09375 
Q 58.015625 40.1875 58.015625 27.296875 
Q 58.015625 14.40625 51.78125 6.484375 
Q 45.5625 -1.421875 35.59375 -1.421875 
Q 29.59375 -1.421875 25.265625 0.953125 
Q 20.953125 3.328125 18.109375 8.203125 
L 18.109375 0 
L 9.078125 0 
L 9.078125 75.984375 
L 18.109375 75.984375 
z
" id="DejaVuSans-98"/>
     <path d="M 32.171875 -5.078125 
Q 28.375 -14.84375 24.75 -17.8125 
Q 21.140625 -20.796875 15.09375 -20.796875 
L 7.90625 -20.796875 
L 7.90625 -13.28125 
L 13.1875 -13.28125 
Q 16.890625 -13.28125 18.9375 -11.515625 
Q 21 -9.765625 23.484375 -3.21875 
L 25.09375 0.875 
L 2.984375 54.6875 
L 12.5 54.6875 
L 29.59375 11.921875 
L 46.6875 54.6875 
L 56.203125 54.6875 
z
" id="DejaVuSans-121"/>
     <path d="M 48.78125 52.59375 
L 48.78125 44.1875 
Q 44.96875 46.296875 41.140625 47.34375 
Q 37.3125 48.390625 33.40625 48.390625 
Q 24.65625 48.390625 19.8125 42.84375 
Q 14.984375 37.3125 14.984375 27.296875 
Q 14.984375 17.28125 19.8125 11.734375 
Q 24.65625 6.203125 33.40625 6.203125 
Q 37.3125 6.203125 41.140625 7.25 
Q 44.96875 8.296875 48.78125 10.40625 
L 48.78125 2.09375 
Q 45.015625 0.34375 40.984375 -0.53125 
Q 36.96875 -1.421875 32.421875 -1.421875 
Q 20.0625 -1.421875 12.78125 6.34375 
Q 5.515625 14.109375 5.515625 27.296875 
Q 5.515625 40.671875 12.859375 48.328125 
Q 20.21875 56 33.015625 56 
Q 37.15625 56 41.109375 55.140625 
Q 45.0625 54.296875 48.78125 52.59375 
z
" id="DejaVuSans-99"/>
    </defs>
    <g transform="translate(576.728438 80.4)scale(0.12 -0.12)">
     <use xlink:href="#DejaVuSans-84"/>
     <use x="44.083984" xlink:href="#DejaVuSans-101"/>
     <use x="105.607422" xlink:href="#DejaVuSans-115"/>
     <use x="157.707031" xlink:href="#DejaVuSans-116"/>
     <use x="196.916016" xlink:href="#DejaVuSans-32"/>
     <use x="228.703125" xlink:href="#DejaVuSans-115"/>
     <use x="280.802734" xlink:href="#DejaVuSans-101"/>
     <use x="342.326172" xlink:href="#DejaVuSans-116"/>
     <use x="381.535156" xlink:href="#DejaVuSans-32"/>
     <use x="413.322266" xlink:href="#DejaVuSans-114"/>
     <use x="452.185547" xlink:href="#DejaVuSans-101"/>
     <use x="513.708984" xlink:href="#DejaVuSans-115"/>
     <use x="565.808594" xlink:href="#DejaVuSans-117"/>
     <use x="629.1875" xlink:href="#DejaVuSans-108"/>
     <use x="656.970703" xlink:href="#DejaVuSans-116"/>
     <use x="696.179688" xlink:href="#DejaVuSans-115"/>
     <use x="748.279297" xlink:href="#DejaVuSans-32"/>
     <use x="780.066406" xlink:href="#DejaVuSans-97"/>
     <use x="841.345703" xlink:href="#DejaVuSans-116"/>
     <use x="880.554688" xlink:href="#DejaVuSans-32"/>
     <use x="912.341797" xlink:href="#DejaVuSans-109"/>
     <use x="1009.753906" xlink:href="#DejaVuSans-105"/>
     <use x="1037.537109" xlink:href="#DejaVuSans-110"/>
     <use x="1100.916016" xlink:href="#DejaVuSans-117"/>
     <use x="1164.294922" xlink:href="#DejaVuSans-116"/>
     <use x="1203.503906" xlink:href="#DejaVuSans-101"/>
     <use x="1265.027344" xlink:href="#DejaVuSans-32"/>
     <use x="1296.814453" xlink:href="#DejaVuSans-50"/>
     <use x="1360.4375" xlink:href="#DejaVuSans-32"/>
     <use x="1392.224609" xlink:href="#DejaVuSans-115"/>
     <use x="1444.324219" xlink:href="#DejaVuSans-111"/>
     <use x="1505.505859" xlink:href="#DejaVuSans-114"/>
     <use x="1546.619141" xlink:href="#DejaVuSans-116"/>
     <use x="1585.828125" xlink:href="#DejaVuSans-101"/>
     <use x="1647.351562" xlink:href="#DejaVuSans-100"/>
     <use x="1710.828125" xlink:href="#DejaVuSans-32"/>
     <use x="1742.615234" xlink:href="#DejaVuSans-98"/>
     <use x="1806.091797" xlink:href="#DejaVuSans-121"/>
     <use x="1865.271484" xlink:href="#DejaVuSans-32"/>
     <use x="1897.058594" xlink:href="#DejaVuSans-97"/>
     <use x="1958.337891" xlink:href="#DejaVuSans-99"/>
     <use x="2013.318359" xlink:href="#DejaVuSans-116"/>
     <use x="2052.527344" xlink:href="#DejaVuSans-117"/>
     <use x="2115.90625" xlink:href="#DejaVuSans-97"/>
     <use x="2177.185547" xlink:href="#DejaVuSans-108"/>
     <use x="2204.96875" xlink:href="#DejaVuSans-32"/>
     <use x="2236.755859" xlink:href="#DejaVuSans-97"/>
     <use x="2298.035156" xlink:href="#DejaVuSans-99"/>
     <use x="2353.015625" xlink:href="#DejaVuSans-99"/>
     <use x="2407.996094" xlink:href="#DejaVuSans-117"/>
     <use x="2471.375" xlink:href="#DejaVuSans-114"/>
     <use x="2512.488281" xlink:href="#DejaVuSans-97"/>
     <use x="2573.767578" xlink:href="#DejaVuSans-99"/>
     <use x="2628.748047" xlink:href="#DejaVuSans-121"/>
    </g>
   </g>
   <g id="legend_1">
    <g id="patch_7">
     <path d="M 187 123.75625 
L 314.2375 123.75625 
Q 316.2375 123.75625 316.2375 121.75625 
L 316.2375 93.4 
Q 316.2375 91.4 314.2375 91.4 
L 187 91.4 
Q 185 91.4 185 93.4 
L 185 121.75625 
Q 185 123.75625 187 123.75625 
z
" style="fill:#ffffff;opacity:0.8;stroke:#cccccc;stroke-linejoin:miter;"/>
    </g>
    <g id="line2d_18">
     <path d="M 189 99.498437 
L 209 99.498437 
" style="fill:none;stroke:#1f77b4;stroke-linecap:square;stroke-width:1.5;"/>
    </g>
    <g id="line2d_19"/>
    <g id="text_17">
     <!-- Actual accuracy -->
     <defs>
      <path d="M 34.1875 63.1875 
L 20.796875 26.90625 
L 47.609375 26.90625 
z
M 28.609375 72.90625 
L 39.796875 72.90625 
L 67.578125 0 
L 57.328125 0 
L 50.6875 18.703125 
L 17.828125 18.703125 
L 11.1875 0 
L 0.78125 0 
z
" id="DejaVuSans-65"/>
     </defs>
     <g transform="translate(217 102.998437)scale(0.1 -0.1)">
      <use xlink:href="#DejaVuSans-65"/>
      <use x="66.658203" xlink:href="#DejaVuSans-99"/>
      <use x="121.638672" xlink:href="#DejaVuSans-116"/>
      <use x="160.847656" xlink:href="#DejaVuSans-117"/>
      <use x="224.226562" xlink:href="#DejaVuSans-97"/>
      <use x="285.505859" xlink:href="#DejaVuSans-108"/>
      <use x="313.289062" xlink:href="#DejaVuSans-32"/>
      <use x="345.076172" xlink:href="#DejaVuSans-97"/>
      <use x="406.355469" xlink:href="#DejaVuSans-99"/>
      <use x="461.335938" xlink:href="#DejaVuSans-99"/>
      <use x="516.316406" xlink:href="#DejaVuSans-117"/>
      <use x="579.695312" xlink:href="#DejaVuSans-114"/>
      <use x="620.808594" xlink:href="#DejaVuSans-97"/>
      <use x="682.087891" xlink:href="#DejaVuSans-99"/>
      <use x="737.068359" xlink:href="#DejaVuSans-121"/>
     </g>
    </g>
    <g id="line2d_20">
     <path d="M 189 114.176562 
L 209 114.176562 
" style="fill:none;stroke:#ff7f0e;stroke-linecap:square;stroke-width:1.5;"/>
    </g>
    <g id="line2d_21"/>
    <g id="text_18">
     <!-- Predicted accuracy -->
     <defs>
      <path d="M 19.671875 64.796875 
L 19.671875 37.40625 
L 32.078125 37.40625 
Q 38.96875 37.40625 42.71875 40.96875 
Q 46.484375 44.53125 46.484375 51.125 
Q 46.484375 57.671875 42.71875 61.234375 
Q 38.96875 64.796875 32.078125 64.796875 
z
M 9.8125 72.90625 
L 32.078125 72.90625 
Q 44.34375 72.90625 50.609375 67.359375 
Q 56.890625 61.8125 56.890625 51.125 
Q 56.890625 40.328125 50.609375 34.8125 
Q 44.34375 29.296875 32.078125 29.296875 
L 19.671875 29.296875 
L 19.671875 0 
L 9.8125 0 
z
" id="DejaVuSans-80"/>
     </defs>
     <g transform="translate(217 117.676562)scale(0.1 -0.1)">
      <use xlink:href="#DejaVuSans-80"/>
      <use x="58.552734" xlink:href="#DejaVuSans-114"/>
      <use x="97.416016" xlink:href="#DejaVuSans-101"/>
      <use x="158.939453" xlink:href="#DejaVuSans-100"/>
      <use x="222.416016" xlink:href="#DejaVuSans-105"/>
      <use x="250.199219" xlink:href="#DejaVuSans-99"/>
      <use x="305.179688" xlink:href="#DejaVuSans-116"/>
      <use x="344.388672" xlink:href="#DejaVuSans-101"/>
      <use x="405.912109" xlink:href="#DejaVuSans-100"/>
      <use x="469.388672" xlink:href="#DejaVuSans-32"/>
      <use x="501.175781" xlink:href="#DejaVuSans-97"/>
      <use x="562.455078" xlink:href="#DejaVuSans-99"/>
      <use x="617.435547" xlink:href="#DejaVuSans-99"/>
      <use x="672.416016" xlink:href="#DejaVuSans-117"/>
      <use x="735.794922" xlink:href="#DejaVuSans-114"/>
      <use x="776.908203" xlink:href="#DejaVuSans-97"/>
      <use x="838.1875" xlink:href="#DejaVuSans-99"/>
      <use x="893.167969" xlink:href="#DejaVuSans-121"/>
     </g>
    </g>
   </g>
  </g>
  <g id="axes_2">
   <g id="patch_8">
    <path d="M 180 630 
L 1296 630 
L 1296 382.909091 
L 180 382.909091 
z
" style="fill:#ffffff;"/>
   </g>
   <g id="matplotlib.axis_3">
    <g id="xtick_9">
     <g id="line2d_22">
      <g>
       <use style="stroke:#000000;stroke-width:0.8;" x="230.727273" xlink:href="#m96a956e8c4" y="630"/>
      </g>
     </g>
     <g id="text_19">
      <!-- 0 -->
      <g transform="translate(227.546023 644.598437)scale(0.1 -0.1)">
       <use xlink:href="#DejaVuSans-48"/>
      </g>
     </g>
    </g>
    <g id="xtick_10">
     <g id="line2d_23">
      <g>
       <use style="stroke:#000000;stroke-width:0.8;" x="370.087912" xlink:href="#m96a956e8c4" y="630"/>
      </g>
     </g>
     <g id="text_20">
      <!-- 25 -->
      <g transform="translate(363.725412 644.598437)scale(0.1 -0.1)">
       <use xlink:href="#DejaVuSans-50"/>
       <use x="63.623047" xlink:href="#DejaVuSans-53"/>
      </g>
     </g>
    </g>
    <g id="xtick_11">
     <g id="line2d_24">
      <g>
       <use style="stroke:#000000;stroke-width:0.8;" x="509.448551" xlink:href="#m96a956e8c4" y="630"/>
      </g>
     </g>
     <g id="text_21">
      <!-- 50 -->
      <g transform="translate(503.086051 644.598437)scale(0.1 -0.1)">
       <use xlink:href="#DejaVuSans-53"/>
       <use x="63.623047" xlink:href="#DejaVuSans-48"/>
      </g>
     </g>
    </g>
    <g id="xtick_12">
     <g id="line2d_25">
      <g>
       <use style="stroke:#000000;stroke-width:0.8;" x="648.809191" xlink:href="#m96a956e8c4" y="630"/>
      </g>
     </g>
     <g id="text_22">
      <!-- 75 -->
      <g transform="translate(642.446691 644.598437)scale(0.1 -0.1)">
       <use xlink:href="#DejaVuSans-55"/>
       <use x="63.623047" xlink:href="#DejaVuSans-53"/>
      </g>
     </g>
    </g>
    <g id="xtick_13">
     <g id="line2d_26">
      <g>
       <use style="stroke:#000000;stroke-width:0.8;" x="788.16983" xlink:href="#m96a956e8c4" y="630"/>
      </g>
     </g>
     <g id="text_23">
      <!-- 100 -->
      <g transform="translate(778.62608 644.598437)scale(0.1 -0.1)">
       <use xlink:href="#DejaVuSans-49"/>
       <use x="63.623047" xlink:href="#DejaVuSans-48"/>
       <use x="127.246094" xlink:href="#DejaVuSans-48"/>
      </g>
     </g>
    </g>
    <g id="xtick_14">
     <g id="line2d_27">
      <g>
       <use style="stroke:#000000;stroke-width:0.8;" x="927.53047" xlink:href="#m96a956e8c4" y="630"/>
      </g>
     </g>
     <g id="text_24">
      <!-- 125 -->
      <g transform="translate(917.98672 644.598437)scale(0.1 -0.1)">
       <use xlink:href="#DejaVuSans-49"/>
       <use x="63.623047" xlink:href="#DejaVuSans-50"/>
       <use x="127.246094" xlink:href="#DejaVuSans-53"/>
      </g>
     </g>
    </g>
    <g id="xtick_15">
     <g id="line2d_28">
      <g>
       <use style="stroke:#000000;stroke-width:0.8;" x="1066.891109" xlink:href="#m96a956e8c4" y="630"/>
      </g>
     </g>
     <g id="text_25">
      <!-- 150 -->
      <g transform="translate(1057.347359 644.598437)scale(0.1 -0.1)">
       <use xlink:href="#DejaVuSans-49"/>
       <use x="63.623047" xlink:href="#DejaVuSans-53"/>
       <use x="127.246094" xlink:href="#DejaVuSans-48"/>
      </g>
     </g>
    </g>
    <g id="xtick_16">
     <g id="line2d_29">
      <g>
       <use style="stroke:#000000;stroke-width:0.8;" x="1206.251748" xlink:href="#m96a956e8c4" y="630"/>
      </g>
     </g>
     <g id="text_26">
      <!-- 175 -->
      <g transform="translate(1196.707998 644.598437)scale(0.1 -0.1)">
       <use xlink:href="#DejaVuSans-49"/>
       <use x="63.623047" xlink:href="#DejaVuSans-55"/>
       <use x="127.246094" xlink:href="#DejaVuSans-53"/>
      </g>
     </g>
    </g>
   </g>
   <g id="matplotlib.axis_4">
    <g id="ytick_8">
     <g id="line2d_30">
      <g>
       <use style="stroke:#000000;stroke-width:0.8;" x="180" xlink:href="#m46fe07b0a5" y="606.236231"/>
      </g>
     </g>
     <g id="text_27">
      <!-- 0.475 -->
      <g transform="translate(144.371875 610.03545)scale(0.1 -0.1)">
       <use xlink:href="#DejaVuSans-48"/>
       <use x="63.623047" xlink:href="#DejaVuSans-46"/>
       <use x="95.410156" xlink:href="#DejaVuSans-52"/>
       <use x="159.033203" xlink:href="#DejaVuSans-55"/>
       <use x="222.65625" xlink:href="#DejaVuSans-53"/>
      </g>
     </g>
    </g>
    <g id="ytick_9">
     <g id="line2d_31">
      <g>
       <use style="stroke:#000000;stroke-width:0.8;" x="180" xlink:href="#m46fe07b0a5" y="572.000818"/>
      </g>
     </g>
     <g id="text_28">
      <!-- 0.500 -->
      <g transform="translate(144.371875 575.800037)scale(0.1 -0.1)">
       <use xlink:href="#DejaVuSans-48"/>
       <use x="63.623047" xlink:href="#DejaVuSans-46"/>
       <use x="95.410156" xlink:href="#DejaVuSans-53"/>
       <use x="159.033203" xlink:href="#DejaVuSans-48"/>
       <use x="222.65625" xlink:href="#DejaVuSans-48"/>
      </g>
     </g>
    </g>
    <g id="ytick_10">
     <g id="line2d_32">
      <g>
       <use style="stroke:#000000;stroke-width:0.8;" x="180" xlink:href="#m46fe07b0a5" y="537.765405"/>
      </g>
     </g>
     <g id="text_29">
      <!-- 0.525 -->
      <g transform="translate(144.371875 541.564624)scale(0.1 -0.1)">
       <use xlink:href="#DejaVuSans-48"/>
       <use x="63.623047" xlink:href="#DejaVuSans-46"/>
       <use x="95.410156" xlink:href="#DejaVuSans-53"/>
       <use x="159.033203" xlink:href="#DejaVuSans-50"/>
       <use x="222.65625" xlink:href="#DejaVuSans-53"/>
      </g>
     </g>
    </g>
    <g id="ytick_11">
     <g id="line2d_33">
      <g>
       <use style="stroke:#000000;stroke-width:0.8;" x="180" xlink:href="#m46fe07b0a5" y="503.529992"/>
      </g>
     </g>
     <g id="text_30">
      <!-- 0.550 -->
      <g transform="translate(144.371875 507.329211)scale(0.1 -0.1)">
       <use xlink:href="#DejaVuSans-48"/>
       <use x="63.623047" xlink:href="#DejaVuSans-46"/>
       <use x="95.410156" xlink:href="#DejaVuSans-53"/>
       <use x="159.033203" xlink:href="#DejaVuSans-53"/>
       <use x="222.65625" xlink:href="#DejaVuSans-48"/>
      </g>
     </g>
    </g>
    <g id="ytick_12">
     <g id="line2d_34">
      <g>
       <use style="stroke:#000000;stroke-width:0.8;" x="180" xlink:href="#m46fe07b0a5" y="469.294579"/>
      </g>
     </g>
     <g id="text_31">
      <!-- 0.575 -->
      <g transform="translate(144.371875 473.093798)scale(0.1 -0.1)">
       <use xlink:href="#DejaVuSans-48"/>
       <use x="63.623047" xlink:href="#DejaVuSans-46"/>
       <use x="95.410156" xlink:href="#DejaVuSans-53"/>
       <use x="159.033203" xlink:href="#DejaVuSans-55"/>
       <use x="222.65625" xlink:href="#DejaVuSans-53"/>
      </g>
     </g>
    </g>
    <g id="ytick_13">
     <g id="line2d_35">
      <g>
       <use style="stroke:#000000;stroke-width:0.8;" x="180" xlink:href="#m46fe07b0a5" y="435.059166"/>
      </g>
     </g>
     <g id="text_32">
      <!-- 0.600 -->
      <g transform="translate(144.371875 438.858385)scale(0.1 -0.1)">
       <use xlink:href="#DejaVuSans-48"/>
       <use x="63.623047" xlink:href="#DejaVuSans-46"/>
       <use x="95.410156" xlink:href="#DejaVuSans-54"/>
       <use x="159.033203" xlink:href="#DejaVuSans-48"/>
       <use x="222.65625" xlink:href="#DejaVuSans-48"/>
      </g>
     </g>
    </g>
    <g id="ytick_14">
     <g id="line2d_36">
      <g>
       <use style="stroke:#000000;stroke-width:0.8;" x="180" xlink:href="#m46fe07b0a5" y="400.823753"/>
      </g>
     </g>
     <g id="text_33">
      <!-- 0.625 -->
      <g transform="translate(144.371875 404.622972)scale(0.1 -0.1)">
       <use xlink:href="#DejaVuSans-48"/>
       <use x="63.623047" xlink:href="#DejaVuSans-46"/>
       <use x="95.410156" xlink:href="#DejaVuSans-54"/>
       <use x="159.033203" xlink:href="#DejaVuSans-50"/>
       <use x="222.65625" xlink:href="#DejaVuSans-53"/>
      </g>
     </g>
    </g>
   </g>
   <g id="line2d_37">
    <path clip-path="url(#p65f042130a)" d="M 230.727273 618.768595 
L 236.301698 572.000818 
L 241.876124 597.301902 
L 247.450549 569.902718 
L 253.024975 572.234814 
L 258.599401 572.000818 
L 264.173826 568.648183 
L 269.748252 569.519278 
L 275.322677 566.345582 
L 280.897103 572.000818 
L 286.471528 574.498088 
L 292.045954 550.270634 
L 297.62038 614.185023 
L 303.194805 558.678766 
L 308.769231 572.000818 
L 314.343656 580.389287 
L 319.918082 572.000818 
L 331.066933 572.000818 
L 336.641359 604.591179 
L 342.215784 572.000818 
L 353.364635 572.000818 
L 358.939061 570.858366 
L 364.513487 572.000818 
L 370.087912 566.402606 
L 375.662338 572.000818 
L 381.236763 572.000818 
L 386.811189 571.436474 
L 392.385614 584.278736 
L 397.96004 572.000818 
L 414.683317 572.000818 
L 420.257742 528.697758 
L 425.832168 572.000818 
L 431.406593 571.361753 
L 436.981019 572.000818 
L 448.12987 572.101102 
L 453.704296 573.257318 
L 459.278721 571.943794 
L 464.853147 580.57609 
L 470.427572 572.000818 
L 492.725275 571.969356 
L 503.874126 573.89835 
L 509.448551 572.000818 
L 526.171828 572.000818 
L 531.746254 560.094541 
L 537.320679 572.000818 
L 542.895105 572.000818 
L 548.46953 537.501127 
L 554.043956 572.000818 
L 570.767233 572.000818 
L 576.341658 572.223016 
L 581.916084 572.000818 
L 593.064935 572.000818 
L 598.639361 573.058717 
L 604.213786 572.000818 
L 620.937063 572.000818 
L 626.511489 567.393649 
L 632.085914 572.000818 
L 637.66034 572.451113 
L 643.234765 569.715914 
L 648.809191 571.947726 
L 654.383616 568.793694 
L 659.958042 572.000818 
L 665.532468 572.018515 
L 671.106893 565.220827 
L 676.681319 572.000818 
L 682.255744 572.000818 
L 687.83017 598.145468 
L 693.404595 572.000818 
L 698.979021 570.55948 
L 704.553447 580.538729 
L 710.127872 586.772073 
L 715.702298 572.000818 
L 726.851149 572.000818 
L 732.425574 572.651681 
L 738 571.204444 
L 743.574426 568.028782 
L 749.148851 567.792819 
L 754.723277 572.000818 
L 777.020979 572.000818 
L 782.595405 571.792384 
L 788.16983 572.000818 
L 793.744256 572.000818 
L 799.318681 567.515563 
L 804.893107 571.792384 
L 810.467532 572.000818 
L 821.616384 572.000818 
L 827.190809 573.860989 
L 832.765235 565.212962 
L 838.33966 572.000818 
L 843.914086 558.143917 
L 849.488511 572.089304 
L 860.637363 572.000818 
L 866.211788 571.013708 
L 871.786214 572.000818 
L 877.360639 565.212962 
L 882.935065 571.935928 
L 888.509491 574.635733 
L 894.083916 572.000818 
L 899.658342 572.000818 
L 905.232767 560.338369 
L 910.807193 568.923473 
L 916.381618 562.420738 
L 921.956044 572.000818 
L 927.53047 574.387972 
L 933.104895 572.000818 
L 938.679321 572.000818 
L 944.253746 571.54659 
L 949.828172 571.963457 
L 966.551449 572.012616 
L 972.125874 572.913206 
L 977.7003 575.382948 
L 988.849151 568.347331 
L 994.423576 572.000818 
L 999.998002 560.94204 
L 1005.572428 550.201811 
L 1011.146853 571.884803 
L 1016.721279 579.518191 
L 1022.295704 564.265179 
L 1027.87013 577.923478 
L 1033.444555 565.753709 
L 1039.018981 590.022458 
L 1044.593407 565.505949 
L 1050.167832 572.000818 
L 1055.742258 591.743018 
L 1061.316683 554.517959 
L 1066.891109 553.432532 
L 1072.465534 572.000818 
L 1083.614386 572.000818 
L 1089.188811 572.775562 
L 1094.763237 572.000818 
L 1100.337662 584.636612 
L 1105.912088 565.010427 
L 1111.486513 546.361521 
L 1117.060939 562.725523 
L 1122.635365 567.470337 
L 1128.20979 585.572597 
L 1133.784216 572.000818 
L 1139.358641 567.635511 
L 1144.933067 571.987053 
L 1150.507493 561.156372 
L 1156.081918 549.535217 
L 1161.656344 571.977222 
L 1167.230769 572.026381 
L 1172.805195 574.112683 
L 1178.37962 549.332682 
L 1183.954046 570.626336 
L 1189.528472 572.000818 
L 1195.102897 572.000818 
L 1200.677323 572.926971 
L 1206.251748 573.103943 
L 1211.826174 534.451311 
L 1217.400599 536.407834 
L 1222.975025 572.093237 
L 1228.549451 572.651681 
L 1234.123876 464.763705 
L 1239.698302 399.712763 
L 1245.272727 473.264256 
L 1245.272727 473.264256 
" style="fill:none;stroke:#1f77b4;stroke-linecap:square;stroke-width:1.5;"/>
   </g>
   <g id="line2d_38">
    <path clip-path="url(#p65f042130a)" d="M 230.727273 585.937963 
L 236.301698 585.308972 
L 241.876124 585.266813 
L 247.450549 581.925226 
L 253.024975 579.32029 
L 258.599401 574.982854 
L 264.173826 574.79863 
L 269.748252 574.162374 
L 275.322677 573.645288 
L 280.897103 573.358953 
L 297.62038 573.057558 
L 303.194805 572.854845 
L 314.343656 572.829909 
L 319.918082 572.5479 
L 358.939061 572.36441 
L 442.555445 571.977147 
L 470.427572 571.806472 
L 481.576424 571.575069 
L 503.874126 571.477611 
L 537.320679 571.363419 
L 665.532468 570.929345 
L 732.425574 570.625787 
L 821.616384 570.386222 
L 832.765235 570.294885 
L 977.7003 569.229044 
L 994.423576 569.137707 
L 999.998002 569.128974 
L 1011.146853 568.84223 
L 1033.444555 568.73718 
L 1044.593407 568.248663 
L 1055.742258 567.986652 
L 1061.316683 567.46173 
L 1083.614386 567.199066 
L 1089.188811 567.120544 
L 1094.763237 566.559055 
L 1100.337662 566.336468 
L 1117.060939 566.050132 
L 1122.635365 565.798895 
L 1128.20979 565.750574 
L 1133.784216 565.459177 
L 1139.358641 565.392164 
L 1144.933067 565.202716 
L 1161.656344 564.226335 
L 1167.230769 563.455726 
L 1183.954046 563.225058 
L 1189.528472 562.581048 
L 1195.102897 560.681259 
L 1200.677323 560.603064 
L 1206.251748 559.066908 
L 1222.975025 557.662574 
L 1228.549451 556.013614 
L 1234.123876 526.931947 
L 1239.698302 477.397859 
L 1245.272727 394.140496 
L 1245.272727 394.140496 
" style="fill:none;stroke:#ff7f0e;stroke-linecap:square;stroke-width:1.5;"/>
   </g>
   <g id="patch_9">
    <path d="M 180 630 
L 180 382.909091 
" style="fill:none;stroke:#000000;stroke-linecap:square;stroke-linejoin:miter;stroke-width:0.8;"/>
   </g>
   <g id="patch_10">
    <path d="M 1296 630 
L 1296 382.909091 
" style="fill:none;stroke:#000000;stroke-linecap:square;stroke-linejoin:miter;stroke-width:0.8;"/>
   </g>
   <g id="patch_11">
    <path d="M 180 630 
L 1296 630 
" style="fill:none;stroke:#000000;stroke-linecap:square;stroke-linejoin:miter;stroke-width:0.8;"/>
   </g>
   <g id="patch_12">
    <path d="M 180 382.909091 
L 1296 382.909091 
" style="fill:none;stroke:#000000;stroke-linecap:square;stroke-linejoin:miter;stroke-width:0.8;"/>
   </g>
   <g id="text_34">
    <!-- Test set results at minute 2 sorted by predicted accuracy -->
    <defs>
     <path d="M 18.109375 8.203125 
L 18.109375 -20.796875 
L 9.078125 -20.796875 
L 9.078125 54.6875 
L 18.109375 54.6875 
L 18.109375 46.390625 
Q 20.953125 51.265625 25.265625 53.625 
Q 29.59375 56 35.59375 56 
Q 45.5625 56 51.78125 48.09375 
Q 58.015625 40.1875 58.015625 27.296875 
Q 58.015625 14.40625 51.78125 6.484375 
Q 45.5625 -1.421875 35.59375 -1.421875 
Q 29.59375 -1.421875 25.265625 0.953125 
Q 20.953125 3.328125 18.109375 8.203125 
z
M 48.6875 27.296875 
Q 48.6875 37.203125 44.609375 42.84375 
Q 40.53125 48.484375 33.40625 48.484375 
Q 26.265625 48.484375 22.1875 42.84375 
Q 18.109375 37.203125 18.109375 27.296875 
Q 18.109375 17.390625 22.1875 11.75 
Q 26.265625 6.109375 33.40625 6.109375 
Q 40.53125 6.109375 44.609375 11.75 
Q 48.6875 17.390625 48.6875 27.296875 
z
" id="DejaVuSans-112"/>
    </defs>
    <g transform="translate(566.742188 376.909091)scale(0.12 -0.12)">
     <use xlink:href="#DejaVuSans-84"/>
     <use x="44.083984" xlink:href="#DejaVuSans-101"/>
     <use x="105.607422" xlink:href="#DejaVuSans-115"/>
     <use x="157.707031" xlink:href="#DejaVuSans-116"/>
     <use x="196.916016" xlink:href="#DejaVuSans-32"/>
     <use x="228.703125" xlink:href="#DejaVuSans-115"/>
     <use x="280.802734" xlink:href="#DejaVuSans-101"/>
     <use x="342.326172" xlink:href="#DejaVuSans-116"/>
     <use x="381.535156" xlink:href="#DejaVuSans-32"/>
     <use x="413.322266" xlink:href="#DejaVuSans-114"/>
     <use x="452.185547" xlink:href="#DejaVuSans-101"/>
     <use x="513.708984" xlink:href="#DejaVuSans-115"/>
     <use x="565.808594" xlink:href="#DejaVuSans-117"/>
     <use x="629.1875" xlink:href="#DejaVuSans-108"/>
     <use x="656.970703" xlink:href="#DejaVuSans-116"/>
     <use x="696.179688" xlink:href="#DejaVuSans-115"/>
     <use x="748.279297" xlink:href="#DejaVuSans-32"/>
     <use x="780.066406" xlink:href="#DejaVuSans-97"/>
     <use x="841.345703" xlink:href="#DejaVuSans-116"/>
     <use x="880.554688" xlink:href="#DejaVuSans-32"/>
     <use x="912.341797" xlink:href="#DejaVuSans-109"/>
     <use x="1009.753906" xlink:href="#DejaVuSans-105"/>
     <use x="1037.537109" xlink:href="#DejaVuSans-110"/>
     <use x="1100.916016" xlink:href="#DejaVuSans-117"/>
     <use x="1164.294922" xlink:href="#DejaVuSans-116"/>
     <use x="1203.503906" xlink:href="#DejaVuSans-101"/>
     <use x="1265.027344" xlink:href="#DejaVuSans-32"/>
     <use x="1296.814453" xlink:href="#DejaVuSans-50"/>
     <use x="1360.4375" xlink:href="#DejaVuSans-32"/>
     <use x="1392.224609" xlink:href="#DejaVuSans-115"/>
     <use x="1444.324219" xlink:href="#DejaVuSans-111"/>
     <use x="1505.505859" xlink:href="#DejaVuSans-114"/>
     <use x="1546.619141" xlink:href="#DejaVuSans-116"/>
     <use x="1585.828125" xlink:href="#DejaVuSans-101"/>
     <use x="1647.351562" xlink:href="#DejaVuSans-100"/>
     <use x="1710.828125" xlink:href="#DejaVuSans-32"/>
     <use x="1742.615234" xlink:href="#DejaVuSans-98"/>
     <use x="1806.091797" xlink:href="#DejaVuSans-121"/>
     <use x="1865.271484" xlink:href="#DejaVuSans-32"/>
     <use x="1897.058594" xlink:href="#DejaVuSans-112"/>
     <use x="1960.535156" xlink:href="#DejaVuSans-114"/>
     <use x="1999.398438" xlink:href="#DejaVuSans-101"/>
     <use x="2060.921875" xlink:href="#DejaVuSans-100"/>
     <use x="2124.398438" xlink:href="#DejaVuSans-105"/>
     <use x="2152.181641" xlink:href="#DejaVuSans-99"/>
     <use x="2207.162109" xlink:href="#DejaVuSans-116"/>
     <use x="2246.371094" xlink:href="#DejaVuSans-101"/>
     <use x="2307.894531" xlink:href="#DejaVuSans-100"/>
     <use x="2371.371094" xlink:href="#DejaVuSans-32"/>
     <use x="2403.158203" xlink:href="#DejaVuSans-97"/>
     <use x="2464.4375" xlink:href="#DejaVuSans-99"/>
     <use x="2519.417969" xlink:href="#DejaVuSans-99"/>
     <use x="2574.398438" xlink:href="#DejaVuSans-117"/>
     <use x="2637.777344" xlink:href="#DejaVuSans-114"/>
     <use x="2678.890625" xlink:href="#DejaVuSans-97"/>
     <use x="2740.169922" xlink:href="#DejaVuSans-99"/>
     <use x="2795.150391" xlink:href="#DejaVuSans-121"/>
    </g>
   </g>
   <g id="legend_2">
    <g id="patch_13">
     <path d="M 187 420.265341 
L 314.2375 420.265341 
Q 316.2375 420.265341 316.2375 418.265341 
L 316.2375 389.909091 
Q 316.2375 387.909091 314.2375 387.909091 
L 187 387.909091 
Q 185 387.909091 185 389.909091 
L 185 418.265341 
Q 185 420.265341 187 420.265341 
z
" style="fill:#ffffff;opacity:0.8;stroke:#cccccc;stroke-linejoin:miter;"/>
    </g>
    <g id="line2d_39">
     <path d="M 189 396.007528 
L 209 396.007528 
" style="fill:none;stroke:#1f77b4;stroke-linecap:square;stroke-width:1.5;"/>
    </g>
    <g id="line2d_40"/>
    <g id="text_35">
     <!-- Actual accuracy -->
     <g transform="translate(217 399.507528)scale(0.1 -0.1)">
      <use xlink:href="#DejaVuSans-65"/>
      <use x="66.658203" xlink:href="#DejaVuSans-99"/>
      <use x="121.638672" xlink:href="#DejaVuSans-116"/>
      <use x="160.847656" xlink:href="#DejaVuSans-117"/>
      <use x="224.226562" xlink:href="#DejaVuSans-97"/>
      <use x="285.505859" xlink:href="#DejaVuSans-108"/>
      <use x="313.289062" xlink:href="#DejaVuSans-32"/>
      <use x="345.076172" xlink:href="#DejaVuSans-97"/>
      <use x="406.355469" xlink:href="#DejaVuSans-99"/>
      <use x="461.335938" xlink:href="#DejaVuSans-99"/>
      <use x="516.316406" xlink:href="#DejaVuSans-117"/>
      <use x="579.695312" xlink:href="#DejaVuSans-114"/>
      <use x="620.808594" xlink:href="#DejaVuSans-97"/>
      <use x="682.087891" xlink:href="#DejaVuSans-99"/>
      <use x="737.068359" xlink:href="#DejaVuSans-121"/>
     </g>
    </g>
    <g id="line2d_41">
     <path d="M 189 410.685653 
L 209 410.685653 
" style="fill:none;stroke:#ff7f0e;stroke-linecap:square;stroke-width:1.5;"/>
    </g>
    <g id="line2d_42"/>
    <g id="text_36">
     <!-- Predicted accuracy -->
     <g transform="translate(217 414.185653)scale(0.1 -0.1)">
      <use xlink:href="#DejaVuSans-80"/>
      <use x="58.552734" xlink:href="#DejaVuSans-114"/>
      <use x="97.416016" xlink:href="#DejaVuSans-101"/>
      <use x="158.939453" xlink:href="#DejaVuSans-100"/>
      <use x="222.416016" xlink:href="#DejaVuSans-105"/>
      <use x="250.199219" xlink:href="#DejaVuSans-99"/>
      <use x="305.179688" xlink:href="#DejaVuSans-116"/>
      <use x="344.388672" xlink:href="#DejaVuSans-101"/>
      <use x="405.912109" xlink:href="#DejaVuSans-100"/>
      <use x="469.388672" xlink:href="#DejaVuSans-32"/>
      <use x="501.175781" xlink:href="#DejaVuSans-97"/>
      <use x="562.455078" xlink:href="#DejaVuSans-99"/>
      <use x="617.435547" xlink:href="#DejaVuSans-99"/>
      <use x="672.416016" xlink:href="#DejaVuSans-117"/>
      <use x="735.794922" xlink:href="#DejaVuSans-114"/>
      <use x="776.908203" xlink:href="#DejaVuSans-97"/>
      <use x="838.1875" xlink:href="#DejaVuSans-99"/>
      <use x="893.167969" xlink:href="#DejaVuSans-121"/>
     </g>
    </g>
   </g>
  </g>
 </g>
 <defs>
  <clipPath id="p2e19c30108">
   <rect height="247.090909" width="1116" x="180" y="86.4"/>
  </clipPath>
  <clipPath id="p65f042130a">
   <rect height="247.090909" width="1116" x="180" y="382.909091"/>
  </clipPath>
 </defs>
</svg>
