<?xml version="1.0" encoding="utf-8" standalone="no"?>
<!DOCTYPE svg PUBLIC "-//W3C//DTD SVG 1.1//EN"
  "http://www.w3.org/Graphics/SVG/1.1/DTD/svg11.dtd">
<!-- Created with matplotlib (https://matplotlib.org/) -->
<svg height="720pt" version="1.1" viewBox="0 0 1440 720" width="1440pt" xmlns="http://www.w3.org/2000/svg" xmlns:xlink="http://www.w3.org/1999/xlink">
 <defs>
  <style type="text/css">
*{stroke-linecap:butt;stroke-linejoin:round;}
  </style>
 </defs>
 <g id="figure_1">
  <g id="patch_1">
   <path d="M 0 720 
L 1440 720 
L 1440 0 
L 0 0 
z
" style="fill:#ffffff;"/>
  </g>
  <g id="axes_1">
   <g id="patch_2">
    <path d="M 180 333.490909 
L 1296 333.490909 
L 1296 86.4 
L 180 86.4 
z
" style="fill:#ffffff;"/>
   </g>
   <g id="matplotlib.axis_1">
    <g id="xtick_1">
     <g id="line2d_1">
      <defs>
       <path d="M 0 0 
L 0 3.5 
" id="mb6e3827ecd" style="stroke:#000000;stroke-width:0.8;"/>
      </defs>
      <g>
       <use style="stroke:#000000;stroke-width:0.8;" x="230.727273" xlink:href="#mb6e3827ecd" y="333.490909"/>
      </g>
     </g>
     <g id="text_1">
      <!-- 0 -->
      <defs>
       <path d="M 31.78125 66.40625 
Q 24.171875 66.40625 20.328125 58.90625 
Q 16.5 51.421875 16.5 36.375 
Q 16.5 21.390625 20.328125 13.890625 
Q 24.171875 6.390625 31.78125 6.390625 
Q 39.453125 6.390625 43.28125 13.890625 
Q 47.125 21.390625 47.125 36.375 
Q 47.125 51.421875 43.28125 58.90625 
Q 39.453125 66.40625 31.78125 66.40625 
z
M 31.78125 74.21875 
Q 44.046875 74.21875 50.515625 64.515625 
Q 56.984375 54.828125 56.984375 36.375 
Q 56.984375 17.96875 50.515625 8.265625 
Q 44.046875 -1.421875 31.78125 -1.421875 
Q 19.53125 -1.421875 13.0625 8.265625 
Q 6.59375 17.96875 6.59375 36.375 
Q 6.59375 54.828125 13.0625 64.515625 
Q 19.53125 74.21875 31.78125 74.21875 
z
" id="DejaVuSans-48"/>
      </defs>
      <g transform="translate(227.546023 348.089347)scale(0.1 -0.1)">
       <use xlink:href="#DejaVuSans-48"/>
      </g>
     </g>
    </g>
    <g id="xtick_2">
     <g id="line2d_2">
      <g>
       <use style="stroke:#000000;stroke-width:0.8;" x="370.087912" xlink:href="#mb6e3827ecd" y="333.490909"/>
      </g>
     </g>
     <g id="text_2">
      <!-- 25 -->
      <defs>
       <path d="M 19.1875 8.296875 
L 53.609375 8.296875 
L 53.609375 0 
L 7.328125 0 
L 7.328125 8.296875 
Q 12.9375 14.109375 22.625 23.890625 
Q 32.328125 33.6875 34.8125 36.53125 
Q 39.546875 41.84375 41.421875 45.53125 
Q 43.3125 49.21875 43.3125 52.78125 
Q 43.3125 58.59375 39.234375 62.25 
Q 35.15625 65.921875 28.609375 65.921875 
Q 23.96875 65.921875 18.8125 64.3125 
Q 13.671875 62.703125 7.8125 59.421875 
L 7.8125 69.390625 
Q 13.765625 71.78125 18.9375 73 
Q 24.125 74.21875 28.421875 74.21875 
Q 39.75 74.21875 46.484375 68.546875 
Q 53.21875 62.890625 53.21875 53.421875 
Q 53.21875 48.921875 51.53125 44.890625 
Q 49.859375 40.875 45.40625 35.40625 
Q 44.1875 33.984375 37.640625 27.21875 
Q 31.109375 20.453125 19.1875 8.296875 
z
" id="DejaVuSans-50"/>
       <path d="M 10.796875 72.90625 
L 49.515625 72.90625 
L 49.515625 64.59375 
L 19.828125 64.59375 
L 19.828125 46.734375 
Q 21.96875 47.46875 24.109375 47.828125 
Q 26.265625 48.1875 28.421875 48.1875 
Q 40.625 48.1875 47.75 41.5 
Q 54.890625 34.8125 54.890625 23.390625 
Q 54.890625 11.625 47.5625 5.09375 
Q 40.234375 -1.421875 26.90625 -1.421875 
Q 22.3125 -1.421875 17.546875 -0.640625 
Q 12.796875 0.140625 7.71875 1.703125 
L 7.71875 11.625 
Q 12.109375 9.234375 16.796875 8.0625 
Q 21.484375 6.890625 26.703125 6.890625 
Q 35.15625 6.890625 40.078125 11.328125 
Q 45.015625 15.765625 45.015625 23.390625 
Q 45.015625 31 40.078125 35.4375 
Q 35.15625 39.890625 26.703125 39.890625 
Q 22.75 39.890625 18.8125 39.015625 
Q 14.890625 38.140625 10.796875 36.28125 
z
" id="DejaVuSans-53"/>
      </defs>
      <g transform="translate(363.725412 348.089347)scale(0.1 -0.1)">
       <use xlink:href="#DejaVuSans-50"/>
       <use x="63.623047" xlink:href="#DejaVuSans-53"/>
      </g>
     </g>
    </g>
    <g id="xtick_3">
     <g id="line2d_3">
      <g>
       <use style="stroke:#000000;stroke-width:0.8;" x="509.448551" xlink:href="#mb6e3827ecd" y="333.490909"/>
      </g>
     </g>
     <g id="text_3">
      <!-- 50 -->
      <g transform="translate(503.086051 348.089347)scale(0.1 -0.1)">
       <use xlink:href="#DejaVuSans-53"/>
       <use x="63.623047" xlink:href="#DejaVuSans-48"/>
      </g>
     </g>
    </g>
    <g id="xtick_4">
     <g id="line2d_4">
      <g>
       <use style="stroke:#000000;stroke-width:0.8;" x="648.809191" xlink:href="#mb6e3827ecd" y="333.490909"/>
      </g>
     </g>
     <g id="text_4">
      <!-- 75 -->
      <defs>
       <path d="M 8.203125 72.90625 
L 55.078125 72.90625 
L 55.078125 68.703125 
L 28.609375 0 
L 18.3125 0 
L 43.21875 64.59375 
L 8.203125 64.59375 
z
" id="DejaVuSans-55"/>
      </defs>
      <g transform="translate(642.446691 348.089347)scale(0.1 -0.1)">
       <use xlink:href="#DejaVuSans-55"/>
       <use x="63.623047" xlink:href="#DejaVuSans-53"/>
      </g>
     </g>
    </g>
    <g id="xtick_5">
     <g id="line2d_5">
      <g>
       <use style="stroke:#000000;stroke-width:0.8;" x="788.16983" xlink:href="#mb6e3827ecd" y="333.490909"/>
      </g>
     </g>
     <g id="text_5">
      <!-- 100 -->
      <defs>
       <path d="M 12.40625 8.296875 
L 28.515625 8.296875 
L 28.515625 63.921875 
L 10.984375 60.40625 
L 10.984375 69.390625 
L 28.421875 72.90625 
L 38.28125 72.90625 
L 38.28125 8.296875 
L 54.390625 8.296875 
L 54.390625 0 
L 12.40625 0 
z
" id="DejaVuSans-49"/>
      </defs>
      <g transform="translate(778.62608 348.089347)scale(0.1 -0.1)">
       <use xlink:href="#DejaVuSans-49"/>
       <use x="63.623047" xlink:href="#DejaVuSans-48"/>
       <use x="127.246094" xlink:href="#DejaVuSans-48"/>
      </g>
     </g>
    </g>
    <g id="xtick_6">
     <g id="line2d_6">
      <g>
       <use style="stroke:#000000;stroke-width:0.8;" x="927.53047" xlink:href="#mb6e3827ecd" y="333.490909"/>
      </g>
     </g>
     <g id="text_6">
      <!-- 125 -->
      <g transform="translate(917.98672 348.089347)scale(0.1 -0.1)">
       <use xlink:href="#DejaVuSans-49"/>
       <use x="63.623047" xlink:href="#DejaVuSans-50"/>
       <use x="127.246094" xlink:href="#DejaVuSans-53"/>
      </g>
     </g>
    </g>
    <g id="xtick_7">
     <g id="line2d_7">
      <g>
       <use style="stroke:#000000;stroke-width:0.8;" x="1066.891109" xlink:href="#mb6e3827ecd" y="333.490909"/>
      </g>
     </g>
     <g id="text_7">
      <!-- 150 -->
      <g transform="translate(1057.347359 348.089347)scale(0.1 -0.1)">
       <use xlink:href="#DejaVuSans-49"/>
       <use x="63.623047" xlink:href="#DejaVuSans-53"/>
       <use x="127.246094" xlink:href="#DejaVuSans-48"/>
      </g>
     </g>
    </g>
    <g id="xtick_8">
     <g id="line2d_8">
      <g>
       <use style="stroke:#000000;stroke-width:0.8;" x="1206.251748" xlink:href="#mb6e3827ecd" y="333.490909"/>
      </g>
     </g>
     <g id="text_8">
      <!-- 175 -->
      <g transform="translate(1196.707998 348.089347)scale(0.1 -0.1)">
       <use xlink:href="#DejaVuSans-49"/>
       <use x="63.623047" xlink:href="#DejaVuSans-55"/>
       <use x="127.246094" xlink:href="#DejaVuSans-53"/>
      </g>
     </g>
    </g>
   </g>
   <g id="matplotlib.axis_2">
    <g id="ytick_1">
     <g id="line2d_9">
      <defs>
       <path d="M 0 0 
L -3.5 0 
" id="mb7e652765c" style="stroke:#000000;stroke-width:0.8;"/>
      </defs>
      <g>
       <use style="stroke:#000000;stroke-width:0.8;" x="180" xlink:href="#mb7e652765c" y="330.418812"/>
      </g>
     </g>
     <g id="text_9">
      <!-- 0.46 -->
      <defs>
       <path d="M 10.6875 12.40625 
L 21 12.40625 
L 21 0 
L 10.6875 0 
z
" id="DejaVuSans-46"/>
       <path d="M 37.796875 64.3125 
L 12.890625 25.390625 
L 37.796875 25.390625 
z
M 35.203125 72.90625 
L 47.609375 72.90625 
L 47.609375 25.390625 
L 58.015625 25.390625 
L 58.015625 17.1875 
L 47.609375 17.1875 
L 47.609375 0 
L 37.796875 0 
L 37.796875 17.1875 
L 4.890625 17.1875 
L 4.890625 26.703125 
z
" id="DejaVuSans-52"/>
       <path d="M 33.015625 40.375 
Q 26.375 40.375 22.484375 35.828125 
Q 18.609375 31.296875 18.609375 23.390625 
Q 18.609375 15.53125 22.484375 10.953125 
Q 26.375 6.390625 33.015625 6.390625 
Q 39.65625 6.390625 43.53125 10.953125 
Q 47.40625 15.53125 47.40625 23.390625 
Q 47.40625 31.296875 43.53125 35.828125 
Q 39.65625 40.375 33.015625 40.375 
z
M 52.59375 71.296875 
L 52.59375 62.3125 
Q 48.875 64.0625 45.09375 64.984375 
Q 41.3125 65.921875 37.59375 65.921875 
Q 27.828125 65.921875 22.671875 59.328125 
Q 17.53125 52.734375 16.796875 39.40625 
Q 19.671875 43.65625 24.015625 45.921875 
Q 28.375 48.1875 33.59375 48.1875 
Q 44.578125 48.1875 50.953125 41.515625 
Q 57.328125 34.859375 57.328125 23.390625 
Q 57.328125 12.15625 50.6875 5.359375 
Q 44.046875 -1.421875 33.015625 -1.421875 
Q 20.359375 -1.421875 13.671875 8.265625 
Q 6.984375 17.96875 6.984375 36.375 
Q 6.984375 53.65625 15.1875 63.9375 
Q 23.390625 74.21875 37.203125 74.21875 
Q 40.921875 74.21875 44.703125 73.484375 
Q 48.484375 72.75 52.59375 71.296875 
z
" id="DejaVuSans-54"/>
      </defs>
      <g transform="translate(150.734375 334.21803)scale(0.1 -0.1)">
       <use xlink:href="#DejaVuSans-48"/>
       <use x="63.623047" xlink:href="#DejaVuSans-46"/>
       <use x="95.410156" xlink:href="#DejaVuSans-52"/>
       <use x="159.033203" xlink:href="#DejaVuSans-54"/>
      </g>
     </g>
    </g>
    <g id="ytick_2">
     <g id="line2d_10">
      <g>
       <use style="stroke:#000000;stroke-width:0.8;" x="180" xlink:href="#mb7e652765c" y="300.511457"/>
      </g>
     </g>
     <g id="text_10">
      <!-- 0.48 -->
      <defs>
       <path d="M 31.78125 34.625 
Q 24.75 34.625 20.71875 30.859375 
Q 16.703125 27.09375 16.703125 20.515625 
Q 16.703125 13.921875 20.71875 10.15625 
Q 24.75 6.390625 31.78125 6.390625 
Q 38.8125 6.390625 42.859375 10.171875 
Q 46.921875 13.96875 46.921875 20.515625 
Q 46.921875 27.09375 42.890625 30.859375 
Q 38.875 34.625 31.78125 34.625 
z
M 21.921875 38.8125 
Q 15.578125 40.375 12.03125 44.71875 
Q 8.5 49.078125 8.5 55.328125 
Q 8.5 64.0625 14.71875 69.140625 
Q 20.953125 74.21875 31.78125 74.21875 
Q 42.671875 74.21875 48.875 69.140625 
Q 55.078125 64.0625 55.078125 55.328125 
Q 55.078125 49.078125 51.53125 44.71875 
Q 48 40.375 41.703125 38.8125 
Q 48.828125 37.15625 52.796875 32.3125 
Q 56.78125 27.484375 56.78125 20.515625 
Q 56.78125 9.90625 50.3125 4.234375 
Q 43.84375 -1.421875 31.78125 -1.421875 
Q 19.734375 -1.421875 13.25 4.234375 
Q 6.78125 9.90625 6.78125 20.515625 
Q 6.78125 27.484375 10.78125 32.3125 
Q 14.796875 37.15625 21.921875 38.8125 
z
M 18.3125 54.390625 
Q 18.3125 48.734375 21.84375 45.5625 
Q 25.390625 42.390625 31.78125 42.390625 
Q 38.140625 42.390625 41.71875 45.5625 
Q 45.3125 48.734375 45.3125 54.390625 
Q 45.3125 60.0625 41.71875 63.234375 
Q 38.140625 66.40625 31.78125 66.40625 
Q 25.390625 66.40625 21.84375 63.234375 
Q 18.3125 60.0625 18.3125 54.390625 
z
" id="DejaVuSans-56"/>
      </defs>
      <g transform="translate(150.734375 304.310676)scale(0.1 -0.1)">
       <use xlink:href="#DejaVuSans-48"/>
       <use x="63.623047" xlink:href="#DejaVuSans-46"/>
       <use x="95.410156" xlink:href="#DejaVuSans-52"/>
       <use x="159.033203" xlink:href="#DejaVuSans-56"/>
      </g>
     </g>
    </g>
    <g id="ytick_3">
     <g id="line2d_11">
      <g>
       <use style="stroke:#000000;stroke-width:0.8;" x="180" xlink:href="#mb7e652765c" y="270.604103"/>
      </g>
     </g>
     <g id="text_11">
      <!-- 0.50 -->
      <g transform="translate(150.734375 274.403321)scale(0.1 -0.1)">
       <use xlink:href="#DejaVuSans-48"/>
       <use x="63.623047" xlink:href="#DejaVuSans-46"/>
       <use x="95.410156" xlink:href="#DejaVuSans-53"/>
       <use x="159.033203" xlink:href="#DejaVuSans-48"/>
      </g>
     </g>
    </g>
    <g id="ytick_4">
     <g id="line2d_12">
      <g>
       <use style="stroke:#000000;stroke-width:0.8;" x="180" xlink:href="#mb7e652765c" y="240.696748"/>
      </g>
     </g>
     <g id="text_12">
      <!-- 0.52 -->
      <g transform="translate(150.734375 244.495967)scale(0.1 -0.1)">
       <use xlink:href="#DejaVuSans-48"/>
       <use x="63.623047" xlink:href="#DejaVuSans-46"/>
       <use x="95.410156" xlink:href="#DejaVuSans-53"/>
       <use x="159.033203" xlink:href="#DejaVuSans-50"/>
      </g>
     </g>
    </g>
    <g id="ytick_5">
     <g id="line2d_13">
      <g>
       <use style="stroke:#000000;stroke-width:0.8;" x="180" xlink:href="#mb7e652765c" y="210.789393"/>
      </g>
     </g>
     <g id="text_13">
      <!-- 0.54 -->
      <g transform="translate(150.734375 214.588612)scale(0.1 -0.1)">
       <use xlink:href="#DejaVuSans-48"/>
       <use x="63.623047" xlink:href="#DejaVuSans-46"/>
       <use x="95.410156" xlink:href="#DejaVuSans-53"/>
       <use x="159.033203" xlink:href="#DejaVuSans-52"/>
      </g>
     </g>
    </g>
    <g id="ytick_6">
     <g id="line2d_14">
      <g>
       <use style="stroke:#000000;stroke-width:0.8;" x="180" xlink:href="#mb7e652765c" y="180.882039"/>
      </g>
     </g>
     <g id="text_14">
      <!-- 0.56 -->
      <g transform="translate(150.734375 184.681258)scale(0.1 -0.1)">
       <use xlink:href="#DejaVuSans-48"/>
       <use x="63.623047" xlink:href="#DejaVuSans-46"/>
       <use x="95.410156" xlink:href="#DejaVuSans-53"/>
       <use x="159.033203" xlink:href="#DejaVuSans-54"/>
      </g>
     </g>
    </g>
    <g id="ytick_7">
     <g id="line2d_15">
      <g>
       <use style="stroke:#000000;stroke-width:0.8;" x="180" xlink:href="#mb7e652765c" y="150.974684"/>
      </g>
     </g>
     <g id="text_15">
      <!-- 0.58 -->
      <g transform="translate(150.734375 154.773903)scale(0.1 -0.1)">
       <use xlink:href="#DejaVuSans-48"/>
       <use x="63.623047" xlink:href="#DejaVuSans-46"/>
       <use x="95.410156" xlink:href="#DejaVuSans-53"/>
       <use x="159.033203" xlink:href="#DejaVuSans-56"/>
      </g>
     </g>
    </g>
    <g id="ytick_8">
     <g id="line2d_16">
      <g>
       <use style="stroke:#000000;stroke-width:0.8;" x="180" xlink:href="#mb7e652765c" y="121.06733"/>
      </g>
     </g>
     <g id="text_16">
      <!-- 0.60 -->
      <g transform="translate(150.734375 124.866549)scale(0.1 -0.1)">
       <use xlink:href="#DejaVuSans-48"/>
       <use x="63.623047" xlink:href="#DejaVuSans-46"/>
       <use x="95.410156" xlink:href="#DejaVuSans-54"/>
       <use x="159.033203" xlink:href="#DejaVuSans-48"/>
      </g>
     </g>
    </g>
    <g id="ytick_9">
     <g id="line2d_17">
      <g>
       <use style="stroke:#000000;stroke-width:0.8;" x="180" xlink:href="#mb7e652765c" y="91.159975"/>
      </g>
     </g>
     <g id="text_17">
      <!-- 0.62 -->
      <g transform="translate(150.734375 94.959194)scale(0.1 -0.1)">
       <use xlink:href="#DejaVuSans-48"/>
       <use x="63.623047" xlink:href="#DejaVuSans-46"/>
       <use x="95.410156" xlink:href="#DejaVuSans-54"/>
       <use x="159.033203" xlink:href="#DejaVuSans-50"/>
      </g>
     </g>
    </g>
   </g>
   <g id="line2d_18">
    <path clip-path="url(#pa99ca2b8e3)" d="M 230.727273 322.259504 
L 236.301698 321.57025 
L 247.450549 312.871907 
L 253.024975 312.221303 
L 258.599401 308.171667 
L 264.173826 292.290911 
L 269.748252 291.820672 
L 275.322677 289.280525 
L 280.897103 287.105402 
L 286.471528 286.912153 
L 297.62038 285.424138 
L 303.194805 281.599959 
L 308.769231 280.303045 
L 314.343656 279.255207 
L 319.918082 277.208917 
L 325.492507 277.088673 
L 336.641359 276.055866 
L 342.215784 275.772434 
L 347.79021 275.126124 
L 364.513487 274.700977 
L 370.087912 273.900068 
L 381.236763 273.468479 
L 386.811189 272.987504 
L 392.385614 272.94456 
L 397.96004 272.300397 
L 403.534466 271.866661 
L 420.257742 271.435072 
L 425.832168 271.08293 
L 442.555445 270.900417 
L 531.746254 270.616986 
L 687.83017 270.604103 
L 977.7003 270.51392 
L 1027.87013 270.047975 
L 1033.444555 269.949204 
L 1039.018981 269.704422 
L 1044.593407 269.68295 
L 1050.167832 269.240625 
L 1055.742258 269.032346 
L 1061.316683 268.678056 
L 1066.891109 267.602305 
L 1072.465534 265.912451 
L 1078.03996 265.753558 
L 1083.614386 264.896822 
L 1089.188811 264.806639 
L 1094.763237 263.524755 
L 1100.337662 262.917095 
L 1105.912088 262.663724 
L 1111.486513 260.565902 
L 1117.060939 260.391978 
L 1122.635365 258.766541 
L 1133.784216 258.633414 
L 1139.358641 257.325763 
L 1144.933067 257.104601 
L 1156.081918 254.547275 
L 1161.656344 253.86661 
L 1167.230769 253.374899 
L 1172.805195 246.714258 
L 1178.37962 246.598308 
L 1183.954046 246.132364 
L 1189.528472 245.859669 
L 1195.102897 240.023555 
L 1200.677323 238.40456 
L 1206.251748 233.884685 
L 1211.826174 232.731634 
L 1217.400599 232.317223 
L 1222.975025 231.767537 
L 1228.549451 230.266638 
L 1234.123876 227.088769 
L 1239.698302 217.606695 
L 1245.272727 97.631405 
L 1245.272727 97.631405 
" style="fill:none;stroke:#1f77b4;stroke-linecap:square;stroke-width:1.5;"/>
   </g>
   <g id="line2d_19">
    <path clip-path="url(#pa99ca2b8e3)" d="M 230.727273 268.778702 
L 236.301698 251.159848 
L 241.876124 295.338764 
L 247.450549 275.462136 
L 253.024975 266.067787 
L 258.599401 298.2418 
L 264.173826 266.692416 
L 269.748252 267.730345 
L 275.322677 266.248901 
L 280.897103 266.954283 
L 286.471528 265.823569 
L 292.045954 269.658246 
L 297.62038 269.88749 
L 303.194805 266.668618 
L 308.769231 268.295346 
L 314.343656 268.285185 
L 319.918082 269.349675 
L 325.492507 247.653262 
L 331.066933 280.581278 
L 336.641359 269.999082 
L 342.215784 268.508458 
L 347.79021 268.955627 
L 353.364635 268.470577 
L 358.939061 268.692156 
L 364.513487 270.252036 
L 370.087912 268.060932 
L 375.662338 265.646555 
L 381.236763 265.253933 
L 386.811189 268.175197 
L 392.385614 269.80959 
L 403.534466 269.085669 
L 409.108891 269.501197 
L 414.683317 263.756891 
L 420.257742 272.847081 
L 425.832168 264.496945 
L 431.406593 265.544589 
L 436.981019 267.13914 
L 442.555445 268.332781 
L 448.12987 268.229211 
L 453.704296 250.355621 
L 459.278721 268.2621 
L 464.853147 277.49472 
L 470.427572 268.236876 
L 476.001998 265.955215 
L 481.576424 266.621557 
L 487.150849 270.179394 
L 492.725275 268.043105 
L 498.2997 267.655921 
L 503.874126 268.725402 
L 509.448551 269.62393 
L 515.022977 269.591398 
L 520.597403 266.460676 
L 526.171828 269.203322 
L 531.746254 269.756379 
L 537.320679 270.159072 
L 542.895105 268.831379 
L 548.46953 269.287372 
L 554.043956 278.353986 
L 559.618382 269.231131 
L 565.192807 267.347796 
L 570.767233 272.201907 
L 576.341658 269.161698 
L 581.916084 267.33095 
L 587.490509 269.885619 
L 593.064935 270.487876 
L 598.639361 268.7041 
L 604.213786 270.938343 
L 615.362637 269.319905 
L 620.937063 265.953254 
L 626.511489 269.422762 
L 632.085914 269.79631 
L 637.66034 269.011423 
L 643.234765 269.426416 
L 648.809191 269.222218 
L 654.383616 261.071557 
L 659.958042 270.401954 
L 665.532468 270.012898 
L 671.106893 268.975058 
L 676.681319 269.249135 
L 682.255744 268.027329 
L 687.83017 269.71315 
L 693.404595 269.637389 
L 698.979021 270.951356 
L 704.553447 269.687926 
L 710.127872 269.650135 
L 715.702298 269.245748 
L 721.276723 269.704683 
L 726.851149 264.661837 
L 732.425574 269.346377 
L 738 264.981282 
L 743.574426 270.252927 
L 749.148851 266.082227 
L 754.723277 269.901751 
L 760.297702 269.504495 
L 765.872128 268.724333 
L 771.446553 270.161657 
L 777.020979 269.005184 
L 782.595405 269.838023 
L 788.16983 268.927818 
L 793.744256 268.861862 
L 799.318681 266.482157 
L 804.893107 269.811016 
L 810.467532 268.855355 
L 816.041958 269.132374 
L 821.616384 268.472716 
L 827.190809 269.345664 
L 832.765235 253.269665 
L 838.33966 270.243212 
L 843.914086 269.672239 
L 849.488511 269.380692 
L 855.062937 269.455384 
L 860.637363 260.186487 
L 866.211788 268.066458 
L 871.786214 269.354577 
L 877.360639 270.108178 
L 882.935065 268.439203 
L 888.509491 270.809683 
L 899.658342 268.187141 
L 905.232767 269.982326 
L 910.807193 272.031043 
L 916.381618 268.968284 
L 921.956044 269.632933 
L 927.53047 268.281709 
L 933.104895 266.141409 
L 938.679321 269.968956 
L 944.253746 270.06183 
L 949.828172 268.407829 
L 955.402597 266.559701 
L 960.977023 267.108212 
L 966.551449 267.78213 
L 972.125874 268.595895 
L 977.7003 270.367282 
L 983.274725 269.367679 
L 988.849151 266.270204 
L 994.423576 269.212146 
L 999.998002 268.782 
L 1005.572428 268.775405 
L 1011.146853 261.021198 
L 1016.721279 269.521519 
L 1022.295704 267.113738 
L 1027.87013 265.724723 
L 1033.444555 268.561312 
L 1039.018981 264.71184 
L 1044.593407 253.787872 
L 1050.167832 268.821931 
L 1055.742258 267.599145 
L 1061.316683 269.047967 
L 1066.891109 268.412909 
L 1072.465534 288.062833 
L 1078.03996 266.397393 
L 1083.614386 262.032388 
L 1089.188811 269.552002 
L 1094.763237 268.170384 
L 1100.337662 267.24788 
L 1105.912088 250.428084 
L 1111.486513 228.73693 
L 1117.060939 266.89002 
L 1122.635365 268.832359 
L 1128.20979 274.448896 
L 1133.784216 266.653466 
L 1139.358641 270.103811 
L 1144.933067 275.519491 
L 1150.507493 266.965068 
L 1156.081918 267.58114 
L 1161.656344 266.854902 
L 1167.230769 263.065949 
L 1172.805195 266.367802 
L 1178.37962 264.568161 
L 1183.954046 263.272198 
L 1189.528472 265.932665 
L 1195.102897 261.577998 
L 1200.677323 267.925185 
L 1206.251748 265.677038 
L 1211.826174 268.269141 
L 1217.400599 268.941366 
L 1222.975025 249.649437 
L 1228.549451 263.660541 
L 1234.123876 265.502787 
L 1239.698302 200.609013 
L 1245.272727 265.845406 
L 1245.272727 265.845406 
" style="fill:none;stroke:#ff7f0e;stroke-linecap:square;stroke-width:1.5;"/>
   </g>
   <g id="patch_3">
    <path d="M 180 333.490909 
L 180 86.4 
" style="fill:none;stroke:#000000;stroke-linecap:square;stroke-linejoin:miter;stroke-width:0.8;"/>
   </g>
   <g id="patch_4">
    <path d="M 1296 333.490909 
L 1296 86.4 
" style="fill:none;stroke:#000000;stroke-linecap:square;stroke-linejoin:miter;stroke-width:0.8;"/>
   </g>
   <g id="patch_5">
    <path d="M 180 333.490909 
L 1296 333.490909 
" style="fill:none;stroke:#000000;stroke-linecap:square;stroke-linejoin:miter;stroke-width:0.8;"/>
   </g>
   <g id="patch_6">
    <path d="M 180 86.4 
L 1296 86.4 
" style="fill:none;stroke:#000000;stroke-linecap:square;stroke-linejoin:miter;stroke-width:0.8;"/>
   </g>
   <g id="text_18">
    <!-- Test set results at minute 4 sorted by actual accuracy -->
    <defs>
     <path d="M -0.296875 72.90625 
L 61.375 72.90625 
L 61.375 64.59375 
L 35.5 64.59375 
L 35.5 0 
L 25.59375 0 
L 25.59375 64.59375 
L -0.296875 64.59375 
z
" id="DejaVuSans-84"/>
     <path d="M 56.203125 29.59375 
L 56.203125 25.203125 
L 14.890625 25.203125 
Q 15.484375 15.921875 20.484375 11.0625 
Q 25.484375 6.203125 34.421875 6.203125 
Q 39.59375 6.203125 44.453125 7.46875 
Q 49.3125 8.734375 54.109375 11.28125 
L 54.109375 2.78125 
Q 49.265625 0.734375 44.1875 -0.34375 
Q 39.109375 -1.421875 33.890625 -1.421875 
Q 20.796875 -1.421875 13.15625 6.1875 
Q 5.515625 13.8125 5.515625 26.8125 
Q 5.515625 40.234375 12.765625 48.109375 
Q 20.015625 56 32.328125 56 
Q 43.359375 56 49.78125 48.890625 
Q 56.203125 41.796875 56.203125 29.59375 
z
M 47.21875 32.234375 
Q 47.125 39.59375 43.09375 43.984375 
Q 39.0625 48.390625 32.421875 48.390625 
Q 24.90625 48.390625 20.390625 44.140625 
Q 15.875 39.890625 15.1875 32.171875 
z
" id="DejaVuSans-101"/>
     <path d="M 44.28125 53.078125 
L 44.28125 44.578125 
Q 40.484375 46.53125 36.375 47.5 
Q 32.28125 48.484375 27.875 48.484375 
Q 21.1875 48.484375 17.84375 46.4375 
Q 14.5 44.390625 14.5 40.28125 
Q 14.5 37.15625 16.890625 35.375 
Q 19.28125 33.59375 26.515625 31.984375 
L 29.59375 31.296875 
Q 39.15625 29.25 43.1875 25.515625 
Q 47.21875 21.78125 47.21875 15.09375 
Q 47.21875 7.46875 41.1875 3.015625 
Q 35.15625 -1.421875 24.609375 -1.421875 
Q 20.21875 -1.421875 15.453125 -0.5625 
Q 10.6875 0.296875 5.421875 2 
L 5.421875 11.28125 
Q 10.40625 8.6875 15.234375 7.390625 
Q 20.0625 6.109375 24.8125 6.109375 
Q 31.15625 6.109375 34.5625 8.28125 
Q 37.984375 10.453125 37.984375 14.40625 
Q 37.984375 18.0625 35.515625 20.015625 
Q 33.0625 21.96875 24.703125 23.78125 
L 21.578125 24.515625 
Q 13.234375 26.265625 9.515625 29.90625 
Q 5.8125 33.546875 5.8125 39.890625 
Q 5.8125 47.609375 11.28125 51.796875 
Q 16.75 56 26.8125 56 
Q 31.78125 56 36.171875 55.265625 
Q 40.578125 54.546875 44.28125 53.078125 
z
" id="DejaVuSans-115"/>
     <path d="M 18.3125 70.21875 
L 18.3125 54.6875 
L 36.8125 54.6875 
L 36.8125 47.703125 
L 18.3125 47.703125 
L 18.3125 18.015625 
Q 18.3125 11.328125 20.140625 9.421875 
Q 21.96875 7.515625 27.59375 7.515625 
L 36.8125 7.515625 
L 36.8125 0 
L 27.59375 0 
Q 17.1875 0 13.234375 3.875 
Q 9.28125 7.765625 9.28125 18.015625 
L 9.28125 47.703125 
L 2.6875 47.703125 
L 2.6875 54.6875 
L 9.28125 54.6875 
L 9.28125 70.21875 
z
" id="DejaVuSans-116"/>
     <path id="DejaVuSans-32"/>
     <path d="M 41.109375 46.296875 
Q 39.59375 47.171875 37.8125 47.578125 
Q 36.03125 48 33.890625 48 
Q 26.265625 48 22.1875 43.046875 
Q 18.109375 38.09375 18.109375 28.8125 
L 18.109375 0 
L 9.078125 0 
L 9.078125 54.6875 
L 18.109375 54.6875 
L 18.109375 46.1875 
Q 20.953125 51.171875 25.484375 53.578125 
Q 30.03125 56 36.53125 56 
Q 37.453125 56 38.578125 55.875 
Q 39.703125 55.765625 41.0625 55.515625 
z
" id="DejaVuSans-114"/>
     <path d="M 8.5 21.578125 
L 8.5 54.6875 
L 17.484375 54.6875 
L 17.484375 21.921875 
Q 17.484375 14.15625 20.5 10.265625 
Q 23.53125 6.390625 29.59375 6.390625 
Q 36.859375 6.390625 41.078125 11.03125 
Q 45.3125 15.671875 45.3125 23.6875 
L 45.3125 54.6875 
L 54.296875 54.6875 
L 54.296875 0 
L 45.3125 0 
L 45.3125 8.40625 
Q 42.046875 3.421875 37.71875 1 
Q 33.40625 -1.421875 27.6875 -1.421875 
Q 18.265625 -1.421875 13.375 4.4375 
Q 8.5 10.296875 8.5 21.578125 
z
M 31.109375 56 
z
" id="DejaVuSans-117"/>
     <path d="M 9.421875 75.984375 
L 18.40625 75.984375 
L 18.40625 0 
L 9.421875 0 
z
" id="DejaVuSans-108"/>
     <path d="M 34.28125 27.484375 
Q 23.390625 27.484375 19.1875 25 
Q 14.984375 22.515625 14.984375 16.5 
Q 14.984375 11.71875 18.140625 8.90625 
Q 21.296875 6.109375 26.703125 6.109375 
Q 34.1875 6.109375 38.703125 11.40625 
Q 43.21875 16.703125 43.21875 25.484375 
L 43.21875 27.484375 
z
M 52.203125 31.203125 
L 52.203125 0 
L 43.21875 0 
L 43.21875 8.296875 
Q 40.140625 3.328125 35.546875 0.953125 
Q 30.953125 -1.421875 24.3125 -1.421875 
Q 15.921875 -1.421875 10.953125 3.296875 
Q 6 8.015625 6 15.921875 
Q 6 25.140625 12.171875 29.828125 
Q 18.359375 34.515625 30.609375 34.515625 
L 43.21875 34.515625 
L 43.21875 35.40625 
Q 43.21875 41.609375 39.140625 45 
Q 35.0625 48.390625 27.6875 48.390625 
Q 23 48.390625 18.546875 47.265625 
Q 14.109375 46.140625 10.015625 43.890625 
L 10.015625 52.203125 
Q 14.9375 54.109375 19.578125 55.046875 
Q 24.21875 56 28.609375 56 
Q 40.484375 56 46.34375 49.84375 
Q 52.203125 43.703125 52.203125 31.203125 
z
" id="DejaVuSans-97"/>
     <path d="M 52 44.1875 
Q 55.375 50.25 60.0625 53.125 
Q 64.75 56 71.09375 56 
Q 79.640625 56 84.28125 50.015625 
Q 88.921875 44.046875 88.921875 33.015625 
L 88.921875 0 
L 79.890625 0 
L 79.890625 32.71875 
Q 79.890625 40.578125 77.09375 44.375 
Q 74.3125 48.1875 68.609375 48.1875 
Q 61.625 48.1875 57.5625 43.546875 
Q 53.515625 38.921875 53.515625 30.90625 
L 53.515625 0 
L 44.484375 0 
L 44.484375 32.71875 
Q 44.484375 40.625 41.703125 44.40625 
Q 38.921875 48.1875 33.109375 48.1875 
Q 26.21875 48.1875 22.15625 43.53125 
Q 18.109375 38.875 18.109375 30.90625 
L 18.109375 0 
L 9.078125 0 
L 9.078125 54.6875 
L 18.109375 54.6875 
L 18.109375 46.1875 
Q 21.1875 51.21875 25.484375 53.609375 
Q 29.78125 56 35.6875 56 
Q 41.65625 56 45.828125 52.96875 
Q 50 49.953125 52 44.1875 
z
" id="DejaVuSans-109"/>
     <path d="M 9.421875 54.6875 
L 18.40625 54.6875 
L 18.40625 0 
L 9.421875 0 
z
M 9.421875 75.984375 
L 18.40625 75.984375 
L 18.40625 64.59375 
L 9.421875 64.59375 
z
" id="DejaVuSans-105"/>
     <path d="M 54.890625 33.015625 
L 54.890625 0 
L 45.90625 0 
L 45.90625 32.71875 
Q 45.90625 40.484375 42.875 44.328125 
Q 39.84375 48.1875 33.796875 48.1875 
Q 26.515625 48.1875 22.3125 43.546875 
Q 18.109375 38.921875 18.109375 30.90625 
L 18.109375 0 
L 9.078125 0 
L 9.078125 54.6875 
L 18.109375 54.6875 
L 18.109375 46.1875 
Q 21.34375 51.125 25.703125 53.5625 
Q 30.078125 56 35.796875 56 
Q 45.21875 56 50.046875 50.171875 
Q 54.890625 44.34375 54.890625 33.015625 
z
" id="DejaVuSans-110"/>
     <path d="M 30.609375 48.390625 
Q 23.390625 48.390625 19.1875 42.75 
Q 14.984375 37.109375 14.984375 27.296875 
Q 14.984375 17.484375 19.15625 11.84375 
Q 23.34375 6.203125 30.609375 6.203125 
Q 37.796875 6.203125 41.984375 11.859375 
Q 46.1875 17.53125 46.1875 27.296875 
Q 46.1875 37.015625 41.984375 42.703125 
Q 37.796875 48.390625 30.609375 48.390625 
z
M 30.609375 56 
Q 42.328125 56 49.015625 48.375 
Q 55.71875 40.765625 55.71875 27.296875 
Q 55.71875 13.875 49.015625 6.21875 
Q 42.328125 -1.421875 30.609375 -1.421875 
Q 18.84375 -1.421875 12.171875 6.21875 
Q 5.515625 13.875 5.515625 27.296875 
Q 5.515625 40.765625 12.171875 48.375 
Q 18.84375 56 30.609375 56 
z
" id="DejaVuSans-111"/>
     <path d="M 45.40625 46.390625 
L 45.40625 75.984375 
L 54.390625 75.984375 
L 54.390625 0 
L 45.40625 0 
L 45.40625 8.203125 
Q 42.578125 3.328125 38.25 0.953125 
Q 33.9375 -1.421875 27.875 -1.421875 
Q 17.96875 -1.421875 11.734375 6.484375 
Q 5.515625 14.40625 5.515625 27.296875 
Q 5.515625 40.1875 11.734375 48.09375 
Q 17.96875 56 27.875 56 
Q 33.9375 56 38.25 53.625 
Q 42.578125 51.265625 45.40625 46.390625 
z
M 14.796875 27.296875 
Q 14.796875 17.390625 18.875 11.75 
Q 22.953125 6.109375 30.078125 6.109375 
Q 37.203125 6.109375 41.296875 11.75 
Q 45.40625 17.390625 45.40625 27.296875 
Q 45.40625 37.203125 41.296875 42.84375 
Q 37.203125 48.484375 30.078125 48.484375 
Q 22.953125 48.484375 18.875 42.84375 
Q 14.796875 37.203125 14.796875 27.296875 
z
" id="DejaVuSans-100"/>
     <path d="M 48.6875 27.296875 
Q 48.6875 37.203125 44.609375 42.84375 
Q 40.53125 48.484375 33.40625 48.484375 
Q 26.265625 48.484375 22.1875 42.84375 
Q 18.109375 37.203125 18.109375 27.296875 
Q 18.109375 17.390625 22.1875 11.75 
Q 26.265625 6.109375 33.40625 6.109375 
Q 40.53125 6.109375 44.609375 11.75 
Q 48.6875 17.390625 48.6875 27.296875 
z
M 18.109375 46.390625 
Q 20.953125 51.265625 25.265625 53.625 
Q 29.59375 56 35.59375 56 
Q 45.5625 56 51.78125 48.09375 
Q 58.015625 40.1875 58.015625 27.296875 
Q 58.015625 14.40625 51.78125 6.484375 
Q 45.5625 -1.421875 35.59375 -1.421875 
Q 29.59375 -1.421875 25.265625 0.953125 
Q 20.953125 3.328125 18.109375 8.203125 
L 18.109375 0 
L 9.078125 0 
L 9.078125 75.984375 
L 18.109375 75.984375 
z
" id="DejaVuSans-98"/>
     <path d="M 32.171875 -5.078125 
Q 28.375 -14.84375 24.75 -17.8125 
Q 21.140625 -20.796875 15.09375 -20.796875 
L 7.90625 -20.796875 
L 7.90625 -13.28125 
L 13.1875 -13.28125 
Q 16.890625 -13.28125 18.9375 -11.515625 
Q 21 -9.765625 23.484375 -3.21875 
L 25.09375 0.875 
L 2.984375 54.6875 
L 12.5 54.6875 
L 29.59375 11.921875 
L 46.6875 54.6875 
L 56.203125 54.6875 
z
" id="DejaVuSans-121"/>
     <path d="M 48.78125 52.59375 
L 48.78125 44.1875 
Q 44.96875 46.296875 41.140625 47.34375 
Q 37.3125 48.390625 33.40625 48.390625 
Q 24.65625 48.390625 19.8125 42.84375 
Q 14.984375 37.3125 14.984375 27.296875 
Q 14.984375 17.28125 19.8125 11.734375 
Q 24.65625 6.203125 33.40625 6.203125 
Q 37.3125 6.203125 41.140625 7.25 
Q 44.96875 8.296875 48.78125 10.40625 
L 48.78125 2.09375 
Q 45.015625 0.34375 40.984375 -0.53125 
Q 36.96875 -1.421875 32.421875 -1.421875 
Q 20.0625 -1.421875 12.78125 6.34375 
Q 5.515625 14.109375 5.515625 27.296875 
Q 5.515625 40.671875 12.859375 48.328125 
Q 20.21875 56 33.015625 56 
Q 37.15625 56 41.109375 55.140625 
Q 45.0625 54.296875 48.78125 52.59375 
z
" id="DejaVuSans-99"/>
    </defs>
    <g transform="translate(576.728438 80.4)scale(0.12 -0.12)">
     <use xlink:href="#DejaVuSans-84"/>
     <use x="44.083984" xlink:href="#DejaVuSans-101"/>
     <use x="105.607422" xlink:href="#DejaVuSans-115"/>
     <use x="157.707031" xlink:href="#DejaVuSans-116"/>
     <use x="196.916016" xlink:href="#DejaVuSans-32"/>
     <use x="228.703125" xlink:href="#DejaVuSans-115"/>
     <use x="280.802734" xlink:href="#DejaVuSans-101"/>
     <use x="342.326172" xlink:href="#DejaVuSans-116"/>
     <use x="381.535156" xlink:href="#DejaVuSans-32"/>
     <use x="413.322266" xlink:href="#DejaVuSans-114"/>
     <use x="452.185547" xlink:href="#DejaVuSans-101"/>
     <use x="513.708984" xlink:href="#DejaVuSans-115"/>
     <use x="565.808594" xlink:href="#DejaVuSans-117"/>
     <use x="629.1875" xlink:href="#DejaVuSans-108"/>
     <use x="656.970703" xlink:href="#DejaVuSans-116"/>
     <use x="696.179688" xlink:href="#DejaVuSans-115"/>
     <use x="748.279297" xlink:href="#DejaVuSans-32"/>
     <use x="780.066406" xlink:href="#DejaVuSans-97"/>
     <use x="841.345703" xlink:href="#DejaVuSans-116"/>
     <use x="880.554688" xlink:href="#DejaVuSans-32"/>
     <use x="912.341797" xlink:href="#DejaVuSans-109"/>
     <use x="1009.753906" xlink:href="#DejaVuSans-105"/>
     <use x="1037.537109" xlink:href="#DejaVuSans-110"/>
     <use x="1100.916016" xlink:href="#DejaVuSans-117"/>
     <use x="1164.294922" xlink:href="#DejaVuSans-116"/>
     <use x="1203.503906" xlink:href="#DejaVuSans-101"/>
     <use x="1265.027344" xlink:href="#DejaVuSans-32"/>
     <use x="1296.814453" xlink:href="#DejaVuSans-52"/>
     <use x="1360.4375" xlink:href="#DejaVuSans-32"/>
     <use x="1392.224609" xlink:href="#DejaVuSans-115"/>
     <use x="1444.324219" xlink:href="#DejaVuSans-111"/>
     <use x="1505.505859" xlink:href="#DejaVuSans-114"/>
     <use x="1546.619141" xlink:href="#DejaVuSans-116"/>
     <use x="1585.828125" xlink:href="#DejaVuSans-101"/>
     <use x="1647.351562" xlink:href="#DejaVuSans-100"/>
     <use x="1710.828125" xlink:href="#DejaVuSans-32"/>
     <use x="1742.615234" xlink:href="#DejaVuSans-98"/>
     <use x="1806.091797" xlink:href="#DejaVuSans-121"/>
     <use x="1865.271484" xlink:href="#DejaVuSans-32"/>
     <use x="1897.058594" xlink:href="#DejaVuSans-97"/>
     <use x="1958.337891" xlink:href="#DejaVuSans-99"/>
     <use x="2013.318359" xlink:href="#DejaVuSans-116"/>
     <use x="2052.527344" xlink:href="#DejaVuSans-117"/>
     <use x="2115.90625" xlink:href="#DejaVuSans-97"/>
     <use x="2177.185547" xlink:href="#DejaVuSans-108"/>
     <use x="2204.96875" xlink:href="#DejaVuSans-32"/>
     <use x="2236.755859" xlink:href="#DejaVuSans-97"/>
     <use x="2298.035156" xlink:href="#DejaVuSans-99"/>
     <use x="2353.015625" xlink:href="#DejaVuSans-99"/>
     <use x="2407.996094" xlink:href="#DejaVuSans-117"/>
     <use x="2471.375" xlink:href="#DejaVuSans-114"/>
     <use x="2512.488281" xlink:href="#DejaVuSans-97"/>
     <use x="2573.767578" xlink:href="#DejaVuSans-99"/>
     <use x="2628.748047" xlink:href="#DejaVuSans-121"/>
    </g>
   </g>
   <g id="legend_1">
    <g id="patch_7">
     <path d="M 187 123.75625 
L 314.2375 123.75625 
Q 316.2375 123.75625 316.2375 121.75625 
L 316.2375 93.4 
Q 316.2375 91.4 314.2375 91.4 
L 187 91.4 
Q 185 91.4 185 93.4 
L 185 121.75625 
Q 185 123.75625 187 123.75625 
z
" style="fill:#ffffff;opacity:0.8;stroke:#cccccc;stroke-linejoin:miter;"/>
    </g>
    <g id="line2d_20">
     <path d="M 189 99.498437 
L 209 99.498437 
" style="fill:none;stroke:#1f77b4;stroke-linecap:square;stroke-width:1.5;"/>
    </g>
    <g id="line2d_21"/>
    <g id="text_19">
     <!-- Actual accuracy -->
     <defs>
      <path d="M 34.1875 63.1875 
L 20.796875 26.90625 
L 47.609375 26.90625 
z
M 28.609375 72.90625 
L 39.796875 72.90625 
L 67.578125 0 
L 57.328125 0 
L 50.6875 18.703125 
L 17.828125 18.703125 
L 11.1875 0 
L 0.78125 0 
z
" id="DejaVuSans-65"/>
     </defs>
     <g transform="translate(217 102.998437)scale(0.1 -0.1)">
      <use xlink:href="#DejaVuSans-65"/>
      <use x="66.658203" xlink:href="#DejaVuSans-99"/>
      <use x="121.638672" xlink:href="#DejaVuSans-116"/>
      <use x="160.847656" xlink:href="#DejaVuSans-117"/>
      <use x="224.226562" xlink:href="#DejaVuSans-97"/>
      <use x="285.505859" xlink:href="#DejaVuSans-108"/>
      <use x="313.289062" xlink:href="#DejaVuSans-32"/>
      <use x="345.076172" xlink:href="#DejaVuSans-97"/>
      <use x="406.355469" xlink:href="#DejaVuSans-99"/>
      <use x="461.335938" xlink:href="#DejaVuSans-99"/>
      <use x="516.316406" xlink:href="#DejaVuSans-117"/>
      <use x="579.695312" xlink:href="#DejaVuSans-114"/>
      <use x="620.808594" xlink:href="#DejaVuSans-97"/>
      <use x="682.087891" xlink:href="#DejaVuSans-99"/>
      <use x="737.068359" xlink:href="#DejaVuSans-121"/>
     </g>
    </g>
    <g id="line2d_22">
     <path d="M 189 114.176562 
L 209 114.176562 
" style="fill:none;stroke:#ff7f0e;stroke-linecap:square;stroke-width:1.5;"/>
    </g>
    <g id="line2d_23"/>
    <g id="text_20">
     <!-- Predicted accuracy -->
     <defs>
      <path d="M 19.671875 64.796875 
L 19.671875 37.40625 
L 32.078125 37.40625 
Q 38.96875 37.40625 42.71875 40.96875 
Q 46.484375 44.53125 46.484375 51.125 
Q 46.484375 57.671875 42.71875 61.234375 
Q 38.96875 64.796875 32.078125 64.796875 
z
M 9.8125 72.90625 
L 32.078125 72.90625 
Q 44.34375 72.90625 50.609375 67.359375 
Q 56.890625 61.8125 56.890625 51.125 
Q 56.890625 40.328125 50.609375 34.8125 
Q 44.34375 29.296875 32.078125 29.296875 
L 19.671875 29.296875 
L 19.671875 0 
L 9.8125 0 
z
" id="DejaVuSans-80"/>
     </defs>
     <g transform="translate(217 117.676562)scale(0.1 -0.1)">
      <use xlink:href="#DejaVuSans-80"/>
      <use x="58.552734" xlink:href="#DejaVuSans-114"/>
      <use x="97.416016" xlink:href="#DejaVuSans-101"/>
      <use x="158.939453" xlink:href="#DejaVuSans-100"/>
      <use x="222.416016" xlink:href="#DejaVuSans-105"/>
      <use x="250.199219" xlink:href="#DejaVuSans-99"/>
      <use x="305.179688" xlink:href="#DejaVuSans-116"/>
      <use x="344.388672" xlink:href="#DejaVuSans-101"/>
      <use x="405.912109" xlink:href="#DejaVuSans-100"/>
      <use x="469.388672" xlink:href="#DejaVuSans-32"/>
      <use x="501.175781" xlink:href="#DejaVuSans-97"/>
      <use x="562.455078" xlink:href="#DejaVuSans-99"/>
      <use x="617.435547" xlink:href="#DejaVuSans-99"/>
      <use x="672.416016" xlink:href="#DejaVuSans-117"/>
      <use x="735.794922" xlink:href="#DejaVuSans-114"/>
      <use x="776.908203" xlink:href="#DejaVuSans-97"/>
      <use x="838.1875" xlink:href="#DejaVuSans-99"/>
      <use x="893.167969" xlink:href="#DejaVuSans-121"/>
     </g>
    </g>
   </g>
  </g>
  <g id="axes_2">
   <g id="patch_8">
    <path d="M 180 630 
L 1296 630 
L 1296 382.909091 
L 180 382.909091 
z
" style="fill:#ffffff;"/>
   </g>
   <g id="matplotlib.axis_3">
    <g id="xtick_9">
     <g id="line2d_24">
      <g>
       <use style="stroke:#000000;stroke-width:0.8;" x="230.727273" xlink:href="#mb6e3827ecd" y="630"/>
      </g>
     </g>
     <g id="text_21">
      <!-- 0 -->
      <g transform="translate(227.546023 644.598437)scale(0.1 -0.1)">
       <use xlink:href="#DejaVuSans-48"/>
      </g>
     </g>
    </g>
    <g id="xtick_10">
     <g id="line2d_25">
      <g>
       <use style="stroke:#000000;stroke-width:0.8;" x="370.087912" xlink:href="#mb6e3827ecd" y="630"/>
      </g>
     </g>
     <g id="text_22">
      <!-- 25 -->
      <g transform="translate(363.725412 644.598437)scale(0.1 -0.1)">
       <use xlink:href="#DejaVuSans-50"/>
       <use x="63.623047" xlink:href="#DejaVuSans-53"/>
      </g>
     </g>
    </g>
    <g id="xtick_11">
     <g id="line2d_26">
      <g>
       <use style="stroke:#000000;stroke-width:0.8;" x="509.448551" xlink:href="#mb6e3827ecd" y="630"/>
      </g>
     </g>
     <g id="text_23">
      <!-- 50 -->
      <g transform="translate(503.086051 644.598437)scale(0.1 -0.1)">
       <use xlink:href="#DejaVuSans-53"/>
       <use x="63.623047" xlink:href="#DejaVuSans-48"/>
      </g>
     </g>
    </g>
    <g id="xtick_12">
     <g id="line2d_27">
      <g>
       <use style="stroke:#000000;stroke-width:0.8;" x="648.809191" xlink:href="#mb6e3827ecd" y="630"/>
      </g>
     </g>
     <g id="text_24">
      <!-- 75 -->
      <g transform="translate(642.446691 644.598437)scale(0.1 -0.1)">
       <use xlink:href="#DejaVuSans-55"/>
       <use x="63.623047" xlink:href="#DejaVuSans-53"/>
      </g>
     </g>
    </g>
    <g id="xtick_13">
     <g id="line2d_28">
      <g>
       <use style="stroke:#000000;stroke-width:0.8;" x="788.16983" xlink:href="#mb6e3827ecd" y="630"/>
      </g>
     </g>
     <g id="text_25">
      <!-- 100 -->
      <g transform="translate(778.62608 644.598437)scale(0.1 -0.1)">
       <use xlink:href="#DejaVuSans-49"/>
       <use x="63.623047" xlink:href="#DejaVuSans-48"/>
       <use x="127.246094" xlink:href="#DejaVuSans-48"/>
      </g>
     </g>
    </g>
    <g id="xtick_14">
     <g id="line2d_29">
      <g>
       <use style="stroke:#000000;stroke-width:0.8;" x="927.53047" xlink:href="#mb6e3827ecd" y="630"/>
      </g>
     </g>
     <g id="text_26">
      <!-- 125 -->
      <g transform="translate(917.98672 644.598437)scale(0.1 -0.1)">
       <use xlink:href="#DejaVuSans-49"/>
       <use x="63.623047" xlink:href="#DejaVuSans-50"/>
       <use x="127.246094" xlink:href="#DejaVuSans-53"/>
      </g>
     </g>
    </g>
    <g id="xtick_15">
     <g id="line2d_30">
      <g>
       <use style="stroke:#000000;stroke-width:0.8;" x="1066.891109" xlink:href="#mb6e3827ecd" y="630"/>
      </g>
     </g>
     <g id="text_27">
      <!-- 150 -->
      <g transform="translate(1057.347359 644.598437)scale(0.1 -0.1)">
       <use xlink:href="#DejaVuSans-49"/>
       <use x="63.623047" xlink:href="#DejaVuSans-53"/>
       <use x="127.246094" xlink:href="#DejaVuSans-48"/>
      </g>
     </g>
    </g>
    <g id="xtick_16">
     <g id="line2d_31">
      <g>
       <use style="stroke:#000000;stroke-width:0.8;" x="1206.251748" xlink:href="#mb6e3827ecd" y="630"/>
      </g>
     </g>
     <g id="text_28">
      <!-- 175 -->
      <g transform="translate(1196.707998 644.598437)scale(0.1 -0.1)">
       <use xlink:href="#DejaVuSans-49"/>
       <use x="63.623047" xlink:href="#DejaVuSans-55"/>
       <use x="127.246094" xlink:href="#DejaVuSans-53"/>
      </g>
     </g>
    </g>
   </g>
   <g id="matplotlib.axis_4">
    <g id="ytick_10">
     <g id="line2d_32">
      <g>
       <use style="stroke:#000000;stroke-width:0.8;" x="180" xlink:href="#mb7e652765c" y="626.927903"/>
      </g>
     </g>
     <g id="text_29">
      <!-- 0.46 -->
      <g transform="translate(150.734375 630.727121)scale(0.1 -0.1)">
       <use xlink:href="#DejaVuSans-48"/>
       <use x="63.623047" xlink:href="#DejaVuSans-46"/>
       <use x="95.410156" xlink:href="#DejaVuSans-52"/>
       <use x="159.033203" xlink:href="#DejaVuSans-54"/>
      </g>
     </g>
    </g>
    <g id="ytick_11">
     <g id="line2d_33">
      <g>
       <use style="stroke:#000000;stroke-width:0.8;" x="180" xlink:href="#mb7e652765c" y="597.020548"/>
      </g>
     </g>
     <g id="text_30">
      <!-- 0.48 -->
      <g transform="translate(150.734375 600.819767)scale(0.1 -0.1)">
       <use xlink:href="#DejaVuSans-48"/>
       <use x="63.623047" xlink:href="#DejaVuSans-46"/>
       <use x="95.410156" xlink:href="#DejaVuSans-52"/>
       <use x="159.033203" xlink:href="#DejaVuSans-56"/>
      </g>
     </g>
    </g>
    <g id="ytick_12">
     <g id="line2d_34">
      <g>
       <use style="stroke:#000000;stroke-width:0.8;" x="180" xlink:href="#mb7e652765c" y="567.113193"/>
      </g>
     </g>
     <g id="text_31">
      <!-- 0.50 -->
      <g transform="translate(150.734375 570.912412)scale(0.1 -0.1)">
       <use xlink:href="#DejaVuSans-48"/>
       <use x="63.623047" xlink:href="#DejaVuSans-46"/>
       <use x="95.410156" xlink:href="#DejaVuSans-53"/>
       <use x="159.033203" xlink:href="#DejaVuSans-48"/>
      </g>
     </g>
    </g>
    <g id="ytick_13">
     <g id="line2d_35">
      <g>
       <use style="stroke:#000000;stroke-width:0.8;" x="180" xlink:href="#mb7e652765c" y="537.205839"/>
      </g>
     </g>
     <g id="text_32">
      <!-- 0.52 -->
      <g transform="translate(150.734375 541.005058)scale(0.1 -0.1)">
       <use xlink:href="#DejaVuSans-48"/>
       <use x="63.623047" xlink:href="#DejaVuSans-46"/>
       <use x="95.410156" xlink:href="#DejaVuSans-53"/>
       <use x="159.033203" xlink:href="#DejaVuSans-50"/>
      </g>
     </g>
    </g>
    <g id="ytick_14">
     <g id="line2d_36">
      <g>
       <use style="stroke:#000000;stroke-width:0.8;" x="180" xlink:href="#mb7e652765c" y="507.298484"/>
      </g>
     </g>
     <g id="text_33">
      <!-- 0.54 -->
      <g transform="translate(150.734375 511.097703)scale(0.1 -0.1)">
       <use xlink:href="#DejaVuSans-48"/>
       <use x="63.623047" xlink:href="#DejaVuSans-46"/>
       <use x="95.410156" xlink:href="#DejaVuSans-53"/>
       <use x="159.033203" xlink:href="#DejaVuSans-52"/>
      </g>
     </g>
    </g>
    <g id="ytick_15">
     <g id="line2d_37">
      <g>
       <use style="stroke:#000000;stroke-width:0.8;" x="180" xlink:href="#mb7e652765c" y="477.39113"/>
      </g>
     </g>
     <g id="text_34">
      <!-- 0.56 -->
      <g transform="translate(150.734375 481.190349)scale(0.1 -0.1)">
       <use xlink:href="#DejaVuSans-48"/>
       <use x="63.623047" xlink:href="#DejaVuSans-46"/>
       <use x="95.410156" xlink:href="#DejaVuSans-53"/>
       <use x="159.033203" xlink:href="#DejaVuSans-54"/>
      </g>
     </g>
    </g>
    <g id="ytick_16">
     <g id="line2d_38">
      <g>
       <use style="stroke:#000000;stroke-width:0.8;" x="180" xlink:href="#mb7e652765c" y="447.483775"/>
      </g>
     </g>
     <g id="text_35">
      <!-- 0.58 -->
      <g transform="translate(150.734375 451.282994)scale(0.1 -0.1)">
       <use xlink:href="#DejaVuSans-48"/>
       <use x="63.623047" xlink:href="#DejaVuSans-46"/>
       <use x="95.410156" xlink:href="#DejaVuSans-53"/>
       <use x="159.033203" xlink:href="#DejaVuSans-56"/>
      </g>
     </g>
    </g>
    <g id="ytick_17">
     <g id="line2d_39">
      <g>
       <use style="stroke:#000000;stroke-width:0.8;" x="180" xlink:href="#mb7e652765c" y="417.576421"/>
      </g>
     </g>
     <g id="text_36">
      <!-- 0.60 -->
      <g transform="translate(150.734375 421.37564)scale(0.1 -0.1)">
       <use xlink:href="#DejaVuSans-48"/>
       <use x="63.623047" xlink:href="#DejaVuSans-46"/>
       <use x="95.410156" xlink:href="#DejaVuSans-54"/>
       <use x="159.033203" xlink:href="#DejaVuSans-48"/>
      </g>
     </g>
    </g>
    <g id="ytick_18">
     <g id="line2d_40">
      <g>
       <use style="stroke:#000000;stroke-width:0.8;" x="180" xlink:href="#mb7e652765c" y="387.669066"/>
      </g>
     </g>
     <g id="text_37">
      <!-- 0.62 -->
      <g transform="translate(150.734375 391.468285)scale(0.1 -0.1)">
       <use xlink:href="#DejaVuSans-48"/>
       <use x="63.623047" xlink:href="#DejaVuSans-46"/>
       <use x="95.410156" xlink:href="#DejaVuSans-54"/>
       <use x="159.033203" xlink:href="#DejaVuSans-50"/>
      </g>
     </g>
    </g>
   </g>
   <g id="line2d_41">
    <path clip-path="url(#p53415e4801)" d="M 230.727273 604.680758 
L 236.301698 613.791365 
L 241.876124 562.421542 
L 247.450549 573.063109 
L 253.024975 567.113193 
L 258.599401 567.26994 
L 264.173826 553.613692 
L 269.748252 609.380998 
L 275.322677 555.258454 
L 280.897103 567.944163 
L 286.471528 567.113193 
L 331.066933 567.113193 
L 336.641359 571.210068 
L 342.215784 567.113193 
L 347.79021 567.233437 
L 353.364635 567.113193 
L 370.087912 567.113193 
L 375.662338 553.834854 
L 381.236763 567.108899 
L 386.811189 567.113193 
L 392.385614 572.564957 
L 397.96004 567.113193 
L 409.108891 567.113193 
L 414.683317 581.933228 
L 420.257742 567.113193 
L 431.406593 567.113193 
L 436.981019 569.453651 
L 442.555445 567.113193 
L 470.427572 567.113193 
L 476.001998 582.641807 
L 481.576424 567.113193 
L 503.874126 567.143254 
L 509.448551 561.31573 
L 515.022977 566.690193 
L 520.597403 567.113193 
L 526.171828 568.2233 
L 531.746254 568.809488 
L 537.320679 567.113193 
L 559.618382 567.113193 
L 565.192807 566.982214 
L 570.767233 567.113193 
L 576.341658 573.718008 
L 581.916084 567.113193 
L 620.937063 567.113193 
L 626.511489 566.93927 
L 632.085914 567.128224 
L 643.234765 567.113193 
L 648.809191 568.375752 
L 654.383616 565.187147 
L 659.958042 567.113193 
L 676.681319 567.113193 
L 682.255744 571.635215 
L 687.83017 528.826314 
L 693.404595 567.113193 
L 704.553447 567.113193 
L 710.127872 555.275631 
L 715.702298 567.115341 
L 721.276723 565.749716 
L 726.851149 566.881295 
L 732.425574 618.768595 
L 738 566.76964 
L 743.574426 567.179757 
L 754.723277 567.113193 
L 760.297702 571.225098 
L 765.872128 567.048777 
L 771.446553 566.458295 
L 777.020979 572.281525 
L 782.595405 567.113193 
L 788.16983 571.465586 
L 793.744256 567.113193 
L 799.318681 564.111396 
L 804.893107 567.102457 
L 810.467532 567.409508 
L 816.041958 576.812136 
L 821.616384 575.764298 
L 827.190809 567.113193 
L 832.765235 529.240725 
L 838.33966 567.306442 
L 843.914086 567.26994 
L 849.488511 567.385889 
L 855.062937 567.113193 
L 860.637363 569.496595 
L 866.211788 560.033846 
L 871.786214 567.113193 
L 877.360639 570.409159 
L 882.935065 567.199082 
L 888.509491 567.113193 
L 894.083916 534.913651 
L 899.658342 567.076691 
L 905.232767 588.329763 
L 910.807193 567.199082 
L 916.381618 565.541437 
L 921.956044 551.056366 
L 927.53047 567.113193 
L 933.104895 567.113193 
L 938.679321 559.426186 
L 944.253746 567.463188 
L 949.828172 566.615041 
L 955.402597 567.093869 
L 960.977023 552.306042 
L 966.551449 583.614493 
L 972.125874 556.901069 
L 977.7003 550.375701 
L 983.274725 588.800002 
L 988.849151 578.10905 
L 994.423576 555.142505 
L 999.998002 567.242026 
L 1005.572428 567.10031 
L 1016.721279 567.132518 
L 1022.295704 562.262649 
L 1027.87013 543.223349 
L 1033.444555 566.9543 
L 1039.018981 585.789615 
L 1044.593407 567.111046 
L 1050.167832 567.113193 
L 1055.742258 608.730394 
L 1061.316683 567.242026 
L 1066.891109 567.113193 
L 1072.465534 542.368759 
L 1078.03996 394.140496 
L 1083.614386 583.421244 
L 1089.188811 566.557066 
L 1094.763237 530.393776 
L 1100.337662 570.194438 
L 1105.912088 567.497544 
L 1111.486513 523.59786 
L 1117.060939 569.97757 
L 1122.635365 567.113193 
L 1128.20979 566.213513 
L 1133.784216 567.113193 
L 1139.358641 543.107399 
L 1144.933067 567.592021 
L 1150.507493 568.068701 
L 1156.081918 526.775729 
L 1161.656344 542.641455 
L 1167.230769 549.88399 
L 1172.805195 561.405913 
L 1178.37962 536.532646 
L 1183.954046 567.113193 
L 1189.528472 566.743874 
L 1195.102897 567.113193 
L 1200.677323 566.192041 
L 1206.251748 567.113193 
L 1211.826174 618.079341 
L 1217.400599 559.172815 
L 1222.975025 567.32362 
L 1228.549451 528.276628 
L 1234.123876 573.597764 
L 1239.698302 557.074992 
L 1245.272727 514.115786 
L 1245.272727 514.115786 
" style="fill:none;stroke:#1f77b4;stroke-linecap:square;stroke-width:1.5;"/>
   </g>
   <g id="line2d_42">
    <path clip-path="url(#p53415e4801)" d="M 230.727273 594.750891 
L 236.301698 591.847854 
L 241.876124 584.571924 
L 247.450549 577.090368 
L 253.024975 574.863077 
L 258.599401 574.003811 
L 264.173826 572.028582 
L 269.748252 571.971227 
L 275.322677 570.957987 
L 280.897103 569.356172 
L 286.471528 568.710998 
L 292.045954 568.540134 
L 297.62038 567.460447 
L 303.194805 567.447434 
L 308.769231 567.318774 
L 314.343656 566.996967 
L 336.641359 566.761127 
L 375.662338 566.612902 
L 414.683317 566.396581 
L 442.555445 566.3054 
L 476.001998 566.167337 
L 542.895105 565.964475 
L 581.916084 565.855468 
L 615.362637 565.740222 
L 648.809191 565.59476 
L 682.255744 565.464718 
L 760.297702 565.201247 
L 777.020979 565.017549 
L 827.190809 564.7908 
L 866.211788 564.679475 
L 877.360639 564.570023 
L 894.083916 564.434276 
L 905.232767 564.239436 
L 988.849151 563.177709 
L 1005.572428 563.068791 
L 1022.295704 562.906484 
L 1039.018981 562.757992 
L 1050.167832 562.591317 
L 1072.465534 562.441756 
L 1094.763237 562.186129 
L 1111.486513 562.011878 
L 1128.20979 561.22093 
L 1144.933067 561.006036 
L 1150.507493 560.265982 
L 1156.081918 560.169632 
L 1161.656344 559.781289 
L 1167.230769 559.57504 
L 1172.805195 558.541478 
L 1183.954046 557.580648 
L 1189.528472 557.530289 
L 1195.102897 556.695578 
L 1200.677323 550.296963 
L 1206.251748 549.778756 
L 1211.826174 547.668939 
L 1217.400599 546.937175 
L 1222.975025 546.864712 
L 1228.549451 546.158528 
L 1234.123876 544.162353 
L 1239.698302 525.246021 
L 1245.272727 497.118103 
L 1245.272727 497.118103 
" style="fill:none;stroke:#ff7f0e;stroke-linecap:square;stroke-width:1.5;"/>
   </g>
   <g id="patch_9">
    <path d="M 180 630 
L 180 382.909091 
" style="fill:none;stroke:#000000;stroke-linecap:square;stroke-linejoin:miter;stroke-width:0.8;"/>
   </g>
   <g id="patch_10">
    <path d="M 1296 630 
L 1296 382.909091 
" style="fill:none;stroke:#000000;stroke-linecap:square;stroke-linejoin:miter;stroke-width:0.8;"/>
   </g>
   <g id="patch_11">
    <path d="M 180 630 
L 1296 630 
" style="fill:none;stroke:#000000;stroke-linecap:square;stroke-linejoin:miter;stroke-width:0.8;"/>
   </g>
   <g id="patch_12">
    <path d="M 180 382.909091 
L 1296 382.909091 
" style="fill:none;stroke:#000000;stroke-linecap:square;stroke-linejoin:miter;stroke-width:0.8;"/>
   </g>
   <g id="text_38">
    <!-- Test set results at minute 4 sorted by predicted accuracy -->
    <defs>
     <path d="M 18.109375 8.203125 
L 18.109375 -20.796875 
L 9.078125 -20.796875 
L 9.078125 54.6875 
L 18.109375 54.6875 
L 18.109375 46.390625 
Q 20.953125 51.265625 25.265625 53.625 
Q 29.59375 56 35.59375 56 
Q 45.5625 56 51.78125 48.09375 
Q 58.015625 40.1875 58.015625 27.296875 
Q 58.015625 14.40625 51.78125 6.484375 
Q 45.5625 -1.421875 35.59375 -1.421875 
Q 29.59375 -1.421875 25.265625 0.953125 
Q 20.953125 3.328125 18.109375 8.203125 
z
M 48.6875 27.296875 
Q 48.6875 37.203125 44.609375 42.84375 
Q 40.53125 48.484375 33.40625 48.484375 
Q 26.265625 48.484375 22.1875 42.84375 
Q 18.109375 37.203125 18.109375 27.296875 
Q 18.109375 17.390625 22.1875 11.75 
Q 26.265625 6.109375 33.40625 6.109375 
Q 40.53125 6.109375 44.609375 11.75 
Q 48.6875 17.390625 48.6875 27.296875 
z
" id="DejaVuSans-112"/>
    </defs>
    <g transform="translate(566.742188 376.909091)scale(0.12 -0.12)">
     <use xlink:href="#DejaVuSans-84"/>
     <use x="44.083984" xlink:href="#DejaVuSans-101"/>
     <use x="105.607422" xlink:href="#DejaVuSans-115"/>
     <use x="157.707031" xlink:href="#DejaVuSans-116"/>
     <use x="196.916016" xlink:href="#DejaVuSans-32"/>
     <use x="228.703125" xlink:href="#DejaVuSans-115"/>
     <use x="280.802734" xlink:href="#DejaVuSans-101"/>
     <use x="342.326172" xlink:href="#DejaVuSans-116"/>
     <use x="381.535156" xlink:href="#DejaVuSans-32"/>
     <use x="413.322266" xlink:href="#DejaVuSans-114"/>
     <use x="452.185547" xlink:href="#DejaVuSans-101"/>
     <use x="513.708984" xlink:href="#DejaVuSans-115"/>
     <use x="565.808594" xlink:href="#DejaVuSans-117"/>
     <use x="629.1875" xlink:href="#DejaVuSans-108"/>
     <use x="656.970703" xlink:href="#DejaVuSans-116"/>
     <use x="696.179688" xlink:href="#DejaVuSans-115"/>
     <use x="748.279297" xlink:href="#DejaVuSans-32"/>
     <use x="780.066406" xlink:href="#DejaVuSans-97"/>
     <use x="841.345703" xlink:href="#DejaVuSans-116"/>
     <use x="880.554688" xlink:href="#DejaVuSans-32"/>
     <use x="912.341797" xlink:href="#DejaVuSans-109"/>
     <use x="1009.753906" xlink:href="#DejaVuSans-105"/>
     <use x="1037.537109" xlink:href="#DejaVuSans-110"/>
     <use x="1100.916016" xlink:href="#DejaVuSans-117"/>
     <use x="1164.294922" xlink:href="#DejaVuSans-116"/>
     <use x="1203.503906" xlink:href="#DejaVuSans-101"/>
     <use x="1265.027344" xlink:href="#DejaVuSans-32"/>
     <use x="1296.814453" xlink:href="#DejaVuSans-52"/>
     <use x="1360.4375" xlink:href="#DejaVuSans-32"/>
     <use x="1392.224609" xlink:href="#DejaVuSans-115"/>
     <use x="1444.324219" xlink:href="#DejaVuSans-111"/>
     <use x="1505.505859" xlink:href="#DejaVuSans-114"/>
     <use x="1546.619141" xlink:href="#DejaVuSans-116"/>
     <use x="1585.828125" xlink:href="#DejaVuSans-101"/>
     <use x="1647.351562" xlink:href="#DejaVuSans-100"/>
     <use x="1710.828125" xlink:href="#DejaVuSans-32"/>
     <use x="1742.615234" xlink:href="#DejaVuSans-98"/>
     <use x="1806.091797" xlink:href="#DejaVuSans-121"/>
     <use x="1865.271484" xlink:href="#DejaVuSans-32"/>
     <use x="1897.058594" xlink:href="#DejaVuSans-112"/>
     <use x="1960.535156" xlink:href="#DejaVuSans-114"/>
     <use x="1999.398438" xlink:href="#DejaVuSans-101"/>
     <use x="2060.921875" xlink:href="#DejaVuSans-100"/>
     <use x="2124.398438" xlink:href="#DejaVuSans-105"/>
     <use x="2152.181641" xlink:href="#DejaVuSans-99"/>
     <use x="2207.162109" xlink:href="#DejaVuSans-116"/>
     <use x="2246.371094" xlink:href="#DejaVuSans-101"/>
     <use x="2307.894531" xlink:href="#DejaVuSans-100"/>
     <use x="2371.371094" xlink:href="#DejaVuSans-32"/>
     <use x="2403.158203" xlink:href="#DejaVuSans-97"/>
     <use x="2464.4375" xlink:href="#DejaVuSans-99"/>
     <use x="2519.417969" xlink:href="#DejaVuSans-99"/>
     <use x="2574.398438" xlink:href="#DejaVuSans-117"/>
     <use x="2637.777344" xlink:href="#DejaVuSans-114"/>
     <use x="2678.890625" xlink:href="#DejaVuSans-97"/>
     <use x="2740.169922" xlink:href="#DejaVuSans-99"/>
     <use x="2795.150391" xlink:href="#DejaVuSans-121"/>
    </g>
   </g>
   <g id="legend_2">
    <g id="patch_13">
     <path d="M 1161.225 420.265341 
L 1289 420.265341 
Q 1291 420.265341 1291 418.265341 
L 1291 389.909091 
Q 1291 387.909091 1289 387.909091 
L 1161.225 387.909091 
Q 1159.225 387.909091 1159.225 389.909091 
L 1159.225 418.265341 
Q 1159.225 420.265341 1161.225 420.265341 
z
" style="fill:#ffffff;opacity:0.8;stroke:#cccccc;stroke-linejoin:miter;"/>
    </g>
    <g id="line2d_43">
     <path d="M 1163.225 396.007528 
L 1183.225 396.007528 
" style="fill:none;stroke:#1f77b4;stroke-linecap:square;stroke-width:1.5;"/>
    </g>
    <g id="line2d_44"/>
    <g id="text_39">
     <!-- Actual Accuracy -->
     <g transform="translate(1191.225 399.507528)scale(0.1 -0.1)">
      <use xlink:href="#DejaVuSans-65"/>
      <use x="66.658203" xlink:href="#DejaVuSans-99"/>
      <use x="121.638672" xlink:href="#DejaVuSans-116"/>
      <use x="160.847656" xlink:href="#DejaVuSans-117"/>
      <use x="224.226562" xlink:href="#DejaVuSans-97"/>
      <use x="285.505859" xlink:href="#DejaVuSans-108"/>
      <use x="313.289062" xlink:href="#DejaVuSans-32"/>
      <use x="345.076172" xlink:href="#DejaVuSans-65"/>
      <use x="411.734375" xlink:href="#DejaVuSans-99"/>
      <use x="466.714844" xlink:href="#DejaVuSans-99"/>
      <use x="521.695312" xlink:href="#DejaVuSans-117"/>
      <use x="585.074219" xlink:href="#DejaVuSans-114"/>
      <use x="626.1875" xlink:href="#DejaVuSans-97"/>
      <use x="687.466797" xlink:href="#DejaVuSans-99"/>
      <use x="742.447266" xlink:href="#DejaVuSans-121"/>
     </g>
    </g>
    <g id="line2d_45">
     <path d="M 1163.225 410.685653 
L 1183.225 410.685653 
" style="fill:none;stroke:#ff7f0e;stroke-linecap:square;stroke-width:1.5;"/>
    </g>
    <g id="line2d_46"/>
    <g id="text_40">
     <!-- Predicted Accuracy -->
     <g transform="translate(1191.225 414.185653)scale(0.1 -0.1)">
      <use xlink:href="#DejaVuSans-80"/>
      <use x="58.552734" xlink:href="#DejaVuSans-114"/>
      <use x="97.416016" xlink:href="#DejaVuSans-101"/>
      <use x="158.939453" xlink:href="#DejaVuSans-100"/>
      <use x="222.416016" xlink:href="#DejaVuSans-105"/>
      <use x="250.199219" xlink:href="#DejaVuSans-99"/>
      <use x="305.179688" xlink:href="#DejaVuSans-116"/>
      <use x="344.388672" xlink:href="#DejaVuSans-101"/>
      <use x="405.912109" xlink:href="#DejaVuSans-100"/>
      <use x="469.388672" xlink:href="#DejaVuSans-32"/>
      <use x="501.175781" xlink:href="#DejaVuSans-65"/>
      <use x="567.833984" xlink:href="#DejaVuSans-99"/>
      <use x="622.814453" xlink:href="#DejaVuSans-99"/>
      <use x="677.794922" xlink:href="#DejaVuSans-117"/>
      <use x="741.173828" xlink:href="#DejaVuSans-114"/>
      <use x="782.287109" xlink:href="#DejaVuSans-97"/>
      <use x="843.566406" xlink:href="#DejaVuSans-99"/>
      <use x="898.546875" xlink:href="#DejaVuSans-121"/>
     </g>
    </g>
   </g>
  </g>
 </g>
 <defs>
  <clipPath id="pa99ca2b8e3">
   <rect height="247.090909" width="1116" x="180" y="86.4"/>
  </clipPath>
  <clipPath id="p53415e4801">
   <rect height="247.090909" width="1116" x="180" y="382.909091"/>
  </clipPath>
 </defs>
</svg>
