<?xml version="1.0" encoding="utf-8" standalone="no"?>
<!DOCTYPE svg PUBLIC "-//W3C//DTD SVG 1.1//EN"
  "http://www.w3.org/Graphics/SVG/1.1/DTD/svg11.dtd">
<!-- Created with matplotlib (https://matplotlib.org/) -->
<svg height="720pt" version="1.1" viewBox="0 0 1440 720" width="1440pt" xmlns="http://www.w3.org/2000/svg" xmlns:xlink="http://www.w3.org/1999/xlink">
 <defs>
  <style type="text/css">
*{stroke-linecap:butt;stroke-linejoin:round;}
  </style>
 </defs>
 <g id="figure_1">
  <g id="patch_1">
   <path d="M 0 720 
L 1440 720 
L 1440 0 
L 0 0 
z
" style="fill:#ffffff;"/>
  </g>
  <g id="axes_1">
   <g id="patch_2">
    <path d="M 180 333.490909 
L 1296 333.490909 
L 1296 86.4 
L 180 86.4 
z
" style="fill:#ffffff;"/>
   </g>
   <g id="matplotlib.axis_1">
    <g id="xtick_1">
     <g id="line2d_1">
      <defs>
       <path d="M 0 0 
L 0 3.5 
" id="m231a94b946" style="stroke:#000000;stroke-width:0.8;"/>
      </defs>
      <g>
       <use style="stroke:#000000;stroke-width:0.8;" x="230.727273" xlink:href="#m231a94b946" y="333.490909"/>
      </g>
     </g>
     <g id="text_1">
      <!-- 0 -->
      <defs>
       <path d="M 31.78125 66.40625 
Q 24.171875 66.40625 20.328125 58.90625 
Q 16.5 51.421875 16.5 36.375 
Q 16.5 21.390625 20.328125 13.890625 
Q 24.171875 6.390625 31.78125 6.390625 
Q 39.453125 6.390625 43.28125 13.890625 
Q 47.125 21.390625 47.125 36.375 
Q 47.125 51.421875 43.28125 58.90625 
Q 39.453125 66.40625 31.78125 66.40625 
z
M 31.78125 74.21875 
Q 44.046875 74.21875 50.515625 64.515625 
Q 56.984375 54.828125 56.984375 36.375 
Q 56.984375 17.96875 50.515625 8.265625 
Q 44.046875 -1.421875 31.78125 -1.421875 
Q 19.53125 -1.421875 13.0625 8.265625 
Q 6.59375 17.96875 6.59375 36.375 
Q 6.59375 54.828125 13.0625 64.515625 
Q 19.53125 74.21875 31.78125 74.21875 
z
" id="DejaVuSans-48"/>
      </defs>
      <g transform="translate(227.546023 348.089347)scale(0.1 -0.1)">
       <use xlink:href="#DejaVuSans-48"/>
      </g>
     </g>
    </g>
    <g id="xtick_2">
     <g id="line2d_2">
      <g>
       <use style="stroke:#000000;stroke-width:0.8;" x="369.515981" xlink:href="#m231a94b946" y="333.490909"/>
      </g>
     </g>
     <g id="text_2">
      <!-- 100 -->
      <defs>
       <path d="M 12.40625 8.296875 
L 28.515625 8.296875 
L 28.515625 63.921875 
L 10.984375 60.40625 
L 10.984375 69.390625 
L 28.421875 72.90625 
L 38.28125 72.90625 
L 38.28125 8.296875 
L 54.390625 8.296875 
L 54.390625 0 
L 12.40625 0 
z
" id="DejaVuSans-49"/>
      </defs>
      <g transform="translate(359.972231 348.089347)scale(0.1 -0.1)">
       <use xlink:href="#DejaVuSans-49"/>
       <use x="63.623047" xlink:href="#DejaVuSans-48"/>
       <use x="127.246094" xlink:href="#DejaVuSans-48"/>
      </g>
     </g>
    </g>
    <g id="xtick_3">
     <g id="line2d_3">
      <g>
       <use style="stroke:#000000;stroke-width:0.8;" x="508.304688" xlink:href="#m231a94b946" y="333.490909"/>
      </g>
     </g>
     <g id="text_3">
      <!-- 200 -->
      <defs>
       <path d="M 19.1875 8.296875 
L 53.609375 8.296875 
L 53.609375 0 
L 7.328125 0 
L 7.328125 8.296875 
Q 12.9375 14.109375 22.625 23.890625 
Q 32.328125 33.6875 34.8125 36.53125 
Q 39.546875 41.84375 41.421875 45.53125 
Q 43.3125 49.21875 43.3125 52.78125 
Q 43.3125 58.59375 39.234375 62.25 
Q 35.15625 65.921875 28.609375 65.921875 
Q 23.96875 65.921875 18.8125 64.3125 
Q 13.671875 62.703125 7.8125 59.421875 
L 7.8125 69.390625 
Q 13.765625 71.78125 18.9375 73 
Q 24.125 74.21875 28.421875 74.21875 
Q 39.75 74.21875 46.484375 68.546875 
Q 53.21875 62.890625 53.21875 53.421875 
Q 53.21875 48.921875 51.53125 44.890625 
Q 49.859375 40.875 45.40625 35.40625 
Q 44.1875 33.984375 37.640625 27.21875 
Q 31.109375 20.453125 19.1875 8.296875 
z
" id="DejaVuSans-50"/>
      </defs>
      <g transform="translate(498.760938 348.089347)scale(0.1 -0.1)">
       <use xlink:href="#DejaVuSans-50"/>
       <use x="63.623047" xlink:href="#DejaVuSans-48"/>
       <use x="127.246094" xlink:href="#DejaVuSans-48"/>
      </g>
     </g>
    </g>
    <g id="xtick_4">
     <g id="line2d_4">
      <g>
       <use style="stroke:#000000;stroke-width:0.8;" x="647.093396" xlink:href="#m231a94b946" y="333.490909"/>
      </g>
     </g>
     <g id="text_4">
      <!-- 300 -->
      <defs>
       <path d="M 40.578125 39.3125 
Q 47.65625 37.796875 51.625 33 
Q 55.609375 28.21875 55.609375 21.1875 
Q 55.609375 10.40625 48.1875 4.484375 
Q 40.765625 -1.421875 27.09375 -1.421875 
Q 22.515625 -1.421875 17.65625 -0.515625 
Q 12.796875 0.390625 7.625 2.203125 
L 7.625 11.71875 
Q 11.71875 9.328125 16.59375 8.109375 
Q 21.484375 6.890625 26.8125 6.890625 
Q 36.078125 6.890625 40.9375 10.546875 
Q 45.796875 14.203125 45.796875 21.1875 
Q 45.796875 27.640625 41.28125 31.265625 
Q 36.765625 34.90625 28.71875 34.90625 
L 20.21875 34.90625 
L 20.21875 43.015625 
L 29.109375 43.015625 
Q 36.375 43.015625 40.234375 45.921875 
Q 44.09375 48.828125 44.09375 54.296875 
Q 44.09375 59.90625 40.109375 62.90625 
Q 36.140625 65.921875 28.71875 65.921875 
Q 24.65625 65.921875 20.015625 65.03125 
Q 15.375 64.15625 9.8125 62.3125 
L 9.8125 71.09375 
Q 15.4375 72.65625 20.34375 73.4375 
Q 25.25 74.21875 29.59375 74.21875 
Q 40.828125 74.21875 47.359375 69.109375 
Q 53.90625 64.015625 53.90625 55.328125 
Q 53.90625 49.265625 50.4375 45.09375 
Q 46.96875 40.921875 40.578125 39.3125 
z
" id="DejaVuSans-51"/>
      </defs>
      <g transform="translate(637.549646 348.089347)scale(0.1 -0.1)">
       <use xlink:href="#DejaVuSans-51"/>
       <use x="63.623047" xlink:href="#DejaVuSans-48"/>
       <use x="127.246094" xlink:href="#DejaVuSans-48"/>
      </g>
     </g>
    </g>
    <g id="xtick_5">
     <g id="line2d_5">
      <g>
       <use style="stroke:#000000;stroke-width:0.8;" x="785.882104" xlink:href="#m231a94b946" y="333.490909"/>
      </g>
     </g>
     <g id="text_5">
      <!-- 400 -->
      <defs>
       <path d="M 37.796875 64.3125 
L 12.890625 25.390625 
L 37.796875 25.390625 
z
M 35.203125 72.90625 
L 47.609375 72.90625 
L 47.609375 25.390625 
L 58.015625 25.390625 
L 58.015625 17.1875 
L 47.609375 17.1875 
L 47.609375 0 
L 37.796875 0 
L 37.796875 17.1875 
L 4.890625 17.1875 
L 4.890625 26.703125 
z
" id="DejaVuSans-52"/>
      </defs>
      <g transform="translate(776.338354 348.089347)scale(0.1 -0.1)">
       <use xlink:href="#DejaVuSans-52"/>
       <use x="63.623047" xlink:href="#DejaVuSans-48"/>
       <use x="127.246094" xlink:href="#DejaVuSans-48"/>
      </g>
     </g>
    </g>
    <g id="xtick_6">
     <g id="line2d_6">
      <g>
       <use style="stroke:#000000;stroke-width:0.8;" x="924.670812" xlink:href="#m231a94b946" y="333.490909"/>
      </g>
     </g>
     <g id="text_6">
      <!-- 500 -->
      <defs>
       <path d="M 10.796875 72.90625 
L 49.515625 72.90625 
L 49.515625 64.59375 
L 19.828125 64.59375 
L 19.828125 46.734375 
Q 21.96875 47.46875 24.109375 47.828125 
Q 26.265625 48.1875 28.421875 48.1875 
Q 40.625 48.1875 47.75 41.5 
Q 54.890625 34.8125 54.890625 23.390625 
Q 54.890625 11.625 47.5625 5.09375 
Q 40.234375 -1.421875 26.90625 -1.421875 
Q 22.3125 -1.421875 17.546875 -0.640625 
Q 12.796875 0.140625 7.71875 1.703125 
L 7.71875 11.625 
Q 12.109375 9.234375 16.796875 8.0625 
Q 21.484375 6.890625 26.703125 6.890625 
Q 35.15625 6.890625 40.078125 11.328125 
Q 45.015625 15.765625 45.015625 23.390625 
Q 45.015625 31 40.078125 35.4375 
Q 35.15625 39.890625 26.703125 39.890625 
Q 22.75 39.890625 18.8125 39.015625 
Q 14.890625 38.140625 10.796875 36.28125 
z
" id="DejaVuSans-53"/>
      </defs>
      <g transform="translate(915.127062 348.089347)scale(0.1 -0.1)">
       <use xlink:href="#DejaVuSans-53"/>
       <use x="63.623047" xlink:href="#DejaVuSans-48"/>
       <use x="127.246094" xlink:href="#DejaVuSans-48"/>
      </g>
     </g>
    </g>
    <g id="xtick_7">
     <g id="line2d_7">
      <g>
       <use style="stroke:#000000;stroke-width:0.8;" x="1063.45952" xlink:href="#m231a94b946" y="333.490909"/>
      </g>
     </g>
     <g id="text_7">
      <!-- 600 -->
      <defs>
       <path d="M 33.015625 40.375 
Q 26.375 40.375 22.484375 35.828125 
Q 18.609375 31.296875 18.609375 23.390625 
Q 18.609375 15.53125 22.484375 10.953125 
Q 26.375 6.390625 33.015625 6.390625 
Q 39.65625 6.390625 43.53125 10.953125 
Q 47.40625 15.53125 47.40625 23.390625 
Q 47.40625 31.296875 43.53125 35.828125 
Q 39.65625 40.375 33.015625 40.375 
z
M 52.59375 71.296875 
L 52.59375 62.3125 
Q 48.875 64.0625 45.09375 64.984375 
Q 41.3125 65.921875 37.59375 65.921875 
Q 27.828125 65.921875 22.671875 59.328125 
Q 17.53125 52.734375 16.796875 39.40625 
Q 19.671875 43.65625 24.015625 45.921875 
Q 28.375 48.1875 33.59375 48.1875 
Q 44.578125 48.1875 50.953125 41.515625 
Q 57.328125 34.859375 57.328125 23.390625 
Q 57.328125 12.15625 50.6875 5.359375 
Q 44.046875 -1.421875 33.015625 -1.421875 
Q 20.359375 -1.421875 13.671875 8.265625 
Q 6.984375 17.96875 6.984375 36.375 
Q 6.984375 53.65625 15.1875 63.9375 
Q 23.390625 74.21875 37.203125 74.21875 
Q 40.921875 74.21875 44.703125 73.484375 
Q 48.484375 72.75 52.59375 71.296875 
z
" id="DejaVuSans-54"/>
      </defs>
      <g transform="translate(1053.91577 348.089347)scale(0.1 -0.1)">
       <use xlink:href="#DejaVuSans-54"/>
       <use x="63.623047" xlink:href="#DejaVuSans-48"/>
       <use x="127.246094" xlink:href="#DejaVuSans-48"/>
      </g>
     </g>
    </g>
    <g id="xtick_8">
     <g id="line2d_8">
      <g>
       <use style="stroke:#000000;stroke-width:0.8;" x="1202.248228" xlink:href="#m231a94b946" y="333.490909"/>
      </g>
     </g>
     <g id="text_8">
      <!-- 700 -->
      <defs>
       <path d="M 8.203125 72.90625 
L 55.078125 72.90625 
L 55.078125 68.703125 
L 28.609375 0 
L 18.3125 0 
L 43.21875 64.59375 
L 8.203125 64.59375 
z
" id="DejaVuSans-55"/>
      </defs>
      <g transform="translate(1192.704478 348.089347)scale(0.1 -0.1)">
       <use xlink:href="#DejaVuSans-55"/>
       <use x="63.623047" xlink:href="#DejaVuSans-48"/>
       <use x="127.246094" xlink:href="#DejaVuSans-48"/>
      </g>
     </g>
    </g>
   </g>
   <g id="matplotlib.axis_2">
    <g id="ytick_1">
     <g id="line2d_9">
      <defs>
       <path d="M 0 0 
L -3.5 0 
" id="m7eeb9a70b3" style="stroke:#000000;stroke-width:0.8;"/>
      </defs>
      <g>
       <use style="stroke:#000000;stroke-width:0.8;" x="180" xlink:href="#m7eeb9a70b3" y="309.78225"/>
      </g>
     </g>
     <g id="text_9">
      <!-- 0.475 -->
      <defs>
       <path d="M 10.6875 12.40625 
L 21 12.40625 
L 21 0 
L 10.6875 0 
z
" id="DejaVuSans-46"/>
      </defs>
      <g transform="translate(144.371875 313.581469)scale(0.1 -0.1)">
       <use xlink:href="#DejaVuSans-48"/>
       <use x="63.623047" xlink:href="#DejaVuSans-46"/>
       <use x="95.410156" xlink:href="#DejaVuSans-52"/>
       <use x="159.033203" xlink:href="#DejaVuSans-55"/>
       <use x="222.65625" xlink:href="#DejaVuSans-53"/>
      </g>
     </g>
    </g>
    <g id="ytick_2">
     <g id="line2d_10">
      <g>
       <use style="stroke:#000000;stroke-width:0.8;" x="180" xlink:href="#m7eeb9a70b3" y="277.097415"/>
      </g>
     </g>
     <g id="text_10">
      <!-- 0.500 -->
      <g transform="translate(144.371875 280.896634)scale(0.1 -0.1)">
       <use xlink:href="#DejaVuSans-48"/>
       <use x="63.623047" xlink:href="#DejaVuSans-46"/>
       <use x="95.410156" xlink:href="#DejaVuSans-53"/>
       <use x="159.033203" xlink:href="#DejaVuSans-48"/>
       <use x="222.65625" xlink:href="#DejaVuSans-48"/>
      </g>
     </g>
    </g>
    <g id="ytick_3">
     <g id="line2d_11">
      <g>
       <use style="stroke:#000000;stroke-width:0.8;" x="180" xlink:href="#m7eeb9a70b3" y="244.412581"/>
      </g>
     </g>
     <g id="text_11">
      <!-- 0.525 -->
      <g transform="translate(144.371875 248.2118)scale(0.1 -0.1)">
       <use xlink:href="#DejaVuSans-48"/>
       <use x="63.623047" xlink:href="#DejaVuSans-46"/>
       <use x="95.410156" xlink:href="#DejaVuSans-53"/>
       <use x="159.033203" xlink:href="#DejaVuSans-50"/>
       <use x="222.65625" xlink:href="#DejaVuSans-53"/>
      </g>
     </g>
    </g>
    <g id="ytick_4">
     <g id="line2d_12">
      <g>
       <use style="stroke:#000000;stroke-width:0.8;" x="180" xlink:href="#m7eeb9a70b3" y="211.727747"/>
      </g>
     </g>
     <g id="text_12">
      <!-- 0.550 -->
      <g transform="translate(144.371875 215.526965)scale(0.1 -0.1)">
       <use xlink:href="#DejaVuSans-48"/>
       <use x="63.623047" xlink:href="#DejaVuSans-46"/>
       <use x="95.410156" xlink:href="#DejaVuSans-53"/>
       <use x="159.033203" xlink:href="#DejaVuSans-53"/>
       <use x="222.65625" xlink:href="#DejaVuSans-48"/>
      </g>
     </g>
    </g>
    <g id="ytick_5">
     <g id="line2d_13">
      <g>
       <use style="stroke:#000000;stroke-width:0.8;" x="180" xlink:href="#m7eeb9a70b3" y="179.042912"/>
      </g>
     </g>
     <g id="text_13">
      <!-- 0.575 -->
      <g transform="translate(144.371875 182.842131)scale(0.1 -0.1)">
       <use xlink:href="#DejaVuSans-48"/>
       <use x="63.623047" xlink:href="#DejaVuSans-46"/>
       <use x="95.410156" xlink:href="#DejaVuSans-53"/>
       <use x="159.033203" xlink:href="#DejaVuSans-55"/>
       <use x="222.65625" xlink:href="#DejaVuSans-53"/>
      </g>
     </g>
    </g>
    <g id="ytick_6">
     <g id="line2d_14">
      <g>
       <use style="stroke:#000000;stroke-width:0.8;" x="180" xlink:href="#m7eeb9a70b3" y="146.358078"/>
      </g>
     </g>
     <g id="text_14">
      <!-- 0.600 -->
      <g transform="translate(144.371875 150.157296)scale(0.1 -0.1)">
       <use xlink:href="#DejaVuSans-48"/>
       <use x="63.623047" xlink:href="#DejaVuSans-46"/>
       <use x="95.410156" xlink:href="#DejaVuSans-54"/>
       <use x="159.033203" xlink:href="#DejaVuSans-48"/>
       <use x="222.65625" xlink:href="#DejaVuSans-48"/>
      </g>
     </g>
    </g>
    <g id="ytick_7">
     <g id="line2d_15">
      <g>
       <use style="stroke:#000000;stroke-width:0.8;" x="180" xlink:href="#m7eeb9a70b3" y="113.673243"/>
      </g>
     </g>
     <g id="text_15">
      <!-- 0.625 -->
      <g transform="translate(144.371875 117.472462)scale(0.1 -0.1)">
       <use xlink:href="#DejaVuSans-48"/>
       <use x="63.623047" xlink:href="#DejaVuSans-46"/>
       <use x="95.410156" xlink:href="#DejaVuSans-54"/>
       <use x="159.033203" xlink:href="#DejaVuSans-50"/>
       <use x="222.65625" xlink:href="#DejaVuSans-53"/>
      </g>
     </g>
    </g>
   </g>
   <g id="line2d_16">
    <path clip-path="url(#p9c2daba784)" d="M 230.727273 322.259504 
L 232.11516 321.747003 
L 233.503047 321.656892 
L 234.890934 317.907934 
L 236.278821 317.371028 
L 237.666708 316.629496 
L 239.054595 314.070743 
L 240.442482 314.05197 
L 241.830369 313.483149 
L 243.218256 309.942571 
L 244.606144 309.360609 
L 245.994031 308.390048 
L 247.381918 308.211705 
L 248.769805 303.388934 
L 250.157692 302.057931 
L 251.545579 301.252572 
L 252.933466 300.576745 
L 254.321353 299.760122 
L 255.70924 296.700131 
L 257.097127 296.058096 
L 258.485014 295.945458 
L 259.872901 295.690146 
L 261.260788 295.646968 
L 262.648676 294.723339 
L 264.036563 294.302825 
L 265.42445 293.426128 
L 266.812337 291.524428 
L 269.588111 291.282257 
L 270.975998 291.199656 
L 273.751772 290.054506 
L 275.139659 290.054506 
L 276.527546 289.669661 
L 277.915433 289.160914 
L 279.30332 288.819246 
L 280.691208 286.711044 
L 282.079095 286.692271 
L 283.466982 286.485768 
L 284.854869 285.577157 
L 286.242756 285.284299 
L 289.01853 285.105956 
L 290.406417 284.79808 
L 291.794304 284.661037 
L 293.182191 284.306229 
L 294.570078 284.274315 
L 295.957965 284.06218 
L 297.345853 284.013371 
L 298.73374 283.600366 
L 300.121627 282.871975 
L 302.897401 282.766847 
L 304.285288 282.751828 
L 305.673175 282.2994 
L 308.448949 281.863868 
L 311.224723 281.616065 
L 312.61261 281.050999 
L 315.388385 280.902693 
L 316.776272 280.902693 
L 318.164159 280.692436 
L 319.552046 280.679294 
L 320.939933 280.393946 
L 325.103594 280.30759 
L 326.491481 279.979063 
L 329.267255 279.691837 
L 333.430917 279.601727 
L 337.594578 279.352047 
L 340.370352 279.243164 
L 347.309787 278.873337 
L 348.697674 278.580479 
L 355.63711 278.201265 
L 363.964432 278.098014 
L 386.170626 277.653095 
L 388.9464 277.587389 
L 400.049496 277.508543 
L 405.601045 277.433451 
L 466.668076 277.127452 
L 967.695312 277.016692 
L 1007.944037 276.487294 
L 1009.331924 276.337111 
L 1014.883472 276.155013 
L 1019.047133 275.905333 
L 1021.822908 275.723235 
L 1025.986569 275.661285 
L 1027.374456 275.413482 
L 1030.15023 275.295212 
L 1031.538117 275.133765 
L 1032.926004 275.094342 
L 1037.089665 274.563067 
L 1041.253327 274.360319 
L 1042.641214 274.159449 
L 1045.416988 274.035547 
L 1052.356423 273.305279 
L 1053.74431 273.080004 
L 1057.907972 272.92982 
L 1062.071633 272.772127 
L 1064.847407 272.698913 
L 1066.235294 272.52057 
L 1067.623181 272.154497 
L 1074.562617 271.904817 
L 1075.950504 271.756511 
L 1078.726278 271.698315 
L 1080.114165 271.133249 
L 1081.502052 270.907973 
L 1085.665713 270.883569 
L 1087.0536 270.624502 
L 1092.605149 270.566306 
L 1095.380923 270.43114 
L 1098.156697 270.376699 
L 1102.320358 269.819142 
L 1106.484019 269.712136 
L 1112.035568 269.667081 
L 1113.423455 268.948077 
L 1114.811342 268.844826 
L 1116.199229 268.518177 
L 1117.587116 268.497526 
L 1120.36289 268.242214 
L 1121.750777 268.169 
L 1123.138664 267.951234 
L 1124.526551 267.198438 
L 1127.302326 266.747887 
L 1131.465987 266.631495 
L 1134.241761 266.396833 
L 1135.629648 266.015742 
L 1141.181196 265.730393 
L 1145.344858 265.294861 
L 1146.732745 264.93442 
L 1148.120632 264.928788 
L 1149.508519 264.692249 
L 1150.896406 264.652826 
L 1152.284293 264.403146 
L 1155.060067 264.378741 
L 1157.835841 263.868117 
L 1159.223728 263.216695 
L 1163.38739 262.728599 
L 1164.775277 262.4639 
L 1167.551051 262.366281 
L 1170.326825 261.737387 
L 1171.714712 260.406384 
L 1173.102599 260.15295 
L 1174.490486 259.403909 
L 1177.26626 259.36824 
L 1180.042035 256.91837 
L 1181.429922 256.351427 
L 1186.98147 256.096115 
L 1188.369357 255.701883 
L 1189.757244 255.649319 
L 1191.145131 255.463466 
L 1192.533018 255.455957 
L 1193.920905 255.196891 
L 1195.308792 252.619364 
L 1196.69668 250.360978 
L 1198.084567 249.580024 
L 1199.472454 249.546232 
L 1200.860341 248.945498 
L 1202.248228 246.839173 
L 1203.636115 244.993792 
L 1205.024002 244.725338 
L 1206.411889 244.160273 
L 1210.57555 243.623366 
L 1211.963437 243.142779 
L 1214.739212 243.075196 
L 1216.127099 242.551431 
L 1217.514986 241.830549 
L 1218.902873 241.334943 
L 1220.29076 241.248588 
L 1221.678647 239.052152 
L 1223.066534 238.793086 
L 1224.454421 237.413274 
L 1227.230195 237.141066 
L 1228.618082 235.755622 
L 1230.005969 230.762017 
L 1231.393856 226.235859 
L 1232.781744 217.01083 
L 1234.169631 206.396604 
L 1235.557518 182.832795 
L 1236.945405 182.832795 
L 1238.333292 174.717249 
L 1239.721179 174.717249 
L 1241.109066 158.763995 
L 1242.496953 150.487001 
L 1243.88484 125.868152 
L 1245.272727 112.612571 
L 1245.272727 112.612571 
" style="fill:none;stroke:#1f77b4;stroke-linecap:square;stroke-width:1.5;"/>
   </g>
   <g id="line2d_17">
    <path clip-path="url(#p9c2daba784)" d="M 230.727273 275.501476 
L 232.11516 290.403325 
L 233.503047 260.09739 
L 234.890934 298.72282 
L 236.278821 278.106294 
L 237.666708 310.016116 
L 239.054595 276.676923 
L 240.442482 281.344772 
L 241.830369 273.131335 
L 243.218256 301.260932 
L 244.606144 284.448827 
L 245.994031 270.526323 
L 247.381918 277.582236 
L 248.769805 307.47664 
L 250.157692 275.944178 
L 251.545579 289.762572 
L 252.933466 271.10189 
L 254.321353 282.48784 
L 255.70924 267.507052 
L 257.097127 273.677446 
L 258.485014 273.265057 
L 259.872901 275.269177 
L 261.260788 274.584902 
L 262.648676 275.645952 
L 264.036563 273.736904 
L 265.42445 273.289682 
L 266.812337 273.906394 
L 268.200224 272.917816 
L 269.588111 275.610574 
L 272.363885 276.270457 
L 273.751772 271.130255 
L 275.139659 276.470885 
L 276.527546 275.552752 
L 277.915433 271.689613 
L 279.30332 277.244658 
L 280.691208 273.656639 
L 282.079095 274.029752 
L 283.466982 275.207381 
L 284.854869 275.07888 
L 286.242756 276.969694 
L 287.630643 275.91254 
L 289.01853 277.888956 
L 290.406417 273.972164 
L 291.794304 275.069996 
L 293.182191 276.346514 
L 294.570078 274.065988 
L 295.957965 277.335832 
L 297.345853 268.719124 
L 298.73374 277.275127 
L 300.121627 276.000675 
L 301.509514 257.031597 
L 302.897401 256.622872 
L 304.285288 274.011128 
L 305.673175 285.820415 
L 307.061062 272.462646 
L 308.448949 276.568449 
L 311.224723 275.265202 
L 312.61261 275.656161 
L 314.000497 273.725526 
L 315.388385 275.232084 
L 316.776272 275.232084 
L 318.164159 275.425809 
L 319.552046 276.789605 
L 320.939933 289.452268 
L 322.32782 275.34422 
L 323.715707 274.45118 
L 325.103594 277.718102 
L 326.491481 274.873932 
L 327.879368 272.763053 
L 329.267255 277.623538 
L 330.655142 274.184671 
L 332.043029 275.123999 
L 333.430917 272.419786 
L 334.818804 278.308085 
L 336.206691 274.84019 
L 337.594578 274.164332 
L 338.982465 273.868366 
L 340.370352 276.370203 
L 341.758239 274.973834 
L 343.146126 276.402777 
L 344.534013 268.83469 
L 345.9219 276.597905 
L 347.309787 275.475605 
L 348.697674 276.128475 
L 350.085561 275.635198 
L 351.473449 277.467372 
L 352.861336 277.050581 
L 354.249223 273.185494 
L 355.63711 275.769856 
L 357.024997 274.4677 
L 358.412884 275.020668 
L 359.800771 264.749304 
L 361.188658 270.998403 
L 362.576545 276.288926 
L 363.964432 248.301545 
L 365.352319 276.600165 
L 366.740206 276.13315 
L 368.128094 266.215884 
L 369.515981 276.609205 
L 370.903868 274.490533 
L 372.291755 271.110929 
L 373.679642 274.852191 
L 375.067529 276.627829 
L 376.455416 272.438177 
L 377.843303 276.573514 
L 379.23119 279.058441 
L 380.619077 257.416244 
L 382.006964 275.784662 
L 383.394851 261.834299 
L 384.782738 258.895526 
L 386.170626 276.350488 
L 387.558513 270.400393 
L 388.9464 274.211088 
L 390.334287 276.410725 
L 391.722174 274.418061 
L 393.110061 274.56581 
L 394.497948 276.183023 
L 395.885835 274.731249 
L 397.273722 275.87981 
L 398.661609 271.757955 
L 400.049496 275.885343 
L 401.437383 276.447818 
L 402.82527 275.062359 
L 404.213158 293.692416 
L 405.601045 272.673905 
L 406.988932 277.334001 
L 408.376819 274.068014 
L 409.764706 253.234072 
L 411.152593 275.111609 
L 413.928367 275.006797 
L 415.316254 284.085377 
L 416.704141 276.882571 
L 418.092028 276.408933 
L 419.479915 259.394257 
L 420.867803 275.049813 
L 422.25569 275.534361 
L 423.643577 283.121852 
L 426.419351 266.775398 
L 427.807238 275.480514 
L 429.195125 275.480514 
L 430.583012 273.615494 
L 431.970899 273.032914 
L 433.358786 276.726095 
L 434.746673 277.057361 
L 436.13456 277.079492 
L 437.522447 255.881944 
L 438.910335 261.718733 
L 440.298222 263.408574 
L 441.686109 263.027824 
L 443.073996 275.368533 
L 444.461883 274.797175 
L 445.84977 274.858347 
L 447.237657 274.519833 
L 448.625544 276.5079 
L 450.013431 275.218602 
L 451.401318 275.454876 
L 452.789205 270.48845 
L 454.177092 276.240455 
L 455.564979 272.479011 
L 456.952867 274.001153 
L 458.340754 275.217511 
L 459.728641 276.019689 
L 461.116528 273.345712 
L 462.504415 280.264708 
L 463.892302 275.723723 
L 465.280189 275.732295 
L 466.668076 277.228527 
L 468.055963 272.892178 
L 469.44385 276.544837 
L 470.831737 277.09087 
L 472.219624 276.212012 
L 473.607512 278.487589 
L 474.995399 268.939345 
L 476.383286 276.419843 
L 477.771173 276.313784 
L 479.15906 273.474836 
L 480.546947 276.319785 
L 483.322721 275.872719 
L 484.710608 274.55903 
L 486.098495 274.809565 
L 487.486382 276.356254 
L 488.874269 275.979167 
L 490.262156 275.75731 
L 491.650044 276.708327 
L 493.037931 275.705099 
L 494.425818 275.64829 
L 495.813705 276.645596 
L 498.589479 275.547531 
L 499.977366 277.074817 
L 501.365253 276.300537 
L 502.75314 274.878764 
L 504.141027 275.094621 
L 505.528914 255.594551 
L 506.916801 276.093096 
L 508.304688 277.451086 
L 509.692576 275.47841 
L 511.080463 289.802821 
L 512.46835 276.18692 
L 513.856237 276.2696 
L 515.244124 275.667226 
L 518.019898 276.41844 
L 519.407785 276.352826 
L 522.183559 275.233954 
L 523.571446 275.997168 
L 524.959333 261.941994 
L 526.34722 278.069551 
L 527.735108 275.568493 
L 529.122995 275.066957 
L 530.510882 277.130339 
L 533.286656 276.290484 
L 534.674543 277.220773 
L 536.06243 275.699488 
L 537.450317 276.768175 
L 538.838204 273.405325 
L 540.226091 277.597159 
L 541.613978 275.448642 
L 543.001865 276.404023 
L 544.389753 276.022494 
L 545.77764 275.946204 
L 547.165527 275.995999 
L 548.553414 276.326097 
L 549.941301 275.88924 
L 551.329188 277.180407 
L 552.717075 276.474703 
L 554.104962 276.352202 
L 555.492849 274.36398 
L 556.880736 276.761551 
L 559.65651 276.631024 
L 561.044397 277.619719 
L 562.432285 276.17601 
L 563.820172 272.499505 
L 565.208059 275.641277 
L 566.595946 277.031645 
L 567.983833 275.162651 
L 569.37172 277.29344 
L 570.759607 277.344794 
L 572.147494 276.06777 
L 573.535381 277.189291 
L 574.923268 274.844554 
L 576.311155 276.205388 
L 577.699042 274.606644 
L 579.086929 274.827098 
L 580.474817 277.430279 
L 581.862704 276.580527 
L 583.250591 274.984277 
L 584.638478 274.984277 
L 586.026365 273.493616 
L 587.414252 255.742222 
L 588.802139 276.563072 
L 590.190026 272.513142 
L 591.577913 272.181408 
L 592.9658 275.714138 
L 595.741574 276.920678 
L 597.129462 278.645858 
L 598.517349 276.427635 
L 599.905236 276.474469 
L 601.293123 273.031199 
L 602.68101 276.469248 
L 604.068897 274.235713 
L 605.456784 275.836327 
L 606.844671 278.494369 
L 608.232558 276.391166 
L 609.620445 275.897032 
L 611.008332 275.704943 
L 612.396219 283.873105 
L 613.784106 275.745231 
L 615.171994 275.823781 
L 616.559881 276.693911 
L 617.947768 275.974647 
L 619.335655 276.790384 
L 620.723542 274.250441 
L 622.111429 272.673438 
L 623.499316 273.289215 
L 624.887203 277.021826 
L 626.27509 276.064575 
L 627.662977 274.844554 
L 629.050864 276.31846 
L 630.438751 276.030053 
L 631.826638 276.252222 
L 633.214526 277.401018 
L 634.602413 275.936385 
L 635.9903 276.263366 
L 637.378187 275.486203 
L 638.766074 276.08055 
L 640.153961 276.311057 
L 641.541848 272.549612 
L 644.317622 279.94439 
L 645.705509 275.997791 
L 647.093396 277.505245 
L 648.481283 273.551594 
L 649.869171 276.64996 
L 652.644945 276.995799 
L 654.032832 275.436252 
L 655.420719 276.248326 
L 656.808606 276.553799 
L 658.196493 277.277153 
L 659.58438 276.282692 
L 660.972267 275.574182 
L 662.360154 276.136033 
L 663.748041 275.453941 
L 665.135928 275.962257 
L 666.523815 277.413681 
L 667.911703 276.027793 
L 669.29959 266.290538 
L 670.687477 277.074817 
L 672.075364 272.484387 
L 673.463251 275.912773 
L 674.851138 275.631848 
L 676.239025 278.344983 
L 677.626912 275.43329 
L 679.014799 276.105175 
L 680.402686 276.052028 
L 681.790573 277.389641 
L 684.566347 275.118311 
L 685.954235 278.394038 
L 688.730009 273.143959 
L 690.117896 276.483353 
L 691.505783 275.673149 
L 692.89367 267.989341 
L 694.281557 275.909812 
L 695.669444 275.555947 
L 697.057331 276.004961 
L 698.445218 276.663831 
L 699.833105 276.557383 
L 701.220992 271.902119 
L 702.608879 275.204653 
L 703.996767 277.901736 
L 705.384654 275.923839 
L 706.772541 275.877628 
L 708.160428 275.462825 
L 709.548315 276.944991 
L 710.936202 276.083277 
L 712.324089 275.818872 
L 713.711976 276.643181 
L 715.099863 278.645858 
L 716.48775 275.680474 
L 717.875637 275.585325 
L 720.651412 275.089478 
L 722.039299 275.673149 
L 723.427186 277.681164 
L 724.815073 279.126822 
L 726.20296 276.776435 
L 727.590847 272.879008 
L 728.978734 270.773195 
L 730.366621 270.852057 
L 731.754508 277.197434 
L 735.918169 276.013299 
L 737.306056 275.110518 
L 738.693944 275.997168 
L 740.081831 276.412985 
L 741.469718 274.602825 
L 742.857605 275.639874 
L 744.245492 274.930585 
L 745.633379 276.293757 
L 747.021266 276.626972 
L 748.409153 275.751153 
L 749.79704 263.980245 
L 751.184927 273.398312 
L 752.572814 275.80352 
L 753.960701 275.066957 
L 755.348588 277.095311 
L 756.736476 276.002935 
L 758.124363 276.556526 
L 759.51225 271.624544 
L 760.900137 268.104283 
L 762.288024 276.829114 
L 763.675911 276.368567 
L 765.063798 275.474747 
L 766.451685 277.381225 
L 767.839572 276.341215 
L 769.227459 277.212513 
L 770.615346 276.501977 
L 772.003233 275.557116 
L 773.391121 276.466599 
L 774.779008 271.902119 
L 776.166895 276.420232 
L 777.554782 277.403083 
L 778.942669 276.69095 
L 780.330556 276.312771 
L 781.718443 274.930585 
L 783.10633 276.219805 
L 784.494217 276.911872 
L 787.269991 272.795705 
L 788.657878 275.621483 
L 790.045765 275.032825 
L 791.433653 275.245175 
L 792.82154 276.254872 
L 794.209427 277.509843 
L 795.597314 276.074316 
L 796.985201 276.233598 
L 798.373088 275.44607 
L 799.760975 276.00761 
L 801.148862 276.234065 
L 802.536749 277.06718 
L 805.312523 276.176945 
L 806.70041 274.606644 
L 809.476185 276.005428 
L 810.864072 276.378541 
L 812.251959 275.995999 
L 813.639846 274.880244 
L 815.027733 276.944991 
L 816.41562 276.328201 
L 817.803507 276.361164 
L 819.191394 276.067068 
L 820.579281 273.301059 
L 821.967168 276.504705 
L 823.355055 268.763153 
L 824.742942 276.063172 
L 826.130829 276.36958 
L 827.518717 269.58941 
L 828.906604 269.234454 
L 830.294491 276.244274 
L 831.682378 275.919865 
L 833.070265 275.930307 
L 834.458152 275.339856 
L 835.846039 275.089478 
L 837.233926 275.792377 
L 838.621813 273.831585 
L 840.0097 276.130968 
L 841.397587 275.790428 
L 842.785474 275.711567 
L 844.173362 276.886546 
L 845.561249 277.113702 
L 846.949136 274.890141 
L 848.337023 275.066957 
L 849.72491 261.941994 
L 851.112797 276.284484 
L 852.500684 275.353182 
L 853.888571 278.081045 
L 855.276458 276.314408 
L 856.664345 276.331006 
L 858.052232 275.812638 
L 859.440119 274.246934 
L 860.828006 272.879008 
L 862.215894 276.148424 
L 863.603781 275.711567 
L 864.991668 277.344989 
L 866.379555 276.495198 
L 867.767442 276.409868 
L 869.155329 275.960231 
L 870.543216 275.75427 
L 871.931103 275.741257 
L 873.31899 276.687131 
L 874.706877 276.731783 
L 876.094764 277.263088 
L 877.482651 275.835938 
L 878.870538 275.982752 
L 880.258426 275.338999 
L 881.646313 275.966933 
L 883.0342 277.475944 
L 884.422087 276.809009 
L 885.809974 269.58941 
L 887.197861 276.752823 
L 888.585748 276.69017 
L 889.973635 277.226852 
L 891.361522 277.09009 
L 892.749409 272.403188 
L 894.137296 277.618083 
L 895.525183 275.802897 
L 896.913071 275.734399 
L 898.300958 269.04665 
L 899.688845 276.225883 
L 901.076732 276.03995 
L 902.464619 276.311057 
L 903.852506 273.650171 
L 905.240393 276.43574 
L 906.62828 275.738218 
L 908.016167 278.321293 
L 909.404054 276.488886 
L 910.791941 275.05706 
L 912.179828 277.186564 
L 913.567715 273.552217 
L 914.955603 274.166202 
L 916.34349 271.857779 
L 917.731377 277.691022 
L 919.119264 275.830015 
L 920.507151 276.54211 
L 921.895038 273.195703 
L 923.282925 276.623309 
L 924.670812 275.805157 
L 926.058699 277.60768 
L 927.446586 277.531078 
L 928.834473 275.177223 
L 930.22236 273.561413 
L 931.610247 285.778374 
L 932.998135 285.778374 
L 934.386022 270.607211 
L 935.773909 272.637591 
L 938.549683 275.579169 
L 939.93757 275.585325 
L 941.325457 269.675051 
L 942.713344 276.629543 
L 944.101231 274.630178 
L 945.489118 276.424284 
L 946.877005 276.170867 
L 948.264892 274.701948 
L 949.65278 276.892234 
L 951.040667 275.832665 
L 952.428554 276.781189 
L 953.816441 276.122552 
L 955.204328 276.131046 
L 957.980102 277.910659 
L 959.367989 275.341649 
L 960.755876 275.13 
L 962.143763 274.392579 
L 963.53165 282.521232 
L 964.919537 276.890364 
L 966.307424 274.082898 
L 967.695312 276.69243 
L 969.083199 278.232691 
L 970.471086 274.081885 
L 971.858973 276.016416 
L 973.24686 307.300097 
L 974.634747 276.113902 
L 976.022634 275.990388 
L 977.410521 279.088794 
L 978.798408 276.33763 
L 980.186295 273.308307 
L 981.574182 275.11457 
L 982.962069 275.880434 
L 984.349956 275.722087 
L 988.513618 275.50436 
L 989.901505 275.092439 
L 991.289392 277.446995 
L 992.677279 275.498593 
L 994.065166 268.719124 
L 995.453053 275.437187 
L 996.84094 276.150917 
L 998.228827 270.395951 
L 999.616714 276.169776 
L 1001.004601 274.749717 
L 1002.392488 274.045805 
L 1003.780376 272.831395 
L 1005.168263 277.250892 
L 1006.55615 275.311413 
L 1007.944037 277.12695 
L 1009.331924 275.775233 
L 1010.719811 271.945836 
L 1012.107698 262.395059 
L 1013.495585 275.292399 
L 1014.883472 275.279463 
L 1016.271359 276.87774 
L 1017.659246 277.44454 
L 1019.047133 275.539271 
L 1020.435021 268.719124 
L 1021.822908 274.470194 
L 1023.210795 275.917605 
L 1024.598682 281.360435 
L 1025.986569 275.208783 
L 1027.374456 275.736893 
L 1030.15023 271.411181 
L 1031.538117 262.69274 
L 1032.926004 286.57233 
L 1034.313891 276.176166 
L 1035.701778 279.161071 
L 1037.089665 274.960353 
L 1038.477553 271.820296 
L 1039.86544 275.181665 
L 1041.253327 258.869499 
L 1042.641214 275.00633 
L 1044.029101 274.316834 
L 1045.416988 276.117799 
L 1046.804875 279.76851 
L 1048.192762 275.521425 
L 1049.580649 274.380968 
L 1050.968536 271.332786 
L 1052.356423 275.773363 
L 1053.74431 275.771414 
L 1055.132197 292.361506 
L 1056.520085 279.307378 
L 1057.907972 270.788079 
L 1059.295859 273.419508 
L 1060.683746 275.63777 
L 1062.071633 271.176388 
L 1063.45952 268.719124 
L 1064.847407 276.201959 
L 1066.235294 275.642913 
L 1067.623181 287.921008 
L 1069.011068 274.337874 
L 1070.398955 269.603203 
L 1071.786842 273.362154 
L 1073.17473 276.177568 
L 1075.950504 276.015325 
L 1078.726278 278.667405 
L 1080.114165 273.981594 
L 1081.502052 274.969626 
L 1082.889939 273.515202 
L 1084.277826 245.704559 
L 1085.665713 286.616047 
L 1087.0536 276.042132 
L 1088.441487 276.400673 
L 1089.829374 275.468747 
L 1091.217262 275.215719 
L 1092.605149 275.719593 
L 1093.993036 275.106388 
L 1095.380923 274.268598 
L 1096.76881 271.627505 
L 1098.156697 274.163085 
L 1099.544584 259.457612 
L 1100.932471 274.309509 
L 1102.320358 275.825963 
L 1103.708245 273.732774 
L 1105.096132 274.016583 
L 1106.484019 272.893425 
L 1107.871906 272.124756 
L 1109.259794 274.016583 
L 1110.647681 276.299446 
L 1112.035568 279.46253 
L 1113.423455 274.374266 
L 1114.811342 276.513355 
L 1116.199229 271.216442 
L 1117.587116 275.923449 
L 1118.975003 240.493132 
L 1120.36289 271.416246 
L 1121.750777 273.850209 
L 1123.138664 274.988017 
L 1124.526551 277.419136 
L 1125.914439 274.537679 
L 1127.302326 275.548388 
L 1128.690213 270.261917 
L 1130.0781 280.458901 
L 1131.465987 273.643392 
L 1132.853874 274.355642 
L 1134.241761 275.938567 
L 1135.629648 273.574738 
L 1137.017535 275.086361 
L 1138.405422 267.108613 
L 1139.793309 276.227208 
L 1141.181196 276.496133 
L 1142.569083 270.230669 
L 1143.956971 276.660013 
L 1145.344858 281.394918 
L 1146.732745 278.891094 
L 1148.120632 274.08056 
L 1150.896406 273.765191 
L 1152.284293 275.464539 
L 1153.67218 275.466331 
L 1155.060067 277.912763 
L 1156.447954 273.915823 
L 1157.835841 275.409289 
L 1159.223728 272.998236 
L 1160.611615 274.454453 
L 1161.999503 271.624077 
L 1163.38739 272.153199 
L 1164.775277 273.819506 
L 1166.163164 268.236602 
L 1167.551051 275.882772 
L 1168.938938 270.506841 
L 1173.102599 273.946682 
L 1174.490486 270.757376 
L 1175.878373 272.724636 
L 1177.26626 270.876214 
L 1178.654147 270.028917 
L 1180.042035 275.775155 
L 1181.429922 278.284356 
L 1182.817809 274.206724 
L 1184.205696 273.393636 
L 1185.593583 271.820218 
L 1186.98147 274.016894 
L 1188.369357 270.687164 
L 1189.757244 269.967588 
L 1191.145131 273.013198 
L 1192.533018 268.767361 
L 1193.920905 273.254226 
L 1195.308792 271.511394 
L 1196.69668 269.205933 
L 1198.084567 272.733441 
L 1199.472454 229.936945 
L 1200.860341 274.75525 
L 1202.248228 274.069339 
L 1203.636115 272.789704 
L 1205.024002 288.080797 
L 1206.411889 276.441272 
L 1207.799776 275.055969 
L 1209.187663 301.161692 
L 1210.57555 275.643692 
L 1211.963437 258.776844 
L 1213.351324 263.805455 
L 1214.739212 240.48495 
L 1216.127099 245.911299 
L 1217.514986 271.02669 
L 1218.902873 266.500551 
L 1220.29076 264.297562 
L 1221.678647 272.637358 
L 1223.066534 273.805479 
L 1224.454421 271.088642 
L 1225.842308 272.367497 
L 1227.230195 271.974279 
L 1228.618082 277.172537 
L 1230.005969 215.901018 
L 1231.393856 274.480636 
L 1232.781744 250.740885 
L 1234.169631 251.111115 
L 1235.557518 97.631405 
L 1236.945405 107.292682 
L 1238.333292 234.069789 
L 1239.721179 232.639989 
L 1241.109066 274.914143 
L 1242.496953 101.891347 
L 1243.88484 272.936908 
L 1245.272727 186.779181 
L 1245.272727 186.779181 
" style="fill:none;stroke:#ff7f0e;stroke-linecap:square;stroke-width:1.5;"/>
   </g>
   <g id="patch_3">
    <path d="M 180 333.490909 
L 180 86.4 
" style="fill:none;stroke:#000000;stroke-linecap:square;stroke-linejoin:miter;stroke-width:0.8;"/>
   </g>
   <g id="patch_4">
    <path d="M 1296 333.490909 
L 1296 86.4 
" style="fill:none;stroke:#000000;stroke-linecap:square;stroke-linejoin:miter;stroke-width:0.8;"/>
   </g>
   <g id="patch_5">
    <path d="M 180 333.490909 
L 1296 333.490909 
" style="fill:none;stroke:#000000;stroke-linecap:square;stroke-linejoin:miter;stroke-width:0.8;"/>
   </g>
   <g id="patch_6">
    <path d="M 180 86.4 
L 1296 86.4 
" style="fill:none;stroke:#000000;stroke-linecap:square;stroke-linejoin:miter;stroke-width:0.8;"/>
   </g>
   <g id="text_16">
    <!-- Test set results at minutes 2, 3, 4, and 5 sorted by actual accuracy -->
    <defs>
     <path d="M -0.296875 72.90625 
L 61.375 72.90625 
L 61.375 64.59375 
L 35.5 64.59375 
L 35.5 0 
L 25.59375 0 
L 25.59375 64.59375 
L -0.296875 64.59375 
z
" id="DejaVuSans-84"/>
     <path d="M 56.203125 29.59375 
L 56.203125 25.203125 
L 14.890625 25.203125 
Q 15.484375 15.921875 20.484375 11.0625 
Q 25.484375 6.203125 34.421875 6.203125 
Q 39.59375 6.203125 44.453125 7.46875 
Q 49.3125 8.734375 54.109375 11.28125 
L 54.109375 2.78125 
Q 49.265625 0.734375 44.1875 -0.34375 
Q 39.109375 -1.421875 33.890625 -1.421875 
Q 20.796875 -1.421875 13.15625 6.1875 
Q 5.515625 13.8125 5.515625 26.8125 
Q 5.515625 40.234375 12.765625 48.109375 
Q 20.015625 56 32.328125 56 
Q 43.359375 56 49.78125 48.890625 
Q 56.203125 41.796875 56.203125 29.59375 
z
M 47.21875 32.234375 
Q 47.125 39.59375 43.09375 43.984375 
Q 39.0625 48.390625 32.421875 48.390625 
Q 24.90625 48.390625 20.390625 44.140625 
Q 15.875 39.890625 15.1875 32.171875 
z
" id="DejaVuSans-101"/>
     <path d="M 44.28125 53.078125 
L 44.28125 44.578125 
Q 40.484375 46.53125 36.375 47.5 
Q 32.28125 48.484375 27.875 48.484375 
Q 21.1875 48.484375 17.84375 46.4375 
Q 14.5 44.390625 14.5 40.28125 
Q 14.5 37.15625 16.890625 35.375 
Q 19.28125 33.59375 26.515625 31.984375 
L 29.59375 31.296875 
Q 39.15625 29.25 43.1875 25.515625 
Q 47.21875 21.78125 47.21875 15.09375 
Q 47.21875 7.46875 41.1875 3.015625 
Q 35.15625 -1.421875 24.609375 -1.421875 
Q 20.21875 -1.421875 15.453125 -0.5625 
Q 10.6875 0.296875 5.421875 2 
L 5.421875 11.28125 
Q 10.40625 8.6875 15.234375 7.390625 
Q 20.0625 6.109375 24.8125 6.109375 
Q 31.15625 6.109375 34.5625 8.28125 
Q 37.984375 10.453125 37.984375 14.40625 
Q 37.984375 18.0625 35.515625 20.015625 
Q 33.0625 21.96875 24.703125 23.78125 
L 21.578125 24.515625 
Q 13.234375 26.265625 9.515625 29.90625 
Q 5.8125 33.546875 5.8125 39.890625 
Q 5.8125 47.609375 11.28125 51.796875 
Q 16.75 56 26.8125 56 
Q 31.78125 56 36.171875 55.265625 
Q 40.578125 54.546875 44.28125 53.078125 
z
" id="DejaVuSans-115"/>
     <path d="M 18.3125 70.21875 
L 18.3125 54.6875 
L 36.8125 54.6875 
L 36.8125 47.703125 
L 18.3125 47.703125 
L 18.3125 18.015625 
Q 18.3125 11.328125 20.140625 9.421875 
Q 21.96875 7.515625 27.59375 7.515625 
L 36.8125 7.515625 
L 36.8125 0 
L 27.59375 0 
Q 17.1875 0 13.234375 3.875 
Q 9.28125 7.765625 9.28125 18.015625 
L 9.28125 47.703125 
L 2.6875 47.703125 
L 2.6875 54.6875 
L 9.28125 54.6875 
L 9.28125 70.21875 
z
" id="DejaVuSans-116"/>
     <path id="DejaVuSans-32"/>
     <path d="M 41.109375 46.296875 
Q 39.59375 47.171875 37.8125 47.578125 
Q 36.03125 48 33.890625 48 
Q 26.265625 48 22.1875 43.046875 
Q 18.109375 38.09375 18.109375 28.8125 
L 18.109375 0 
L 9.078125 0 
L 9.078125 54.6875 
L 18.109375 54.6875 
L 18.109375 46.1875 
Q 20.953125 51.171875 25.484375 53.578125 
Q 30.03125 56 36.53125 56 
Q 37.453125 56 38.578125 55.875 
Q 39.703125 55.765625 41.0625 55.515625 
z
" id="DejaVuSans-114"/>
     <path d="M 8.5 21.578125 
L 8.5 54.6875 
L 17.484375 54.6875 
L 17.484375 21.921875 
Q 17.484375 14.15625 20.5 10.265625 
Q 23.53125 6.390625 29.59375 6.390625 
Q 36.859375 6.390625 41.078125 11.03125 
Q 45.3125 15.671875 45.3125 23.6875 
L 45.3125 54.6875 
L 54.296875 54.6875 
L 54.296875 0 
L 45.3125 0 
L 45.3125 8.40625 
Q 42.046875 3.421875 37.71875 1 
Q 33.40625 -1.421875 27.6875 -1.421875 
Q 18.265625 -1.421875 13.375 4.4375 
Q 8.5 10.296875 8.5 21.578125 
z
M 31.109375 56 
z
" id="DejaVuSans-117"/>
     <path d="M 9.421875 75.984375 
L 18.40625 75.984375 
L 18.40625 0 
L 9.421875 0 
z
" id="DejaVuSans-108"/>
     <path d="M 34.28125 27.484375 
Q 23.390625 27.484375 19.1875 25 
Q 14.984375 22.515625 14.984375 16.5 
Q 14.984375 11.71875 18.140625 8.90625 
Q 21.296875 6.109375 26.703125 6.109375 
Q 34.1875 6.109375 38.703125 11.40625 
Q 43.21875 16.703125 43.21875 25.484375 
L 43.21875 27.484375 
z
M 52.203125 31.203125 
L 52.203125 0 
L 43.21875 0 
L 43.21875 8.296875 
Q 40.140625 3.328125 35.546875 0.953125 
Q 30.953125 -1.421875 24.3125 -1.421875 
Q 15.921875 -1.421875 10.953125 3.296875 
Q 6 8.015625 6 15.921875 
Q 6 25.140625 12.171875 29.828125 
Q 18.359375 34.515625 30.609375 34.515625 
L 43.21875 34.515625 
L 43.21875 35.40625 
Q 43.21875 41.609375 39.140625 45 
Q 35.0625 48.390625 27.6875 48.390625 
Q 23 48.390625 18.546875 47.265625 
Q 14.109375 46.140625 10.015625 43.890625 
L 10.015625 52.203125 
Q 14.9375 54.109375 19.578125 55.046875 
Q 24.21875 56 28.609375 56 
Q 40.484375 56 46.34375 49.84375 
Q 52.203125 43.703125 52.203125 31.203125 
z
" id="DejaVuSans-97"/>
     <path d="M 52 44.1875 
Q 55.375 50.25 60.0625 53.125 
Q 64.75 56 71.09375 56 
Q 79.640625 56 84.28125 50.015625 
Q 88.921875 44.046875 88.921875 33.015625 
L 88.921875 0 
L 79.890625 0 
L 79.890625 32.71875 
Q 79.890625 40.578125 77.09375 44.375 
Q 74.3125 48.1875 68.609375 48.1875 
Q 61.625 48.1875 57.5625 43.546875 
Q 53.515625 38.921875 53.515625 30.90625 
L 53.515625 0 
L 44.484375 0 
L 44.484375 32.71875 
Q 44.484375 40.625 41.703125 44.40625 
Q 38.921875 48.1875 33.109375 48.1875 
Q 26.21875 48.1875 22.15625 43.53125 
Q 18.109375 38.875 18.109375 30.90625 
L 18.109375 0 
L 9.078125 0 
L 9.078125 54.6875 
L 18.109375 54.6875 
L 18.109375 46.1875 
Q 21.1875 51.21875 25.484375 53.609375 
Q 29.78125 56 35.6875 56 
Q 41.65625 56 45.828125 52.96875 
Q 50 49.953125 52 44.1875 
z
" id="DejaVuSans-109"/>
     <path d="M 9.421875 54.6875 
L 18.40625 54.6875 
L 18.40625 0 
L 9.421875 0 
z
M 9.421875 75.984375 
L 18.40625 75.984375 
L 18.40625 64.59375 
L 9.421875 64.59375 
z
" id="DejaVuSans-105"/>
     <path d="M 54.890625 33.015625 
L 54.890625 0 
L 45.90625 0 
L 45.90625 32.71875 
Q 45.90625 40.484375 42.875 44.328125 
Q 39.84375 48.1875 33.796875 48.1875 
Q 26.515625 48.1875 22.3125 43.546875 
Q 18.109375 38.921875 18.109375 30.90625 
L 18.109375 0 
L 9.078125 0 
L 9.078125 54.6875 
L 18.109375 54.6875 
L 18.109375 46.1875 
Q 21.34375 51.125 25.703125 53.5625 
Q 30.078125 56 35.796875 56 
Q 45.21875 56 50.046875 50.171875 
Q 54.890625 44.34375 54.890625 33.015625 
z
" id="DejaVuSans-110"/>
     <path d="M 11.71875 12.40625 
L 22.015625 12.40625 
L 22.015625 4 
L 14.015625 -11.625 
L 7.71875 -11.625 
L 11.71875 4 
z
" id="DejaVuSans-44"/>
     <path d="M 45.40625 46.390625 
L 45.40625 75.984375 
L 54.390625 75.984375 
L 54.390625 0 
L 45.40625 0 
L 45.40625 8.203125 
Q 42.578125 3.328125 38.25 0.953125 
Q 33.9375 -1.421875 27.875 -1.421875 
Q 17.96875 -1.421875 11.734375 6.484375 
Q 5.515625 14.40625 5.515625 27.296875 
Q 5.515625 40.1875 11.734375 48.09375 
Q 17.96875 56 27.875 56 
Q 33.9375 56 38.25 53.625 
Q 42.578125 51.265625 45.40625 46.390625 
z
M 14.796875 27.296875 
Q 14.796875 17.390625 18.875 11.75 
Q 22.953125 6.109375 30.078125 6.109375 
Q 37.203125 6.109375 41.296875 11.75 
Q 45.40625 17.390625 45.40625 27.296875 
Q 45.40625 37.203125 41.296875 42.84375 
Q 37.203125 48.484375 30.078125 48.484375 
Q 22.953125 48.484375 18.875 42.84375 
Q 14.796875 37.203125 14.796875 27.296875 
z
" id="DejaVuSans-100"/>
     <path d="M 30.609375 48.390625 
Q 23.390625 48.390625 19.1875 42.75 
Q 14.984375 37.109375 14.984375 27.296875 
Q 14.984375 17.484375 19.15625 11.84375 
Q 23.34375 6.203125 30.609375 6.203125 
Q 37.796875 6.203125 41.984375 11.859375 
Q 46.1875 17.53125 46.1875 27.296875 
Q 46.1875 37.015625 41.984375 42.703125 
Q 37.796875 48.390625 30.609375 48.390625 
z
M 30.609375 56 
Q 42.328125 56 49.015625 48.375 
Q 55.71875 40.765625 55.71875 27.296875 
Q 55.71875 13.875 49.015625 6.21875 
Q 42.328125 -1.421875 30.609375 -1.421875 
Q 18.84375 -1.421875 12.171875 6.21875 
Q 5.515625 13.875 5.515625 27.296875 
Q 5.515625 40.765625 12.171875 48.375 
Q 18.84375 56 30.609375 56 
z
" id="DejaVuSans-111"/>
     <path d="M 48.6875 27.296875 
Q 48.6875 37.203125 44.609375 42.84375 
Q 40.53125 48.484375 33.40625 48.484375 
Q 26.265625 48.484375 22.1875 42.84375 
Q 18.109375 37.203125 18.109375 27.296875 
Q 18.109375 17.390625 22.1875 11.75 
Q 26.265625 6.109375 33.40625 6.109375 
Q 40.53125 6.109375 44.609375 11.75 
Q 48.6875 17.390625 48.6875 27.296875 
z
M 18.109375 46.390625 
Q 20.953125 51.265625 25.265625 53.625 
Q 29.59375 56 35.59375 56 
Q 45.5625 56 51.78125 48.09375 
Q 58.015625 40.1875 58.015625 27.296875 
Q 58.015625 14.40625 51.78125 6.484375 
Q 45.5625 -1.421875 35.59375 -1.421875 
Q 29.59375 -1.421875 25.265625 0.953125 
Q 20.953125 3.328125 18.109375 8.203125 
L 18.109375 0 
L 9.078125 0 
L 9.078125 75.984375 
L 18.109375 75.984375 
z
" id="DejaVuSans-98"/>
     <path d="M 32.171875 -5.078125 
Q 28.375 -14.84375 24.75 -17.8125 
Q 21.140625 -20.796875 15.09375 -20.796875 
L 7.90625 -20.796875 
L 7.90625 -13.28125 
L 13.1875 -13.28125 
Q 16.890625 -13.28125 18.9375 -11.515625 
Q 21 -9.765625 23.484375 -3.21875 
L 25.09375 0.875 
L 2.984375 54.6875 
L 12.5 54.6875 
L 29.59375 11.921875 
L 46.6875 54.6875 
L 56.203125 54.6875 
z
" id="DejaVuSans-121"/>
     <path d="M 48.78125 52.59375 
L 48.78125 44.1875 
Q 44.96875 46.296875 41.140625 47.34375 
Q 37.3125 48.390625 33.40625 48.390625 
Q 24.65625 48.390625 19.8125 42.84375 
Q 14.984375 37.3125 14.984375 27.296875 
Q 14.984375 17.28125 19.8125 11.734375 
Q 24.65625 6.203125 33.40625 6.203125 
Q 37.3125 6.203125 41.140625 7.25 
Q 44.96875 8.296875 48.78125 10.40625 
L 48.78125 2.09375 
Q 45.015625 0.34375 40.984375 -0.53125 
Q 36.96875 -1.421875 32.421875 -1.421875 
Q 20.0625 -1.421875 12.78125 6.34375 
Q 5.515625 14.109375 5.515625 27.296875 
Q 5.515625 40.671875 12.859375 48.328125 
Q 20.21875 56 33.015625 56 
Q 37.15625 56 41.109375 55.140625 
Q 45.0625 54.296875 48.78125 52.59375 
z
" id="DejaVuSans-99"/>
    </defs>
    <g transform="translate(537.51375 80.4)scale(0.12 -0.12)">
     <use xlink:href="#DejaVuSans-84"/>
     <use x="44.083984" xlink:href="#DejaVuSans-101"/>
     <use x="105.607422" xlink:href="#DejaVuSans-115"/>
     <use x="157.707031" xlink:href="#DejaVuSans-116"/>
     <use x="196.916016" xlink:href="#DejaVuSans-32"/>
     <use x="228.703125" xlink:href="#DejaVuSans-115"/>
     <use x="280.802734" xlink:href="#DejaVuSans-101"/>
     <use x="342.326172" xlink:href="#DejaVuSans-116"/>
     <use x="381.535156" xlink:href="#DejaVuSans-32"/>
     <use x="413.322266" xlink:href="#DejaVuSans-114"/>
     <use x="452.185547" xlink:href="#DejaVuSans-101"/>
     <use x="513.708984" xlink:href="#DejaVuSans-115"/>
     <use x="565.808594" xlink:href="#DejaVuSans-117"/>
     <use x="629.1875" xlink:href="#DejaVuSans-108"/>
     <use x="656.970703" xlink:href="#DejaVuSans-116"/>
     <use x="696.179688" xlink:href="#DejaVuSans-115"/>
     <use x="748.279297" xlink:href="#DejaVuSans-32"/>
     <use x="780.066406" xlink:href="#DejaVuSans-97"/>
     <use x="841.345703" xlink:href="#DejaVuSans-116"/>
     <use x="880.554688" xlink:href="#DejaVuSans-32"/>
     <use x="912.341797" xlink:href="#DejaVuSans-109"/>
     <use x="1009.753906" xlink:href="#DejaVuSans-105"/>
     <use x="1037.537109" xlink:href="#DejaVuSans-110"/>
     <use x="1100.916016" xlink:href="#DejaVuSans-117"/>
     <use x="1164.294922" xlink:href="#DejaVuSans-116"/>
     <use x="1203.503906" xlink:href="#DejaVuSans-101"/>
     <use x="1265.027344" xlink:href="#DejaVuSans-115"/>
     <use x="1317.126953" xlink:href="#DejaVuSans-32"/>
     <use x="1348.914062" xlink:href="#DejaVuSans-50"/>
     <use x="1412.537109" xlink:href="#DejaVuSans-44"/>
     <use x="1444.324219" xlink:href="#DejaVuSans-32"/>
     <use x="1476.111328" xlink:href="#DejaVuSans-51"/>
     <use x="1539.734375" xlink:href="#DejaVuSans-44"/>
     <use x="1571.521484" xlink:href="#DejaVuSans-32"/>
     <use x="1603.308594" xlink:href="#DejaVuSans-52"/>
     <use x="1666.931641" xlink:href="#DejaVuSans-44"/>
     <use x="1698.71875" xlink:href="#DejaVuSans-32"/>
     <use x="1730.505859" xlink:href="#DejaVuSans-97"/>
     <use x="1791.785156" xlink:href="#DejaVuSans-110"/>
     <use x="1855.164062" xlink:href="#DejaVuSans-100"/>
     <use x="1918.640625" xlink:href="#DejaVuSans-32"/>
     <use x="1950.427734" xlink:href="#DejaVuSans-53"/>
     <use x="2014.050781" xlink:href="#DejaVuSans-32"/>
     <use x="2045.837891" xlink:href="#DejaVuSans-115"/>
     <use x="2097.9375" xlink:href="#DejaVuSans-111"/>
     <use x="2159.119141" xlink:href="#DejaVuSans-114"/>
     <use x="2200.232422" xlink:href="#DejaVuSans-116"/>
     <use x="2239.441406" xlink:href="#DejaVuSans-101"/>
     <use x="2300.964844" xlink:href="#DejaVuSans-100"/>
     <use x="2364.441406" xlink:href="#DejaVuSans-32"/>
     <use x="2396.228516" xlink:href="#DejaVuSans-98"/>
     <use x="2459.705078" xlink:href="#DejaVuSans-121"/>
     <use x="2518.884766" xlink:href="#DejaVuSans-32"/>
     <use x="2550.671875" xlink:href="#DejaVuSans-97"/>
     <use x="2611.951172" xlink:href="#DejaVuSans-99"/>
     <use x="2666.931641" xlink:href="#DejaVuSans-116"/>
     <use x="2706.140625" xlink:href="#DejaVuSans-117"/>
     <use x="2769.519531" xlink:href="#DejaVuSans-97"/>
     <use x="2830.798828" xlink:href="#DejaVuSans-108"/>
     <use x="2858.582031" xlink:href="#DejaVuSans-32"/>
     <use x="2890.369141" xlink:href="#DejaVuSans-97"/>
     <use x="2951.648438" xlink:href="#DejaVuSans-99"/>
     <use x="3006.628906" xlink:href="#DejaVuSans-99"/>
     <use x="3061.609375" xlink:href="#DejaVuSans-117"/>
     <use x="3124.988281" xlink:href="#DejaVuSans-114"/>
     <use x="3166.101562" xlink:href="#DejaVuSans-97"/>
     <use x="3227.380859" xlink:href="#DejaVuSans-99"/>
     <use x="3282.361328" xlink:href="#DejaVuSans-121"/>
    </g>
   </g>
   <g id="legend_1">
    <g id="patch_7">
     <path d="M 187 123.75625 
L 314.2375 123.75625 
Q 316.2375 123.75625 316.2375 121.75625 
L 316.2375 93.4 
Q 316.2375 91.4 314.2375 91.4 
L 187 91.4 
Q 185 91.4 185 93.4 
L 185 121.75625 
Q 185 123.75625 187 123.75625 
z
" style="fill:#ffffff;opacity:0.8;stroke:#cccccc;stroke-linejoin:miter;"/>
    </g>
    <g id="line2d_18">
     <path d="M 189 99.498437 
L 209 99.498437 
" style="fill:none;stroke:#1f77b4;stroke-linecap:square;stroke-width:1.5;"/>
    </g>
    <g id="line2d_19"/>
    <g id="text_17">
     <!-- Actual accuracy -->
     <defs>
      <path d="M 34.1875 63.1875 
L 20.796875 26.90625 
L 47.609375 26.90625 
z
M 28.609375 72.90625 
L 39.796875 72.90625 
L 67.578125 0 
L 57.328125 0 
L 50.6875 18.703125 
L 17.828125 18.703125 
L 11.1875 0 
L 0.78125 0 
z
" id="DejaVuSans-65"/>
     </defs>
     <g transform="translate(217 102.998437)scale(0.1 -0.1)">
      <use xlink:href="#DejaVuSans-65"/>
      <use x="66.658203" xlink:href="#DejaVuSans-99"/>
      <use x="121.638672" xlink:href="#DejaVuSans-116"/>
      <use x="160.847656" xlink:href="#DejaVuSans-117"/>
      <use x="224.226562" xlink:href="#DejaVuSans-97"/>
      <use x="285.505859" xlink:href="#DejaVuSans-108"/>
      <use x="313.289062" xlink:href="#DejaVuSans-32"/>
      <use x="345.076172" xlink:href="#DejaVuSans-97"/>
      <use x="406.355469" xlink:href="#DejaVuSans-99"/>
      <use x="461.335938" xlink:href="#DejaVuSans-99"/>
      <use x="516.316406" xlink:href="#DejaVuSans-117"/>
      <use x="579.695312" xlink:href="#DejaVuSans-114"/>
      <use x="620.808594" xlink:href="#DejaVuSans-97"/>
      <use x="682.087891" xlink:href="#DejaVuSans-99"/>
      <use x="737.068359" xlink:href="#DejaVuSans-121"/>
     </g>
    </g>
    <g id="line2d_20">
     <path d="M 189 114.176562 
L 209 114.176562 
" style="fill:none;stroke:#ff7f0e;stroke-linecap:square;stroke-width:1.5;"/>
    </g>
    <g id="line2d_21"/>
    <g id="text_18">
     <!-- Predicted accuracy -->
     <defs>
      <path d="M 19.671875 64.796875 
L 19.671875 37.40625 
L 32.078125 37.40625 
Q 38.96875 37.40625 42.71875 40.96875 
Q 46.484375 44.53125 46.484375 51.125 
Q 46.484375 57.671875 42.71875 61.234375 
Q 38.96875 64.796875 32.078125 64.796875 
z
M 9.8125 72.90625 
L 32.078125 72.90625 
Q 44.34375 72.90625 50.609375 67.359375 
Q 56.890625 61.8125 56.890625 51.125 
Q 56.890625 40.328125 50.609375 34.8125 
Q 44.34375 29.296875 32.078125 29.296875 
L 19.671875 29.296875 
L 19.671875 0 
L 9.8125 0 
z
" id="DejaVuSans-80"/>
     </defs>
     <g transform="translate(217 117.676562)scale(0.1 -0.1)">
      <use xlink:href="#DejaVuSans-80"/>
      <use x="58.552734" xlink:href="#DejaVuSans-114"/>
      <use x="97.416016" xlink:href="#DejaVuSans-101"/>
      <use x="158.939453" xlink:href="#DejaVuSans-100"/>
      <use x="222.416016" xlink:href="#DejaVuSans-105"/>
      <use x="250.199219" xlink:href="#DejaVuSans-99"/>
      <use x="305.179688" xlink:href="#DejaVuSans-116"/>
      <use x="344.388672" xlink:href="#DejaVuSans-101"/>
      <use x="405.912109" xlink:href="#DejaVuSans-100"/>
      <use x="469.388672" xlink:href="#DejaVuSans-32"/>
      <use x="501.175781" xlink:href="#DejaVuSans-97"/>
      <use x="562.455078" xlink:href="#DejaVuSans-99"/>
      <use x="617.435547" xlink:href="#DejaVuSans-99"/>
      <use x="672.416016" xlink:href="#DejaVuSans-117"/>
      <use x="735.794922" xlink:href="#DejaVuSans-114"/>
      <use x="776.908203" xlink:href="#DejaVuSans-97"/>
      <use x="838.1875" xlink:href="#DejaVuSans-99"/>
      <use x="893.167969" xlink:href="#DejaVuSans-121"/>
     </g>
    </g>
   </g>
  </g>
  <g id="axes_2">
   <g id="patch_8">
    <path d="M 180 630 
L 1296 630 
L 1296 382.909091 
L 180 382.909091 
z
" style="fill:#ffffff;"/>
   </g>
   <g id="matplotlib.axis_3">
    <g id="xtick_9">
     <g id="line2d_22">
      <g>
       <use style="stroke:#000000;stroke-width:0.8;" x="230.727273" xlink:href="#m231a94b946" y="630"/>
      </g>
     </g>
     <g id="text_19">
      <!-- 0 -->
      <g transform="translate(227.546023 644.598437)scale(0.1 -0.1)">
       <use xlink:href="#DejaVuSans-48"/>
      </g>
     </g>
    </g>
    <g id="xtick_10">
     <g id="line2d_23">
      <g>
       <use style="stroke:#000000;stroke-width:0.8;" x="369.515981" xlink:href="#m231a94b946" y="630"/>
      </g>
     </g>
     <g id="text_20">
      <!-- 100 -->
      <g transform="translate(359.972231 644.598437)scale(0.1 -0.1)">
       <use xlink:href="#DejaVuSans-49"/>
       <use x="63.623047" xlink:href="#DejaVuSans-48"/>
       <use x="127.246094" xlink:href="#DejaVuSans-48"/>
      </g>
     </g>
    </g>
    <g id="xtick_11">
     <g id="line2d_24">
      <g>
       <use style="stroke:#000000;stroke-width:0.8;" x="508.304688" xlink:href="#m231a94b946" y="630"/>
      </g>
     </g>
     <g id="text_21">
      <!-- 200 -->
      <g transform="translate(498.760938 644.598437)scale(0.1 -0.1)">
       <use xlink:href="#DejaVuSans-50"/>
       <use x="63.623047" xlink:href="#DejaVuSans-48"/>
       <use x="127.246094" xlink:href="#DejaVuSans-48"/>
      </g>
     </g>
    </g>
    <g id="xtick_12">
     <g id="line2d_25">
      <g>
       <use style="stroke:#000000;stroke-width:0.8;" x="647.093396" xlink:href="#m231a94b946" y="630"/>
      </g>
     </g>
     <g id="text_22">
      <!-- 300 -->
      <g transform="translate(637.549646 644.598437)scale(0.1 -0.1)">
       <use xlink:href="#DejaVuSans-51"/>
       <use x="63.623047" xlink:href="#DejaVuSans-48"/>
       <use x="127.246094" xlink:href="#DejaVuSans-48"/>
      </g>
     </g>
    </g>
    <g id="xtick_13">
     <g id="line2d_26">
      <g>
       <use style="stroke:#000000;stroke-width:0.8;" x="785.882104" xlink:href="#m231a94b946" y="630"/>
      </g>
     </g>
     <g id="text_23">
      <!-- 400 -->
      <g transform="translate(776.338354 644.598437)scale(0.1 -0.1)">
       <use xlink:href="#DejaVuSans-52"/>
       <use x="63.623047" xlink:href="#DejaVuSans-48"/>
       <use x="127.246094" xlink:href="#DejaVuSans-48"/>
      </g>
     </g>
    </g>
    <g id="xtick_14">
     <g id="line2d_27">
      <g>
       <use style="stroke:#000000;stroke-width:0.8;" x="924.670812" xlink:href="#m231a94b946" y="630"/>
      </g>
     </g>
     <g id="text_24">
      <!-- 500 -->
      <g transform="translate(915.127062 644.598437)scale(0.1 -0.1)">
       <use xlink:href="#DejaVuSans-53"/>
       <use x="63.623047" xlink:href="#DejaVuSans-48"/>
       <use x="127.246094" xlink:href="#DejaVuSans-48"/>
      </g>
     </g>
    </g>
    <g id="xtick_15">
     <g id="line2d_28">
      <g>
       <use style="stroke:#000000;stroke-width:0.8;" x="1063.45952" xlink:href="#m231a94b946" y="630"/>
      </g>
     </g>
     <g id="text_25">
      <!-- 600 -->
      <g transform="translate(1053.91577 644.598437)scale(0.1 -0.1)">
       <use xlink:href="#DejaVuSans-54"/>
       <use x="63.623047" xlink:href="#DejaVuSans-48"/>
       <use x="127.246094" xlink:href="#DejaVuSans-48"/>
      </g>
     </g>
    </g>
    <g id="xtick_16">
     <g id="line2d_29">
      <g>
       <use style="stroke:#000000;stroke-width:0.8;" x="1202.248228" xlink:href="#m231a94b946" y="630"/>
      </g>
     </g>
     <g id="text_26">
      <!-- 700 -->
      <g transform="translate(1192.704478 644.598437)scale(0.1 -0.1)">
       <use xlink:href="#DejaVuSans-55"/>
       <use x="63.623047" xlink:href="#DejaVuSans-48"/>
       <use x="127.246094" xlink:href="#DejaVuSans-48"/>
      </g>
     </g>
    </g>
   </g>
   <g id="matplotlib.axis_4">
    <g id="ytick_8">
     <g id="line2d_30">
      <g>
       <use style="stroke:#000000;stroke-width:0.8;" x="180" xlink:href="#m7eeb9a70b3" y="606.291341"/>
      </g>
     </g>
     <g id="text_27">
      <!-- 0.475 -->
      <g transform="translate(144.371875 610.090559)scale(0.1 -0.1)">
       <use xlink:href="#DejaVuSans-48"/>
       <use x="63.623047" xlink:href="#DejaVuSans-46"/>
       <use x="95.410156" xlink:href="#DejaVuSans-52"/>
       <use x="159.033203" xlink:href="#DejaVuSans-55"/>
       <use x="222.65625" xlink:href="#DejaVuSans-53"/>
      </g>
     </g>
    </g>
    <g id="ytick_9">
     <g id="line2d_31">
      <g>
       <use style="stroke:#000000;stroke-width:0.8;" x="180" xlink:href="#m7eeb9a70b3" y="573.606506"/>
      </g>
     </g>
     <g id="text_28">
      <!-- 0.500 -->
      <g transform="translate(144.371875 577.405725)scale(0.1 -0.1)">
       <use xlink:href="#DejaVuSans-48"/>
       <use x="63.623047" xlink:href="#DejaVuSans-46"/>
       <use x="95.410156" xlink:href="#DejaVuSans-53"/>
       <use x="159.033203" xlink:href="#DejaVuSans-48"/>
       <use x="222.65625" xlink:href="#DejaVuSans-48"/>
      </g>
     </g>
    </g>
    <g id="ytick_10">
     <g id="line2d_32">
      <g>
       <use style="stroke:#000000;stroke-width:0.8;" x="180" xlink:href="#m7eeb9a70b3" y="540.921672"/>
      </g>
     </g>
     <g id="text_29">
      <!-- 0.525 -->
      <g transform="translate(144.371875 544.720891)scale(0.1 -0.1)">
       <use xlink:href="#DejaVuSans-48"/>
       <use x="63.623047" xlink:href="#DejaVuSans-46"/>
       <use x="95.410156" xlink:href="#DejaVuSans-53"/>
       <use x="159.033203" xlink:href="#DejaVuSans-50"/>
       <use x="222.65625" xlink:href="#DejaVuSans-53"/>
      </g>
     </g>
    </g>
    <g id="ytick_11">
     <g id="line2d_33">
      <g>
       <use style="stroke:#000000;stroke-width:0.8;" x="180" xlink:href="#m7eeb9a70b3" y="508.236837"/>
      </g>
     </g>
     <g id="text_30">
      <!-- 0.550 -->
      <g transform="translate(144.371875 512.036056)scale(0.1 -0.1)">
       <use xlink:href="#DejaVuSans-48"/>
       <use x="63.623047" xlink:href="#DejaVuSans-46"/>
       <use x="95.410156" xlink:href="#DejaVuSans-53"/>
       <use x="159.033203" xlink:href="#DejaVuSans-53"/>
       <use x="222.65625" xlink:href="#DejaVuSans-48"/>
      </g>
     </g>
    </g>
    <g id="ytick_12">
     <g id="line2d_34">
      <g>
       <use style="stroke:#000000;stroke-width:0.8;" x="180" xlink:href="#m7eeb9a70b3" y="475.552003"/>
      </g>
     </g>
     <g id="text_31">
      <!-- 0.575 -->
      <g transform="translate(144.371875 479.351222)scale(0.1 -0.1)">
       <use xlink:href="#DejaVuSans-48"/>
       <use x="63.623047" xlink:href="#DejaVuSans-46"/>
       <use x="95.410156" xlink:href="#DejaVuSans-53"/>
       <use x="159.033203" xlink:href="#DejaVuSans-55"/>
       <use x="222.65625" xlink:href="#DejaVuSans-53"/>
      </g>
     </g>
    </g>
    <g id="ytick_13">
     <g id="line2d_35">
      <g>
       <use style="stroke:#000000;stroke-width:0.8;" x="180" xlink:href="#m7eeb9a70b3" y="442.867169"/>
      </g>
     </g>
     <g id="text_32">
      <!-- 0.600 -->
      <g transform="translate(144.371875 446.666387)scale(0.1 -0.1)">
       <use xlink:href="#DejaVuSans-48"/>
       <use x="63.623047" xlink:href="#DejaVuSans-46"/>
       <use x="95.410156" xlink:href="#DejaVuSans-54"/>
       <use x="159.033203" xlink:href="#DejaVuSans-48"/>
       <use x="222.65625" xlink:href="#DejaVuSans-48"/>
      </g>
     </g>
    </g>
    <g id="ytick_14">
     <g id="line2d_36">
      <g>
       <use style="stroke:#000000;stroke-width:0.8;" x="180" xlink:href="#m7eeb9a70b3" y="410.182334"/>
      </g>
     </g>
     <g id="text_33">
      <!-- 0.625 -->
      <g transform="translate(144.371875 413.981553)scale(0.1 -0.1)">
       <use xlink:href="#DejaVuSans-48"/>
       <use x="63.623047" xlink:href="#DejaVuSans-46"/>
       <use x="95.410156" xlink:href="#DejaVuSans-54"/>
       <use x="159.033203" xlink:href="#DejaVuSans-50"/>
       <use x="222.65625" xlink:href="#DejaVuSans-53"/>
      </g>
     </g>
    </g>
   </g>
   <g id="line2d_37">
    <path clip-path="url(#p5a24c9df95)" d="M 230.727273 613.138587 
L 232.11516 599.898024 
L 233.503047 573.488237 
L 234.890934 606.451662 
L 236.278821 540.293904 
L 237.666708 614.417025 
L 239.054595 573.942542 
L 240.442482 569.504616 
L 241.830369 618.256093 
L 243.218256 573.606506 
L 244.606144 597.761663 
L 245.994031 576.903037 
L 247.381918 541.234429 
L 248.769805 568.663588 
L 250.157692 567.392659 
L 251.545579 571.603432 
L 252.933466 578.808491 
L 254.321353 573.593365 
L 255.70924 573.593365 
L 257.097127 605.8697 
L 258.485014 573.829904 
L 259.872901 573.606506 
L 261.260788 573.743549 
L 262.648676 573.533292 
L 264.036563 596.269213 
L 265.42445 561.803952 
L 266.812337 572.172253 
L 268.200224 610.561061 
L 269.588111 563.24196 
L 270.975998 573.644052 
L 272.363885 573.606506 
L 273.751772 570.405718 
L 275.139659 566.176172 
L 276.527546 569.452052 
L 277.915433 571.23736 
L 279.30332 573.606506 
L 280.691208 573.471341 
L 282.079095 574.33302 
L 283.466982 561.443511 
L 284.854869 568.207406 
L 286.242756 573.606506 
L 294.570078 573.606506 
L 295.957965 575.990671 
L 297.345853 552.860518 
L 298.73374 573.510764 
L 300.121627 613.880119 
L 301.509514 573.606506 
L 302.897401 573.606506 
L 304.285288 560.887832 
L 305.673175 573.552065 
L 307.061062 573.606506 
L 308.448949 581.615047 
L 309.836836 576.816681 
L 311.224723 573.604629 
L 312.61261 573.606506 
L 314.000497 576.200928 
L 315.388385 573.606506 
L 319.552046 573.606506 
L 320.939933 604.720796 
L 322.32782 573.598997 
L 326.491481 573.606506 
L 327.879368 574.990073 
L 329.267255 573.606506 
L 330.655142 573.34744 
L 332.043029 572.515798 
L 333.430917 573.606506 
L 334.818804 563.707529 
L 336.206691 573.606506 
L 341.758239 573.606506 
L 343.146126 568.261847 
L 344.534013 573.606506 
L 345.9219 573.606506 
L 347.309787 580.571271 
L 348.697674 573.933156 
L 350.085561 573.606506 
L 351.473449 573.606506 
L 352.861336 580.109457 
L 354.249223 573.606506 
L 355.63711 573.067723 
L 357.024997 585.328337 
L 358.412884 573.636543 
L 363.964432 573.606506 
L 368.128094 573.606506 
L 369.515981 532.264713 
L 370.903868 573.606506 
L 372.291755 572.996385 
L 373.679642 573.606506 
L 384.782738 573.702248 
L 386.170626 574.806098 
L 387.558513 573.606506 
L 391.722174 573.606506 
L 393.110061 581.79339 
L 394.497948 573.606506 
L 402.82527 573.606506 
L 404.213158 573.828027 
L 405.601045 572.600276 
L 406.988932 573.606506 
L 411.152593 573.606506 
L 412.54048 577.188385 
L 413.928367 573.606506 
L 416.704141 573.606506 
L 434.746673 573.606506 
L 436.13456 610.579834 
L 437.522447 573.606506 
L 438.910335 561.997313 
L 440.298222 573.606506 
L 445.84977 573.57647 
L 447.237657 574.378075 
L 448.625544 573.606506 
L 450.013431 573.602752 
L 451.401318 574.479449 
L 452.789205 574.584577 
L 454.177092 575.418096 
L 455.564979 573.606506 
L 456.952867 573.606506 
L 458.340754 574.340529 
L 459.728641 578.372959 
L 461.116528 573.606506 
L 468.055963 573.604629 
L 469.44385 565.353917 
L 470.831737 573.679721 
L 473.607512 573.606506 
L 474.995399 562.239484 
L 476.383286 573.606506 
L 481.934834 573.606506 
L 483.322721 586.563597 
L 484.710608 573.606506 
L 486.098495 573.606506 
L 487.486382 573.972579 
L 488.874269 540.669363 
L 490.262156 573.606506 
L 499.977366 573.606506 
L 501.365253 574.09648 
L 502.75314 573.606506 
L 504.141027 573.818641 
L 505.528914 573.606506 
L 506.916801 575.652758 
L 508.304688 567.133593 
L 509.692576 573.606506 
L 511.080463 573.606506 
L 512.46835 575.752255 
L 513.856237 573.606506 
L 520.795672 573.606506 
L 522.183559 574.162186 
L 523.571446 580.81532 
L 524.959333 573.606506 
L 526.34722 573.471341 
L 527.735108 573.606506 
L 541.613978 573.606506 
L 543.001865 566.194945 
L 544.389753 573.606506 
L 547.165527 573.606506 
L 548.553414 574.616491 
L 549.941301 573.606506 
L 551.329188 573.606506 
L 552.717075 587.183105 
L 554.104962 573.606506 
L 565.208059 573.606506 
L 566.595946 562.288294 
L 567.983833 573.606506 
L 574.923268 573.606506 
L 576.311155 569.208004 
L 577.699042 573.606506 
L 579.086929 574.036407 
L 580.474817 568.537809 
L 581.862704 573.606506 
L 583.250591 571.425089 
L 584.638478 573.606506 
L 586.026365 573.574592 
L 587.414252 573.182238 
L 588.802139 573.236679 
L 590.190026 573.606506 
L 592.9658 573.606506 
L 594.353687 574.577068 
L 595.741574 573.555819 
L 597.129462 573.606506 
L 598.517349 575.089569 
L 599.905236 573.555819 
L 601.293123 570.544638 
L 602.68101 573.480728 
L 604.068897 573.606506 
L 617.947768 573.606506 
L 619.335655 568.413908 
L 620.723542 567.133593 
L 622.111429 573.606506 
L 629.050864 573.64593 
L 630.438751 573.491991 
L 631.826638 568.265602 
L 633.214526 573.606506 
L 638.766074 573.606506 
L 640.153961 579.381066 
L 641.541848 573.606506 
L 647.093396 573.606506 
L 648.481283 573.473218 
L 649.869171 573.606506 
L 658.196493 573.606506 
L 659.58438 598.567022 
L 660.972267 562.905924 
L 662.360154 573.606506 
L 665.135928 573.606506 
L 666.523815 565.006617 
L 667.911703 573.606506 
L 669.29959 572.230449 
L 670.687477 573.606506 
L 672.075364 581.757722 
L 673.463251 573.606506 
L 674.851138 587.708747 
L 676.239025 578.269707 
L 677.626912 573.606506 
L 679.014799 573.606506 
L 680.402686 574.017634 
L 681.790573 558.875372 
L 683.17846 573.454445 
L 684.566347 574.02702 
L 685.954235 573.606506 
L 692.89367 573.604629 
L 694.281557 566.328233 
L 695.669444 573.606506 
L 706.772541 573.606506 
L 708.160428 574.227891 
L 709.548315 572.846202 
L 710.936202 553.427461 
L 712.324089 569.81437 
L 713.711976 569.589095 
L 715.099863 574.710356 
L 716.48775 573.615893 
L 723.427186 573.606506 
L 724.815073 571.922573 
L 726.20296 573.606506 
L 728.978734 573.63842 
L 730.366621 573.420654 
L 731.754508 567.075397 
L 733.142395 573.606506 
L 740.081831 573.606506 
L 741.469718 573.407513 
L 742.857605 573.606506 
L 748.409153 573.606506 
L 749.79704 577.56009 
L 751.184927 573.612138 
L 752.572814 591.23243 
L 753.960701 540.132457 
L 755.348588 569.029661 
L 756.736476 573.606506 
L 758.124363 573.606506 
L 759.51225 569.324396 
L 760.900137 573.407513 
L 762.288024 575.003214 
L 763.675911 573.606506 
L 765.063798 573.606506 
L 766.451685 587.791348 
L 767.839572 573.585856 
L 776.166895 573.606506 
L 777.554782 586.178752 
L 778.942669 563.256978 
L 780.330556 573.608384 
L 781.718443 572.414424 
L 783.10633 573.760445 
L 784.494217 570.343767 
L 785.882104 573.403758 
L 787.269991 618.768595 
L 788.657878 573.306139 
L 790.045765 573.606506 
L 791.433653 573.732285 
L 792.82154 573.732285 
L 794.209427 573.606506 
L 795.597314 575.382428 
L 796.985201 573.606506 
L 799.760975 560.912237 
L 801.148862 560.912237 
L 802.536749 573.606506 
L 803.924636 573.664702 
L 806.70041 573.606506 
L 808.088297 573.606506 
L 809.476185 573.240434 
L 810.864072 573.606506 
L 812.251959 573.606506 
L 813.639846 577.201526 
L 815.027733 560.377208 
L 816.41562 573.690985 
L 817.803507 573.606506 
L 819.191394 576.841086 
L 820.579281 573.550187 
L 823.355055 573.606506 
L 826.130829 573.606506 
L 827.518717 573.033931 
L 828.906604 572.664104 
L 830.294491 572.664104 
L 831.682378 592.199237 
L 833.070265 578.125156 
L 834.458152 573.606506 
L 835.846039 573.606506 
L 837.233926 577.411784 
L 838.621813 577.411784 
L 840.0097 573.677844 
L 841.397587 573.647807 
L 842.785474 567.126084 
L 844.173362 572.170376 
L 845.561249 582.994859 
L 846.949136 573.606506 
L 848.337023 570.982048 
L 849.72491 573.59712 
L 852.500684 573.544556 
L 853.888571 576.122082 
L 855.276458 573.606506 
L 856.664345 573.465709 
L 858.052232 573.865573 
L 859.440119 573.606506 
L 860.828006 566.985286 
L 862.215894 573.606506 
L 863.603781 573.34744 
L 864.991668 573.606506 
L 866.379555 573.606506 
L 867.767442 562.472269 
L 869.155329 582.086248 
L 870.543216 581.170128 
L 871.931103 573.606506 
L 874.706877 573.606506 
L 876.094764 573.946297 
L 877.482651 573.606506 
L 878.870538 540.494775 
L 880.258426 573.775463 
L 881.646313 573.606506 
L 884.422087 573.844923 
L 885.809974 574.665301 
L 887.197861 573.839291 
L 888.585748 570.668539 
L 889.973635 564.460324 
L 891.361522 573.606506 
L 892.749409 573.606506 
L 894.137296 575.690304 
L 895.525183 567.417064 
L 896.913071 571.072158 
L 898.300958 573.606506 
L 899.688845 573.606506 
L 901.076732 455.273086 
L 902.464619 573.606506 
L 905.240393 573.606506 
L 906.62828 576.488154 
L 908.016167 573.681598 
L 909.404054 574.409989 
L 910.791941 573.606506 
L 912.179828 573.606506 
L 913.567715 575.885543 
L 914.955603 573.606506 
L 919.119264 573.690985 
L 920.507151 545.454589 
L 921.895038 573.172851 
L 923.282925 574.032652 
L 924.670812 573.570838 
L 930.22236 573.606506 
L 931.610247 592.156059 
L 932.998135 574.042039 
L 934.386022 573.61777 
L 935.773909 563.47099 
L 937.161796 573.681598 
L 938.549683 574.477571 
L 939.93757 522.74495 
L 941.325457 572.232326 
L 942.713344 574.708479 
L 944.101231 559.568093 
L 945.489118 576.835454 
L 946.877005 574.087094 
L 948.264892 573.535169 
L 949.65278 570.118492 
L 951.040667 565.457168 
L 952.428554 573.606506 
L 953.816441 563.048599 
L 955.204328 568.618533 
L 956.592215 570.642257 
L 957.980102 566.403325 
L 959.367989 566.940231 
L 960.755876 573.606506 
L 963.53165 573.606506 
L 964.919537 574.09648 
L 966.307424 552.794813 
L 967.695312 576.191542 
L 969.083199 573.606506 
L 970.471086 575.861138 
L 971.858973 566.88579 
L 973.24686 573.52766 
L 974.634747 573.495746 
L 976.022634 561.437879 
L 977.410521 543.348264 
L 978.798408 573.912505 
L 980.186295 580.783406 
L 981.574182 573.170974 
L 982.962069 573.589611 
L 984.349956 583.201362 
L 985.737844 552.605206 
L 987.125731 566.221227 
L 988.513618 566.221227 
L 989.901505 579.260919 
L 992.677279 567.64234 
L 994.065166 581.307171 
L 995.453053 561.20134 
L 996.84094 556.662041 
L 998.228827 560.660679 
L 999.616714 588.033519 
L 1001.004601 575.763518 
L 1002.392488 564.678091 
L 1003.780376 573.606506 
L 1005.168263 558.972991 
L 1006.55615 535.302177 
L 1007.944037 561.161917 
L 1009.331924 590.811916 
L 1010.719811 566.262528 
L 1012.107698 577.436188 
L 1013.495585 592.567187 
L 1016.271359 573.606506 
L 1017.659246 563.140586 
L 1019.047133 571.907554 
L 1020.435021 573.719144 
L 1021.822908 562.524833 
L 1023.210795 573.595243 
L 1025.986569 573.606506 
L 1027.374456 567.405801 
L 1028.762343 573.606506 
L 1030.15023 573.623402 
L 1031.538117 569.365697 
L 1032.926004 573.606506 
L 1034.313891 573.606506 
L 1035.701778 552.719721 
L 1037.089665 568.605392 
L 1038.477553 573.644052 
L 1039.86544 573.467586 
L 1041.253327 573.606506 
L 1042.641214 589.935219 
L 1044.029101 573.606506 
L 1045.416988 592.454549 
L 1046.804875 551.705981 
L 1048.192762 573.604629 
L 1049.580649 574.787325 
L 1050.968536 573.606506 
L 1052.356423 609.99224 
L 1053.74431 573.719144 
L 1055.132197 573.606506 
L 1056.520085 551.972557 
L 1057.907972 559.725786 
L 1059.295859 422.377243 
L 1060.683746 587.864563 
L 1062.071633 566.221227 
L 1063.45952 573.636543 
L 1066.235294 573.606506 
L 1067.623181 573.120287 
L 1069.011068 573.606506 
L 1070.398955 541.502882 
L 1071.786842 556.915475 
L 1073.17473 576.300425 
L 1074.562617 546.089114 
L 1075.950504 555.879208 
L 1077.338391 573.942542 
L 1078.726278 573.606506 
L 1080.114165 573.591488 
L 1081.502052 535.561243 
L 1082.889939 573.606506 
L 1088.441487 573.653439 
L 1089.829374 578.570075 
L 1091.217262 574.346161 
L 1092.605149 576.110818 
L 1093.993036 573.606506 
L 1095.380923 533.760917 
L 1096.76881 573.606506 
L 1098.156697 559.237689 
L 1099.544584 566.221227 
L 1100.932471 533.650157 
L 1102.320358 572.81992 
L 1103.708245 573.606506 
L 1106.484019 573.604629 
L 1107.871906 571.034612 
L 1109.259794 552.618347 
L 1110.647681 574.025143 
L 1112.035568 585.670005 
L 1113.423455 566.932722 
L 1114.811342 573.606506 
L 1116.199229 559.423542 
L 1117.587116 558.246478 
L 1118.975003 549.128455 
L 1120.36289 564.751305 
L 1121.750777 571.804303 
L 1123.138664 570.039646 
L 1124.526551 565.027268 
L 1125.914439 569.281218 
L 1127.302326 586.563597 
L 1128.690213 574.441903 
L 1130.0781 597.085836 
L 1131.465987 533.922365 
L 1132.853874 538.33964 
L 1134.241761 574.646528 
L 1135.629648 555.877331 
L 1137.017535 573.606506 
L 1138.405422 569.438911 
L 1139.793309 573.606506 
L 1141.181196 555.913 
L 1142.569083 552.210974 
L 1143.956971 573.593365 
L 1145.344858 604.899139 
L 1146.732745 558.54309 
L 1148.120632 573.660948 
L 1149.508519 574.098358 
L 1150.896406 573.20852 
L 1152.284293 563.253224 
L 1153.67218 562.102442 
L 1155.060067 554.722795 
L 1156.447954 552.15841 
L 1157.835841 573.583979 
L 1159.223728 568.616656 
L 1160.611615 573.606506 
L 1163.38739 573.606506 
L 1164.775277 546.870069 
L 1166.163164 573.606506 
L 1167.551051 573.630911 
L 1168.938938 575.622721 
L 1170.326825 551.965048 
L 1171.714712 573.606506 
L 1173.102599 573.283612 
L 1174.490486 572.294277 
L 1175.878373 569.269955 
L 1177.26626 580.522462 
L 1178.654147 558.933568 
L 1180.042035 573.606506 
L 1181.429922 573.606506 
L 1182.817809 593.209222 
L 1184.205696 562.419705 
L 1185.593583 573.743549 
L 1186.98147 537.844034 
L 1188.369357 573.606506 
L 1189.757244 574.490712 
L 1191.145131 574.659669 
L 1192.533018 537.757679 
L 1193.920905 573.606506 
L 1195.308792 539.625587 
L 1196.69668 573.694739 
L 1198.084567 573.694739 
L 1199.472454 571.642856 
L 1200.860341 572.801147 
L 1202.248228 573.606506 
L 1203.636115 573.606506 
L 1205.024002 574.227891 
L 1206.411889 573.694739 
L 1207.799776 618.165983 
L 1209.187663 566.664269 
L 1210.57555 573.790481 
L 1211.963437 574.192222 
L 1213.351324 570.86941 
L 1214.739212 539.651869 
L 1216.127099 574.261682 
L 1217.514986 579.275938 
L 1218.902873 579.275938 
L 1220.29076 573.694739 
L 1223.066534 573.606506 
L 1224.454421 573.903119 
L 1225.842308 502.905695 
L 1227.230195 513.519921 
L 1228.618082 574.607105 
L 1230.005969 539.060521 
L 1231.393856 567.396414 
L 1232.781744 564.830152 
L 1234.169631 539.584287 
L 1235.557518 471.22634 
L 1236.945405 471.22634 
L 1238.333292 546.055323 
L 1239.721179 527.271108 
L 1241.109066 409.121662 
L 1242.496953 479.341886 
L 1243.88484 446.996091 
L 1245.272727 479.341886 
L 1245.272727 479.341886 
" style="fill:none;stroke:#1f77b4;stroke-linecap:square;stroke-width:1.5;"/>
   </g>
   <g id="line2d_38">
    <path clip-path="url(#p5a24c9df95)" d="M 230.727273 606.525207 
L 232.11516 603.985731 
L 233.503047 603.809188 
L 234.890934 597.770023 
L 236.278821 597.670783 
L 237.666708 595.231911 
L 239.054595 590.201507 
L 240.442482 588.870597 
L 241.830369 586.912415 
L 243.218256 586.311912 
L 244.606144 586.271663 
L 245.994031 585.961359 
L 247.381918 584.589888 
L 248.769805 584.430099 
L 250.157692 583.125138 
L 251.545579 583.081421 
L 252.933466 582.329506 
L 255.70924 582.287465 
L 257.097127 580.957918 
L 258.485014 580.594468 
L 259.872901 580.382195 
L 261.260788 579.630943 
L 262.648676 579.030323 
L 264.036563 578.996931 
L 265.42445 577.904009 
L 268.200224 577.853863 
L 269.588111 576.967992 
L 270.975998 576.773799 
L 272.363885 576.453481 
L 273.751772 576.2776 
L 275.139659 575.971621 
L 277.915433 575.670162 
L 282.079095 575.567532 
L 286.242756 575.154949 
L 287.630643 575.154949 
L 289.01853 575.00346 
L 291.794304 574.903129 
L 316.776272 574.127174 
L 405.601045 573.386831 
L 411.152593 573.299475 
L 436.13456 573.186014 
L 458.340754 573.082605 
L 645.705509 572.50509 
L 680.402686 572.394434 
L 765.063798 572.130574 
L 798.373088 571.977838 
L 827.518717 571.820504 
L 841.397587 571.726602 
L 870.543216 571.579087 
L 902.464619 571.399232 
L 934.386022 571.068121 
L 956.592215 570.825925 
L 971.858973 570.672176 
L 974.634747 570.590976 
L 995.453053 570.466138 
L 1007.944037 570.274282 
L 1023.210795 570.070504 
L 1037.089665 569.871245 
L 1052.356423 569.640426 
L 1055.132197 569.54029 
L 1081.502052 569.146449 
L 1084.277826 569.022233 
L 1095.380923 568.876588 
L 1096.76881 568.690499 
L 1099.544584 568.633847 
L 1100.932471 568.48337 
L 1118.975003 568.020485 
L 1124.526551 567.725533 
L 1150.896406 566.905042 
L 1159.223728 566.112294 
L 1161.999503 566.098501 
L 1163.38739 565.743545 
L 1164.775277 565.715023 
L 1168.938938 565.343781 
L 1173.102599 565.228215 
L 1177.26626 565.228215 
L 1178.654147 564.745693 
L 1181.429922 564.498432 
L 1184.205696 563.617704 
L 1186.98147 563.009642 
L 1188.369357 562.799629 
L 1189.757244 562.724975 
L 1191.145131 561.258394 
L 1192.533018 560.806653 
L 1193.920905 560.489336 
L 1195.308792 560.314546 
L 1199.472454 559.20183 
L 1200.860341 558.90415 
L 1202.248228 558.451084 
L 1205.024002 558.34339 
L 1206.411889 558.227824 
L 1207.799776 556.606481 
L 1209.187663 555.966703 
L 1210.57555 555.903348 
L 1211.963437 555.404617 
L 1214.739212 555.285935 
L 1216.127099 553.925334 
L 1218.902873 553.131963 
L 1220.29076 552.391035 
L 1223.066534 552.103642 
L 1224.454421 549.743163 
L 1225.842308 547.620206 
L 1227.230195 547.249976 
L 1230.005969 542.42039 
L 1231.393856 542.21365 
L 1232.781744 537.002223 
L 1234.169631 536.994041 
L 1235.557518 530.578879 
L 1236.945405 529.14908 
L 1238.333292 526.446036 
L 1239.721179 512.410109 
L 1241.109066 483.288271 
L 1242.496953 403.801772 
L 1243.88484 398.400438 
L 1245.272727 394.140496 
L 1245.272727 394.140496 
" style="fill:none;stroke:#ff7f0e;stroke-linecap:square;stroke-width:1.5;"/>
   </g>
   <g id="patch_9">
    <path d="M 180 630 
L 180 382.909091 
" style="fill:none;stroke:#000000;stroke-linecap:square;stroke-linejoin:miter;stroke-width:0.8;"/>
   </g>
   <g id="patch_10">
    <path d="M 1296 630 
L 1296 382.909091 
" style="fill:none;stroke:#000000;stroke-linecap:square;stroke-linejoin:miter;stroke-width:0.8;"/>
   </g>
   <g id="patch_11">
    <path d="M 180 630 
L 1296 630 
" style="fill:none;stroke:#000000;stroke-linecap:square;stroke-linejoin:miter;stroke-width:0.8;"/>
   </g>
   <g id="patch_12">
    <path d="M 180 382.909091 
L 1296 382.909091 
" style="fill:none;stroke:#000000;stroke-linecap:square;stroke-linejoin:miter;stroke-width:0.8;"/>
   </g>
   <g id="text_34">
    <!-- Test set results at minutes 2, 3, 4, and 5 sorted by predicted accuracy -->
    <defs>
     <path d="M 18.109375 8.203125 
L 18.109375 -20.796875 
L 9.078125 -20.796875 
L 9.078125 54.6875 
L 18.109375 54.6875 
L 18.109375 46.390625 
Q 20.953125 51.265625 25.265625 53.625 
Q 29.59375 56 35.59375 56 
Q 45.5625 56 51.78125 48.09375 
Q 58.015625 40.1875 58.015625 27.296875 
Q 58.015625 14.40625 51.78125 6.484375 
Q 45.5625 -1.421875 35.59375 -1.421875 
Q 29.59375 -1.421875 25.265625 0.953125 
Q 20.953125 3.328125 18.109375 8.203125 
z
M 48.6875 27.296875 
Q 48.6875 37.203125 44.609375 42.84375 
Q 40.53125 48.484375 33.40625 48.484375 
Q 26.265625 48.484375 22.1875 42.84375 
Q 18.109375 37.203125 18.109375 27.296875 
Q 18.109375 17.390625 22.1875 11.75 
Q 26.265625 6.109375 33.40625 6.109375 
Q 40.53125 6.109375 44.609375 11.75 
Q 48.6875 17.390625 48.6875 27.296875 
z
" id="DejaVuSans-112"/>
    </defs>
    <g transform="translate(527.5275 376.909091)scale(0.12 -0.12)">
     <use xlink:href="#DejaVuSans-84"/>
     <use x="44.083984" xlink:href="#DejaVuSans-101"/>
     <use x="105.607422" xlink:href="#DejaVuSans-115"/>
     <use x="157.707031" xlink:href="#DejaVuSans-116"/>
     <use x="196.916016" xlink:href="#DejaVuSans-32"/>
     <use x="228.703125" xlink:href="#DejaVuSans-115"/>
     <use x="280.802734" xlink:href="#DejaVuSans-101"/>
     <use x="342.326172" xlink:href="#DejaVuSans-116"/>
     <use x="381.535156" xlink:href="#DejaVuSans-32"/>
     <use x="413.322266" xlink:href="#DejaVuSans-114"/>
     <use x="452.185547" xlink:href="#DejaVuSans-101"/>
     <use x="513.708984" xlink:href="#DejaVuSans-115"/>
     <use x="565.808594" xlink:href="#DejaVuSans-117"/>
     <use x="629.1875" xlink:href="#DejaVuSans-108"/>
     <use x="656.970703" xlink:href="#DejaVuSans-116"/>
     <use x="696.179688" xlink:href="#DejaVuSans-115"/>
     <use x="748.279297" xlink:href="#DejaVuSans-32"/>
     <use x="780.066406" xlink:href="#DejaVuSans-97"/>
     <use x="841.345703" xlink:href="#DejaVuSans-116"/>
     <use x="880.554688" xlink:href="#DejaVuSans-32"/>
     <use x="912.341797" xlink:href="#DejaVuSans-109"/>
     <use x="1009.753906" xlink:href="#DejaVuSans-105"/>
     <use x="1037.537109" xlink:href="#DejaVuSans-110"/>
     <use x="1100.916016" xlink:href="#DejaVuSans-117"/>
     <use x="1164.294922" xlink:href="#DejaVuSans-116"/>
     <use x="1203.503906" xlink:href="#DejaVuSans-101"/>
     <use x="1265.027344" xlink:href="#DejaVuSans-115"/>
     <use x="1317.126953" xlink:href="#DejaVuSans-32"/>
     <use x="1348.914062" xlink:href="#DejaVuSans-50"/>
     <use x="1412.537109" xlink:href="#DejaVuSans-44"/>
     <use x="1444.324219" xlink:href="#DejaVuSans-32"/>
     <use x="1476.111328" xlink:href="#DejaVuSans-51"/>
     <use x="1539.734375" xlink:href="#DejaVuSans-44"/>
     <use x="1571.521484" xlink:href="#DejaVuSans-32"/>
     <use x="1603.308594" xlink:href="#DejaVuSans-52"/>
     <use x="1666.931641" xlink:href="#DejaVuSans-44"/>
     <use x="1698.71875" xlink:href="#DejaVuSans-32"/>
     <use x="1730.505859" xlink:href="#DejaVuSans-97"/>
     <use x="1791.785156" xlink:href="#DejaVuSans-110"/>
     <use x="1855.164062" xlink:href="#DejaVuSans-100"/>
     <use x="1918.640625" xlink:href="#DejaVuSans-32"/>
     <use x="1950.427734" xlink:href="#DejaVuSans-53"/>
     <use x="2014.050781" xlink:href="#DejaVuSans-32"/>
     <use x="2045.837891" xlink:href="#DejaVuSans-115"/>
     <use x="2097.9375" xlink:href="#DejaVuSans-111"/>
     <use x="2159.119141" xlink:href="#DejaVuSans-114"/>
     <use x="2200.232422" xlink:href="#DejaVuSans-116"/>
     <use x="2239.441406" xlink:href="#DejaVuSans-101"/>
     <use x="2300.964844" xlink:href="#DejaVuSans-100"/>
     <use x="2364.441406" xlink:href="#DejaVuSans-32"/>
     <use x="2396.228516" xlink:href="#DejaVuSans-98"/>
     <use x="2459.705078" xlink:href="#DejaVuSans-121"/>
     <use x="2518.884766" xlink:href="#DejaVuSans-32"/>
     <use x="2550.671875" xlink:href="#DejaVuSans-112"/>
     <use x="2614.148438" xlink:href="#DejaVuSans-114"/>
     <use x="2653.011719" xlink:href="#DejaVuSans-101"/>
     <use x="2714.535156" xlink:href="#DejaVuSans-100"/>
     <use x="2778.011719" xlink:href="#DejaVuSans-105"/>
     <use x="2805.794922" xlink:href="#DejaVuSans-99"/>
     <use x="2860.775391" xlink:href="#DejaVuSans-116"/>
     <use x="2899.984375" xlink:href="#DejaVuSans-101"/>
     <use x="2961.507812" xlink:href="#DejaVuSans-100"/>
     <use x="3024.984375" xlink:href="#DejaVuSans-32"/>
     <use x="3056.771484" xlink:href="#DejaVuSans-97"/>
     <use x="3118.050781" xlink:href="#DejaVuSans-99"/>
     <use x="3173.03125" xlink:href="#DejaVuSans-99"/>
     <use x="3228.011719" xlink:href="#DejaVuSans-117"/>
     <use x="3291.390625" xlink:href="#DejaVuSans-114"/>
     <use x="3332.503906" xlink:href="#DejaVuSans-97"/>
     <use x="3393.783203" xlink:href="#DejaVuSans-99"/>
     <use x="3448.763672" xlink:href="#DejaVuSans-121"/>
    </g>
   </g>
   <g id="legend_2">
    <g id="patch_13">
     <path d="M 187 420.265341 
L 314.2375 420.265341 
Q 316.2375 420.265341 316.2375 418.265341 
L 316.2375 389.909091 
Q 316.2375 387.909091 314.2375 387.909091 
L 187 387.909091 
Q 185 387.909091 185 389.909091 
L 185 418.265341 
Q 185 420.265341 187 420.265341 
z
" style="fill:#ffffff;opacity:0.8;stroke:#cccccc;stroke-linejoin:miter;"/>
    </g>
    <g id="line2d_39">
     <path d="M 189 396.007528 
L 209 396.007528 
" style="fill:none;stroke:#1f77b4;stroke-linecap:square;stroke-width:1.5;"/>
    </g>
    <g id="line2d_40"/>
    <g id="text_35">
     <!-- Actual accuracy -->
     <g transform="translate(217 399.507528)scale(0.1 -0.1)">
      <use xlink:href="#DejaVuSans-65"/>
      <use x="66.658203" xlink:href="#DejaVuSans-99"/>
      <use x="121.638672" xlink:href="#DejaVuSans-116"/>
      <use x="160.847656" xlink:href="#DejaVuSans-117"/>
      <use x="224.226562" xlink:href="#DejaVuSans-97"/>
      <use x="285.505859" xlink:href="#DejaVuSans-108"/>
      <use x="313.289062" xlink:href="#DejaVuSans-32"/>
      <use x="345.076172" xlink:href="#DejaVuSans-97"/>
      <use x="406.355469" xlink:href="#DejaVuSans-99"/>
      <use x="461.335938" xlink:href="#DejaVuSans-99"/>
      <use x="516.316406" xlink:href="#DejaVuSans-117"/>
      <use x="579.695312" xlink:href="#DejaVuSans-114"/>
      <use x="620.808594" xlink:href="#DejaVuSans-97"/>
      <use x="682.087891" xlink:href="#DejaVuSans-99"/>
      <use x="737.068359" xlink:href="#DejaVuSans-121"/>
     </g>
    </g>
    <g id="line2d_41">
     <path d="M 189 410.685653 
L 209 410.685653 
" style="fill:none;stroke:#ff7f0e;stroke-linecap:square;stroke-width:1.5;"/>
    </g>
    <g id="line2d_42"/>
    <g id="text_36">
     <!-- Predicted accuracy -->
     <g transform="translate(217 414.185653)scale(0.1 -0.1)">
      <use xlink:href="#DejaVuSans-80"/>
      <use x="58.552734" xlink:href="#DejaVuSans-114"/>
      <use x="97.416016" xlink:href="#DejaVuSans-101"/>
      <use x="158.939453" xlink:href="#DejaVuSans-100"/>
      <use x="222.416016" xlink:href="#DejaVuSans-105"/>
      <use x="250.199219" xlink:href="#DejaVuSans-99"/>
      <use x="305.179688" xlink:href="#DejaVuSans-116"/>
      <use x="344.388672" xlink:href="#DejaVuSans-101"/>
      <use x="405.912109" xlink:href="#DejaVuSans-100"/>
      <use x="469.388672" xlink:href="#DejaVuSans-32"/>
      <use x="501.175781" xlink:href="#DejaVuSans-97"/>
      <use x="562.455078" xlink:href="#DejaVuSans-99"/>
      <use x="617.435547" xlink:href="#DejaVuSans-99"/>
      <use x="672.416016" xlink:href="#DejaVuSans-117"/>
      <use x="735.794922" xlink:href="#DejaVuSans-114"/>
      <use x="776.908203" xlink:href="#DejaVuSans-97"/>
      <use x="838.1875" xlink:href="#DejaVuSans-99"/>
      <use x="893.167969" xlink:href="#DejaVuSans-121"/>
     </g>
    </g>
   </g>
  </g>
 </g>
 <defs>
  <clipPath id="p9c2daba784">
   <rect height="247.090909" width="1116" x="180" y="86.4"/>
  </clipPath>
  <clipPath id="p5a24c9df95">
   <rect height="247.090909" width="1116" x="180" y="382.909091"/>
  </clipPath>
 </defs>
</svg>
